<svg xmlns="http://www.w3.org/2000/svg" width="22.227" height="18.271" viewBox="0 0 22.227 18.271">
  <g id="グループ_1527" data-name="グループ 1527" transform="matrix(0.978, -0.208, 0.208, 0.978, -662.442, -243.631)">
    <path id="パス_1473" data-name="パス 1473" d="M598.424,391.273a1.436,1.436,0,0,1-1.321-2l4.6-10.845a1.435,1.435,0,1,1,2.643,1.121l-4.6,10.846A1.435,1.435,0,0,1,598.424,391.273Z" fill="#f03748"/>
    <path id="パス_1474" data-name="パス 1474" d="M608.093,402.247a1.436,1.436,0,0,1-.684-2.7l10.018-5.417a1.435,1.435,0,0,1,1.365,2.526l-10.018,5.417A1.436,1.436,0,0,1,608.093,402.247Z" transform="translate(-3.735 -6.338)" fill="#f03748"/>
  </g>
</svg>
