<svg xmlns="http://www.w3.org/2000/svg" width="24.769" height="20.362" viewBox="0 0 24.769 20.362">
  <g id="グループ_1608" data-name="グループ 1608" transform="matrix(0.978, -0.208, 0.208, 0.978, -662.442, -243.453)">
    <path id="パス_1473" data-name="パス 1473" d="M598.588,392.842a1.6,1.6,0,0,1-1.472-2.225l5.124-12.085a1.6,1.6,0,1,1,2.945,1.249l-5.124,12.086A1.6,1.6,0,0,1,598.588,392.842Z" fill="#f03748"/>
    <path id="パス_1474" data-name="パス 1474" d="M608.257,403.2a1.6,1.6,0,0,1-.762-3.007l11.163-6.036a1.6,1.6,0,0,1,1.521,2.815L609.016,403A1.6,1.6,0,0,1,608.257,403.2Z" transform="translate(-3.056 -5.187)" fill="#f03748"/>
  </g>
</svg>
