<svg xmlns="http://www.w3.org/2000/svg" xmlns:xlink="http://www.w3.org/1999/xlink" width="341.193" height="85.301" viewBox="0 0 341.193 85.301">
  <defs>
    <clipPath id="clip-path">
      <rect id="長方形_140" data-name="長方形 140" width="115.306" height="41.055" fill="none"/>
    </clipPath>
  </defs>
  <g id="グループ_1171" data-name="グループ 1171" transform="translate(-814.353 -6297.019)">
    <g id="グループ_253" data-name="グループ 253" transform="translate(814.353 6341.266)">
      <g id="グループ_252" data-name="グループ 252" transform="translate(0 0)" clip-path="url(#clip-path)">
        <path id="パス_702" data-name="パス 702" d="M0,8.483c9.416,1.564,19.26,1.057,28.892,1.15l30.044.292,4.206.041a5.245,5.245,0,0,0,2.373-.341c.842-.429.554-.888.47-1.461a10.814,10.814,0,0,1-.079-2.389Q66.13,2.888,66.354,0" transform="translate(7.878 29.828)" fill="#dcdfe2"/>
        <path id="パス_703" data-name="パス 703" d="M29.2,9.352a1.928,1.928,0,0,1-.746-.146C20.877,6.032,8.843,2.522,1.456,2.271.614,2.243-.037,1.711,0,1.084S.763-.009,1.595,0c8.812.3,22.067,4.59,28.351,7.225.734.307.995,1,.581,1.548a1.671,1.671,0,0,1-1.33.579" transform="translate(42.016 0.073)" fill="#0a1929"/>
        <path id="パス_704" data-name="パス 704" d="M36.694,14.778a1.875,1.875,0,0,1-.944-.244C27.833,9.876,11.911,4.619,1.092,2.227.284,2.049-.176,1.416.063.814a1.654,1.654,0,0,1,1.9-.767c11.1,2.453,27.476,7.874,35.681,12.7a.957.957,0,0,1,.252,1.6,1.759,1.759,0,0,1-1.2.432" transform="translate(77.086 10.724)" fill="#0a1929"/>
        <path id="パス_705" data-name="パス 705" d="M56.46,41.055c-16.686,0-35.494-.386-44.5-.6-3.049-.071-5.769-.276-8.255-.487a9.449,9.449,0,0,1-2.72-.683,1.581,1.581,0,0,1-.451-2.653c.857-.981,1.879-2.056,2.8-2.947,1.384-1.33,2.8-2.642,4.221-3.946,3.608-3.3,7.589-6.835,12.53-11.114C24.747,14.592,29,10.989,33.08,7.612l.877-.727c2.652-2.2,5.394-4.469,8.3-6.567a1.912,1.912,0,0,1,2.156.028.947.947,0,0,1-.037,1.607C41.546,4,38.841,6.238,36.224,8.406l-.879.728c-4.066,3.363-8.3,6.954-12.946,10.976-4.922,4.263-8.886,7.779-12.476,11.066-1.41,1.29-2.808,2.588-4.176,3.9-.788.759-1.651,1.66-2.409,2.511.268.056.56.108.711.12,2.42.206,5.065.405,8,.474,12.281.287,42.831.9,61.221.413.857-.016,1.548.469,1.579,1.1s-.629,1.154-1.47,1.177c-4.961.131-10.8.184-16.924.184" transform="translate(0 0)" fill="#0a1929"/>
        <path id="パス_706" data-name="パス 706" d="M1.525,10.945C.685,10.945,0,10.439,0,9.812c-.006-1.1.056-2.3.12-3.577C.205,4.586.291,2.881.248,1.158.232.53.9.012,1.745,0,2.59.025,3.282.488,3.3,1.115c.045,1.787-.044,3.525-.13,5.206C3.105,7.561,3.045,8.738,3.05,9.8c0,.628-.677,1.139-1.52,1.141Z" transform="translate(72.185 29.744)" fill="#0a1929"/>
        <path id="パス_707" data-name="パス 707" d="M1.523,7.642A1.459,1.459,0,0,1,.018,6.676c-.127-.62.445-1.2,1.278-1.3C16.7,3.628,27.445,2.026,36.076.738,37.748.489,39.348.25,40.9.023a1.562,1.562,0,0,1,1.791.9c.163.616-.375,1.214-1.2,1.335-1.548.228-3.146.466-4.814.715C28.013,4.26,17.234,5.868,1.756,7.629a2.024,2.024,0,0,1-.233.013" transform="translate(72.363 23.893)" fill="#0a1929"/>
        <path id="パス_708" data-name="パス 708" d="M.99,15.045a.957.957,0,0,1-.975-.609c-.1-.4.264-.786.8-.858,2.464-.327,13-1.638,26.345-3.3C56.194,6.67,100.067,1.214,107.981.015a1.023,1.023,0,0,1,1.17.577c.108.4-.238.79-.775.871-7.948,1.2-51.841,6.662-80.886,10.275-13.337,1.659-23.87,2.969-26.323,3.3a1.349,1.349,0,0,1-.176.011" transform="translate(4.487 24.125)" fill="#0a1929"/>
        <path id="パス_709" data-name="パス 709" d="M.991,24.707a1.033,1.033,0,0,1-.923-.47c-.2-.38.051-.809.56-.958,3.975-1.162,19.105-6.467,33.737-11.6C49.022,6.544,64.176,1.23,68.21.051a1.125,1.125,0,0,1,1.285.418c.2.379-.051.808-.56.957C64.96,2.588,49.836,7.891,35.21,13.019,20.549,18.16,5.389,23.475,1.354,24.655a1.288,1.288,0,0,1-.362.052" transform="translate(10.004 10.877)" fill="#0a1929"/>
        <path id="パス_710" data-name="パス 710" d="M2.178,6.931A1.431,1.431,0,0,1,.663,5.913L.008,1.254C-.079.63.529.071,1.367.006A1.485,1.485,0,0,1,3.042,1.018L3.7,5.676c.088.625-.521,1.184-1.358,1.249-.054,0-.108.006-.16.006" transform="translate(70.116 7.321)" fill="#0a1929"/>
        <path id="パス_711" data-name="パス 711" d="M.992,13.707a1.091,1.091,0,0,1-.853-.363.644.644,0,0,1,.348-1.011C4.513,10.554,10.148,8.34,15.6,6.2,21.026,4.067,26.639,1.862,30.623.1a1.2,1.2,0,0,1,1.357.26.644.644,0,0,1-.348,1.012c-4.027,1.778-9.661,3.992-15.111,6.133C11.094,9.639,5.481,11.845,1.5,13.6a1.254,1.254,0,0,1-.5.1" transform="translate(39.862 8.05)" fill="#0a1929"/>
        <path id="パス_712" data-name="パス 712" d="M.992,1.943A1.11,1.11,0,0,1,.16,1.607.636.636,0,0,1,.451.584L1.407.12A1.214,1.214,0,0,1,2.779.335a.636.636,0,0,1-.289,1.023l-.959.466a1.238,1.238,0,0,1-.54.119" transform="translate(35.809 21.544)" fill="#0a1929"/>
      </g>
    </g>
    <path id="パス_794" data-name="パス 794" d="M0,23.337S28.1-1.207,69.346.046s44.853,30.538,102.12,31.01S245.1,2.709,245.1,2.709" transform="matrix(0.996, -0.087, 0.087, 0.996, 907.226, 6319.498)" fill="none" stroke="#0a1929" stroke-linecap="round" stroke-width="2" stroke-dasharray="6 8"/>
  </g>
</svg>
