<svg xmlns="http://www.w3.org/2000/svg" width="150" height="150" viewBox="0 0 150 150">
  <g id="グループ_1208" data-name="グループ 1208" transform="translate(-456 -4622)">
    <circle id="楕円形_121" data-name="楕円形 121" cx="75" cy="75" r="75" transform="translate(456 4622)" fill="#fff"/>
    <g id="グループ_1166" data-name="グループ 1166" transform="translate(475.505 4642)">
      <path id="パス_724" data-name="パス 724" d="M82.683,45.222A24.573,24.573,0,0,0,58.177,22H38.543A24.542,24.542,0,0,0,26.076,67.682V77.63a2.454,2.454,0,0,0,3.907,1.977l11.6-8.522h6.588A19.76,19.76,0,0,0,66.358,83.357h7.336l8.286,6.8a2.454,2.454,0,0,0,4.012-1.9V80.706a19.6,19.6,0,0,0-3.309-35.485ZM49.9,66.177H40.78a2.451,2.451,0,0,0-1.453.477l-8.342,6.128V66.229a2.454,2.454,0,0,0-1.34-2.186,19.633,19.633,0,0,1,8.9-37.135H58.177A19.656,19.656,0,0,1,77.811,46.543c0,.15-.008.3-.011.447v0A19.75,19.75,0,0,1,59.165,66.152q-.491.025-.987.025ZM82.484,77.011a2.456,2.456,0,0,0-1.4,2.216v3.847L76.13,79.006a2.455,2.455,0,0,0-1.558-.558H66.358a14.828,14.828,0,0,1-12.742-7.363h4.561q.6,0,1.185-.03c.2-.009.394-.027.591-.041s.367-.025.548-.042c.279-.026.555-.061.831-.1.086-.011.173-.021.258-.034A24.592,24.592,0,0,0,82.415,50.4a14.7,14.7,0,0,1,.069,26.616Z" fill="#13202f"/>
      <path id="パス_725" data-name="パス 725" d="M39.454,45.909H67.27a2.454,2.454,0,0,0,0-4.909H39.454a2.454,2.454,0,1,0,0,4.909Z" transform="translate(-4.184 -3.456)" fill="#e6727c"/>
      <path id="パス_726" data-name="パス 726" d="M56.634,55H39.454a2.454,2.454,0,0,0,0,4.909h17.18a2.454,2.454,0,0,0,0-4.909Z" transform="translate(-4.184 -6.003)" fill="#e6727c"/>
    </g>
  </g>
</svg>
