<svg xmlns="http://www.w3.org/2000/svg" width="150" height="150" viewBox="0 0 150 150">
  <g id="グループ_1214" data-name="グループ 1214" transform="translate(-456 -4622)">
    <circle id="楕円形_121" data-name="楕円形 121" cx="75" cy="75" r="75" transform="translate(456 4622)" fill="#fff"/>
    <g id="グループ_1291" data-name="グループ 1291" transform="translate(462 4896)">
      <path id="パス_1480" data-name="パス 1480" d="M1120.3,5093.023h48.5l3.519-4.1s.9-30.815-26.056-30.665-25.968,21.822-25.968,21.822Z" transform="translate(-1087 -5259)" fill="#f5e176"/>
      <circle id="楕円形_214" data-name="楕円形 214" cx="14" cy="14" r="14" transform="translate(44 -231)" fill="#f5e176"/>
      <path id="パス_727" data-name="パス 727" d="M118.7-209.484l-3.238-5.608-3.25,1.211-2.943-1.7L108.7-219h-6.474l-.577,3.419-2.943,1.7-3.25-1.211-3.238,5.608,2.673,2.208v3.4l-2.673,2.208,3.238,5.608,3.25-1.211,2.943,1.7.577,3.419H108.7l.577-3.419,2.943-1.7,3.25,1.211,3.238-5.608-2.673-2.208v-3.4Zm-9.156,4.868a4.163,4.163,0,0,1-3.128,3.129,4.205,4.205,0,0,1-5.049-5.049,4.163,4.163,0,0,1,3.129-3.128A4.2,4.2,0,0,1,109.548-204.616Z" transform="translate(-10.015 -2.415)" fill="#13202f"/>
      <path id="パス_728" data-name="パス 728" d="M35.873-163.521H81.181a5.88,5.88,0,0,0,5.873-5.873v-5.873A28.571,28.571,0,0,0,68.607-201.95a17.6,17.6,0,0,0,7.54-14.43A17.639,17.639,0,0,0,58.527-234a17.639,17.639,0,0,0-17.62,17.62,17.6,17.6,0,0,0,7.54,14.43A28.571,28.571,0,0,0,30-175.268v5.873A5.88,5.88,0,0,0,35.873-163.521ZM45.942-216.38a12.6,12.6,0,0,1,12.585-12.585A12.6,12.6,0,0,1,71.113-216.38a12.6,12.6,0,0,1-12.585,12.585A12.6,12.6,0,0,1,45.942-216.38ZM35.034-175.268a23.52,23.52,0,0,1,23.493-23.493A23.52,23.52,0,0,1,82.02-175.268v5.873a.84.84,0,0,1-.839.839H35.873a.84.84,0,0,1-.839-.839Z" fill="#13202f"/>
    </g>
  </g>
</svg>
