<svg xmlns="http://www.w3.org/2000/svg" width="93.6" height="93.598" viewBox="0 0 93.6 93.598">
  <g id="グループ_2149" data-name="グループ 2149" transform="translate(0 0)">
    <path id="パス_722" data-name="パス 722" d="M301.411,319.464a46.819,46.819,0,0,0-79.911,31.3v44.411a4.18,4.18,0,0,0,4.18,4.179h40.551c14.257.049,25.525-3.99,35.179-13.661A46.9,46.9,0,0,0,301.411,319.464Z" transform="translate(-221.5 -305.76)" fill="#f03748" opacity="0.955"/>
    <path id="パス_1862" data-name="パス 1862" d="M20.206-11.077a15.748,15.748,0,0,1-1.141,6.4,8.129,8.129,0,0,1-3.21,3.8A9.276,9.276,0,0,1,10.984.371,9.412,9.412,0,0,1,6.077-.872a8.143,8.143,0,0,1-3.238-3.8,15.636,15.636,0,0,1-1.15-6.4v-4.861a15.689,15.689,0,0,1,1.15-6.42,8.125,8.125,0,0,1,3.219-3.794,9.367,9.367,0,0,1,4.889-1.234,9.38,9.38,0,0,1,4.88,1.234,8.107,8.107,0,0,1,3.229,3.794,15.689,15.689,0,0,1,1.15,6.42Zm-5.771-5.659a8.922,8.922,0,0,0-.881-4.592,2.894,2.894,0,0,0-2.607-1.382,2.872,2.872,0,0,0-2.6,1.382,9,9,0,0,0-.872,4.592v6.4A9.073,9.073,0,0,0,8.359-5.7,2.906,2.906,0,0,0,10.984-4.3,2.851,2.851,0,0,0,13.563-5.7a9.155,9.155,0,0,0,.872-4.639ZM31.3,0V-20.187l-6.29,1.855v-4.62l11.5-4.082h.575V0Z" transform="translate(25.207 73.552)" fill="#fff" opacity="0.999"/>
    <path id="パス_1861" data-name="パス 1861" d="M-16.192-4.048A7.992,7.992,0,0,1-17.328.192L-16.1,1.424a7.782,7.782,0,0,0,1.2-3.776h3.808V-.464c0,.32-.208.32-.464.32h-1.664l.288,1.568h2.144c.24,0,1.088-.08,1.088-1.232V-10.032h-1.888a5.49,5.49,0,0,0,1.008-1.3v-1.28h-2.96c.16-.336.224-.5.352-.784l-1.568-.256a9.013,9.013,0,0,1-2.64,3.7l.592,1.568a6.441,6.441,0,0,0,.608-.5Zm2.608-4.7v1.9h-1.2v-1.9Zm0,3.184v1.92h-1.2v-1.92Zm2.5-3.184v1.9H-12.32v-1.9Zm0,3.184v1.92H-12.32v-1.92ZM-15.1-10.032a8.569,8.569,0,0,0,.88-1.3h1.952a5.4,5.4,0,0,1-1.136,1.3ZM-9.52-13.04v1.424H-7.6A3.423,3.423,0,0,1-9.52-9.68l.736,1.408a5.364,5.364,0,0,0,2.832-3.344H-3.92C-4-9.872-4.208-9.872-4.656-9.872h-1.68l.384,1.408H-3.92c1.264,0,1.5-.832,1.536-4.576Zm3.488,7.792v1.872H-9.264v1.52h3.312v3.28H-4.5v-3.28H-2v-1.52H-4.5V-5.248h2.112V-6.64H-4.5V-8H-6.032v1.36H-7.248c.112-.48.176-.8.256-1.248l-1.472-.288A8.118,8.118,0,0,1-9.552-4.768l1.264.944a5.484,5.484,0,0,0,.656-1.424ZM6.752-11.392v1.52h3.36v1.7c0,1.056,0,1.168-.032,1.568H6.208v1.552h3.6A7.586,7.586,0,0,1,5.3-.1l1.04,1.472a9.274,9.274,0,0,0,4.8-5.312,9.346,9.346,0,0,0,5.28,5.36l.848-1.6c-2.432-.96-4.432-2.688-5.024-4.88h4.8V-6.608H16.016v-4.784H11.792V-13.6h-1.68v2.208Zm4.976,4.784a16.159,16.159,0,0,0,.064-1.632V-9.872H14.3v3.264ZM2.576-12.24a14.067,14.067,0,0,1,2.592,1.68l1.04-1.472A19.532,19.532,0,0,0,3.488-13.6Zm-.8,4.432a11.675,11.675,0,0,1,2.608,1.6L5.408-7.7A13.2,13.2,0,0,0,2.624-9.248ZM4.784-5.184A20.6,20.6,0,0,1,1.7-.176l1.12,1.52A20.018,20.018,0,0,0,6.064-4.24Z" transform="translate(46.465 38.681)" fill="#fff" opacity="0.999"/>
  </g>
</svg>
