<svg xmlns="http://www.w3.org/2000/svg" xmlns:xlink="http://www.w3.org/1999/xlink" width="300" height="230" viewBox="0 0 300 230">
  <defs>
    <clipPath id="clip-path">
      <rect id="長方形_140" data-name="長方形 140" width="70.419" height="25.073" fill="none"/>
    </clipPath>
  </defs>
  <g id="グループ_2023" data-name="グループ 2023" transform="translate(-38 -4349.002)">
    <rect id="画像_12" data-name="画像 12" width="300" height="230" rx="8" transform="translate(38 4349.002)" fill="#fff"/>
    <g id="グループ_1769" data-name="グループ 1769" transform="translate(104 4435.894)">
      <g id="グループ_1355" data-name="グループ 1355" transform="translate(0 0)">
        <path id="パス_1190" data-name="パス 1190" d="M228.27,196.152H52.649a2.39,2.39,0,0,1-2.391-2.391v-4.77a2.391,2.391,0,0,1,1.2-2.076L72.7,174.78V95.321A2.391,2.391,0,0,1,75.09,92.93H205.83a2.391,2.391,0,0,1,2.391,2.391V174.78l21.236,12.135a2.391,2.391,0,0,1,1.2,2.076v4.77A2.39,2.39,0,0,1,228.27,196.152ZM55.04,191.37H225.879v-.992l-21.235-12.135a2.392,2.392,0,0,1-1.205-2.075V97.712H77.481v78.455a2.392,2.392,0,0,1-1.206,2.075L55.04,190.378Z" transform="translate(-50.258 -92.93)" fill="#13202f"/>
        <g id="グループ_1354" data-name="グループ 1354" transform="translate(54.844 89.276)">
          <path id="パス_1191" data-name="パス 1191" d="M217.4,195.235h-5.957a1.793,1.793,0,0,1,0-3.587H217.4a1.793,1.793,0,1,1,0,3.587Z" transform="translate(-120.349 -191.648)" fill="#13202f"/>
          <path id="パス_1192" data-name="パス 1192" d="M202.627,195.235h-5.958a1.793,1.793,0,0,1,0-3.587h5.958a1.793,1.793,0,1,1,0,3.587Z" transform="translate(-118.935 -191.648)" fill="#13202f"/>
          <path id="パス_1193" data-name="パス 1193" d="M187.851,195.235h-5.958a1.793,1.793,0,0,1,0-3.587h5.958a1.793,1.793,0,0,1,0,3.587Z" transform="translate(-117.522 -191.648)" fill="#13202f"/>
          <path id="パス_1194" data-name="パス 1194" d="M173.072,195.235h-5.956a1.793,1.793,0,1,1,0-3.587h5.956a1.793,1.793,0,1,1,0,3.587Z" transform="translate(-116.108 -191.648)" fill="#13202f"/>
          <path id="パス_1195" data-name="パス 1195" d="M158.3,195.235h-5.958a1.793,1.793,0,1,1,0-3.587H158.3a1.793,1.793,0,1,1,0,3.587Z" transform="translate(-114.695 -191.648)" fill="#13202f"/>
          <path id="パス_1196" data-name="パス 1196" d="M143.519,195.235h-5.958a1.793,1.793,0,1,1,0-3.587h5.958a1.793,1.793,0,1,1,0,3.587Z" transform="translate(-113.281 -191.648)" fill="#13202f"/>
          <path id="パス_1197" data-name="パス 1197" d="M128.741,195.235h-5.957a1.793,1.793,0,1,1,0-3.587h5.957a1.793,1.793,0,1,1,0,3.587Z" transform="translate(-111.868 -191.648)" fill="#13202f"/>
          <path id="パス_1198" data-name="パス 1198" d="M114.612,195.235H112.7a1.793,1.793,0,1,1,0-3.587h1.915a1.793,1.793,0,1,1,0,3.587Z" transform="translate(-110.903 -191.648)" fill="#13202f"/>
        </g>
      </g>
      <g id="グループ_1364" data-name="グループ 1364" transform="translate(31.677 9.618)">
        <g id="グループ_1356" data-name="グループ 1356" transform="translate(1.396 5.33)">
          <rect id="長方形_343" data-name="長方形 343" width="21.518" height="66.142" transform="translate(92.9)" fill="#dcdfe2"/>
          <rect id="長方形_344" data-name="長方形 344" width="23.694" height="66.142" fill="#dcdfe2"/>
        </g>
        <path id="パス_1199" data-name="パス 1199" d="M184.445,176.255H86.7a1.416,1.416,0,0,1-1.415-1.416V104.981a1.416,1.416,0,0,1,1.415-1.416H200.92a1.416,1.416,0,0,1,1.415,1.416v69.857a1.416,1.416,0,0,1-1.415,1.416h-3.747a1.415,1.415,0,1,1,0-2.831h2.33V106.4H88.117v67.029h96.4a1.415,1.415,0,1,1,0,2.831Z" transform="translate(-85.285 -103.565)" fill="#13202f"/>
        <path id="パス_1200" data-name="パス 1200" d="M202.652,183.874h-1.8a1.415,1.415,0,1,1,0-2.831h1.8a1.415,1.415,0,1,1,0,2.831Z" transform="translate(-96.203 -110.976)" fill="#13202f"/>
        <g id="グループ_1357" data-name="グループ 1357" transform="translate(32.757 14.883)">
          <circle id="楕円形_155" data-name="楕円形 155" cx="3.351" cy="3.351" r="3.351" fill="#646e73"/>
          <path id="パス_1201" data-name="パス 1201" d="M172.24,125.224H136.57a1.415,1.415,0,1,1,0-2.831h35.67a1.415,1.415,0,1,1,0,2.831Z" transform="translate(-122.812 -120.249)" fill="#13202f"/>
        </g>
        <g id="グループ_1358" data-name="グループ 1358" transform="translate(32.757 29.001)">
          <circle id="楕円形_156" data-name="楕円形 156" cx="3.351" cy="3.351" r="3.351" fill="#646e73"/>
          <path id="パス_1202" data-name="パス 1202" d="M172.24,140.836H136.57a1.415,1.415,0,1,1,0-2.831h35.67a1.415,1.415,0,1,1,0,2.831Z" transform="translate(-122.812 -135.86)" fill="#13202f"/>
        </g>
        <g id="グループ_1359" data-name="グループ 1359" transform="translate(32.757 43.119)">
          <circle id="楕円形_157" data-name="楕円形 157" cx="3.351" cy="3.351" r="3.351" fill="#646e73"/>
          <path id="パス_1203" data-name="パス 1203" d="M172.24,156.445H136.57a1.415,1.415,0,1,1,0-2.83h35.67a1.415,1.415,0,1,1,0,2.83Z" transform="translate(-122.812 -151.471)" fill="#13202f"/>
        </g>
        <g id="グループ_1360" data-name="グループ 1360" transform="translate(32.757 57.236)">
          <circle id="楕円形_158" data-name="楕円形 158" cx="3.351" cy="3.351" r="3.351" fill="#646e73"/>
          <path id="パス_1204" data-name="パス 1204" d="M172.24,172.057H136.57a1.415,1.415,0,1,1,0-2.83h35.67a1.415,1.415,0,1,1,0,2.83Z" transform="translate(-122.812 -167.082)" fill="#13202f"/>
        </g>
        <rect id="長方形_345" data-name="長方形 345" width="114.415" height="7.224" transform="translate(1.317 1.548)" fill="#13202f"/>
        <g id="グループ_1361" data-name="グループ 1361" transform="translate(23.892 5.373)">
          <path id="パス_1205" data-name="パス 1205" d="M114.534,175.184V109.507H111.7v65.677" transform="translate(-111.704 -109.507)" fill="#13202f"/>
          <rect id="長方形_346" data-name="長方形 346" width="2.83" height="65.677" transform="translate(68.612)" fill="#13202f"/>
        </g>
        <g id="グループ_1362" data-name="グループ 1362" transform="translate(7.512 13.623)">
          <path id="パス_1206" data-name="パス 1206" d="M103.587,121.459H95.009a1.415,1.415,0,1,1,0-2.83h8.578a1.415,1.415,0,1,1,0,2.83Z" transform="translate(-93.592 -118.629)" fill="#13202f"/>
          <path id="パス_1207" data-name="パス 1207" d="M103.587,132.342H95.009a1.415,1.415,0,1,1,0-2.831h8.578a1.415,1.415,0,1,1,0,2.831Z" transform="translate(-93.592 -119.67)" fill="#13202f"/>
          <path id="パス_1208" data-name="パス 1208" d="M103.587,143.224H95.009a1.415,1.415,0,1,1,0-2.831h8.578a1.415,1.415,0,1,1,0,2.831Z" transform="translate(-93.592 -120.711)" fill="#13202f"/>
          <path id="パス_1209" data-name="パス 1209" d="M103.587,154.106H95.009a1.415,1.415,0,1,1,0-2.83h8.578a1.415,1.415,0,1,1,0,2.83Z" transform="translate(-93.592 -121.752)" fill="#13202f"/>
          <path id="パス_1210" data-name="パス 1210" d="M103.587,164.989H95.009a1.415,1.415,0,1,1,0-2.831h8.578a1.415,1.415,0,1,1,0,2.831Z" transform="translate(-93.592 -122.793)" fill="#13202f"/>
          <path id="パス_1211" data-name="パス 1211" d="M103.587,175.871H95.009a1.415,1.415,0,1,1,0-2.831h8.578a1.415,1.415,0,1,1,0,2.831Z" transform="translate(-93.592 -123.833)" fill="#13202f"/>
        </g>
        <g id="グループ_1363" data-name="グループ 1363" transform="translate(100.551 13.623)">
          <path id="パス_1212" data-name="パス 1212" d="M201.5,121.459h-3.616a1.415,1.415,0,1,1,0-2.83H201.5a1.415,1.415,0,1,1,0,2.83Z" transform="translate(-196.471 -118.629)" fill="#13202f"/>
          <path id="パス_1213" data-name="パス 1213" d="M201.5,131.072h-3.616a1.415,1.415,0,1,1,0-2.83H201.5a1.415,1.415,0,1,1,0,2.83Z" transform="translate(-196.471 -119.548)" fill="#13202f"/>
        </g>
      </g>
    </g>
    <g id="グループ_1770" data-name="グループ 1770" transform="translate(61.903 4379.551)">
      <g id="グループ_253" data-name="グループ 253" transform="translate(0 25.043)">
        <g id="グループ_252" data-name="グループ 252" transform="translate(0 0)" clip-path="url(#clip-path)">
          <path id="パス_702" data-name="パス 702" d="M0,5.181c5.75.955,11.762.645,17.645.7l18.348.179,2.569.025a3.2,3.2,0,0,0,1.449-.209c.514-.262.338-.542.287-.892a6.6,6.6,0,0,1-.048-1.459q.136-1.764.273-3.527" transform="translate(4.811 18.216)" fill="#dcdfe2"/>
          <path id="パス_703" data-name="パス 703" d="M17.831,5.712a1.177,1.177,0,0,1-.456-.089C12.75,3.684,5.4,1.54.889,1.387.375,1.37-.022,1.045,0,.662S.466-.005.974,0C6.356.183,14.45,2.8,18.288,4.412c.448.188.608.611.355.945a1.021,1.021,0,0,1-.812.354" transform="translate(25.66 0.045)" fill="#0a1929"/>
          <path id="パス_704" data-name="パス 704" d="M22.41,9.025a1.145,1.145,0,0,1-.577-.149C17,6.032,7.274,2.821.667,1.36.173,1.251-.108.865.039.5A1.01,1.01,0,0,1,1.2.029c6.776,1.5,16.78,4.809,21.791,7.757a.585.585,0,0,1,.154.975,1.074,1.074,0,0,1-.732.264" transform="translate(47.078 6.549)" fill="#0a1929"/>
          <path id="パス_705" data-name="パス 705" d="M34.481,25.073c-10.19,0-21.677-.236-27.178-.364-1.862-.043-3.523-.169-5.041-.3A5.771,5.771,0,0,1,.6,23.994a.965.965,0,0,1-.276-1.62c.523-.6,1.147-1.256,1.713-1.8.845-.812,1.708-1.614,2.578-2.41,2.2-2.018,4.635-4.174,7.652-6.787,2.845-2.465,5.441-4.665,7.934-6.727l.536-.444c1.62-1.342,3.294-2.729,5.072-4.01a1.167,1.167,0,0,1,1.317.017.578.578,0,0,1-.023.982c-1.731,1.247-3.383,2.616-4.982,3.94l-.537.445c-2.483,2.054-5.07,4.247-7.906,6.7-3.006,2.6-5.427,4.751-7.619,6.758-.861.788-1.715,1.581-2.55,2.384-.481.464-1.009,1.014-1.471,1.534.164.034.342.066.434.073,1.478.126,3.093.248,4.888.29,7.5.175,26.157.551,37.389.252.523-.01.945.286.964.669s-.384.7-.9.719c-3.03.08-6.6.112-10.336.112" transform="translate(0 0)" fill="#0a1929"/>
          <path id="パス_706" data-name="パス 706" d="M.931,6.684C.418,6.684,0,6.375,0,5.993c0-.669.034-1.407.073-2.185C.125,2.8.178,1.759.151.707c-.01-.383.4-.7.914-.707.516.015.939.3.948.681.027,1.091-.027,2.153-.079,3.179-.038.757-.076,1.476-.072,2.127,0,.383-.414.7-.928.7Z" transform="translate(44.084 18.165)" fill="#0a1929"/>
          <path id="パス_707" data-name="パス 707" d="M.93,4.667a.891.891,0,0,1-.92-.59c-.077-.379.272-.733.78-.791C10.2,2.216,16.761,1.237,22.033.451c1.021-.152,2-.3,2.945-.437A.954.954,0,0,1,26.072.56c.1.376-.229.741-.733.815-.946.139-1.921.284-2.94.437C17.108,2.6,10.525,3.584,1.072,4.659a1.236,1.236,0,0,1-.142.008" transform="translate(44.194 14.592)" fill="#0a1929"/>
          <path id="パス_708" data-name="パス 708" d="M.6,9.189a.585.585,0,0,1-.6-.372c-.059-.245.161-.48.49-.524,1.5-.2,7.941-1,16.09-2.014C34.319,4.074,61.113.741,65.946.009a.625.625,0,0,1,.714.353c.066.244-.146.482-.473.532-4.854.735-31.66,4.069-49.4,6.275C8.643,8.182,2.21,8.982.712,9.182A.824.824,0,0,1,.6,9.189" transform="translate(2.74 14.734)" fill="#0a1929"/>
          <path id="パス_709" data-name="パス 709" d="M.605,15.089A.631.631,0,0,1,.042,14.8c-.122-.232.031-.494.342-.585,2.428-.71,11.668-3.95,20.6-7.083S39.193.751,41.657.031a.687.687,0,0,1,.785.255c.122.232-.031.494-.342.585-2.427.71-11.663,3.948-20.6,7.08C12.55,11.091,3.291,14.337.827,15.058a.786.786,0,0,1-.221.032" transform="translate(6.11 6.643)" fill="#0a1929"/>
          <path id="パス_710" data-name="パス 710" d="M1.33,4.233A.874.874,0,0,1,.4,3.611L.005.766C-.049.385.323.043.835,0A.907.907,0,0,1,1.858.622l.4,2.845c.054.382-.318.723-.829.763-.033,0-.066,0-.1,0" transform="translate(42.821 4.471)" fill="#0a1929"/>
          <path id="パス_711" data-name="パス 711" d="M.606,8.371a.667.667,0,0,1-.521-.221A.393.393,0,0,1,.3,7.532C2.756,6.446,6.2,5.094,9.525,3.786S16.269,1.137,18.7.063a.731.731,0,0,1,.829.159.393.393,0,0,1-.212.618c-2.459,1.086-5.9,2.438-9.228,3.745S3.347,7.234.914,8.308a.766.766,0,0,1-.308.063" transform="translate(24.345 4.916)" fill="#0a1929"/>
          <path id="パス_712" data-name="パス 712" d="M.606,1.186A.678.678,0,0,1,.1.981.389.389,0,0,1,.275.357L.859.073A.742.742,0,0,1,1.7.2a.389.389,0,0,1-.176.625l-.586.284a.756.756,0,0,1-.33.073" transform="translate(21.869 13.158)" fill="#0a1929"/>
        </g>
      </g>
      <path id="パス_794" data-name="パス 794" d="M0,11.417S17.624-.591,43.5.023s28.135,14.94,64.056,15.171c15.913.1,26.791-2.608,34.184-5.749" transform="matrix(0.996, -0.087, 0.087, 0.996, 57.048, 15.508)" fill="none" stroke="#0a1929" stroke-linecap="round" stroke-width="2" stroke-dasharray="4 8"/>
    </g>
  </g>
</svg>
