<svg xmlns="http://www.w3.org/2000/svg" width="376" height="223" viewBox="0 0 376 223">
  <g id="グループ_2150" data-name="グループ 2150" transform="translate(-316 -6176)">
    <g id="グループ_2149" data-name="グループ 2149">
      <rect id="長方形_301" data-name="長方形 301" width="376" height="223" rx="20" transform="translate(316 6176)" fill="#fff"/>
      <path id="線_760" data-name="線 760" d="M144,1.75H0A1.75,1.75,0,0,1-1.75,0,1.75,1.75,0,0,1,0-1.75H144A1.75,1.75,0,0,1,145.75,0,1.75,1.75,0,0,1,144,1.75Z" transform="translate(414 6356.788)" fill="#16202e"/>
      <path id="長方形_410" data-name="長方形 410" d="M7,0H48.595a7,7,0,0,1,7,7V137.62a0,0,0,0,1,0,0H0a0,0,0,0,1,0,0V7A7,7,0,0,1,7,0Z" transform="translate(426.304 6220.535)" fill="#bfbfbf"/>
      <path id="長方形_410_-_アウトライン" data-name="長方形 410 - アウトライン" d="M7,3.5A3.5,3.5,0,0,0,3.5,7V134.12H52.095V7a3.5,3.5,0,0,0-3.5-3.5H7M7,0H48.595a7,7,0,0,1,7,7V137.62H0V7A7,7,0,0,1,7,0Z" transform="translate(426.304 6220.535)" fill="#16202e"/>
      <path id="長方形_411" data-name="長方形 411" d="M7,0H48.595a7,7,0,0,1,7,7V68.354a0,0,0,0,1,0,0H0a0,0,0,0,1,0,0V7A7,7,0,0,1,7,0Z" transform="translate(491.013 6289.801)" fill="#f03748"/>
      <path id="長方形_411_-_アウトライン" data-name="長方形 411 - アウトライン" d="M7,3.5A3.5,3.5,0,0,0,3.5,7V64.854H52.095V7a3.5,3.5,0,0,0-3.5-3.5H7M7,0H48.595a7,7,0,0,1,7,7V68.354H0V7A7,7,0,0,1,7,0Z" transform="translate(491.013 6289.801)" fill="#16202e"/>
      <path id="線_762" data-name="線 762" d="M72.072,1.5h-.006a1.5,1.5,0,0,1-1.5-1.5,1.5,1.5,0,0,1,1.5-1.5h.006a1.5,1.5,0,0,1,1.5,1.5A1.5,1.5,0,0,1,72.072,1.5Zm-6.006,0h-.006a1.5,1.5,0,0,1-1.5-1.5,1.5,1.5,0,0,1,1.5-1.5h.006a1.5,1.5,0,0,1,1.5,1.5A1.5,1.5,0,0,1,66.066,1.5Zm-6.006,0h-.006a1.5,1.5,0,0,1-1.5-1.5,1.5,1.5,0,0,1,1.5-1.5h.006a1.5,1.5,0,0,1,1.5,1.5A1.5,1.5,0,0,1,60.061,1.5Zm-6.006,0h-.006a1.5,1.5,0,0,1-1.5-1.5,1.5,1.5,0,0,1,1.5-1.5h.006a1.5,1.5,0,0,1,1.5,1.5A1.5,1.5,0,0,1,54.055,1.5Zm-6.006,0h-.005a1.5,1.5,0,0,1-1.5-1.5,1.5,1.5,0,0,1,1.5-1.5h.005a1.5,1.5,0,0,1,1.5,1.5A1.5,1.5,0,0,1,48.049,1.5Zm-6.005,0h-.006a1.5,1.5,0,0,1-1.5-1.5,1.5,1.5,0,0,1,1.5-1.5h.006a1.5,1.5,0,0,1,1.5,1.5A1.5,1.5,0,0,1,42.044,1.5Zm-6.006,0h-.006a1.5,1.5,0,0,1-1.5-1.5,1.5,1.5,0,0,1,1.5-1.5h.006a1.5,1.5,0,0,1,1.5,1.5A1.5,1.5,0,0,1,36.039,1.5Zm-6.006,0h-.006a1.5,1.5,0,0,1-1.5-1.5,1.5,1.5,0,0,1,1.5-1.5h.006a1.5,1.5,0,0,1,1.5,1.5A1.5,1.5,0,0,1,30.033,1.5Zm-6.006,0h-.005a1.5,1.5,0,0,1-1.5-1.5,1.5,1.5,0,0,1,1.5-1.5h.005a1.5,1.5,0,0,1,1.5,1.5A1.5,1.5,0,0,1,24.028,1.5Zm-6.005,0h-.006a1.5,1.5,0,0,1-1.5-1.5,1.5,1.5,0,0,1,1.5-1.5h.006a1.5,1.5,0,0,1,1.5,1.5A1.5,1.5,0,0,1,18.022,1.5Zm-6.005,0h-.006a1.5,1.5,0,0,1-1.5-1.5,1.5,1.5,0,0,1,1.5-1.5h.006a1.5,1.5,0,0,1,1.5,1.5A1.5,1.5,0,0,1,12.017,1.5Zm-6.006,0H6.006A1.5,1.5,0,0,1,4.506,0a1.5,1.5,0,0,1,1.5-1.5h.006A1.5,1.5,0,0,1,7.511,0,1.5,1.5,0,0,1,6.011,1.5ZM.006,1.5H0A1.5,1.5,0,0,1-1.5,0,1.5,1.5,0,0,1,0-1.5H.006A1.5,1.5,0,0,1,1.506,0,1.5,1.5,0,0,1,.006,1.5Z" transform="translate(484.177 6220.991)" fill="#16202e"/>
      <path id="パス_1610" data-name="パス 1610" d="M-3760.5,6164.506a4,4,0,0,1-4-4v-38.43a4,4,0,0,1,4-4,4,4,0,0,1,4,4v38.43A4,4,0,0,1-3760.5,6164.506Z" transform="translate(4280.222 111.288)" fill="#f03748"/>
      <path id="多角形_10" data-name="多角形 10" d="M9.7,2.714a2,2,0,0,1,3.392,0l7.784,12.454a2,2,0,0,1-1.7,3.06H3.608a2,2,0,0,1-1.7-3.06Z" transform="translate(531.114 6284.333) rotate(180)" fill="#f03748"/>
      <circle id="楕円形_240" data-name="楕円形 240" cx="40.5" cy="40.5" r="40.5" transform="translate(560 6220.845)" fill="#f7ac00"/>
      <text id="_50" data-name="50" transform="translate(594 6265.845)" fill="#fff" font-size="27" font-family="UDShinGoNTPro-DeBold, A-OTF UD Shin Go NT Pro" font-weight="700" letter-spacing="-0.04em"><tspan x="-17.28" y="0">50</tspan></text>
      <text id="_" data-name="%" transform="translate(619 6265.845)" fill="#fff" font-size="17" font-family="UDShinGoNTPro-DeBold, A-OTF UD Shin Go NT Pro" font-weight="700"><tspan x="-7.48" y="0">%</tspan></text>
      <text id="削減" transform="translate(601 6282.845)" fill="#fff" font-size="13" font-family="UDShinGoNTPro-DeBold, A-OTF UD Shin Go NT Pro" font-weight="700" letter-spacing="0.15em"><tspan x="-13.975" y="0">削減</tspan></text>
    </g>
  </g>
</svg>
