<svg xmlns="http://www.w3.org/2000/svg" xmlns:xlink="http://www.w3.org/1999/xlink" width="345" height="194" viewBox="0 0 345 194">
  <defs>
    <clipPath id="clip-path">
      <rect id="長方形_494" data-name="長方形 494" width="345" height="194" rx="20" transform="translate(-941 19440.57)" fill="#fff"/>
    </clipPath>
    <clipPath id="clip-path-2">
      <rect id="長方形_493" data-name="長方形 493" width="345" height="194" transform="translate(498.244 14481.243)" fill="#fff" stroke="#707070" stroke-width="1"/>
    </clipPath>
  </defs>
  <g id="マスクグループ_82" data-name="マスクグループ 82" transform="translate(941 -19440.57)" clip-path="url(#clip-path)">
    <g id="マスクグループ_81" data-name="マスクグループ 81" transform="translate(-1439.244 4959.328)" clip-path="url(#clip-path-2)">
      <g id="グループ_2179" data-name="グループ 2179" transform="translate(536.65 14486.052)">
        <g id="グループ_2168" data-name="グループ 2168" transform="translate(0 0)">
          <path id="パス_1861" data-name="パス 1861" d="M407.9,335.67c-4.145-2.821-4.625-8.9-3.076-13.667s4.625-8.914,6.3-13.639a25.129,25.129,0,0,0,.473-15.212c-.922-3.217-2.6-6.358-5.355-8.255a13.848,13.848,0,0,0-8.464-2.1,41.267,41.267,0,0,0-8.7,1.65c-6.375,1.691-13.369,3.828-16.788,9.469-2.8,4.623-2.424,10.582-.611,15.675s4.9,9.618,7.434,14.392c1.159,2.181,2.223,4.76,1.288,7.047-1,2.449-3.933,3.608-5.143,5.962-1.125,2.188-.5,4.827.145,7.2l4.407,16.176c.864,3.167,1.754,6.4,3.581,9.127s4.785,4.917,8.069,4.948c3.878.037,7.146-2.819,9.66-5.771a53.2,53.2,0,0,0,10.754-20.305" transform="translate(-319.558 -267.619)" fill="#fff"/>
          <path id="パス_1862" data-name="パス 1862" d="M315.415,413.014l-8.22,16.179c-1.911,3.76-3.857,7.642-4.2,11.846s1.317,8.859,5.051,10.82c3.2,1.681,7.243,1.018,10.332-.858s5.388-4.8,7.444-7.772,3.961-6.092,6.54-8.624c5.04-4.949,12.16-7.2,17.595-11.712a26.864,26.864,0,0,0,9.55-19.179c.266-5.767-1.87-12.172-7.008-14.808-3.522-1.807-7.843-1.494-11.511-.007s-6.8,4.031-9.766,6.654a150.127,150.127,0,0,0-11.414,11.239" transform="translate(-301.638 -295.548)" fill="#fff"/>
          <path id="パス_1863" data-name="パス 1863" d="M444.821,431.438l20.223-8.129a419.131,419.131,0,0,1-.1,84.965c-.53,5.139-1.211,10.438-3.845,14.882a19.04,19.04,0,0,1-14.07,9.072" transform="translate(-339.414 -305.039)" fill="#fff"/>
          <path id="パス_1864" data-name="パス 1864" d="M348.487,775.764a11.528,11.528,0,0,0,2.379,11.51A15.092,15.092,0,0,0,361.912,792a10.756,10.756,0,0,0,5.438-1.2,10.338,10.338,0,0,0,4.589-6.743,30.663,30.663,0,0,0,.415-8.355" transform="translate(-313.587 -398.873)" fill="#fff"/>
          <path id="パス_1865" data-name="パス 1865" d="M422.716,775.879a27.7,27.7,0,0,0-.644,6.694,9.316,9.316,0,0,0,2.516,6.094c2.513,2.45,6.437,2.637,9.926,2.262,2.634-.283,5.367-.858,7.4-2.556a10.756,10.756,0,0,0,3.429-7.907,31.887,31.887,0,0,0-1.307-8.75" transform="translate(-333.348 -397.812)" fill="#fff"/>
          <g id="グループ_2167" data-name="グループ 2167">
            <path id="パス_1866" data-name="パス 1866" d="M424.732,711.465c.9-20.651,1.749-41.226,1.892-61.849q.39-56.552.78-113.105c.021-2.933-.246-6.407-2.759-7.918a8.54,8.54,0,0,0-3.827-.893c-11.275-.831-22.29-2.14-33.644-1.848a198.538,198.538,0,0,0-33.251,3.672c-2.6.511-5.452,1.255-6.879,3.481-1.031,1.608-1.068,3.636-1.071,5.546l-.122,60.279L345.792,627c-.017,8.542-.762,16.906-.576,25.4l1.235,56.423c.117,5.339,5.927,5.591,10.293,6.3a34.2,34.2,0,0,0,8.061.355c.842-.063,7.276-.575,7.428-1.421.968-5.366.763-10.88,1.145-16.358l1.329-19.092c0-9.125,1.284-18.439,1.918-27.545.589-8.453.459-16.69,1.194-25.179l4.891-56.39.489-5.639,8.5,2.666q6.112,73.412,8,147.094C408.176,716.975,416.552,714.093,424.732,711.465Z" transform="translate(-312.883 -332.333)" fill="#f03748"/>
            <path id="パス_1867" data-name="パス 1867" d="M412.01,362.14l-10.926-5.493c-1.9-.956-8.079-5.487-9.8-3.523a4.284,4.284,0,0,0-.783,1.832,46.359,46.359,0,0,1-3.991,10.828,118.183,118.183,0,0,1-6.108,10.349,5.022,5.022,0,0,1-2.677,2.413,3.426,3.426,0,0,1-3.029-.966,9.973,9.973,0,0,1-1.871-2.713q-5.981-11.166-11.375-22.633c-6.907,2.958-14.153,5.786-20.329,10.185a61.432,61.432,0,0,0-15.679,17.19,183.874,183.874,0,0,0-10.9,20.7,4.834,4.834,0,0,0-.679,3.245c.382,1.389,1.867,2.116,3.2,2.672,1.76.737,6.55,3.986,8.281,2.876a5.018,5.018,0,0,0,1.685-2.394c1.465-3.436,2.477-7.055,4.035-10.45s3.761-6.644,6.972-8.551,7.581-2.187,10.562.063c2.289,1.726,3.41,4.566,4.289,7.3.814,2.525,1.52,5.223.9,7.8-.927,3.865-4.5,6.408-7.8,8.628-2.729,1.837-7.006,4.586-7.372,8.215-.4,3.954-.231,8.277-.459,12.32-.316,5.616-.609,11.233-.935,16.848-.65,11.2-1.428,22.4-2.777,33.544-.2,1.627-.334,3.468.734,4.711a6,6,0,0,0,3.537,1.561c5.614,1.107,11.237,2.214,16.925,2.845a166.893,166.893,0,0,0,25.379.459,54.067,54.067,0,0,1,6.018-.208,20.082,20.082,0,0,0,3.63.228c3.838-.4,7.733-.935,11.558-1.473l10.693-1.5c1.823-.257,3.759-.564,5.138-1.782,2.18-1.925.373-6.42.2-8.962-.258-3.867-.238-7.744-.219-11.617l.112-23.434c.036-7.57-.763-15.132-1.318-22.683-.123-1.668-.217-3.465.665-4.888.9-1.459,2.611-2.172,4.208-2.8L431,409.246c1.9-.744,3.9-1.552,5.176-3.143a7.983,7.983,0,0,0,1.2-6.725,24.94,24.94,0,0,0-2.549-5.761c-1.043-2.056-1.819-4.277-2.787-6.374q-2.969-6.427-6.518-12.565a30.963,30.963,0,0,0-5.722-7.7A34.377,34.377,0,0,0,412.01,362.14Z" transform="translate(-304.519 -286.114)" fill="#646e73"/>
            <path id="パス_1868" data-name="パス 1868" d="M405.372,386.631a1.17,1.17,0,0,1-.867-1.955A65.139,65.139,0,0,0,419.444,355.8a1.17,1.17,0,1,1,2.289.484,67.56,67.56,0,0,1-15.494,29.967A1.166,1.166,0,0,1,405.372,386.631Z" transform="translate(-328.598 -286.815)" fill="#fff"/>
            <path id="パス_1869" data-name="パス 1869" d="M388.914,386.131a1.162,1.162,0,0,1-.712-.242c-8.85-6.79-15.95-24.04-16.131-30.085a1.17,1.17,0,0,1,2.339-.069c.172,5.748,7.167,22.122,15.217,28.3a1.169,1.169,0,0,1-.713,2.1Z" transform="translate(-320.042 -286.743)" fill="#fff"/>
            <path id="パス_1870" data-name="パス 1870" d="M327.851,421.823a1.164,1.164,0,0,1-.583-.159c-1.454-.836-3.265-1.958-5.076-3.079-1.773-1.1-3.544-2.2-4.969-3.019a1.17,1.17,0,1,1,1.169-2.027c1.443.831,3.238,1.943,5.034,3.057s3.575,2.215,5.01,3.041a1.171,1.171,0,0,1-.584,2.185Z" transform="translate(-305.281 -302.396)" fill="#fff"/>
            <path id="パス_1871" data-name="パス 1871" d="M454.8,427.338a1.171,1.171,0,0,1-.4-2.272c2.2-.789,5.866-2.509,9.414-4.173,3.586-1.682,7.295-3.422,9.591-4.245a1.17,1.17,0,1,1,.79,2.2c-2.192.789-5.85,2.5-9.388,4.162-3.6,1.688-7.315,3.432-9.617,4.257A1.152,1.152,0,0,1,454.8,427.338Z" transform="translate(-341.758 -303.246)" fill="#fff"/>
            <g id="グループ_2156" data-name="グループ 2156" transform="translate(18.344 379.423)">
              <path id="パス_1872" data-name="パス 1872" d="M337.156,788.167c-.009-.172,1.57-1.066,1.773-1.221.61-.467,1.133-1.009,1.708-1.511a7.955,7.955,0,0,0,2.774-3.971c.128-.533.295-1.2.841-1.275a.992.992,0,0,1,.94.682,5.012,5.012,0,0,1,.209,1.213,4.386,4.386,0,0,0,1.437,2.652c1.341,1.181,3.475,1.485,5.087,2.124a18.993,18.993,0,0,0,7.009,1.793c2.4-.023,4.893-1.22,5.667-3.45a7.9,7.9,0,0,1,.539-1.515,1.223,1.223,0,0,1,1.352-.635c.713.235.869,1.166.889,1.905l.172,6.2c.074,2.664.04,5.622-1.781,7.475a9.74,9.74,0,0,1-4.208,2.1c-3.227,1-5.673,2-8.9,3a49.014,49.014,0,0,1-9.874,2.328,17.421,17.421,0,0,1-10.048-1.783,8.052,8.052,0,0,1-3.391-3.227c-1.349-2.652-.295-5.881,1.622-7.984A27.2,27.2,0,0,1,337.156,788.167Z" transform="translate(-326.849 -779.49)" fill="#dcdfe2"/>
              <path id="パス_1873" data-name="パス 1873" d="M339.828,807.593a25.182,25.182,0,0,1-6.538-.819c-3.8-1.036-5.524-3.071-6.3-4.594a8.4,8.4,0,0,1-.193-6.868c1.272-3.329,4.989-5.965,7.7-7.887l1.217-.87c2.637-1.894,4.542-3.261,5.595-6.053a1.95,1.95,0,0,1,3.65,1.375c-1.469,3.9-4.141,5.815-6.969,7.847l-1.237.884c-2.308,1.634-5.466,3.872-6.316,6.094a4.633,4.633,0,0,0,.026,3.712,5.7,5.7,0,0,0,3.845,2.6,23.963,23.963,0,0,0,11.247.037,27.422,27.422,0,0,0,4.306-1.518,26.69,26.69,0,0,1,5.805-1.892,18.38,18.38,0,0,0,4.9-1.762l.588-.276c1.221-.566,4.046-2.116,3.94-4.273-.048-.95-.08-1.881-.112-2.79a41.219,41.219,0,0,0-.6-6.946,1.95,1.95,0,1,1,3.81-.834,43.743,43.743,0,0,1,.69,7.645c.03.889.062,1.8.107,2.732.162,3.232-2.037,6.075-6.19,8l-.578.269a21.841,21.841,0,0,1-5.9,2.074,23.438,23.438,0,0,0-4.967,1.651,30.6,30.6,0,0,1-4.93,1.716A29.759,29.759,0,0,1,339.828,807.593Z" transform="translate(-326.162 -779.238)" fill="#13202f"/>
              <path id="パス_1874" data-name="パス 1874" d="M364.643,790.878a20.731,20.731,0,0,1-3.333-.216,1.072,1.072,0,1,1,.4-2.107c2.109.395,8.2.2,9.746-.938a1.072,1.072,0,0,1,1.274,1.726C371.127,790.524,367.48,790.878,364.643,790.878Z" transform="translate(-335.288 -781.414)" fill="#13202f"/>
              <g id="グループ_2155" data-name="グループ 2155" transform="translate(7.361 4.653)">
                <g id="グループ_2154" data-name="グループ 2154">
                  <path id="パス_1875" data-name="パス 1875" d="M358.8,790.758a26.956,26.956,0,0,0-16.9-3.682,7.429,7.429,0,0,0-3.123.891,2.535,2.535,0,0,0-1.229,2.509c.354,2.212,2.555,1.808,6.91,2.111a27.66,27.66,0,0,1,9.086,2.05" transform="translate(-336.548 -785.934)" fill="#dcdfe2"/>
                  <path id="パス_1876" data-name="パス 1876" d="M353.194,795.258a.963.963,0,0,1-.368-.073,26.635,26.635,0,0,0-8.786-1.979c-.8-.055-1.522-.087-2.175-.116-3.028-.131-5.216-.227-5.631-2.815a3.5,3.5,0,0,1,1.673-3.489,8.391,8.391,0,0,1,3.532-1.035,27.934,27.934,0,0,1,17.523,3.823.975.975,0,1,1-1.026,1.657,25.973,25.973,0,0,0-16.278-3.54,6.647,6.647,0,0,0-2.714.748,1.562,1.562,0,0,0-.784,1.528c.142.886.638,1.038,3.79,1.175.668.029,1.409.062,2.225.118a28.767,28.767,0,0,1,9.388,2.12.975.975,0,0,1-.369,1.878Z" transform="translate(-336.194 -785.58)" fill="#13202f"/>
                </g>
              </g>
            </g>
            <ellipse id="楕円形_299" data-name="楕円形 299" cx="2.115" cy="2.115" rx="2.115" ry="2.115" transform="translate(110.357 108.416)" fill="#13202f"/>
            <ellipse id="楕円形_300" data-name="楕円形 300" cx="1.926" cy="2.487" rx="1.926" ry="2.487" transform="translate(61.292 29.984)" fill="#13202f"/>
            <ellipse id="楕円形_301" data-name="楕円形 301" cx="1.926" cy="2.487" rx="1.926" ry="2.487" transform="translate(77.893 29.985)" fill="#13202f"/>
            <path id="パス_1877" data-name="パス 1877" d="M372.19,318.163a1.939,1.939,0,0,1-1.038-.3c-2.488-1.567-3.58-6.028-3.77-9.678-.175-3.341-.138-6.777,2.349-8.847a1.95,1.95,0,1,1,2.495,3c-.993.826-1.1,2.773-.949,5.645.189,3.611,1.257,6.144,1.955,6.584a1.95,1.95,0,0,1-1.042,3.6Z" transform="translate(-318.777 -271.908)" fill="#13202f"/>
            <path id="パス_1878" data-name="パス 1878" d="M423.919,317.505a1.95,1.95,0,0,1-.941-3.659c.743-.409,1.824-3.032,1.833-6.7.009-3.1-.781-4.832-1.206-5.068a1.951,1.951,0,0,1,1.9-3.41c2.912,1.621,3.215,6.476,3.209,8.489-.01,3.868-1.026,8.555-3.853,10.109A1.95,1.95,0,0,1,423.919,317.505Z" transform="translate(-333.328 -271.784)" fill="#13202f"/>
            <path id="パス_1879" data-name="パス 1879" d="M398.442,321.959a3.4,3.4,0,0,1-1.767-.468A.877.877,0,1,1,397.6,320a1.785,1.785,0,0,0,1.627.011.877.877,0,0,1,1.055,1.4A3.091,3.091,0,0,1,398.442,321.959Z" transform="translate(-326.482 -277.486)" fill="#13202f"/>
            <path id="パス_1880" data-name="パス 1880" d="M397.75,332.127a6.849,6.849,0,0,1-3.2-.693.878.878,0,0,1,.852-1.535,6.23,6.23,0,0,0,5.174-.174.877.877,0,1,1,.951,1.475A7.291,7.291,0,0,1,397.75,332.127Z" transform="translate(-325.907 -280.082)" fill="#13202f"/>
            <ellipse id="楕円形_302" data-name="楕円形 302" cx="1.065" cy="1.065" rx="1.065" ry="1.065" transform="translate(67.452 49.11)" fill="#13202f"/>
            <ellipse id="楕円形_303" data-name="楕円形 303" cx="1.065" cy="1.065" rx="1.065" ry="1.065" transform="translate(74.469 49.11)" fill="#13202f"/>
            <g id="グループ_2160" data-name="グループ 2160" transform="translate(20.329 83.627)">
              <g id="グループ_2157" data-name="グループ 2157" transform="translate(7.394)">
                <path id="パス_1881" data-name="パス 1881" d="M352.358,414.266l8.948.96a5.8,5.8,0,0,0,3.92-.5,4.1,4.1,0,0,0,1.588-3.024c.238-2.408-.68-4.963-1.225-7.275l-1.821-7.729-3.642-15.458a4.527,4.527,0,0,0-1.193-2.523,4.261,4.261,0,0,0-2.939-.645q-5.234.154-10.462.463c-1.57.092-3.448.407-4.063,1.89a4.539,4.539,0,0,0,.084,2.784l2.662,10.872c.443,1.811.893,3.622,1.33,5.435.215.891.182,1.131,1.06,1.473a7.441,7.441,0,0,0,2.471.5,5.97,5.97,0,0,1,1.516.123,1.337,1.337,0,0,1,1.012,1.023" transform="translate(-339.565 -376.618)" fill="#f03748"/>
                <path id="パス_1882" data-name="パス 1882" d="M351.908,415.882a1.462,1.462,0,0,1-.063-2.923c.393-.018,9.633-.421,11.542-.427a1.445,1.445,0,0,0,1.054-.32,1.975,1.975,0,0,0,.2-1.481c-1.34-7.571-4.316-22.6-6.449-30.817a1.161,1.161,0,0,0-1.13-.893h-.013c-3.991.042-9.973.284-14.345.732a.9.9,0,0,0-.641.375,1,1,0,0,0-.166.811c.282,1.3.7,3.324,1.153,5.476.759,3.64,1.619,7.765,1.966,9.153a1.464,1.464,0,0,1-2.84.709c-.359-1.445-1.187-5.421-1.989-9.264-.448-2.142-.867-4.158-1.148-5.453a3.938,3.938,0,0,1,.657-3.15,3.839,3.839,0,0,1,2.71-1.568c4.463-.457,10.555-.7,14.611-.746a4.057,4.057,0,0,1,4.007,3.083c2.153,8.293,5.149,23.425,6.5,31.042a4.86,4.86,0,0,1-.831,3.868,4.087,4.087,0,0,1-3.29,1.369c-1.851.006-11.328.419-11.423.423Z" transform="translate(-338.944 -376.094)" fill="#13202f"/>
              </g>
              <g id="グループ_2158" data-name="グループ 2158" transform="translate(0 13.209)">
                <path id="パス_1883" data-name="パス 1883" d="M330.994,421.162a91.387,91.387,0,0,1,2.023-10.1c1.429-4.583,2.757-8.1,6.438-10.629a25.421,25.421,0,0,1,11.089-4.107c1.24-.17,2.7-.249,3.479.826,1.159,1.6-.1,3.207-1.751,4.2s-6.422,3.56-7.7,4.359" transform="translate(-329.433 -394.664)" fill="#fff"/>
                <path id="パス_1884" data-name="パス 1884" d="M330.429,422.154a1.578,1.578,0,0,1-.278-.024,1.561,1.561,0,0,1-1.26-1.812c.13-.716.258-1.486.39-2.282a63.916,63.916,0,0,1,1.68-8c1.486-4.765,2.947-8.635,7.044-11.45a27.021,27.021,0,0,1,11.759-4.367c1.064-.141,3.545-.487,4.955,1.455a3.635,3.635,0,0,1,.674,2.918,5.716,5.716,0,0,1-2.884,3.537c-.8.484-2.331,1.332-3.848,2.173-1.6.888-3.178,1.764-3.831,2.173a1.561,1.561,0,0,1-1.655-2.647c.678-.423,2.317-1.335,3.972-2.253,1.478-.821,2.97-1.649,3.754-2.12.952-.573,1.368-1.158,1.434-1.486.015-.072.043-.208-.143-.463-.279-.384-1.275-.293-2-.2a23.955,23.955,0,0,0-10.418,3.848c-3.278,2.252-4.485,5.487-5.832,9.808a61.915,61.915,0,0,0-1.581,7.59c-.135.808-.266,1.591-.4,2.32A1.56,1.56,0,0,1,330.429,422.154Z" transform="translate(-328.866 -394.097)" fill="#13202f"/>
              </g>
              <g id="グループ_2159" data-name="グループ 2159" transform="translate(12.355 22.779)">
                <path id="パス_1885" data-name="パス 1885" d="M349.068,409.44c2.915-.03,6.133-.276,9.259-.129,2.124.1,8.3-.938,6.984,3.377a4.672,4.672,0,0,1-1.814,2.3c.086,1.07.32,2.4-.321,3.333a17.7,17.7,0,0,1-2.622,2.477c.189,2.571-1.831,4.674-4,5.71-6.017,2.878-5.8,6.2-8.726,7.295" transform="translate(-346.272 -407.705)" fill="#fff"/>
                <path id="パス_1886" data-name="パス 1886" d="M347.267,434.79a1.56,1.56,0,0,1-.548-3.021c.795-.3,1.255-.856,2.066-1.9a16.388,16.388,0,0,1,6.534-5.342c1.645-.787,3.246-2.385,3.114-4.187a1.554,1.554,0,0,1,.532-1.291l.518-.44a12.9,12.9,0,0,0,1.842-1.745,3.693,3.693,0,0,0,.092-1.882l-.04-.442a1.558,1.558,0,0,1,.5-1.272c.158-.147.314-.28.465-.409a2.262,2.262,0,0,0,.914-1.195c.145-.472.137-.777.066-.87-.476-.624-3.17-.543-4.181-.506-.566.017-1.068.03-1.448.013-1.984-.088-4.038-.021-6.025.048-1.074.036-2.127.074-3.145.084H348.5a1.56,1.56,0,0,1-.016-3.12c.993-.012,2.022-.045,3.069-.082,2.051-.072,4.168-.142,6.28-.045.314.012.734,0,1.2-.016,2.244-.078,5.309-.167,6.758,1.729a3.886,3.886,0,0,1,.44,3.678,5.067,5.067,0,0,1-1.679,2.489,5.317,5.317,0,0,1-.661,3.566,13.56,13.56,0,0,1-2.347,2.316c-.191,3.071-2.671,5.337-4.886,6.394a13.33,13.33,0,0,0-5.416,4.443,7.731,7.731,0,0,1-3.434,2.9A1.548,1.548,0,0,1,347.267,434.79Z" transform="translate(-345.706 -407.139)" fill="#13202f"/>
              </g>
              <path id="パス_1887" data-name="パス 1887" d="M350.431,418.325c-.106,0-.213,0-.32,0a.975.975,0,0,1,.013-1.95,1.021,1.021,0,0,0,.313,0,35.9,35.9,0,0,0,3.872-.255c.844-.086,1.7-.174,2.637-.229a.955.955,0,0,1,1.03.917.975.975,0,0,1-.916,1.03c-.906.053-1.735.139-2.551.223A38.442,38.442,0,0,1,350.431,418.325Z" transform="translate(-334.267 -386.69)" fill="#13202f"/>
              <path id="パス_1888" data-name="パス 1888" d="M349.744,426.939a.975.975,0,0,1-.236-1.922l4.186-1.047a.976.976,0,0,1,.473,1.893l-4.184,1.048A1.06,1.06,0,0,1,349.744,426.939Z" transform="translate(-334.166 -388.835)" fill="#13202f"/>
            </g>
            <path id="パス_1889" data-name="パス 1889" d="M413.248,287.69c-.154,1.065-.554,1.986-.743,3.023a4.332,4.332,0,0,1-1.1,2.638c-.866.7-1.8.759-2.2,2.018-.139.429-.178.888-.337,1.31a1.266,1.266,0,0,1-.925.878,1.139,1.139,0,0,1-1.1-.756,3.479,3.479,0,0,1-.173-1.426c.038-2,.076-3.272.114-5.268.024-1.257.284-3.618-1.649-3.6-1.126.013-2.222,1.383-3.157.745-.718-.49-.429-1.641.064-2.366s1.151-1.519.924-2.37a1.7,1.7,0,0,0-1.666-1.117,5.23,5.23,0,0,0-2.05.572c-6.692,2.776-13.983,3.322-20.918,5.37-1.647.487-3.317.572-4.152,2.177a9.312,9.312,0,0,0-.557,5.237,2.769,2.769,0,0,1-.064,1.252.883.883,0,0,1-.961.614c-.741-.2-.6-1.4-1.169-1.919-.6-.542-1.542-.044-2.33-.181a1.95,1.95,0,0,1-1.338-1.131,5.419,5.419,0,0,1-.415-1.783q-.193-1.78-.225-3.572c-.063-3.436-.062-6.253,1.3-9.464a24.962,24.962,0,0,1,5.106-7.651,21.536,21.536,0,0,1,16.372-6.72,25.232,25.232,0,0,1,4.121.631c.61.138,2.545,1.091,2.529-.3-.007-.52-.6-.864-.682-1.377a1,1,0,0,1,.92-1.037,2.147,2.147,0,0,1,1.435.49c1.431,1.021,2.3,2.686,3.731,3.708a17.434,17.434,0,0,0,2.908,1.434C412.513,271.293,414.356,280.039,413.248,287.69Z" transform="translate(-318.72 -262.117)" fill="#13202f"/>
            <path id="パス_1890" data-name="パス 1890" d="M459.229,410.475a1.95,1.95,0,0,1-1.027-3.609c.522-.324,1.056-.624,1.573-.916,1.2-.672,2.55-1.434,2.754-2.049.65-1.95.141-3.525-.775-5.887l-1.212-3.156c-3.894-10.184-7.92-20.717-15.641-27.829-4.268-3.929-10.205-6.491-15.947-8.967-5.463-2.356-10.624-4.581-14.2-7.885a1.949,1.949,0,1,1,2.645-2.864c3.09,2.85,7.953,4.947,13.1,7.168,6.042,2.605,12.289,5.3,17.045,9.679,8.4,7.73,12.587,18.7,16.642,29.3l1.2,3.139c1.122,2.893,1.9,5.358.839,8.53-.679,2.042-2.642,3.147-4.54,4.215-.473.266-.96.539-1.438.834A1.934,1.934,0,0,1,459.229,410.475Z" transform="translate(-331.24 -284.666)" fill="#13202f"/>
            <path id="パス_1891" data-name="パス 1891" d="M314.973,406.574a1.961,1.961,0,0,1-.812-.177c-3.889-1.785-4.116-4.017-3.621-5.575.979-3.08,4.289-9.224,6.95-14.159l.39-.726c.3-.562.668-1.255,1.082-2.042,2.58-4.9,6.9-13.1,10.4-16.848C337.808,358,348.1,353.611,359,348.963c1.528-.651,3.069-1.308,4.624-1.986a1.951,1.951,0,0,1,1.56,3.577c-1.565.682-3.117,1.343-4.653,2-10.507,4.479-20.431,8.711-28.317,17.158-3.141,3.364-7.47,11.586-9.8,16-.42.8-.79,1.5-1.1,2.074l-.39.728c-2.44,4.527-5.781,10.725-6.659,13.467a8.684,8.684,0,0,0,1.522.868,1.951,1.951,0,0,1-.814,3.724Z" transform="translate(-303.606 -284.671)" fill="#13202f"/>
            <path id="パス_1892" data-name="パス 1892" d="M333.679,510.344a3.749,3.749,0,0,1-2.663-1.065c-2.135-2.067-1.9-6.3-1.415-11.2l.117-1.232c.512-6.006,1.232-16.079,1.571-22,.548-9.519.921-19.006,1.223-28.089a63.534,63.534,0,0,1-8.557,11.658c-6.3,6.383-12.652,8.074-17.428,4.647-4.14-2.975-6.138-8.818-5.092-14.886,1.082-6.281,3.629-10.425,6.579-15.225,1.5-2.448,3.058-4.977,4.617-8.1a1.951,1.951,0,1,1,3.49,1.745c-1.635,3.27-3.308,5.992-4.782,8.392-2.851,4.64-5.1,8.3-6.059,13.847-.6,3.5-.042,8.492,3.525,11.054,4.178,3.007,9.549-1.354,12.377-4.219,3.95-4,7.325-9.756,10.3-14.831.523-.892,1.036-1.768,1.543-2.616a1.95,1.95,0,0,1,3.625,1.057c-.347,11.344-.764,23.53-1.467,35.786-.342,5.948-1.065,16.071-1.579,22.1l-.123,1.29c-.473,4.746-.39,7.441.246,8.011a1.958,1.958,0,0,1,2.217,1.657,1.911,1.911,0,0,1-1.649,2.17A4.676,4.676,0,0,1,333.679,510.344Z" transform="translate(-301.16 -305.164)" fill="#13202f"/>
            <path id="パス_1893" data-name="パス 1893" d="M458.448,532.369a1.95,1.95,0,0,1-.687-3.775c3.088-1.161,5.874-5.51,7.157-9.058.933-2.577,1.1-10.436,1.207-15.129.04-1.857.077-3.453.139-4.514.172-2.9.431-6.689.71-10.74.507-7.384,1.081-15.753,1.274-21.059.586-16.043.317-21.345-.48-37.085a1.95,1.95,0,0,1,1.848-2.047,1.917,1.917,0,0,1,2.046,1.849c.783,15.437,1.076,21.213.484,37.424-.2,5.369-.773,13.772-1.282,21.185-.277,4.038-.536,7.815-.708,10.7-.06,1.029-.093,2.573-.133,4.368-.158,7.218-.376,13.431-1.438,16.37-1.511,4.179-4.892,9.668-9.452,11.382A1.928,1.928,0,0,1,458.448,532.369Z" transform="translate(-342.523 -306.543)" fill="#13202f"/>
            <path id="パス_1894" data-name="パス 1894" d="M394.3,380.5a1.266,1.266,0,0,1-.873-.349c-6.967-6.614-12.8-19.288-14.76-27.853a1.268,1.268,0,1,1,2.472-.564c2.2,9.646,8.235,21.072,14.034,26.576a1.27,1.27,0,0,1-.873,2.189Z" transform="translate(-321.79 -285.718)" fill="#13202f"/>
            <path id="パス_1895" data-name="パス 1895" d="M400.044,380.788a1.268,1.268,0,0,1-.966-2.087A59.821,59.821,0,0,0,412.4,352.3a1.268,1.268,0,0,1,2.466.59,62.187,62.187,0,0,1-13.852,27.451A1.261,1.261,0,0,1,400.044,380.788Z" transform="translate(-327.153 -285.871)" fill="#13202f"/>
            <path id="パス_1896" data-name="パス 1896" d="M455.644,501.9a.093.093,0,0,1-.025,0,1.265,1.265,0,0,1-1.244-1.289c.088-4.71-.413-24.714-.9-44.057-.485-19.372-.987-39.4-.9-44.168a1.268,1.268,0,0,1,1.266-1.245l.025,0a1.266,1.266,0,0,1,1.244,1.29c-.088,4.71.413,24.714.9,44.057.485,19.372.987,39.4.9,44.167A1.269,1.269,0,0,1,455.644,501.9Z" transform="translate(-341.477 -301.799)" fill="#13202f"/>
            <path id="パス_1897" data-name="パス 1897" d="M386.755,542.4c-14.321,0-28.666-1.123-37.842-3.2a1.169,1.169,0,1,1,.516-2.281c19.419,4.386,62.255,4.493,77.83-1.412a1.171,1.171,0,0,1,.829,2.19C419.59,540.916,403.19,542.4,386.755,542.4Z" transform="translate(-313.633 -334.895)" fill="#13202f"/>
            <path id="パス_1898" data-name="パス 1898" d="M345.775,715.917h-.037a1.952,1.952,0,0,1-1.914-1.987c.111-5.946-.194-47.178-.489-87.053-.294-39.9-.6-81.152-.489-87.148a1.98,1.98,0,0,1,1.987-1.914,1.952,1.952,0,0,1,1.914,1.987c-.111,5.944.194,47.175.488,87.047.294,39.9.6,81.159.489,87.154A1.951,1.951,0,0,1,345.775,715.917Z" transform="translate(-312.254 -335.529)" fill="#13202f"/>
            <path id="パス_1899" data-name="パス 1899" d="M404.077,580.984a1.936,1.936,0,0,1-.688-.126,36.2,36.2,0,0,0-3.859-1.144,40.433,40.433,0,0,1-4.266-1.272,1.95,1.95,0,0,1,1.377-3.65,36.193,36.193,0,0,0,3.86,1.145,40.281,40.281,0,0,1,4.265,1.272,1.951,1.951,0,0,1-.689,3.775Z" transform="translate(-325.882 -345.343)" fill="#13202f"/>
            <path id="パス_1900" data-name="パス 1900" d="M416.058,728.722a1.951,1.951,0,0,1-1.94-1.763c-.147-1.522-.471-9.148-.963-20.692-1.538-36.088-4.739-111.183-8.065-125.64a1.95,1.95,0,1,1,3.8-.876c3.407,14.81,6.5,87.369,8.161,126.35.471,11.07.812,19.065.95,20.484a1.95,1.95,0,0,1-1.755,2.127C416.184,728.719,416.12,728.722,416.058,728.722Z" transform="translate(-328.821 -346.294)" fill="#13202f"/>
            <path id="パス_1901" data-name="パス 1901" d="M381.725,729.516c-.037,0-.074,0-.111,0a1.95,1.95,0,0,1-1.838-2.055c1.953-34.784,8.2-130.092,10.767-150.455a1.95,1.95,0,0,1,3.87.487c-2.553,20.28-8.793,115.444-10.743,150.186A1.95,1.95,0,0,1,381.725,729.516Z" transform="translate(-322.093 -345.51)" fill="#13202f"/>
            <path id="パス_1902" data-name="パス 1902" d="M454.9,436.166a1.268,1.268,0,0,1-.446-2.455c2.707-1.015,5.824-2.331,8.838-3.6s6.153-2.6,8.9-3.628a1.267,1.267,0,1,1,.892,2.373c-2.7,1.013-5.8,2.324-8.8,3.59-3.037,1.282-6.176,2.608-8.932,3.642A1.267,1.267,0,0,1,454.9,436.166Z" transform="translate(-341.76 -305.862)" fill="#13202f"/>
            <path id="パス_1903" data-name="パス 1903" d="M314.582,441.23a1.559,1.559,0,0,1-1.18-2.578,24.257,24.257,0,0,1,6.419-5.229,20.889,20.889,0,0,0,5.412-4.333,1.561,1.561,0,0,1,2.348,2.057,23.782,23.782,0,0,1-6.125,4.933,21.468,21.468,0,0,0-5.693,4.609A1.553,1.553,0,0,1,314.582,441.23Z" transform="translate(-304.319 -306.437)" fill="#13202f"/>
            <g id="グループ_2161" data-name="グループ 2161" transform="translate(9.999 117.313)">
              <path id="パス_1904" data-name="パス 1904" d="M316.914,424.133c2.936,1.528,5.678,3.447,8.614,4.975" transform="translate(-315.353 -422.571)" fill="#fff"/>
              <path id="パス_1905" data-name="パス 1905" d="M324.96,430.1a1.543,1.543,0,0,1-.719-.175c-1.513-.789-2.977-1.676-4.394-2.536-1.375-.834-2.8-1.7-4.22-2.438a1.56,1.56,0,0,1,1.44-2.769c1.515.788,2.982,1.678,4.4,2.54,1.373.833,2.793,1.7,4.214,2.435a1.56,1.56,0,0,1-.721,2.944Z" transform="translate(-314.787 -422.004)" fill="#13202f"/>
            </g>
            <path id="パス_1906" data-name="パス 1906" d="M452.98,721.514h-.055a1.951,1.951,0,0,1-1.9-2l.1-3.575c2.622-93.129,3.688-148.159,3-154.956a1.95,1.95,0,1,1,3.881-.39c.9,8.917-1.129,89.458-2.986,155.455l-.1,3.572A1.951,1.951,0,0,1,452.98,721.514Z" transform="translate(-341.067 -341.126)" fill="#13202f"/>
            <path id="パス_1907" data-name="パス 1907" d="M458.523,549.345c-1.572,0-2.82-1.413-3.355-3.82a1.268,1.268,0,1,1,2.476-.549c.307,1.381.8,1.806.906,1.836.325-.059,1.868-1.651,2.5-7.932a1.267,1.267,0,1,1,2.522.256c-.652,6.433-2.391,10.06-4.9,10.207C458.627,549.345,458.575,549.345,458.523,549.345Z" transform="translate(-342.161 -335.509)" fill="#13202f"/>
            <path id="パス_1908" data-name="パス 1908" d="M363.141,784.619a34.185,34.185,0,0,1-11.917-2.107,1.171,1.171,0,0,1,.828-2.19,31.777,31.777,0,0,0,17.534,1.269,1.17,1.17,0,1,1,.517,2.282A31.759,31.759,0,0,1,363.141,784.619Z" transform="translate(-314.289 -400.084)" fill="#13202f"/>
            <path id="パス_1909" data-name="パス 1909" d="M431.221,783.915a18.491,18.491,0,0,1-6.375-1,1.17,1.17,0,1,1,.811-2.195c5.32,1.962,13.1.035,16.195-.887a1.17,1.17,0,1,1,.666,2.243A41.469,41.469,0,0,1,431.221,783.915Z" transform="translate(-333.891 -399.96)" fill="#13202f"/>
            <g id="グループ_2164" data-name="グループ 2164" transform="translate(85.618 378.55)">
              <path id="パス_1910" data-name="パス 1910" d="M450.738,788.167c.01-.172-1.565-1.066-1.768-1.221-.608-.467-.348-1.01-.922-1.511a7.915,7.915,0,0,1-2.757-3.972c-.125-.532-.289-1.2-.834-1.274a1,1,0,0,0-.943.682,4.97,4.97,0,0,0-.215,1.213,4.411,4.411,0,0,1-1.449,2.652c-1.347,1.181-4.262,1.484-5.876,2.124-2.273.9-3.839,1.816-6.237,1.793s-4.887-1.221-5.652-3.45a7.819,7.819,0,0,0-.532-1.515,1.216,1.216,0,0,0-1.348-.635c-.715.235-.875,1.166-.9,1.905l-.2,6.2c-.085,2.663-.065,5.622,1.749,7.475a9.692,9.692,0,0,0,4.2,2.1c3.222,1,5.664,2,8.886,3a48.9,48.9,0,0,0,9.863,2.328,17.467,17.467,0,0,0,10.056-1.783,8.108,8.108,0,0,0,3.4-3.227c1.361-2.652.322-5.881-1.585-7.985S453.146,789.686,450.738,788.167Z" transform="translate(-418.711 -778.617)" fill="#dcdfe2"/>
              <path id="パス_1911" data-name="パス 1911" d="M447.219,807.276a29.721,29.721,0,0,1-6.6-.745,22.359,22.359,0,0,1-4.722-1.784,16.629,16.629,0,0,0-4.377-1.585,35.952,35.952,0,0,1-8.069-2.343c-3.733-1.737-5.769-4.657-5.587-8.012a66.413,66.413,0,0,1,1.09-10.376,1.95,1.95,0,1,1,3.805.853,63.879,63.879,0,0,0-1,9.736c-.126,2.3,2.037,3.659,3.336,4.264a32.449,32.449,0,0,0,7.079,2.035,19.9,19.9,0,0,1,5.388,1.9,18.991,18.991,0,0,0,3.928,1.511,24.016,24.016,0,0,0,11.248-.037,5.736,5.736,0,0,0,3.866-2.607,4.625,4.625,0,0,0,.042-3.707c-.708-1.878-3.795-3.929-6.048-5.426-.677-.45-1.308-.87-1.844-1.257a18.011,18.011,0,0,1-6.576-9.018,1.95,1.95,0,1,1,3.655-1.36,14.035,14.035,0,0,0,5.2,7.217c.5.36,1.087.75,1.719,1.169,2.845,1.892,6.387,4.245,7.538,7.3a8.4,8.4,0,0,1-.217,6.856c-.779,1.526-2.506,3.562-6.317,4.6A25.222,25.222,0,0,1,447.219,807.276Z" transform="translate(-417.851 -778.049)" fill="#13202f"/>
              <path id="パス_1912" data-name="パス 1912" d="M433.518,790.879c-2.838,0-6.485-.354-8.08-1.535a1.073,1.073,0,0,1,1.276-1.726c1.541,1.143,7.629,1.341,9.739.937a1.074,1.074,0,0,1,.4,2.11A21.014,21.014,0,0,1,433.518,790.879Z" transform="translate(-419.755 -780.541)" fill="#13202f"/>
              <g id="グループ_2163" data-name="グループ 2163" transform="translate(12.521 5.475)">
                <g id="グループ_2162" data-name="グループ 2162">
                  <path id="パス_1913" data-name="パス 1913" d="M436.244,790.738c4.544-2.8,9.265-4.54,16.916-3.682a7.4,7.4,0,0,1,3.119.891,2.521,2.521,0,0,1,1.217,2.509c-.364,2.211-3.343,1.808-7.7,2.111a21.78,21.78,0,0,0-8.033,1.909" transform="translate(-435.269 -785.863)" fill="#dcdfe2"/>
                  <path id="パス_1914" data-name="パス 1914" d="M441.41,795.1a.975.975,0,0,1-.368-1.878,22.714,22.714,0,0,1,8.333-1.979c.85-.059,1.648-.091,2.385-.122,3.087-.125,4.268-.259,4.419-1.175a1.545,1.545,0,0,0-.774-1.524,6.589,6.589,0,0,0-2.709-.748c-7.415-.832-11.875.817-16.294,3.542a.976.976,0,0,1-1.025-1.66c4.121-2.543,9.1-4.768,17.537-3.821a8.36,8.36,0,0,1,3.531,1.036,3.487,3.487,0,0,1,1.657,3.492c-.422,2.571-3,2.676-6.264,2.807-.721.03-1.5.061-2.329.12a20.845,20.845,0,0,0-7.733,1.838A.956.956,0,0,1,441.41,795.1Z" transform="translate(-434.915 -785.511)" fill="#13202f"/>
                </g>
              </g>
            </g>
            <path id="パス_1915" data-name="パス 1915" d="M422.93,493.252q-.886,0-1.762-.015a1.17,1.17,0,0,1-1.151-1.189,1.108,1.108,0,0,1,1.189-1.151,101.425,101.425,0,0,0,21.229-1.771,1.17,1.17,0,0,1,.52,2.282A99.7,99.7,0,0,1,422.93,493.252Z" transform="translate(-332.809 -322.557)" fill="#13202f"/>
            <path id="パス_1916" data-name="パス 1916" d="M365.675,493.634c-5.112,0-10.882-.48-14.5-1.929a1.169,1.169,0,1,1,.869-2.171c5.061,2.022,14.909,1.988,20.295,1.465a1.191,1.191,0,0,1,1.277,1.053,1.171,1.171,0,0,1-1.052,1.278C370.678,493.511,368.261,493.634,365.675,493.634Z" transform="translate(-314.281 -322.651)" fill="#13202f"/>
            <path id="パス_1917" data-name="パス 1917" d="M421.043,424.948a1.169,1.169,0,1,1,0-2.338,105.353,105.353,0,0,0,19.849-1.522,1.169,1.169,0,1,1,.442,2.3A107.351,107.351,0,0,1,421.043,424.948Z" transform="translate(-332.771 -304.441)" fill="#fff"/>
            <path id="パス_1918" data-name="パス 1918" d="M430.923,397a1.169,1.169,0,0,1-1.169-1.123c-.786-20.3-6.505-46.671-12.426-48.973a1.171,1.171,0,0,1,.847-2.183c8.461,3.292,13.311,35.409,13.918,51.064A1.171,1.171,0,0,1,430.969,397Z" transform="translate(-331.894 -284.093)" fill="#f03748"/>
            <path id="パス_1919" data-name="パス 1919" d="M415.782,343.4a1.95,1.95,0,0,1-1.942-1.792c-.332-4.108-.154-7.386,1.761-11.022,1.608-3.057,3.349-6.561,3.622-9.428a1.951,1.951,0,0,1,3.884.373c-.342,3.571-2.272,7.483-4.055,10.872-1.308,2.483-1.655,4.811-1.325,8.888a1.95,1.95,0,0,1-1.786,2.1C415.888,343.4,415.834,343.4,415.782,343.4Z" transform="translate(-331.128 -277.367)" fill="#13202f"/>
            <path id="パス_1920" data-name="パス 1920" d="M419.069,396.953h-.045a1.172,1.172,0,0,1-1.126-1.214c.112-2.992-2.255-6.209-5.393-7.323-3.229-1.151-6.852-.823-10.282-.385l-.767.1c-3.892.5-7.564.977-11.491-.775-3.8-1.694-6.81-3.581-9.136-7.282-2.532-4.026-3.57-8.753-4.191-12.421a86.01,86.01,0,0,1-1.189-15.586c.054-3.441.542-6.576,5.876-7.136a1.17,1.17,0,1,1,.246,2.327c-3.393.356-3.731,1.611-3.78,4.843a83.435,83.435,0,0,0,1.156,15.16c.584,3.454,1.552,7.889,3.864,11.567,2.012,3.2,4.7,4.868,8.108,6.39,3.33,1.487,6.532,1.068,10.238.592l.771-.1c3.713-.47,7.649-.819,11.363.5,4.112,1.461,7.1,5.6,6.947,9.616A1.171,1.171,0,0,1,419.069,396.953Z" transform="translate(-320.939 -284.167)" fill="#f03748"/>
            <path id="パス_1921" data-name="パス 1921" d="M380.527,343.753c-.073,0-.144,0-.217-.011a1.95,1.95,0,0,1-1.724-2.153c.449-4.064-.239-5.064-1.377-6.721a21.532,21.532,0,0,1-1.279-2.034l-.752-1.374a30.062,30.062,0,0,1-3.7-8.871,1.95,1.95,0,1,1,3.83-.735,26.721,26.721,0,0,0,3.289,7.721l.77,1.4a17.261,17.261,0,0,0,1.062,1.68c1.6,2.327,2.605,4.236,2.04,9.357A1.952,1.952,0,0,1,380.527,343.753Z" transform="translate(-319.873 -277.603)" fill="#13202f"/>
            <path id="パス_1922" data-name="パス 1922" d="M421.043,416.182a1.169,1.169,0,1,1,0-2.338,105.166,105.166,0,0,0,19.849-1.524,1.17,1.17,0,1,1,.442,2.3A107.219,107.219,0,0,1,421.043,416.182Z" transform="translate(-332.771 -302.107)" fill="#13202f"/>
            <path id="パス_1923" data-name="パス 1923" d="M394.517,375.706a30.578,30.578,0,0,1-4.152-.252,1.171,1.171,0,0,1,.322-2.319c3.972.554,9.191-.012,12.646-.385l1.232-.131a1.17,1.17,0,1,1,.24,2.327l-1.221.13A85.492,85.492,0,0,1,394.517,375.706Z" transform="translate(-324.644 -291.54)" fill="#13202f"/>
            <path id="パス_1924" data-name="パス 1924" d="M456.363,550.193a1.17,1.17,0,0,1-1.165-1.078l-.838-10.594a1.167,1.167,0,0,1,1.074-1.259,1.152,1.152,0,0,1,1.258,1.072l.839,10.6a1.17,1.17,0,0,1-1.075,1.258A.792.792,0,0,1,456.363,550.193Z" transform="translate(-341.953 -335.381)" fill="#13202f"/>
            <g id="グループ_2165" data-name="グループ 2165" transform="translate(87.645 171.449)">
              <path id="パス_1925" data-name="パス 1925" d="M422.561,500.96a.4.4,0,0,1-.052,0c-.333-.017-.665-.037-1-.065a.975.975,0,1,1,.149-1.944c.315.025.632.045.95.063a.975.975,0,0,1-.051,1.948Z" transform="translate(-420.612 -496.628)" fill="#13202f"/>
              <path id="パス_1926" data-name="パス 1926" d="M427.714,500.483a.975.975,0,0,1-.025-1.95c.641-.017,1.283-.044,1.924-.082a.941.941,0,0,1,1.03.916.974.974,0,0,1-.916,1.03c-.662.038-1.326.069-1.988.086Zm5.468-.39a.975.975,0,0,1-.108-1.944c.648-.073,1.29-.155,1.923-.238a.953.953,0,0,1,1.1.836.974.974,0,0,1-.837,1.095q-.97.132-1.964.246C433.256,500.09,433.219,500.093,433.183,500.093Zm5.427-.783a.975.975,0,0,1-.166-1.935c.655-.115,1.294-.233,1.913-.349a.975.975,0,1,1,.362,1.916q-.943.181-1.942.352A.81.81,0,0,1,438.609,499.31Z" transform="translate(-422.244 -496.113)" fill="#13202f"/>
              <path id="パス_1927" data-name="パス 1927" d="M449.913,497.938a.975.975,0,0,1-.2-1.93l.949-.2a.975.975,0,0,1,.4,1.908l-.953.2A.912.912,0,0,1,449.913,497.938Z" transform="translate(-428.155 -495.788)" fill="#13202f"/>
            </g>
            <g id="グループ_2166" data-name="グループ 2166" transform="translate(36.3 172.505)">
              <path id="パス_1928" data-name="パス 1928" d="M352.5,499.559a.959.959,0,0,1-.355-.067c-.326-.128-.643-.26-.952-.406a.975.975,0,1,1,.822-1.768c.273.126.553.244.84.357a.975.975,0,0,1-.355,1.884Z" transform="translate(-350.633 -497.226)" fill="#13202f"/>
              <path id="パス_1929" data-name="パス 1929" d="M364.227,501.768H364.2c-.635-.015-1.269-.043-1.9-.081a.975.975,0,1,1,.12-1.947c.6.038,1.213.062,1.823.078a.975.975,0,0,1-.024,1.95Zm3.349-.021a.975.975,0,0,1-.031-1.95q.921-.032,1.832-.088a.975.975,0,1,1,.12,1.947c-.624.038-1.254.07-1.887.092Zm-8.539-.412a1.009,1.009,0,0,1-.148-.011c-.642-.1-1.274-.214-1.889-.348a.975.975,0,1,1,.413-1.9c.577.123,1.169.234,1.77.326a.975.975,0,0,1-.147,1.938Z" transform="translate(-352.124 -497.711)" fill="#13202f"/>
              <path id="パス_1930" data-name="パス 1930" d="M378.436,501.455a.975.975,0,0,1-.1-1.944l.949-.111a.963.963,0,0,1,1.088.846.975.975,0,0,1-.847,1.09c-.324.04-.654.08-.988.114A.948.948,0,0,1,378.436,501.455Z" transform="translate(-357.777 -497.802)" fill="#13202f"/>
            </g>
            <path id="パス_1931" data-name="パス 1931" d="M339.895,806.124c-.426,0-.855-.006-1.288-.021-3.421-.106-7.64-.634-9.92-3.763a.78.78,0,1,1,1.261-.918c1.882,2.583,5.642,3.027,8.709,3.124a34.7,34.7,0,0,0,11.263-1.468c1.338-.39,2.46-.821,3.546-1.239a33.351,33.351,0,0,1,7.19-2.057c2.61-.436,5.787-1.845,5.819-2.939.012-.431.387-.848.8-.757a.78.78,0,0,1,.757.8c-.094,3.168-7.051,4.421-7.122,4.432a31.526,31.526,0,0,0-6.888,1.975c-1.116.429-2.269.872-3.67,1.278A36.215,36.215,0,0,1,339.895,806.124Z" transform="translate(-308.45 -404.298)" fill="#13202f"/>
            <path id="パス_1932" data-name="パス 1932" d="M447.98,806.124a36.212,36.212,0,0,1-10.46-1.55c-1.4-.406-2.553-.85-3.669-1.278a31.565,31.565,0,0,0-6.888-1.975c-.07-.011-7.029-1.263-7.121-4.432a.779.779,0,0,1,.756-.8.718.718,0,0,1,.8.757c.031,1.095,3.209,2.5,5.818,2.938a33.359,33.359,0,0,1,7.191,2.057c1.086.417,2.208.85,3.545,1.239a34.759,34.759,0,0,0,11.263,1.468c3.067-.1,6.827-.541,8.709-3.123a.78.78,0,1,1,1.261.918c-2.28,3.129-6.5,3.657-9.92,3.763C448.834,806.118,448.406,806.124,447.98,806.124Z" transform="translate(-332.762 -404.299)" fill="#13202f"/>
          </g>
        </g>
        <g id="グループ_2178" data-name="グループ 2178" transform="translate(135.492 13.785)">
          <path id="パス_1933" data-name="パス 1933" d="M676.709,773.609l-2.69,7.186c-.769,2.055-1.541,4.341-.74,6.383a6.2,6.2,0,0,0,2.741,2.952,9.683,9.683,0,0,0,14.268-5.954c1.09-4.252-.779-8.78-.031-13.105" transform="translate(-639.27 -411.426)" fill="#fff"/>
          <path id="パス_1934" data-name="パス 1934" d="M717.528,774.753a25.486,25.486,0,0,0-.955,7.675,8.616,8.616,0,0,0,3.5,6.626c2.4,1.556,5.506,1.326,8.346.963,1.516-.194,3.184-.494,4.132-1.693,1.35-1.706.535-4.17-.105-6.25a28.906,28.906,0,0,1-1.04-12.1" transform="translate(-650.877 -411.134)" fill="#fff"/>
          <path id="パス_1935" data-name="パス 1935" d="M637.041,422.911a67.557,67.557,0,0,0-7.472,25.413,14.629,14.629,0,0,0,.463,6.3,5.807,5.807,0,0,0,4.549,3.974c3.29.324,5.685-2.93,7.35-5.785l15.236-26.127c1.773-3.041,3.608-6.587,2.466-9.917" transform="translate(-627.687 -317.083)" fill="#fff"/>
          <path id="パス_1936" data-name="パス 1936" d="M743.277,531.74a6.823,6.823,0,0,0,7.438,2.08,11.217,11.217,0,0,0,6.06-5.3c2.919-5.072,2.974-11.236,2.951-17.088q-.164-41.412-.328-82.823a2.083,2.083,0,0,0-3.1-2.416L735.6,432.083" transform="translate(-655.955 -319.527)" fill="#fff"/>
          <path id="パス_1937" data-name="パス 1937" d="M715.06,351.749c-3.839-1.477-5.642-6.144-5.16-10.228s2.713-7.724,4.887-11.216,4.4-7.136,4.868-11.222a17.335,17.335,0,0,0-3.137-11.475,31.717,31.717,0,0,0-8.766-8.3,25.694,25.694,0,0,0-10.474-4.528c-3.8-.547-7.952.364-10.663,3.078-2.405,2.407-3.391,5.849-4.289,9.131-1.293,4.734-2.593,9.731-1.372,14.484,1.036,4.031,3.757,7.372,5.945,10.912s3.928,7.814,2.711,11.795c-.7,2.28-2.284,4.173-3.272,6.342a17.3,17.3,0,0,0-.847,10.5,51.506,51.506,0,0,0,3.52,10.1,24.467,24.467,0,0,0,4.276,7.427c1.976,2.086,4.956,3.463,7.74,2.759,3.194-.809,5.154-3.966,6.544-6.953s2.713-6.281,5.512-8.018" transform="translate(-641.273 -284.559)" fill="#fff"/>
          <g id="グループ_2177" data-name="グループ 2177">
            <path id="パス_1938" data-name="パス 1938" d="M659.41,510.248c-1.146,22.636-1.3,42.788-.464,65.438.792,21.479,3.542,42.829,4.654,64.224,1.137,21.889,3.422,43.784,5.129,65.637a31.755,31.755,0,0,0,19.325.9q-.679-76.792,3.171-153.535l7.642,4.062.078,15.193c.223,43.45-.277,86.94.8,130.314a5.8,5.8,0,0,0,.638,3.04c1.172,1.821,7.032,2.647,8.966,2.8,3.25.266,6.789-.719,8.786-3.3,1.792-2.314,2.05-5.428,2.238-8.349.69-10.709,2.4-21.871,2.1-32.592-.269-9.737,2.267-19.736,3.489-29.466a657.732,657.732,0,0,0,4.549-68.42q.278-18.551-.607-37.1c-.387-8.093-.941-10.824-3.517-18.506" transform="translate(-635.402 -341.974)" fill="#f03748"/>
            <path id="パス_1939" data-name="パス 1939" d="M719.621,455.422a46.536,46.536,0,0,1-1.177-16.718c.492-5.664,1.5-11.53,1.5-17.212l18.622-6.267a41.111,41.111,0,0,0-20.442-38.754c-2.878-1.671-5.957-2.6-8.942-4-.953-.447-9.122-4.517-8.818-5.509a78.878,78.878,0,0,1-10.21,21.225c-.462.678-1.062,1.42-1.883,1.424-.858.006-1.476-.794-1.938-1.517a95.236,95.236,0,0,1-9.872-20.49A37.166,37.166,0,0,0,645.4,392.518c-1.122,3.261-2.521,6.339-3.912,9.518l-2.422,5.536c-.545,1.246-2.12,3.507-2.12,4.844l14.229,3.215a7.388,7.388,0,0,1,3.52,1.479,7.106,7.106,0,0,1,1.731,4.074A87.726,87.726,0,0,1,654.5,460.8c-1.45,5.086-1.44,10.1-1.8,15.3a2.124,2.124,0,0,0,.11,1.074,2.04,2.04,0,0,0,1.307.886c2.445.794,4.889.734,7.35,1.252a49.21,49.21,0,0,0,5.289.833,89.085,89.085,0,0,0,13.766.03c2.046-.115,4.174-.433,6.2-.379,2.212.059,4.449.518,6.671.627a75.793,75.793,0,0,0,26.429-3.395c1.955-.617,2.821-1.472,2.851-3.543C722.747,468,721.009,460.725,719.621,455.422Z" transform="translate(-629.684 -303.82)" fill="#646e73"/>
            <path id="パス_1940" data-name="パス 1940" d="M710.314,396.581a1.17,1.17,0,0,1-.74-2.076c6.174-5.03,10.826-13.61,14.934-22.135a1.171,1.171,0,0,1,2.109,1.017c-4.225,8.767-9.036,17.614-15.564,22.931A1.162,1.162,0,0,1,710.314,396.581Z" transform="translate(-648.909 -305.083)" fill="#fff"/>
            <path id="パス_1941" data-name="パス 1941" d="M697.208,396.643a1.174,1.174,0,0,1-.828-.341,57.749,57.749,0,0,1-14.172-23.69,1.17,1.17,0,1,1,2.231-.708,55.408,55.408,0,0,0,13.6,22.74,1.17,1.17,0,0,1-.828,2Z" transform="translate(-641.723 -304.919)" fill="#fff"/>
            <path id="パス_1942" data-name="パス 1942" d="M749.715,430.438a1.171,1.171,0,0,1-.478-2.239c2.6-1.16,5.583-2.377,8.472-3.556,2.859-1.165,5.815-2.371,8.367-3.51a1.17,1.17,0,0,1,.955,2.137c-2.588,1.154-5.562,2.367-8.438,3.54s-5.838,2.381-8.4,3.525A1.169,1.169,0,0,1,749.715,430.438Z" transform="translate(-659.401 -318.217)" fill="#fff"/>
            <path id="パス_1943" data-name="パス 1943" d="M643.888,422.983a1.166,1.166,0,0,1-.492-.11l-4.341-2.01a1.171,1.171,0,0,1,.983-2.126l4.342,2.013a1.171,1.171,0,0,1-.493,2.232Z" transform="translate(-630.066 -317.578)" fill="#fff"/>
            <path id="パス_1944" data-name="パス 1944" d="M636.286,415.421a1.946,1.946,0,0,1-1.247-.451,4.264,4.264,0,0,0-.707-.468c-1.575-.884-1.994-2-1.5-3.964a46.378,46.378,0,0,1,2.938-7.468l1.562-3.448c3.258-7.251,6.625-14.747,12.519-20.786,4.171-4.276,8.719-6.345,13.985-8.74,2.881-1.31,6.148-2.8,9.736-4.835a1.95,1.95,0,1,1,1.926,3.391c-3.739,2.123-7.09,3.65-10.047,4.994-5.111,2.326-9.148,4.162-12.808,7.914-5.411,5.544-8.491,12.4-11.752,19.661l-1.577,3.48a45.42,45.42,0,0,0-2.66,6.641,7.58,7.58,0,0,1,.882.63,1.951,1.951,0,0,1-1.249,3.449Z" transform="translate(-628.537 -303.299)" fill="#13202f"/>
            <ellipse id="楕円形_304" data-name="楕円形 304" cx="1.906" cy="2.511" rx="1.906" ry="2.511" transform="translate(48.933 24.832)" fill="#13202f"/>
            <ellipse id="楕円形_305" data-name="楕円形 305" cx="1.906" cy="2.511" rx="1.906" ry="2.511" transform="translate(63.507 24.91)" fill="#13202f"/>
            <path id="パス_1945" data-name="パス 1945" d="M705.926,331.719a2.515,2.515,0,0,1-1.31-.349.78.78,0,1,1,.823-1.325,1.043,1.043,0,0,0,.918.017.78.78,0,0,1,.939,1.246A2.31,2.31,0,0,1,705.926,331.719Z" transform="translate(-647.606 -293.952)" fill="#13202f"/>
            <path id="パス_1946" data-name="パス 1946" d="M705.148,341.284a6.375,6.375,0,0,1-3-.661.877.877,0,1,1,.85-1.535,5.664,5.664,0,0,0,4.718-.158.877.877,0,1,1,.95,1.474A6.735,6.735,0,0,1,705.148,341.284Z" transform="translate(-646.927 -296.318)" fill="#13202f"/>
            <ellipse id="楕円形_306" data-name="楕円形 306" cx="1.12" cy="1.12" rx="1.12" ry="1.12" transform="translate(54.046 42.146)" fill="#13202f"/>
            <ellipse id="楕円形_307" data-name="楕円形 307" cx="1.12" cy="1.12" rx="1.12" ry="1.12" transform="translate(60.521 42.002)" fill="#13202f"/>
            <path id="パス_1947" data-name="パス 1947" d="M682.534,332.131a1.93,1.93,0,0,1-.64-.109c-4.673-1.623-5.109-10.8-4.256-14.2a1.95,1.95,0,1,1,3.782.948c-.853,3.4.4,9.1,1.753,9.569a1.95,1.95,0,0,1-.64,3.792Z" transform="translate(-640.427 -290.342)" fill="#13202f"/>
            <path id="パス_1948" data-name="パス 1948" d="M727.875,332.4a1.462,1.462,0,0,1-.614-2.79c2.222-1.027,2.927-7.188,1.3-11.371a1.463,1.463,0,1,1,2.727-1.059c1.81,4.655,1.616,13.046-2.8,15.084A1.463,1.463,0,0,1,727.875,332.4Z" transform="translate(-653.508 -290.316)" fill="#13202f"/>
            <path id="パス_1949" data-name="パス 1949" d="M712.191,304.95q-.227-.414-.484-.809a6.367,6.367,0,0,0-2.082-2.192c-1.026-.591-2.119-1.056-3.195-1.548-4.742-2.17-10.307-3.038-14.135-6.58-5.252,4.333-7.417,8.847-7.811,15.644-.034.584-.112,1.279-.631,1.55-.636.332-1.383-.277-1.673-.933-.337-.763-.378-1.753-1.216-2.036-.719-.242-1.356.671-2.055-.4a3.6,3.6,0,0,1-.382-2.084c.133-5.093.574-10.671,3.247-15.091a20.282,20.282,0,0,1,14.337-9.364,21.866,21.866,0,0,1,12.255,1.85c3.757,1.658,7.072,5.692,8.722,9.472,2.7,6.18,1.722,12.172-.419,18.295a4,4,0,0,1-.612,1.253,1.35,1.35,0,0,1-1.227.533,1.387,1.387,0,0,1-.978-.966,5.26,5.26,0,0,1-.18-1.425A12.182,12.182,0,0,0,712.191,304.95Z" transform="translate(-640.756 -280.905)" fill="#13202f"/>
            <path id="パス_1950" data-name="パス 1950" d="M728.762,303.549a7.28,7.28,0,0,1,7.145,2.567,11.7,11.7,0,0,1,2.454,7.457,31.254,31.254,0,0,1-1.239,7.889,12.1,12.1,0,0,0-.554,3.806,3.943,3.943,0,0,0,1.824,3.223c.58.315,1.3.462,1.669,1.011a1.616,1.616,0,0,1-.3,1.926,4.149,4.149,0,0,1-1.84.977,22.33,22.33,0,0,1-11.492.457,45.353,45.353,0,0,0,3.389-7.091,15.215,15.215,0,0,0,.772-7.742c-.58-3.023-2.348-5.663-4.077-8.21" transform="translate(-653.511 -286.884)" fill="#13202f"/>
            <path id="パス_1951" data-name="パス 1951" d="M755.607,417.556a1.95,1.95,0,0,1-.6-3.807l.738-.231c1.344-.409,2.733-.833,3.317-1.654.375-1.057-.644-5.367-3.088-12.71l-.453-1.371a37.185,37.185,0,0,0-5.715-11.4c-4.31-5.589-10.32-8.729-17.278-12.365a124.811,124.811,0,0,1-12.423-7.141,1.951,1.951,0,0,1,2.183-3.234,120.738,120.738,0,0,0,12.048,6.918c7.058,3.689,13.726,7.173,18.56,13.441a40.972,40.972,0,0,1,6.336,12.578l.443,1.343c2.98,8.946,4.194,13.91,2.568,16.2-1.354,1.9-3.573,2.583-5.356,3.128l-.688.213A1.961,1.961,0,0,1,755.607,417.556Z" transform="translate(-651.601 -302.847)" fill="#13202f"/>
            <g id="グループ_2170" data-name="グループ 2170" transform="translate(11.555 72.244)">
              <path id="パス_1952" data-name="パス 1952" d="M662.3,417.535l8.948.96a5.806,5.806,0,0,0,3.92-.5,4.1,4.1,0,0,0,1.588-3.024c.238-2.408-.679-4.964-1.225-7.275l-1.821-7.729-3.643-15.458a4.521,4.521,0,0,0-1.192-2.523,4.262,4.262,0,0,0-2.939-.645q-5.234.154-10.463.462c-1.569.093-3.447.408-4.062,1.891a4.538,4.538,0,0,0,.084,2.784l4.265,17.421" transform="translate(-645.042 -379.89)" fill="#f03748"/>
              <path id="パス_1953" data-name="パス 1953" d="M654.021,432.723c1.2-1.065.826-1.789,1.816-3.09a11.238,11.238,0,0,1,4.132-3.855,15.386,15.386,0,0,1,3.741-.777,18.627,18.627,0,0,0,7.15-2.724,3.169,3.169,0,0,0,1.1-1.012,1.262,1.262,0,0,0-.049-1.427,1.789,1.789,0,0,0-1.459-.378l-10.943.459,7.749-5.182a6.911,6.911,0,0,0,2.389-2.225,2.456,2.456,0,0,0-.365-3.04,2.374,2.374,0,0,0,2.1-2.8,2.32,2.32,0,0,0-3.094-1.564,1.724,1.724,0,0,0-.3-2.37,4.319,4.319,0,0,0-2.453-.825,18.678,18.678,0,0,0-5.185.07c-4.233.741-7.921,3.581-10.472,7.12s-2.829,6.64-3.994,10.878c-1,3.655-1.752,7.6-.558,11.2.378,1.142,2.621,6.462,4.22,5.953a1.226,1.226,0,0,0,.572-.556,17.951,17.951,0,0,1,3.8-3.774C653.955,432.781,653.988,432.753,654.021,432.723Z" transform="translate(-643.308 -385.332)" fill="#fff"/>
              <path id="パス_1954" data-name="パス 1954" d="M661.853,419.151a1.462,1.462,0,0,1-.062-2.923c.392-.018,9.633-.421,11.544-.425a1.446,1.446,0,0,0,1.051-.32,1.982,1.982,0,0,0,.2-1.483c-1.341-7.573-4.317-22.606-6.448-30.815a1.152,1.152,0,0,0-1.144-.893c-3.969.04-9.941.28-14.346.732a.908.908,0,0,0-.639.373,1.008,1.008,0,0,0-.167.814c.285,1.312.713,3.365,1.168,5.542.753,3.614,1.608,7.706,1.951,9.085a1.463,1.463,0,0,1-2.838.709c-.358-1.434-1.181-5.38-1.977-9.195-.452-2.167-.877-4.212-1.162-5.52a3.948,3.948,0,0,1,.657-3.152,3.84,3.84,0,0,1,2.71-1.566c4.5-.461,10.578-.706,14.612-.746H667a4.1,4.1,0,0,1,3.962,3.083c2.15,8.285,5.148,23.421,6.5,31.042a4.851,4.851,0,0,1-.833,3.868,4.08,4.08,0,0,1-3.288,1.369c-1.851,0-11.328.417-11.423.421Z" transform="translate(-644.42 -379.367)" fill="#13202f"/>
              <path id="パス_1955" data-name="パス 1955" d="M662.449,421.366a1.068,1.068,0,0,1-.831-1.737c.5-.61,1.647-1.247,3.8-2.417,2.366-1.286,5.944-3.226,6.688-4.586a2.4,2.4,0,0,0,.032-1.868,1.075,1.075,0,0,1,.42-1.227l.394-.255c.35-.223,1.17-.746,1.241-1.015a.781.781,0,0,0-.395-.526c-1.241-.77-4.536-.343-7.071.385a22.794,22.794,0,0,0-3.233,1.268,21.366,21.366,0,0,1-4.311,1.572,1.072,1.072,0,1,1-.475-2.091,19.444,19.444,0,0,0,3.9-1.434,24.614,24.614,0,0,1,3.529-1.375c1.448-.418,6.368-1.657,8.8-.145a2.91,2.91,0,0,1,1.371,2c.259,1.438-.99,2.388-1.919,2.994a4.139,4.139,0,0,1-.4,2.752c-.971,1.773-3.866,3.441-7.548,5.441a22.22,22.22,0,0,0-3.168,1.893A1.09,1.09,0,0,1,662.449,421.366Z" transform="translate(-646.813 -386.241)" fill="#13202f"/>
              <path id="パス_1956" data-name="パス 1956" d="M660.291,417.994a.975.975,0,0,1-.344-1.888c.986-.371,1.9-.7,2.79-1.013,1.594-.565,3.1-1.1,4.743-1.814a.976.976,0,0,1,.777,1.79c-1.7.741-3.241,1.285-4.868,1.862-.876.313-1.781.632-2.754,1A1,1,0,0,1,660.291,417.994Z" transform="translate(-647.196 -388.376)" fill="#13202f"/>
              <g id="グループ_2169" data-name="グループ 2169" transform="translate(14.164 32.822)">
                <path id="パス_1957" data-name="パス 1957" d="M664.153,426.191c2.126.109,5.915.431,8-.045a12.509,12.509,0,0,1,3.076-.436c.856.015,1.7.519,1.625,1.212a1.954,1.954,0,0,1-.6,1.008c-1.519,1.646-3.661,1.853-5.926,2.649a26.755,26.755,0,0,1-6.629,1.473" transform="translate(-662.527 -424.529)" fill="#fff"/>
                <path id="パス_1958" data-name="パス 1958" d="M663.271,432.793a1.17,1.17,0,0,1-.166-2.327l.819-.118a22.748,22.748,0,0,0,5.591-1.3c.6-.209,1.188-.381,1.761-.547a7.462,7.462,0,0,0,3.692-1.792c.072-.076.127-.139.169-.193a1.173,1.173,0,0,0-.357-.065,13.643,13.643,0,0,0-2.794.409,30.786,30.786,0,0,1-7.327.128l-.991-.055a1.17,1.17,0,0,1-1.108-1.228,1.135,1.135,0,0,1,1.228-1.111l1.01.057a30.379,30.379,0,0,0,6.667-.072,11.277,11.277,0,0,1,3.355-.467,3.09,3.09,0,0,1,2.261.96,2,2,0,0,1,.51,1.548,3.081,3.081,0,0,1-.9,1.677,9.555,9.555,0,0,1-4.761,2.451c-.533.155-1.08.313-1.636.508a25.176,25.176,0,0,1-6.038,1.41l-.813.117A1.329,1.329,0,0,1,663.271,432.793Z" transform="translate(-662.103 -424.101)" fill="#13202f"/>
              </g>
              <path id="パス_1959" data-name="パス 1959" d="M643.97,427.247a1.1,1.1,0,0,1-.282-.036,1.17,1.17,0,0,1-.854-1.417c.646-2.6,1.053-5.251,1.412-7.588a24.743,24.743,0,0,1,1.211-5.642c1.371-2.874,3.4-6.489,6.93-8.959,2.663-1.865,5.86-2.461,8.919-2.829,4.065-.488,6.56-.044,7.632,1.358a2.87,2.87,0,0,1,.237,2.986,1.17,1.17,0,1,1-2.17-.876c.077-.192.189-.536.073-.688-.288-.381-1.773-.9-5.493-.457-2.757.331-5.617.853-7.858,2.421-3.084,2.158-4.911,5.435-6.159,8.05a26.946,26.946,0,0,0-1.01,4.989c-.349,2.27-.782,5.1-1.454,7.8A1.171,1.171,0,0,1,643.97,427.247Z" transform="translate(-642.799 -385.017)" fill="#13202f"/>
            </g>
            <path id="パス_1960" data-name="パス 1960" d="M635.524,462.649a8.437,8.437,0,0,1-4.759-1.609c-2.954-2.008-4.156-5.791-3.571-11.243a57.175,57.175,0,0,1,6.723-21.33,1.951,1.951,0,0,1,3.416,1.886,53.229,53.229,0,0,0-6.261,19.859c-.287,2.688-.194,6.188,1.886,7.6a4.119,4.119,0,0,0,3.35.838c1.793-.442,3.689-2.446,5.485-5.8.6-1.116,1.345-2.929,2.068-4.683a56.786,56.786,0,0,1,2.647-5.858c.585-1.025,1.25-2.057,1.922-3.1a31.85,31.85,0,0,0,3.3-5.981,1.951,1.951,0,0,1,3.666,1.333,34.781,34.781,0,0,1-3.687,6.763c-.635.983-1.263,1.954-1.814,2.917a55.49,55.49,0,0,0-2.428,5.409c-.794,1.93-1.544,3.752-2.236,5.044-2.365,4.413-5.055,7.019-7.992,7.74A7.2,7.2,0,0,1,635.524,462.649Z" transform="translate(-627.05 -319.929)" fill="#13202f"/>
            <path id="パス_1961" data-name="パス 1961" d="M639.349,440.125a1.169,1.169,0,0,1-.89-1.927l3.387-3.988a1.17,1.17,0,1,1,1.782,1.516l-3.387,3.988A1.167,1.167,0,0,1,639.349,440.125Z" transform="translate(-630.014 -321.617)" fill="#13202f"/>
            <path id="パス_1962" data-name="パス 1962" d="M642.713,430.856a1.149,1.149,0,0,1-.5-.114l-3.041-1.434a1.17,1.17,0,1,1,1-2.118l3.044,1.437a1.171,1.171,0,0,1-.5,2.228Z" transform="translate(-630.099 -319.827)" fill="#13202f"/>
            <path id="パス_1963" data-name="パス 1963" d="M749.923,439.074a1.171,1.171,0,0,1-.421-2.263c2.31-.89,4.881-1.84,7.454-2.79,2.6-.956,5.192-1.916,7.521-2.813a1.17,1.17,0,0,1,.841,2.183c-2.338.9-4.946,1.864-7.551,2.826-2.563.947-5.124,1.891-7.422,2.777A1.187,1.187,0,0,1,749.923,439.074Z" transform="translate(-659.457 -320.906)" fill="#13202f"/>
            <path id="パス_1964" data-name="パス 1964" d="M758.5,536.8a1.95,1.95,0,0,1-1.544-3.141c3.1-4.026,6.19-8.369,6.877-13.305a31.941,31.941,0,0,0-.115-7.18l-.109-1.249c-.445-5.364-.471-8.066-.488-13.666-.012-3.963.106-7.628.219-11.172a163.279,163.279,0,0,0-.153-19.069l-.059-.743a104.275,104.275,0,0,1-.47-14.515c.205-4.063.294-10.134.269-18.56a1.951,1.951,0,0,1,1.944-1.956h.006a1.95,1.95,0,0,1,1.95,1.945c.026,8.5-.064,14.636-.274,18.769a101.492,101.492,0,0,0,.464,14l.06.747a166.559,166.559,0,0,1,.162,19.5c-.112,3.51-.229,7.14-.217,11.035.016,5.273.024,7.919.475,13.353l.107,1.227a35.379,35.379,0,0,1,.092,8.064c-.819,5.884-4.38,10.9-7.652,15.149A1.945,1.945,0,0,1,758.5,536.8Z" transform="translate(-661.532 -321.204)" fill="#13202f"/>
            <path id="パス_1965" data-name="パス 1965" d="M657.049,495.9a1.865,1.865,0,0,1-.467-.057,1.949,1.949,0,0,1-1.429-2.357c4.653-18.93,6-39.711,3.614-55.592a1.95,1.95,0,1,1,3.856-.579c2.462,16.357,1.085,37.7-3.682,57.1A1.951,1.951,0,0,1,657.049,495.9Z" transform="translate(-634.518 -322.11)" fill="#13202f"/>
            <path id="パス_1966" data-name="パス 1966" d="M691.394,521.3c-12.2,0-24.5-.864-32.021-2.811a1.171,1.171,0,0,1,.587-2.266c15.927,4.127,55.653,3.206,65.812-.525a1.171,1.171,0,0,1,.808,2.2C720.745,520.042,706.141,521.3,691.394,521.3Z" transform="translate(-635.423 -343.408)" fill="#13202f"/>
            <path id="パス_1967" data-name="パス 1967" d="M751.169,489.391a.163.163,0,0,1-.027,0A1.267,1.267,0,0,1,749.9,488.1c.13-6.1-.963-12.828-2.02-19.331a118.443,118.443,0,0,1-1.653-12.915,159.96,159.96,0,0,1,.452-20c.571-8,1.02-14.315-1.355-24.31a1.268,1.268,0,1,1,2.467-.586c2.465,10.374,2,16.861,1.418,25.078a157.678,157.678,0,0,0-.448,19.712,116.963,116.963,0,0,0,1.623,12.62c1.075,6.615,2.187,13.456,2.052,19.791A1.269,1.269,0,0,1,751.169,489.391Z" transform="translate(-658.535 -315.273)" fill="#13202f"/>
            <ellipse id="楕円形_308" data-name="楕円形 308" cx="2.115" cy="2.115" rx="2.115" ry="2.115" transform="translate(85.913 93.992)" fill="#13202f"/>
            <path id="パス_1968" data-name="パス 1968" d="M668.686,709.422a1.95,1.95,0,0,1-1.941-1.781c-.676-7.738-1.385-15.688-2.1-23.752-5.713-64.11-12.188-136.772-7.838-165.73a1.95,1.95,0,1,1,3.856.579c-4.279,28.5,2.173,100.913,7.867,164.8.719,8.066,1.428,16.017,2.1,23.759a1.949,1.949,0,0,1-1.773,2.112A1.69,1.69,0,0,1,668.686,709.422Z" transform="translate(-634.593 -343.639)" fill="#13202f"/>
            <path id="パス_1969" data-name="パス 1969" d="M740.024,719.23c-.039,0-.079,0-.119,0a1.95,1.95,0,0,1-1.829-2.065c1.386-22.979,3.415-46.238,5.375-68.731,3.033-34.775,5.9-67.62,5.647-92.018a1.95,1.95,0,1,1,3.9-.038c.251,24.586-2.62,57.522-5.661,92.394-1.959,22.469-3.984,45.7-5.369,68.63A1.95,1.95,0,0,1,740.024,719.23Z" transform="translate(-656.613 -353.741)" fill="#13202f"/>
            <path id="パス_1970" data-name="パス 1970" d="M710.259,575.284a1.944,1.944,0,0,1-1.493-.695,21.808,21.808,0,0,0-4.217-3.482,24.827,24.827,0,0,1-4.966-4.165,1.95,1.95,0,1,1,2.985-2.511,21.8,21.8,0,0,0,4.217,3.482,24.8,24.8,0,0,1,4.965,4.165,1.95,1.95,0,0,1-1.491,3.206Z" transform="translate(-646.242 -356.217)" fill="#13202f"/>
            <path id="パス_1971" data-name="パス 1971" d="M713.73,725.335a1.95,1.95,0,0,1-1.95-1.95c0-26.356-.263-123.567-.4-146.5a1.949,1.949,0,0,1,1.938-1.962h.012a1.951,1.951,0,0,1,1.95,1.939c.134,22.939.4,120.164.4,146.524A1.95,1.95,0,0,1,713.73,725.335Z" transform="translate(-649.506 -359.195)" fill="#13202f"/>
            <path id="パス_1972" data-name="パス 1972" d="M698.807,723.511h0a1.951,1.951,0,0,1-1.95-1.952c.005-8.814.446-42.92.872-75.9.425-32.871.865-66.86.869-75.635a1.951,1.951,0,0,1,1.95-1.949h0a1.95,1.95,0,0,1,1.949,1.953c-.005,8.8-.445,42.8-.87,75.681-.426,32.97-.867,67.063-.871,75.856A1.951,1.951,0,0,1,698.807,723.511Z" transform="translate(-645.638 -357.371)" fill="#13202f"/>
            <path id="パス_1973" data-name="パス 1973" d="M683.956,780.422a27.106,27.106,0,0,1-7.806-1.135,1.169,1.169,0,1,1,.674-2.239,25.143,25.143,0,0,0,14.286,0,1.171,1.171,0,0,1,.671,2.244A27.368,27.368,0,0,1,683.956,780.422Z" transform="translate(-639.902 -413.003)" fill="#13202f"/>
            <path id="パス_1974" data-name="パス 1974" d="M724.123,780.644a29.021,29.021,0,0,1-9.034-1.442,1.171,1.171,0,0,1,.754-2.217c4.686,1.594,11.686,2.007,16-.294a1.17,1.17,0,0,1,1.1,2.065A18.987,18.987,0,0,1,724.123,780.644Z" transform="translate(-650.282 -412.885)" fill="#13202f"/>
            <g id="グループ_2172" data-name="グループ 2172" transform="translate(63.891 364.32)">
              <path id="パス_1975" data-name="パス 1975" d="M717.726,783.74c-.943,4.488,6.6,3.593,9.312,3.423,1.835-.115,3.744-.363,5.461.281,3.3,1.239,3.486,4.93,4.22,7.8.7,2.737,1.316,5.911-.438,8.151a6.859,6.859,0,0,1-3.226,2.1,12.261,12.261,0,0,1-12.171-2.7c-2.066-1.987-3.745-5.162-3.481-8.057.307-3.377-.555-6.752-.22-10.194" transform="translate(-714.921 -779.119)" fill="#dcdfe2"/>
              <path id="パス_1976" data-name="パス 1976" d="M727.881,806.428a10.742,10.742,0,0,1-8.173-3.2c-6.248-6.253-5.847-13.673-5.292-23.942a1.95,1.95,0,1,1,3.895.209c-.566,10.485-.639,16.178,4.157,20.977,1.586,1.589,3.371,2.185,6.193,2.035,3.142-.162,5.272-1.517,5.7-3.624a12.039,12.039,0,0,0-.177-4.824c-.677-2.275-1.441-4.3-2.25-6.444-.8-2.116-1.623-4.3-2.341-6.713a1.95,1.95,0,0,1,3.739-1.112c.678,2.274,1.442,4.3,2.253,6.448.8,2.115,1.621,4.3,2.338,6.705a15.935,15.935,0,0,1,.261,6.714c-.792,3.906-4.363,6.49-9.322,6.748C728.527,806.421,728.2,806.428,727.881,806.428Z" transform="translate(-714.128 -777.441)" fill="#13202f"/>
              <g id="グループ_2171" data-name="グループ 2171" transform="translate(5.656 6.667)">
                <path id="パス_1977" data-name="パス 1977" d="M724.412,794.293a19.043,19.043,0,0,1,8.553-.855c2.151.279,4.426.285,3.858-2.68-.782-4.078-10.791-2.873-13.656-2.2" transform="translate(-722.191 -786.882)" fill="#dcdfe2"/>
                <path id="パス_1978" data-name="パス 1978" d="M724.058,794.914a.976.976,0,0,1-.315-1.9,19.949,19.949,0,0,1,8.995-.9c.546.07,2.2.284,2.663-.2a1.642,1.642,0,0,0,.11-1.326,1.7,1.7,0,0,0-.828-1.11c-2.424-1.569-8.885-.973-11.646-.322a.974.974,0,1,1-.448-1.9c1.9-.448,9.692-1.663,13.154.582a3.594,3.594,0,0,1,1.684,2.379,3.309,3.309,0,0,1-.606,3.03c-1,1.067-2.68,1.012-4.333.8a18.1,18.1,0,0,0-8.114.809A1,1,0,0,1,724.058,794.914Z" transform="translate(-721.837 -786.528)" fill="#13202f"/>
              </g>
              <path id="パス_1979" data-name="パス 1979" d="M720.952,788.092a1.17,1.17,0,0,1-.365-.059,5.778,5.778,0,0,1-3.917-5.369,1.184,1.184,0,0,1,1.176-1.164,1.17,1.17,0,0,1,1.164,1.175,3.426,3.426,0,0,0,2.307,3.133,1.171,1.171,0,0,1-.365,2.283Z" transform="translate(-714.805 -778.522)" fill="#13202f"/>
            </g>
            <g id="グループ_2174" data-name="グループ 2174" transform="translate(29.037 364.319)">
              <path id="パス_1980" data-name="パス 1980" d="M688.765,783.74c.943,4.488-6.6,3.593-9.312,3.423-1.836-.115-3.745-.363-5.462.281-3.3,1.239-3.486,4.93-4.22,7.8-.7,2.737-1.317,5.911.438,8.151a6.864,6.864,0,0,0,3.226,2.1,12.26,12.26,0,0,0,12.171-2.7c2.066-1.987,3.745-5.162,3.482-8.057-.307-3.377.555-6.752.22-10.194" transform="translate(-667.275 -779.118)" fill="#dcdfe2"/>
              <path id="パス_1981" data-name="パス 1981" d="M677.167,806.428c-.32,0-.646-.007-.981-.024-4.959-.258-8.53-2.842-9.321-6.748a15.937,15.937,0,0,1,.261-6.714c.718-2.406,1.543-4.592,2.34-6.708.809-2.145,1.573-4.173,2.251-6.447a1.951,1.951,0,0,1,3.739,1.116c-.718,2.406-1.543,4.592-2.34,6.708-.809,2.145-1.573,4.173-2.251,6.447a12.021,12.021,0,0,0-.178,4.824c.428,2.108,2.558,3.462,5.7,3.625,2.81.152,4.606-.446,6.194-2.033,4.8-4.8,4.722-10.494,4.157-20.979a1.95,1.95,0,1,1,3.895-.209c.555,10.271.955,17.692-5.292,23.944A10.751,10.751,0,0,1,677.167,806.428Z" transform="translate(-666.625 -777.44)" fill="#13202f"/>
              <g id="グループ_2173" data-name="グループ 2173" transform="translate(2.944 6.666)">
                <path id="パス_1982" data-name="パス 1982" d="M684.465,794.293a19.043,19.043,0,0,0-8.553-.855c-2.151.279-4.427.285-3.858-2.68.782-4.078,10.791-2.873,13.656-2.2" transform="translate(-670.991 -786.88)" fill="#dcdfe2"/>
                <path id="パス_1983" data-name="パス 1983" d="M684.112,794.914a1.007,1.007,0,0,1-.315-.052,18.09,18.09,0,0,0-8.113-.809c-1.658.211-3.331.267-4.335-.8a3.308,3.308,0,0,1-.607-3.03,3.6,3.6,0,0,1,1.684-2.379c3.462-2.247,11.256-1.032,13.154-.582a.974.974,0,1,1-.448,1.9c-2.762-.651-9.219-1.247-11.646.322a1.7,1.7,0,0,0-.828,1.11,1.646,1.646,0,0,0,.11,1.326c.46.488,2.12.277,2.665.2a19.954,19.954,0,0,1,8.993.9.976.976,0,0,1-.315,1.9Z" transform="translate(-670.637 -786.525)" fill="#13202f"/>
              </g>
              <path id="パス_1984" data-name="パス 1984" d="M690.935,788.092a1.171,1.171,0,0,1-.365-2.283,3.426,3.426,0,0,0,2.305-3.133,1.17,1.17,0,0,1,1.164-1.175h.006a1.169,1.169,0,0,1,1.17,1.164,5.773,5.773,0,0,1-3.917,5.369A1.163,1.163,0,0,1,690.935,788.092Z" transform="translate(-672.786 -778.521)" fill="#13202f"/>
            </g>
            <path id="パス_1985" data-name="パス 1985" d="M701.852,390.779a1.266,1.266,0,0,1-.932-.409c-5.835-6.34-10.542-15.82-11.445-23.051A1.268,1.268,0,0,1,691.99,367c.845,6.76,5.283,15.664,10.794,21.65a1.268,1.268,0,0,1-.933,2.127Z" transform="translate(-643.669 -303.534)" fill="#13202f"/>
            <path id="パス_1986" data-name="パス 1986" d="M707.309,391.031a1.269,1.269,0,0,1-.879-2.182c4.352-4.183,10.067-15.673,11.156-21.194a1.268,1.268,0,1,1,2.487.491c-1.181,5.984-7.157,17.985-11.886,22.532A1.269,1.269,0,0,1,707.309,391.031Z" transform="translate(-648.084 -303.731)" fill="#13202f"/>
            <path id="パス_1987" data-name="パス 1987" d="M720.919,474.655a1.17,1.17,0,0,1-.031-2.339c4.728-.128,12.632-.88,16.429-1.241l.3-.029a1.171,1.171,0,0,1,.221,2.331l-.3.029c-3.823.364-11.78,1.12-16.588,1.25Z" transform="translate(-651.734 -331.534)" fill="#13202f"/>
            <path id="パス_1988" data-name="パス 1988" d="M684.947,475.526c-6.539,0-11.246-.356-16.229-.735l-1.043-.078a1.171,1.171,0,0,1,.175-2.335l1.044.08c4.939.376,9.6.73,16.052.73a1.169,1.169,0,1,1,0,2.338Z" transform="translate(-637.579 -331.889)" fill="#13202f"/>
            <path id="パス_1989" data-name="パス 1989" d="M754.392,538.808a1.27,1.27,0,0,1-1.266-1.234,92.04,92.04,0,0,0-1.935-16.888c-.181-.95-.363-1.9-.536-2.883a1.267,1.267,0,1,1,2.494-.445c.175.971.354,1.914.533,2.856a95.418,95.418,0,0,1,1.98,17.292,1.267,1.267,0,0,1-1.234,1.3Z" transform="translate(-659.958 -343.589)" fill="#13202f"/>
            <path id="パス_1990" data-name="パス 1990" d="M756.684,555.024a1.268,1.268,0,0,1-1.043-1.988,17.387,17.387,0,0,0,2.951-11.319,1.267,1.267,0,1,1,2.523-.236,19.951,19.951,0,0,1-3.387,13A1.269,1.269,0,0,1,756.684,555.024Z" transform="translate(-661.231 -349.984)" fill="#13202f"/>
            <path id="パス_1991" data-name="パス 1991" d="M720.747,419.831c-.18,0-.354,0-.524,0a1.17,1.17,0,0,1-1.156-1.183,1.238,1.238,0,0,1,1.185-1.156c2.843.042,7.27-.251,11.153-.5,1.8-.117,3.506-.227,4.936-.3a1.171,1.171,0,0,1,.116,2.339c-1.42.07-3.114.179-4.9.295C727.858,419.563,723.694,419.831,720.747,419.831Z" transform="translate(-651.552 -317.061)" fill="#fff"/>
            <path id="パス_1992" data-name="パス 1992" d="M729.043,398.515a1.169,1.169,0,0,1-1.167-1.106c-.178-3.3-.153-6.411-.128-9.423.029-3.55.056-6.9-.23-10.428l-.076-.95c-.484-6.129-.9-11.42-7.224-14.881a1.17,1.17,0,0,1,1.124-2.053c7.433,4.068,7.941,10.515,8.433,16.749l.076.945c.295,3.63.267,7.033.237,10.637-.024,2.977-.05,6.053.125,9.277a1.171,1.171,0,0,1-1.106,1.233Z" transform="translate(-651.697 -301.841)" fill="#f03748"/>
            <path id="パス_1993" data-name="パス 1993" d="M718.977,398.653a1.168,1.168,0,0,1-1.155-1,21.64,21.64,0,0,0-11.175-15.709c-1.715-.9-3.718-1.77-5.837-2.686-5.121-2.216-10.927-4.727-14.327-8.635a6.152,6.152,0,0,1-1.51-5.962c.683-2.007,2.613-3.426,5.433-3.994a1.17,1.17,0,1,1,.463,2.293c-1.969.4-3.277,1.269-3.68,2.455a3.873,3.873,0,0,0,1.06,3.672c3.051,3.506,8.6,5.9,13.49,8.022,2.163.936,4.206,1.819,6,2.765a24.019,24.019,0,0,1,12.4,17.439,1.17,1.17,0,0,1-.988,1.327A1.35,1.35,0,0,1,718.977,398.653Z" transform="translate(-642.403 -302.137)" fill="#f03748"/>
            <path id="パス_1994" data-name="パス 1994" d="M688.959,359.736a1.95,1.95,0,0,1-1.33-3.376c1.96-1.828,1.614-7.276.313-9.165l-.2-.284c-2.641-3.837-4.923-7.152-5.76-11.9a1.951,1.951,0,0,1,3.842-.678c.69,3.914,2.65,6.761,5.132,10.365l.2.285c2.222,3.227,2.718,10.885-.866,14.23A1.943,1.943,0,0,1,688.959,359.736Z" transform="translate(-641.671 -294.702)" fill="#13202f"/>
            <path id="パス_1995" data-name="パス 1995" d="M721.313,360.128a1.944,1.944,0,0,1-1.475-.674c-3.361-3.882-2.753-9.66-.415-13.363a37.9,37.9,0,0,0,4.62-10.447,1.951,1.951,0,0,1,3.773.991,41.986,41.986,0,0,1-5.095,11.54c-1.533,2.425-2.03,6.309.064,8.727a1.949,1.949,0,0,1-1.473,3.226Z" transform="translate(-651.133 -295.093)" fill="#13202f"/>
            <path id="パス_1996" data-name="パス 1996" d="M720.158,413.656a1.17,1.17,0,0,1-.1-2.335c1.6-.143,4.658-.29,7.611-.434,2.931-.141,5.962-.289,7.52-.426a1.17,1.17,0,1,1,.206,2.331c-1.6.143-4.658.29-7.612.434-2.931.141-5.962.289-7.52.426A.98.98,0,0,1,720.158,413.656Z" transform="translate(-651.531 -315.401)" fill="#13202f"/>
            <g id="グループ_2175" data-name="グループ 2175" transform="translate(68.427 144.356)">
              <path id="パス_1997" data-name="パス 1997" d="M721.286,481.039a.975.975,0,0,1-.024-1.95l.847-.023.148.971.027.975-.975.026Z" transform="translate(-720.311 -478.026)" fill="#13202f"/>
              <path id="パス_1998" data-name="パス 1998" d="M727.443,480.658a.976.976,0,0,1-.042-1.95c.646-.026,1.3-.059,1.962-.1a.951.951,0,0,1,1.026.92.974.974,0,0,1-.92,1.027c-.667.036-1.33.069-1.983.1Zm5.52-.307a.975.975,0,0,1-.065-1.948l1.961-.141a.941.941,0,0,1,1.047.9.973.973,0,0,1-.9,1.047l-1.979.145C733.008,480.351,732.985,480.351,732.963,480.351Z" transform="translate(-721.95 -477.809)" fill="#13202f"/>
              <path id="パス_1999" data-name="パス 1999" d="M742.492,479.717a.975.975,0,0,1-.109-1.944l.94-.114a.976.976,0,0,1,.258,1.935c-.306.04-.633.078-.978.118C742.566,479.715,742.529,479.717,742.492,479.717Z" transform="translate(-725.958 -477.649)" fill="#13202f"/>
            </g>
            <g id="グループ_2176" data-name="グループ 2176" transform="translate(29.01 145.015)">
              <path id="パス_2000" data-name="パス 2000" d="M668.524,480.658a.977.977,0,0,1-.153-.012q-.5-.079-.984-.165a.976.976,0,0,1-.784-1.135.988.988,0,0,1,1.134-.785c.3.057.616.109.936.158a.975.975,0,0,1-.15,1.939Z" transform="translate(-666.588 -478.548)" fill="#13202f"/>
              <path id="パス_2001" data-name="パス 2001" d="M682.139,481.749h-.013c-.7-.01-1.416-.025-2.147-.048a.976.976,0,0,1-.944-1.006.956.956,0,0,1,1.005-.944c.718.023,1.426.037,2.112.047a.976.976,0,0,1-.013,1.951Zm-5.959-.235c-.022,0-.044,0-.066,0-.722-.048-1.44-.1-2.148-.169a.976.976,0,1,1,.179-1.943c.693.065,1.394.118,2.1.166a.975.975,0,0,1-.064,1.948Z" transform="translate(-668.316 -478.774)" fill="#13202f"/>
              <path id="パス_2002" data-name="パス 2002" d="M690.318,481.86a.975.975,0,0,1-.022-1.95l.955-.029a1.019,1.019,0,0,1,1.01.939.975.975,0,0,1-.939,1.011l-.982.029Z" transform="translate(-672.647 -478.903)" fill="#13202f"/>
            </g>
            <path id="パス_2003" data-name="パス 2003" d="M677.251,807.719c-2.914,0-6.269-.674-7.722-2.255a2.555,2.555,0,0,1-.718-2.076.78.78,0,1,1,1.548.191.985.985,0,0,0,.319.83c1.034,1.126,4.072,1.842,7.2,1.739,4.773-.175,6.6-.653,8.136-2.131a.78.78,0,1,1,1.082,1.123c-2.066,1.985-4.5,2.4-9.161,2.566C677.71,807.715,677.481,807.719,677.251,807.719Z" transform="translate(-638.165 -419.848)" fill="#13202f"/>
            <path id="パス_2004" data-name="パス 2004" d="M728.64,808.356c-.415,0-.826-.012-1.229-.031-2.193-.109-6.06-.615-7.319-2.8a.78.78,0,1,1,1.352-.777c.63,1.093,2.944,1.867,6.043,2.019,4.317.205,8.825-.838,9.863-2.291a.78.78,0,0,1,1.27.907C737.183,807.394,732.722,808.356,728.64,808.356Z" transform="translate(-651.797 -420.232)" fill="#13202f"/>
          </g>
        </g>
      </g>
    </g>
  </g>
</svg>
