<svg xmlns="http://www.w3.org/2000/svg" xmlns:xlink="http://www.w3.org/1999/xlink" width="315" height="148.017" viewBox="0 0 315 148.017">
  <defs>
    <clipPath id="clip-path">
      <rect id="長方形_497" data-name="長方形 497" width="315" height="148.017" rx="20" transform="translate(146 2322.383)" fill="#fff"/>
    </clipPath>
    <clipPath id="clip-path-2">
      <rect id="長方形_426" data-name="長方形 426" width="345" height="132.135" transform="translate(15 1470)" fill="#fff" stroke="#707070" stroke-width="1"/>
    </clipPath>
  </defs>
  <g id="マスクグループ_85" data-name="マスクグループ 85" transform="translate(-146 -2322.383)" clip-path="url(#clip-path)">
    <g id="グループ_2172" data-name="グループ 2172" transform="translate(85)">
      <g id="グループ_2157" data-name="グループ 2157" transform="translate(31 199.621)">
        <g id="グループ_1738" data-name="グループ 1738" transform="translate(-795 489.712)">
          <circle id="楕円形_123" data-name="楕円形 123" cx="10.096" cy="10.096" r="10.096" transform="translate(871.81 1633.051) rotate(8)" fill="#fff"/>
          <circle id="楕円形_124" data-name="楕円形 124" cx="8.413" cy="8.413" r="8.413" transform="translate(891.696 1655.856) rotate(8)" fill="#fff"/>
        </g>
      </g>
      <g id="グループ_2169" data-name="グループ 2169" transform="translate(31 171.621)">
        <g id="グループ_1741" data-name="グループ 1741" transform="translate(-31.873 1624.376)">
          <g id="グループ_1743" data-name="グループ 1743" transform="translate(130.667 571.257)">
            <g id="グループ_1663" data-name="グループ 1663" transform="translate(0 29.788)">
              <g id="グループ_1660" data-name="グループ 1660" transform="translate(23.621 13.908)">
                <path id="パス_1645" data-name="パス 1645" d="M176.764,676.166c5.341-1.786,9.98-3.3,15.328-5.068q5.08-1.676,10.163-3.348c.085-.028.17-.058.194-.066" transform="translate(-175.795 -666.716)" fill="#fff"/>
                <path id="パス_1646" data-name="パス 1646" d="M175.916,676.288a.969.969,0,0,1-.307-1.888c3.937-1.316,7.492-2.487,11.231-3.718l4.1-1.351q3.6-1.186,7.192-2.369l3.165-1.045a.969.969,0,0,1,.608,1.841l-.192.065-2.975.979-7.191,2.369-4.1,1.351c-3.736,1.23-7.289,2.4-11.223,3.715A.968.968,0,0,1,175.916,676.288Z" transform="translate(-174.947 -665.868)"/>
              </g>
              <g id="グループ_1661" data-name="グループ 1661" transform="translate(23.239 22.046)">
                <path id="パス_1647" data-name="パス 1647" d="M176.047,691.422c5.341-1.785,9.98-3.3,15.328-5.068q5.081-1.676,10.163-3.347l.195-.066" transform="translate(-175.078 -681.972)" fill="#fff"/>
                <path id="パス_1648" data-name="パス 1648" d="M175.2,691.545a.969.969,0,0,1-.307-1.888c3.937-1.317,7.492-2.487,11.231-3.718l4.1-1.351q3.6-1.186,7.192-2.369l3.166-1.044a.969.969,0,1,1,.608,1.84l-.192.066-2.975.979q-3.6,1.184-7.191,2.369l-4.1,1.351c-3.736,1.23-7.289,2.4-11.223,3.715A.97.97,0,0,1,175.2,691.545Z" transform="translate(-174.23 -681.125)"/>
              </g>
              <path id="パス_1649" data-name="パス 1649" d="M153.159,663.654a.964.964,0,0,1-.6-.212,85.879,85.879,0,0,1-19.629-22.167.969.969,0,1,1,1.651-1.016,83.924,83.924,0,0,0,19.187,21.668.969.969,0,0,1-.6,1.727Z" transform="translate(-131.654 -639.797)"/>
              <path id="パス_1650" data-name="パス 1650" d="M152.478,672.446a.961.961,0,0,1-.583-.2,85.869,85.869,0,0,1-20.226-21.624.969.969,0,0,1,1.622-1.061,83.94,83.94,0,0,0,19.77,21.138.969.969,0,0,1-.584,1.743Z" transform="translate(-131.061 -644.15)"/>
              <g id="グループ_1662" data-name="グループ 1662" transform="translate(23.239 17.998)">
                <path id="パス_1651" data-name="パス 1651" d="M176.047,683.832c5.341-1.786,9.98-3.3,15.328-5.068q5.081-1.676,10.163-3.347l.195-.066" transform="translate(-175.078 -674.382)" fill="#fff"/>
                <path id="パス_1652" data-name="パス 1652" d="M175.2,683.955a.969.969,0,0,1-.307-1.888c3.937-1.317,7.492-2.488,11.231-3.719l4.1-1.351,7.192-2.369,3.166-1.044a.969.969,0,1,1,.608,1.84l-.192.066-2.975.979-7.191,2.368-4.1,1.352c-3.736,1.23-7.289,2.4-11.223,3.715A.972.972,0,0,1,175.2,683.955Z" transform="translate(-174.23 -673.535)"/>
              </g>
              <path id="パス_1653" data-name="パス 1653" d="M151.767,681.9a.96.96,0,0,1-.59-.2c-8.678-6.675-15.517-13.45-20.328-20.139a.969.969,0,1,1,1.573-1.131c4.7,6.535,11.408,13.175,19.936,19.735a.969.969,0,0,1-.592,1.737Z" transform="translate(-130.667 -649.237)"/>
            </g>
            <g id="グループ_1666" data-name="グループ 1666" transform="translate(1.534 18.302)">
              <path id="パス_1668" data-name="パス 1668" d="M178.541,637.927A132.208,132.208,0,0,1,158.925,620.3a.553.553,0,0,0-.624-.187q-4.379,1.061-8.762,2.106-6.847,1.631-13.7,3.255c-.142.034-.283.071-.483.122.412.711.8,1.4,1.2,2.069a84.515,84.515,0,0,0,19.205,22.1.971.971,0,0,0,1.065.206q8.011-2.677,16.039-5.306,5.081-1.676,10.164-3.345l.195-.066C181.662,640.137,180.084,639.056,178.541,637.927Z" transform="translate(-134.39 -619.112)" fill="#fff"/>
              <path id="パス_1669" data-name="パス 1669" d="M155.585,650.159a1.982,1.982,0,0,1-1.276-.5,85.883,85.883,0,0,1-19.424-22.347c-.281-.465-.551-.935-.826-1.415l-.385-.668a.969.969,0,0,1,.6-1.425l.172-.044.322-.081,4.568-1.085q4.566-1.084,9.131-2.171,4.38-1.044,8.758-2.105a1.509,1.509,0,0,1,1.568.476,131.884,131.884,0,0,0,19.473,17.5h0c1.047.767,2.134,1.527,3.185,2.262q.745.522,1.49,1.046a.969.969,0,0,1-.256,1.712l-.193.065-2.826.93q-3.67,1.208-7.34,2.417l-2.452.808q-6.8,2.239-13.584,4.5A2.211,2.211,0,0,1,155.585,650.159ZM136,625.38c.182.315.363.625.548.932a83.942,83.942,0,0,0,18.987,21.845c.036.029.062.047.079.059l.067-.02q6.789-2.268,13.592-4.5l2.451-.808q3.67-1.211,7.342-2.417l1.184-.389c-1.031-.721-2.093-1.465-3.125-2.222h0A133.761,133.761,0,0,1,157.5,620.248q-4.3,1.042-8.58,2.062-4.566,1.088-9.133,2.171Z" transform="translate(-133.543 -618.265)"/>
            </g>
            <g id="グループ_1671" data-name="グループ 1671" transform="translate(7.306)">
              <path id="パス_1680" data-name="パス 1680" d="M194.358,605.16A146.747,146.747,0,0,1,172.222,586a.614.614,0,0,0-.7-.195q-4.838,1.268-9.681,2.519-7.566,1.952-15.134,3.9c-.157.041-.313.085-.533.145.473.781.914,1.533,1.378,2.272a93.818,93.818,0,0,0,21.772,24.124,1.078,1.078,0,0,0,1.186.208q8.836-3.138,17.69-6.222,5.6-1.964,11.211-3.923l.214-.077C197.867,607.549,196.093,606.382,194.358,605.16Z" transform="translate(-145.209 -584.803)" fill="#fff"/>
              <path id="パス_1681" data-name="パス 1681" d="M169.2,619.184a2.09,2.09,0,0,1-1.317-.506,95.2,95.2,0,0,1-22-24.372c-.319-.507-.627-1.02-.942-1.544l-.445-.74a.968.968,0,0,1,.573-1.437l.207-.057.34-.092,5.044-1.3q5.044-1.3,10.088-2.6,4.841-1.249,9.677-2.518a1.578,1.578,0,0,1,1.646.465,146.408,146.408,0,0,0,21.99,19.035h0c1.182.833,2.408,1.657,3.594,2.454q.832.559,1.664,1.122a.969.969,0,0,1-.209,1.711l-.228.083-3.738,1.307-7.473,2.616-2.562.9c-4.959,1.738-10.089,3.535-15.125,5.323A2.362,2.362,0,0,1,169.2,619.184Zm-22.375-27.057c.233.388.465.769.7,1.147a93.276,93.276,0,0,0,21.549,23.877.75.75,0,0,0,.142.094s.044-.01.122-.037c5.04-1.789,10.171-3.587,15.132-5.325l2.562-.9,7.475-2.616,2.13-.745-.06-.041c-1.194-.8-2.429-1.633-3.629-2.478h0a148.35,148.35,0,0,1-22.172-19.171q-4.788,1.255-9.54,2.482-5.044,1.3-10.09,2.6Z" transform="translate(-144.362 -583.957)"/>
            </g>
          </g>
          <path id="パス_1654" data-name="パス 1654" d="M177.7,670.348c.054.019.245.085.436.148q11.4,3.754,22.808,7.507,18,5.936,35.993,11.909a2.18,2.18,0,0,0,2.389-.464,189.639,189.639,0,0,0,43.1-49.583c.911-1.51,1.774-3.048,2.7-4.643-.448-.113-.764-.2-1.083-.274q-15.369-3.651-30.738-7.3-9.836-2.344-19.662-4.726a1.241,1.241,0,0,0-1.4.419A296.7,296.7,0,0,1,188.223,662.9C184.762,665.437,181.22,667.862,177.7,670.348Z" transform="translate(-22.365 -35.464)" fill="#fff"/>
          <g id="グループ_1665" data-name="グループ 1665" transform="translate(151.884 585.036)">
            <path id="パス_1655" data-name="パス 1655" d="M270.749,627.935c3.944.971,7.9,1.9,11.854,2.819,2.421.562,3.053,1.923,1.825,4.086a191.155,191.155,0,0,1-46.5,54.717,3.306,3.306,0,0,1-3.477.659c-8.644-2.9-17.3-5.739-25.961-8.594q-10.157-3.349-20.318-6.687-6.986-2.3-13.967-4.622a2.127,2.127,0,0,1-1.563-1.9,2.223,2.223,0,0,1,1.1-2.215c2.989-1.956,6.046-3.818,8.943-5.9a294.22,294.22,0,0,0,45.756-40.839,2.607,2.607,0,0,1,2.8-.917Zm-95.414,40.352c.054.019.245.085.436.148q11.4,3.754,22.808,7.507,18,5.936,35.993,11.909a2.179,2.179,0,0,0,2.389-.464,189.637,189.637,0,0,0,43.1-49.583c.911-1.51,1.774-3.048,2.7-4.643-.448-.113-.764-.2-1.083-.274q-15.369-3.651-30.737-7.3-9.836-2.344-19.662-4.726a1.241,1.241,0,0,0-1.4.419,296.684,296.684,0,0,1-44.019,39.564C182.395,663.377,178.853,665.8,175.335,668.288Z" transform="translate(-171.882 -618.44)"/>
            <g id="グループ_1664" data-name="グループ 1664" transform="translate(0 17.159)">
              <path id="パス_1656" data-name="パス 1656" d="M345.136,663.155c-.8,1.567-1.622,3.263-2.515,4.923a137.258,137.258,0,0,1-23.78,31.393,170.512,170.512,0,0,1-25.584,21.3,5.411,5.411,0,0,1-.6.4,1.1,1.1,0,0,1-1.52-.337,1.058,1.058,0,0,1,.21-1.529,8.4,8.4,0,0,1,.808-.569,164.189,164.189,0,0,0,40.974-39.8,103.779,103.779,0,0,0,9.605-16.2,5.336,5.336,0,0,1,.32-.643,1.064,1.064,0,0,1,1.4-.468C345.094,661.873,345.255,662.388,345.136,663.155Z" transform="translate(-227.061 -655.698)"/>
              <path id="パス_1657" data-name="パス 1657" d="M345.518,678.088c-.85,1.545-1.732,3.219-2.679,4.856A138.8,138.8,0,0,1,318.011,713.7a172.526,172.526,0,0,1-26.292,20.627,5.5,5.5,0,0,1-.612.382,1.1,1.1,0,0,1-1.509-.377,1.06,1.06,0,0,1,.262-1.522,8.371,8.371,0,0,1,.826-.548,166.084,166.084,0,0,0,42.3-38.715A104.777,104.777,0,0,0,343.132,677.6a5.447,5.447,0,0,1,.341-.634,1.072,1.072,0,0,1,1.416-.432C345.519,676.806,345.663,677.324,345.518,678.088Z" transform="translate(-226.353 -662.651)"/>
              <path id="パス_1658" data-name="パス 1658" d="M343.849,652.236c-.545,1.014-1.163,2.212-1.824,3.385a163.665,163.665,0,0,1-43.226,50.42c-1.455,1.115-2.954,2.175-4.445,3.244-.744.532-1.419.488-1.838-.07s-.228-1.284.535-1.823c20.717-14.655,36.564-33.5,48.48-55.716.3-.564.588-1.145,1.389-1.063C343.644,650.687,344.07,651.311,343.849,652.236Z" transform="translate(-227.712 -650.605)"/>
              <path id="パス_1659" data-name="パス 1659" d="M232.339,742.427q-11.934-4.013-23.869-8.024-9.671-3.241-19.351-6.454-8.435-2.809-16.872-5.612c-.859-.286-1.2-.854-.93-1.558.3-.794.91-.875,1.626-.637q7.323,2.435,14.645,4.873,8.776,2.929,17.547,5.87,13.093,4.392,26.182,8.795c.8.268,1.6.524,2.393.814.814.3,1.118.832.864,1.5-.282.745-.851.859-1.546.643Z" transform="translate(-171.229 -682.993)"/>
              <path id="パス_1660" data-name="パス 1660" d="M203.2,744.415l-29.25-9.569c-.931-.3-1.293-.851-1.038-1.572.241-.682.842-.89,1.718-.6q15.615,5.1,31.229,10.19,13.6,4.444,27.187,8.91c.954.313,1.305.935.94,1.669a1.11,1.11,0,0,1-1.53.524q-7.766-2.53-15.533-5.056-6.863-2.242-13.72-4.5Z" transform="translate(-171.975 -688.835)"/>
              <path id="パス_1661" data-name="パス 1661" d="M202.374,755.668l-29.234-9.618c-.93-.306-1.292-.853-1.036-1.573.242-.681.844-.888,1.719-.6q15.606,5.121,31.212,10.242,13.589,4.467,27.172,8.955c.954.315,1.3.937.938,1.671a1.11,1.11,0,0,1-1.53.522q-7.762-2.543-15.524-5.082-6.86-2.253-13.713-4.525Z" transform="translate(-171.6 -694.062)"/>
            </g>
            <path id="パス_1662" data-name="パス 1662" d="M233.9,703.753c7.6,2.189,14.934,4.3,22.272,6.419.906.261,1.335.86,1.123,1.541s-.857.931-1.8.659q-14.3-4.13-28.59-8.27-7.667-2.217-15.336-4.433c-.808-.235-1.174-.8-.944-1.458a1.094,1.094,0,0,1,1.514-.719c.173.05.348.094.522.144l20.971,6.049A2,2,0,0,0,233.9,703.753Z" transform="translate(-189.577 -655.286)"/>
            <path id="パス_1663" data-name="パス 1663" d="M265.285,646.851c9.991,3.126,19.977,6.271,29.978,9.368,4.252,1.317,8.535,2.538,12.8,3.8,1.1.325,1.517.811,1.3,1.577s-1,1.017-2.044.7c-2.385-.734-4.772-1.458-7.154-2.2q-15.553-4.844-31.1-9.7c-1.666-.52-3.336-1.027-4.989-1.586-.952-.322-1.255-1.128-.745-1.816a1.154,1.154,0,0,1,1.455-.354c.169.059.349.091.524.135Z" transform="translate(-214.085 -631.542)"/>
            <path id="パス_1664" data-name="パス 1664" d="M229.845,685.361c9.528,2.993,19.05,6.008,28.588,8.969,4.568,1.418,9.168,2.732,13.753,4.092.173.051.35.09.522.144a1.074,1.074,0,0,1,.87,1.279,1.057,1.057,0,0,1-1.293.958,11.634,11.634,0,0,1-1.713-.486q-15.018-4.582-30.034-9.175c-4.111-1.266-8.194-2.622-12.284-3.954-.876-.285-1.251-1.01-.791-1.635a1.833,1.833,0,0,1,1.186-.552,3.761,3.761,0,0,1,1.221.278Z" transform="translate(-197.372 -649.491)"/>
            <path id="パス_1665" data-name="パス 1665" d="M262.594,682.555q-10.513-2.951-21.026-5.905c-1.094-.308-1.52-1.321-.761-1.9a2.042,2.042,0,0,1,1.561-.191c4.85,1.311,9.683,2.681,14.522,4.031q13.345,3.721,26.69,7.437c.29.081.573.185.863.262a1.05,1.05,0,0,1,.865,1.419,1.077,1.077,0,0,1-1.5.746q-2.914-.8-5.828-1.613-7.694-2.147-15.385-4.3Z" transform="translate(-203.511 -644.589)"/>
            <path id="パス_1666" data-name="パス 1666" d="M299.044,641.874q10.551,2.952,21.1,5.9c.738.206,1.19.589,1.016,1.415-.155.735-.736,1.028-1.628.78q-10.86-3.02-21.715-6.059-9.9-2.761-19.807-5.514c-.289-.081-.577-.169-.861-.267a1.06,1.06,0,0,1-.79-1.4,1.075,1.075,0,0,1,1.486-.766c2.028.563,4.052,1.139,6.079,1.7Q291.484,639.776,299.044,641.874Z" transform="translate(-220.251 -626.586)"/>
            <path id="パス_1667" data-name="パス 1667" d="M276.288,668.808l-19.493-5.948c-.172-.053-.348-.1-.518-.155a1.193,1.193,0,0,1-.936-1.49,1.221,1.221,0,0,1,1.631-.7c1.211.356,2.415.734,3.623,1.1l21.047,6.415q7.462,2.274,14.924,4.547c1.053.321,1.469,1.031,1.043,1.773a1.179,1.179,0,0,1-1.565.472q-6.337-1.943-12.681-3.863Z" transform="translate(-210.445 -638.034)"/>
          </g>
          <g id="グループ_1672" data-name="グループ 1672" transform="translate(244.025 621.969)">
            <path id="パス_1682" data-name="パス 1682" d="M345.629,701.05c.021.017.092.077.165.135q4.351,3.488,8.7,6.976,6.867,5.51,13.722,11.035a1.011,1.011,0,0,0,1.115.187A88.089,88.089,0,0,0,396.15,704.82c.642-.508,1.268-1.038,1.93-1.581-.176-.122-.3-.211-.427-.3q-6.093-4.088-12.185-8.177-3.9-2.619-7.786-5.254a.577.577,0,0,0-.677-.045,137.783,137.783,0,0,1-25.587,10.054C349.5,700.061,347.564,700.54,345.629,701.05Z" transform="translate(-344.736 -688.469)" fill="#fff"/>
            <path id="パス_1683" data-name="パス 1683" d="M368.1,719.584a1.9,1.9,0,0,1-1.229-.476q-5.76-4.659-11.544-9.287l-2.177-1.746q-2.82-2.263-5.641-4.523l-3.206-2.571a.94.94,0,0,1-.324-.91.908.908,0,0,1,.641-.7q.919-.242,1.838-.477c1.295-.334,2.634-.68,3.936-1.047a137.558,137.558,0,0,0,25.418-9.988,1.48,1.48,0,0,1,1.6.1q3.887,2.633,7.783,5.252,4.145,2.786,8.291,5.566l3.894,2.612c.092.062.185.126.3.2l.143.1a.91.91,0,0,1,.058,1.45l-.614.507c-.446.37-.883.731-1.328,1.083a89.416,89.416,0,0,1-27.09,14.712A2.347,2.347,0,0,1,368.1,719.584ZM346.83,700.679l1.813,1.453q2.821,2.261,5.642,4.524l2.176,1.746q5.78,4.638,11.549,9.291a.583.583,0,0,0,.107.074s.047-.009.145-.042A87.577,87.577,0,0,0,394.8,703.311c.329-.26.653-.526.981-.8l-3.312-2.222q-4.147-2.781-8.293-5.566-3.842-2.581-7.673-5.177A139.415,139.415,0,0,1,350.883,699.6c-1.321.372-2.67.721-3.974,1.057Z" transform="translate(-343.955 -687.674)"/>
          </g>
          <g id="グループ_1674" data-name="グループ 1674" transform="translate(230.285 542.269)">
            <g id="グループ_1667" data-name="グループ 1667" transform="translate(36.639 16.321)">
              <path id="パス_1670" data-name="パス 1670" d="M423.265,599.88a134.586,134.586,0,0,1-19.97-17.95.563.563,0,0,0-.635-.19q-4.459,1.08-8.92,2.144-6.972,1.661-13.945,3.314c-.145.034-.288.073-.491.124.42.724.811,1.422,1.225,2.107a86.043,86.043,0,0,0,19.552,22.5.989.989,0,0,0,1.084.21q8.156-2.725,16.329-5.4,5.173-1.705,10.347-3.406c.087-.028.173-.059.2-.067C426.443,602.13,424.835,601.031,423.265,599.88Z" transform="translate(-378.316 -580.726)" fill="#fff"/>
              <path id="パス_1671" data-name="パス 1671" d="M399.894,612.333a2.016,2.016,0,0,1-1.3-.507,87.446,87.446,0,0,1-19.774-22.751c-.284-.472-.559-.949-.839-1.437l-.394-.684a.986.986,0,0,1,.612-1.452l.2-.05.309-.077,4.37-1.037q4.787-1.137,9.573-2.276,4.461-1.063,8.917-2.143a1.536,1.536,0,0,1,1.6.483,134.263,134.263,0,0,0,19.825,17.82h0c1.063.779,2.167,1.551,3.234,2.3q.763.533,1.526,1.07a.986.986,0,0,1-.241,1.736c-.027.01-.123.044-.219.075l-12.944,4.262q-6.867,2.263-13.727,4.544A2.25,2.25,0,0,1,399.894,612.333Zm-19.943-25.225c.185.32.369.636.559.948a85.448,85.448,0,0,0,19.33,22.24c.037.029.063.049.081.06s.038-.01.069-.02q6.86-2.292,13.734-4.547L425,602.075c-1.049-.733-2.131-1.491-3.182-2.261h0a136.266,136.266,0,0,1-19.979-17.931q-4.379,1.061-8.735,2.1-4.787,1.141-9.575,2.277Z" transform="translate(-377.454 -579.864)"/>
            </g>
            <g id="グループ_1670" data-name="グループ 1670" transform="translate(35.078 28.015)">
              <path id="パス_1672" data-name="パス 1672" d="M420.593,638.934a.986.986,0,0,1-.313-1.922c3.947-1.32,7.518-2.5,11.262-3.728l14.872-4.9a.986.986,0,0,1,.657,1.86c-.028.01-.124.044-.221.075l-14.691,4.839c-3.741,1.232-7.309,2.407-11.254,3.726A.984.984,0,0,1,420.593,638.934Z" transform="translate(-395.559 -614.167)"/>
              <path id="パス_1673" data-name="パス 1673" d="M397.425,626.072a.98.98,0,0,1-.615-.215,87.45,87.45,0,0,1-19.984-22.568.987.987,0,0,1,1.68-1.034,85.479,85.479,0,0,0,19.534,22.06.987.987,0,0,1-.616,1.758Z" transform="translate(-375.531 -601.785)"/>
              <path id="パス_1674" data-name="パス 1674" d="M396.731,635.022a.981.981,0,0,1-.593-.2,87.423,87.423,0,0,1-20.591-22.014.987.987,0,1,1,1.652-1.08,85.477,85.477,0,0,0,20.127,21.519.986.986,0,0,1-.595,1.774Z" transform="translate(-374.928 -606.216)"/>
              <g id="グループ_1668" data-name="グループ 1668" transform="translate(23.658 18.322)">
                <path id="パス_1675" data-name="パス 1675" d="M420.726,646.615c5.437-1.818,10.16-3.363,15.6-5.159q5.172-1.707,10.347-3.408c.087-.028.173-.059.2-.067" transform="translate(-419.739 -636.993)" fill="#fff"/>
                <path id="パス_1676" data-name="パス 1676" d="M419.863,646.738a.986.986,0,0,1-.313-1.922c3.947-1.32,7.518-2.5,11.262-3.728l14.872-4.9a.986.986,0,1,1,.657,1.86c-.028.01-.124.044-.221.075l-14.691,4.839c-3.741,1.232-7.309,2.407-11.254,3.726A.982.982,0,0,1,419.863,646.738Z" transform="translate(-418.876 -636.13)"/>
              </g>
              <path id="パス_1677" data-name="パス 1677" d="M396.008,644.652a.982.982,0,0,1-.6-.2c-8.834-6.8-15.8-13.694-20.695-20.5a.987.987,0,1,1,1.6-1.152c4.786,6.653,11.614,13.413,20.3,20.091a.987.987,0,0,1-.6,1.768Z" transform="translate(-374.526 -611.394)"/>
              <g id="グループ_1669" data-name="グループ 1669" transform="translate(23.658 22.444)">
                <path id="パス_1678" data-name="パス 1678" d="M420.726,654.343c5.437-1.819,10.16-3.363,15.6-5.16q5.172-1.707,10.347-3.408l.2-.068" transform="translate(-419.739 -644.721)" fill="#fff"/>
                <path id="パス_1679" data-name="パス 1679" d="M419.863,654.467a.987.987,0,0,1-.313-1.923c4.007-1.34,7.627-2.532,11.433-3.785l4.175-1.376q3.606-1.19,7.213-2.376l3.28-1.081.05-.017a.987.987,0,0,1,.624,1.872l-.2.069-3.132,1.031q-3.606,1.187-7.211,2.375l-4.176,1.376c-3.8,1.252-7.42,2.443-11.425,3.782A.985.985,0,0,1,419.863,654.467Z" transform="translate(-418.876 -643.857)"/>
              </g>
            </g>
            <g id="グループ_1673" data-name="グループ 1673" transform="translate(0 0)">
              <path id="パス_1684" data-name="パス 1684" d="M310.616,551.117c.013.026.056.118.1.209q2.688,5.416,5.375,10.832,4.238,8.554,8.458,17.116a1.1,1.1,0,0,0,1.011.692,95.5,95.5,0,0,0,33.017-2.083c.864-.207,1.72-.442,2.619-.674-.117-.2-.2-.344-.285-.485q-4.125-6.8-8.251-13.6-2.637-4.355-5.259-8.721a.625.625,0,0,0-.645-.354,149.4,149.4,0,0,1-29.751-1.791C314.873,551.912,312.751,551.5,310.616,551.117Z" transform="translate(-309.631 -550.131)" fill="#fff"/>
              <path id="パス_1685" data-name="パス 1685" d="M335.272,580.672a97.519,97.519,0,0,1-10.681-.588,2.062,2.062,0,0,1-1.788-1.238q-3.507-7.149-7.052-14.277l-1.405-2.835q-1.789-3.611-3.582-7.221l-1.792-3.61c-.046-.092-.091-.188-.108-.222a.988.988,0,0,1,1.064-1.4q1.01.181,2.018.368c1.428.263,2.905.534,4.356.768a149.26,149.26,0,0,0,29.555,1.779,1.6,1.6,0,0,1,1.53.832q2.619,4.364,5.257,8.718,2.848,4.7,5.7,9.4l2.55,4.2c.056.092.11.185.173.293l.118.2a.986.986,0,0,1-.6,1.455l-.842.22c-.605.159-1.2.315-1.794.458A96.928,96.928,0,0,1,335.272,580.672ZM324.647,578.1c.009,0,.057.013.161.025a94.962,94.962,0,0,0,32.679-2.061c.442-.106.882-.219,1.328-.336l-2.157-3.556q-2.852-4.7-5.7-9.4-2.6-4.292-5.182-8.594a150.977,150.977,0,0,1-29.786-1.809c-1.473-.237-2.96-.511-4.4-.775l-.079-.014,1.021,2.058q1.792,3.61,3.583,7.222l1.405,2.835q3.538,7.137,7.055,14.284a.644.644,0,0,0,.071.121Z" transform="translate(-308.77 -549.268)"/>
            </g>
          </g>
        </g>
      </g>
    </g>
  </g>
</svg>
