<svg xmlns="http://www.w3.org/2000/svg" xmlns:xlink="http://www.w3.org/1999/xlink" width="375" height="66.798" viewBox="0 0 375 66.798">
  <defs>
    <clipPath id="clip-path">
      <rect width="375" height="59.974" fill="none"/>
    </clipPath>
  </defs>
  <g id="グループ_2173" data-name="グループ 2173" transform="translate(0 -3037.773)">
    <path id="前面オブジェクトで型抜き_6" data-name="前面オブジェクトで型抜き 6" d="M-359,164.426H-734V98.076c56.078,5.478,121.087,8.375,188,8.375,66.492,0,131.156-2.862,187-8.277v66.252Z" transform="translate(734 2939.696)" fill="#eb4756"/>
    <g id="リピートグリッド_57" data-name="リピートグリッド 57" transform="translate(0 3044.597)" opacity="0.14" clip-path="url(#clip-path)">
      <g id="グループ_33" data-name="グループ 33" transform="translate(-1659.249 -1592.595)">
        <path id="パス_70" data-name="パス 70" d="M251.653,256.027a3.338,3.338,0,0,0-5.7,2.232v3.167a.3.3,0,0,0,.3.3h2.891a3.3,3.3,0,0,0,2.509-.974A3.345,3.345,0,0,0,251.653,256.027Z" transform="translate(1429.864 1337.545)" fill="#fff" opacity="0.955"/>
        <path id="パス_71" data-name="パス 71" d="M209.324,269.185a3.338,3.338,0,0,0,2.232,5.7h3.167a.3.3,0,0,0,.3-.3v-2.892a3.3,3.3,0,0,0-.974-2.508A3.344,3.344,0,0,0,209.324,269.185Z" transform="translate(1450.903 1324.387)" fill="#fff" opacity="0.955"/>
        <path id="パス_72" data-name="パス 72" d="M222.476,311.457a3.338,3.338,0,0,0,5.7-2.232v-3.167a.3.3,0,0,0-.3-.3h-2.892a3.3,3.3,0,0,0-2.508.974A3.344,3.344,0,0,0,222.476,311.457Z" transform="translate(1487.457 1286.835)" fill="#fff" opacity="0.955"/>
        <path id="パス_73" data-name="パス 73" d="M264.744,298.312a3.339,3.339,0,0,0-2.232-5.7h-3.167a.3.3,0,0,0-.3.3V295.8a3.3,3.3,0,0,0,.974,2.509A3.345,3.345,0,0,0,264.744,298.312Z" transform="translate(1433.341 1299.981)" fill="#fff" opacity="0.955"/>
      </g>
      <g id="グループ_33-2" data-name="グループ 33" transform="translate(-1591.249 -1592.595)">
        <path id="パス_70-2" data-name="パス 70" d="M251.653,256.027a3.338,3.338,0,0,0-5.7,2.232v3.167a.3.3,0,0,0,.3.3h2.891a3.3,3.3,0,0,0,2.509-.974A3.345,3.345,0,0,0,251.653,256.027Z" transform="translate(1429.864 1337.545)" fill="#fff" opacity="0.955"/>
        <path id="パス_71-2" data-name="パス 71" d="M209.324,269.185a3.338,3.338,0,0,0,2.232,5.7h3.167a.3.3,0,0,0,.3-.3v-2.892a3.3,3.3,0,0,0-.974-2.508A3.344,3.344,0,0,0,209.324,269.185Z" transform="translate(1450.903 1324.387)" fill="#fff" opacity="0.955"/>
        <path id="パス_72-2" data-name="パス 72" d="M222.476,311.457a3.338,3.338,0,0,0,5.7-2.232v-3.167a.3.3,0,0,0-.3-.3h-2.892a3.3,3.3,0,0,0-2.508.974A3.344,3.344,0,0,0,222.476,311.457Z" transform="translate(1487.457 1286.835)" fill="#fff" opacity="0.955"/>
        <path id="パス_73-2" data-name="パス 73" d="M264.744,298.312a3.339,3.339,0,0,0-2.232-5.7h-3.167a.3.3,0,0,0-.3.3V295.8a3.3,3.3,0,0,0,.974,2.509A3.345,3.345,0,0,0,264.744,298.312Z" transform="translate(1433.341 1299.981)" fill="#fff" opacity="0.955"/>
      </g>
      <g id="グループ_33-3" data-name="グループ 33" transform="translate(-1523.249 -1592.595)">
        <path id="パス_70-3" data-name="パス 70" d="M251.653,256.027a3.338,3.338,0,0,0-5.7,2.232v3.167a.3.3,0,0,0,.3.3h2.891a3.3,3.3,0,0,0,2.509-.974A3.345,3.345,0,0,0,251.653,256.027Z" transform="translate(1429.864 1337.545)" fill="#fff" opacity="0.955"/>
        <path id="パス_71-3" data-name="パス 71" d="M209.324,269.185a3.338,3.338,0,0,0,2.232,5.7h3.167a.3.3,0,0,0,.3-.3v-2.892a3.3,3.3,0,0,0-.974-2.508A3.344,3.344,0,0,0,209.324,269.185Z" transform="translate(1450.903 1324.387)" fill="#fff" opacity="0.955"/>
        <path id="パス_72-3" data-name="パス 72" d="M222.476,311.457a3.338,3.338,0,0,0,5.7-2.232v-3.167a.3.3,0,0,0-.3-.3h-2.892a3.3,3.3,0,0,0-2.508.974A3.344,3.344,0,0,0,222.476,311.457Z" transform="translate(1487.457 1286.835)" fill="#fff" opacity="0.955"/>
        <path id="パス_73-3" data-name="パス 73" d="M264.744,298.312a3.339,3.339,0,0,0-2.232-5.7h-3.167a.3.3,0,0,0-.3.3V295.8a3.3,3.3,0,0,0,.974,2.509A3.345,3.345,0,0,0,264.744,298.312Z" transform="translate(1433.341 1299.981)" fill="#fff" opacity="0.955"/>
      </g>
      <g id="グループ_33-4" data-name="グループ 33" transform="translate(-1455.249 -1592.595)">
        <path id="パス_70-4" data-name="パス 70" d="M251.653,256.027a3.338,3.338,0,0,0-5.7,2.232v3.167a.3.3,0,0,0,.3.3h2.891a3.3,3.3,0,0,0,2.509-.974A3.345,3.345,0,0,0,251.653,256.027Z" transform="translate(1429.864 1337.545)" fill="#fff" opacity="0.955"/>
        <path id="パス_71-4" data-name="パス 71" d="M209.324,269.185a3.338,3.338,0,0,0,2.232,5.7h3.167a.3.3,0,0,0,.3-.3v-2.892a3.3,3.3,0,0,0-.974-2.508A3.344,3.344,0,0,0,209.324,269.185Z" transform="translate(1450.903 1324.387)" fill="#fff" opacity="0.955"/>
        <path id="パス_72-4" data-name="パス 72" d="M222.476,311.457a3.338,3.338,0,0,0,5.7-2.232v-3.167a.3.3,0,0,0-.3-.3h-2.892a3.3,3.3,0,0,0-2.508.974A3.344,3.344,0,0,0,222.476,311.457Z" transform="translate(1487.457 1286.835)" fill="#fff" opacity="0.955"/>
        <path id="パス_73-4" data-name="パス 73" d="M264.744,298.312a3.339,3.339,0,0,0-2.232-5.7h-3.167a.3.3,0,0,0-.3.3V295.8a3.3,3.3,0,0,0,.974,2.509A3.345,3.345,0,0,0,264.744,298.312Z" transform="translate(1433.341 1299.981)" fill="#fff" opacity="0.955"/>
      </g>
      <g id="グループ_33-5" data-name="グループ 33" transform="translate(-1387.249 -1592.595)">
        <path id="パス_70-5" data-name="パス 70" d="M251.653,256.027a3.338,3.338,0,0,0-5.7,2.232v3.167a.3.3,0,0,0,.3.3h2.891a3.3,3.3,0,0,0,2.509-.974A3.345,3.345,0,0,0,251.653,256.027Z" transform="translate(1429.864 1337.545)" fill="#fff" opacity="0.955"/>
        <path id="パス_71-5" data-name="パス 71" d="M209.324,269.185a3.338,3.338,0,0,0,2.232,5.7h3.167a.3.3,0,0,0,.3-.3v-2.892a3.3,3.3,0,0,0-.974-2.508A3.344,3.344,0,0,0,209.324,269.185Z" transform="translate(1450.903 1324.387)" fill="#fff" opacity="0.955"/>
        <path id="パス_72-5" data-name="パス 72" d="M222.476,311.457a3.338,3.338,0,0,0,5.7-2.232v-3.167a.3.3,0,0,0-.3-.3h-2.892a3.3,3.3,0,0,0-2.508.974A3.344,3.344,0,0,0,222.476,311.457Z" transform="translate(1487.457 1286.835)" fill="#fff" opacity="0.955"/>
        <path id="パス_73-5" data-name="パス 73" d="M264.744,298.312a3.339,3.339,0,0,0-2.232-5.7h-3.167a.3.3,0,0,0-.3.3V295.8a3.3,3.3,0,0,0,.974,2.509A3.345,3.345,0,0,0,264.744,298.312Z" transform="translate(1433.341 1299.981)" fill="#fff" opacity="0.955"/>
      </g>
      <g id="グループ_33-6" data-name="グループ 33" transform="translate(-1319.249 -1592.595)">
        <path id="パス_70-6" data-name="パス 70" d="M251.653,256.027a3.338,3.338,0,0,0-5.7,2.232v3.167a.3.3,0,0,0,.3.3h2.891a3.3,3.3,0,0,0,2.509-.974A3.345,3.345,0,0,0,251.653,256.027Z" transform="translate(1429.864 1337.545)" fill="#fff" opacity="0.955"/>
        <path id="パス_71-6" data-name="パス 71" d="M209.324,269.185a3.338,3.338,0,0,0,2.232,5.7h3.167a.3.3,0,0,0,.3-.3v-2.892a3.3,3.3,0,0,0-.974-2.508A3.344,3.344,0,0,0,209.324,269.185Z" transform="translate(1450.903 1324.387)" fill="#fff" opacity="0.955"/>
        <path id="パス_72-6" data-name="パス 72" d="M222.476,311.457a3.338,3.338,0,0,0,5.7-2.232v-3.167a.3.3,0,0,0-.3-.3h-2.892a3.3,3.3,0,0,0-2.508.974A3.344,3.344,0,0,0,222.476,311.457Z" transform="translate(1487.457 1286.835)" fill="#fff" opacity="0.955"/>
        <path id="パス_73-6" data-name="パス 73" d="M264.744,298.312a3.339,3.339,0,0,0-2.232-5.7h-3.167a.3.3,0,0,0-.3.3V295.8a3.3,3.3,0,0,0,.974,2.509A3.345,3.345,0,0,0,264.744,298.312Z" transform="translate(1433.341 1299.981)" fill="#fff" opacity="0.955"/>
      </g>
      <g id="グループ_33-7" data-name="グループ 33" transform="translate(-1659.249 -1574.595)">
        <path id="パス_70-7" data-name="パス 70" d="M251.653,256.027a3.338,3.338,0,0,0-5.7,2.232v3.167a.3.3,0,0,0,.3.3h2.891a3.3,3.3,0,0,0,2.509-.974A3.345,3.345,0,0,0,251.653,256.027Z" transform="translate(1429.864 1337.545)" fill="#fff" opacity="0.955"/>
        <path id="パス_71-7" data-name="パス 71" d="M209.324,269.185a3.338,3.338,0,0,0,2.232,5.7h3.167a.3.3,0,0,0,.3-.3v-2.892a3.3,3.3,0,0,0-.974-2.508A3.344,3.344,0,0,0,209.324,269.185Z" transform="translate(1450.903 1324.387)" fill="#fff" opacity="0.955"/>
        <path id="パス_72-7" data-name="パス 72" d="M222.476,311.457a3.338,3.338,0,0,0,5.7-2.232v-3.167a.3.3,0,0,0-.3-.3h-2.892a3.3,3.3,0,0,0-2.508.974A3.344,3.344,0,0,0,222.476,311.457Z" transform="translate(1487.457 1286.835)" fill="#fff" opacity="0.955"/>
        <path id="パス_73-7" data-name="パス 73" d="M264.744,298.312a3.339,3.339,0,0,0-2.232-5.7h-3.167a.3.3,0,0,0-.3.3V295.8a3.3,3.3,0,0,0,.974,2.509A3.345,3.345,0,0,0,264.744,298.312Z" transform="translate(1433.341 1299.981)" fill="#fff" opacity="0.955"/>
      </g>
      <g id="グループ_33-8" data-name="グループ 33" transform="translate(-1591.249 -1574.595)">
        <path id="パス_70-8" data-name="パス 70" d="M251.653,256.027a3.338,3.338,0,0,0-5.7,2.232v3.167a.3.3,0,0,0,.3.3h2.891a3.3,3.3,0,0,0,2.509-.974A3.345,3.345,0,0,0,251.653,256.027Z" transform="translate(1429.864 1337.545)" fill="#fff" opacity="0.955"/>
        <path id="パス_71-8" data-name="パス 71" d="M209.324,269.185a3.338,3.338,0,0,0,2.232,5.7h3.167a.3.3,0,0,0,.3-.3v-2.892a3.3,3.3,0,0,0-.974-2.508A3.344,3.344,0,0,0,209.324,269.185Z" transform="translate(1450.903 1324.387)" fill="#fff" opacity="0.955"/>
        <path id="パス_72-8" data-name="パス 72" d="M222.476,311.457a3.338,3.338,0,0,0,5.7-2.232v-3.167a.3.3,0,0,0-.3-.3h-2.892a3.3,3.3,0,0,0-2.508.974A3.344,3.344,0,0,0,222.476,311.457Z" transform="translate(1487.457 1286.835)" fill="#fff" opacity="0.955"/>
        <path id="パス_73-8" data-name="パス 73" d="M264.744,298.312a3.339,3.339,0,0,0-2.232-5.7h-3.167a.3.3,0,0,0-.3.3V295.8a3.3,3.3,0,0,0,.974,2.509A3.345,3.345,0,0,0,264.744,298.312Z" transform="translate(1433.341 1299.981)" fill="#fff" opacity="0.955"/>
      </g>
      <g id="グループ_33-9" data-name="グループ 33" transform="translate(-1523.249 -1574.595)">
        <path id="パス_70-9" data-name="パス 70" d="M251.653,256.027a3.338,3.338,0,0,0-5.7,2.232v3.167a.3.3,0,0,0,.3.3h2.891a3.3,3.3,0,0,0,2.509-.974A3.345,3.345,0,0,0,251.653,256.027Z" transform="translate(1429.864 1337.545)" fill="#fff" opacity="0.955"/>
        <path id="パス_71-9" data-name="パス 71" d="M209.324,269.185a3.338,3.338,0,0,0,2.232,5.7h3.167a.3.3,0,0,0,.3-.3v-2.892a3.3,3.3,0,0,0-.974-2.508A3.344,3.344,0,0,0,209.324,269.185Z" transform="translate(1450.903 1324.387)" fill="#fff" opacity="0.955"/>
        <path id="パス_72-9" data-name="パス 72" d="M222.476,311.457a3.338,3.338,0,0,0,5.7-2.232v-3.167a.3.3,0,0,0-.3-.3h-2.892a3.3,3.3,0,0,0-2.508.974A3.344,3.344,0,0,0,222.476,311.457Z" transform="translate(1487.457 1286.835)" fill="#fff" opacity="0.955"/>
        <path id="パス_73-9" data-name="パス 73" d="M264.744,298.312a3.339,3.339,0,0,0-2.232-5.7h-3.167a.3.3,0,0,0-.3.3V295.8a3.3,3.3,0,0,0,.974,2.509A3.345,3.345,0,0,0,264.744,298.312Z" transform="translate(1433.341 1299.981)" fill="#fff" opacity="0.955"/>
      </g>
      <g id="グループ_33-10" data-name="グループ 33" transform="translate(-1455.249 -1574.595)">
        <path id="パス_70-10" data-name="パス 70" d="M251.653,256.027a3.338,3.338,0,0,0-5.7,2.232v3.167a.3.3,0,0,0,.3.3h2.891a3.3,3.3,0,0,0,2.509-.974A3.345,3.345,0,0,0,251.653,256.027Z" transform="translate(1429.864 1337.545)" fill="#fff" opacity="0.955"/>
        <path id="パス_71-10" data-name="パス 71" d="M209.324,269.185a3.338,3.338,0,0,0,2.232,5.7h3.167a.3.3,0,0,0,.3-.3v-2.892a3.3,3.3,0,0,0-.974-2.508A3.344,3.344,0,0,0,209.324,269.185Z" transform="translate(1450.903 1324.387)" fill="#fff" opacity="0.955"/>
        <path id="パス_72-10" data-name="パス 72" d="M222.476,311.457a3.338,3.338,0,0,0,5.7-2.232v-3.167a.3.3,0,0,0-.3-.3h-2.892a3.3,3.3,0,0,0-2.508.974A3.344,3.344,0,0,0,222.476,311.457Z" transform="translate(1487.457 1286.835)" fill="#fff" opacity="0.955"/>
        <path id="パス_73-10" data-name="パス 73" d="M264.744,298.312a3.339,3.339,0,0,0-2.232-5.7h-3.167a.3.3,0,0,0-.3.3V295.8a3.3,3.3,0,0,0,.974,2.509A3.345,3.345,0,0,0,264.744,298.312Z" transform="translate(1433.341 1299.981)" fill="#fff" opacity="0.955"/>
      </g>
      <g id="グループ_33-11" data-name="グループ 33" transform="translate(-1387.249 -1574.595)">
        <path id="パス_70-11" data-name="パス 70" d="M251.653,256.027a3.338,3.338,0,0,0-5.7,2.232v3.167a.3.3,0,0,0,.3.3h2.891a3.3,3.3,0,0,0,2.509-.974A3.345,3.345,0,0,0,251.653,256.027Z" transform="translate(1429.864 1337.545)" fill="#fff" opacity="0.955"/>
        <path id="パス_71-11" data-name="パス 71" d="M209.324,269.185a3.338,3.338,0,0,0,2.232,5.7h3.167a.3.3,0,0,0,.3-.3v-2.892a3.3,3.3,0,0,0-.974-2.508A3.344,3.344,0,0,0,209.324,269.185Z" transform="translate(1450.903 1324.387)" fill="#fff" opacity="0.955"/>
        <path id="パス_72-11" data-name="パス 72" d="M222.476,311.457a3.338,3.338,0,0,0,5.7-2.232v-3.167a.3.3,0,0,0-.3-.3h-2.892a3.3,3.3,0,0,0-2.508.974A3.344,3.344,0,0,0,222.476,311.457Z" transform="translate(1487.457 1286.835)" fill="#fff" opacity="0.955"/>
        <path id="パス_73-11" data-name="パス 73" d="M264.744,298.312a3.339,3.339,0,0,0-2.232-5.7h-3.167a.3.3,0,0,0-.3.3V295.8a3.3,3.3,0,0,0,.974,2.509A3.345,3.345,0,0,0,264.744,298.312Z" transform="translate(1433.341 1299.981)" fill="#fff" opacity="0.955"/>
      </g>
      <g id="グループ_33-12" data-name="グループ 33" transform="translate(-1319.249 -1574.595)">
        <path id="パス_70-12" data-name="パス 70" d="M251.653,256.027a3.338,3.338,0,0,0-5.7,2.232v3.167a.3.3,0,0,0,.3.3h2.891a3.3,3.3,0,0,0,2.509-.974A3.345,3.345,0,0,0,251.653,256.027Z" transform="translate(1429.864 1337.545)" fill="#fff" opacity="0.955"/>
        <path id="パス_71-12" data-name="パス 71" d="M209.324,269.185a3.338,3.338,0,0,0,2.232,5.7h3.167a.3.3,0,0,0,.3-.3v-2.892a3.3,3.3,0,0,0-.974-2.508A3.344,3.344,0,0,0,209.324,269.185Z" transform="translate(1450.903 1324.387)" fill="#fff" opacity="0.955"/>
        <path id="パス_72-12" data-name="パス 72" d="M222.476,311.457a3.338,3.338,0,0,0,5.7-2.232v-3.167a.3.3,0,0,0-.3-.3h-2.892a3.3,3.3,0,0,0-2.508.974A3.344,3.344,0,0,0,222.476,311.457Z" transform="translate(1487.457 1286.835)" fill="#fff" opacity="0.955"/>
        <path id="パス_73-12" data-name="パス 73" d="M264.744,298.312a3.339,3.339,0,0,0-2.232-5.7h-3.167a.3.3,0,0,0-.3.3V295.8a3.3,3.3,0,0,0,.974,2.509A3.345,3.345,0,0,0,264.744,298.312Z" transform="translate(1433.341 1299.981)" fill="#fff" opacity="0.955"/>
      </g>
      <g id="グループ_33-13" data-name="グループ 33" transform="translate(-1659.249 -1556.595)">
        <path id="パス_70-13" data-name="パス 70" d="M251.653,256.027a3.338,3.338,0,0,0-5.7,2.232v3.167a.3.3,0,0,0,.3.3h2.891a3.3,3.3,0,0,0,2.509-.974A3.345,3.345,0,0,0,251.653,256.027Z" transform="translate(1429.864 1337.545)" fill="#fff" opacity="0.955"/>
        <path id="パス_71-13" data-name="パス 71" d="M209.324,269.185a3.338,3.338,0,0,0,2.232,5.7h3.167a.3.3,0,0,0,.3-.3v-2.892a3.3,3.3,0,0,0-.974-2.508A3.344,3.344,0,0,0,209.324,269.185Z" transform="translate(1450.903 1324.387)" fill="#fff" opacity="0.955"/>
        <path id="パス_72-13" data-name="パス 72" d="M222.476,311.457a3.338,3.338,0,0,0,5.7-2.232v-3.167a.3.3,0,0,0-.3-.3h-2.892a3.3,3.3,0,0,0-2.508.974A3.344,3.344,0,0,0,222.476,311.457Z" transform="translate(1487.457 1286.835)" fill="#fff" opacity="0.955"/>
        <path id="パス_73-13" data-name="パス 73" d="M264.744,298.312a3.339,3.339,0,0,0-2.232-5.7h-3.167a.3.3,0,0,0-.3.3V295.8a3.3,3.3,0,0,0,.974,2.509A3.345,3.345,0,0,0,264.744,298.312Z" transform="translate(1433.341 1299.981)" fill="#fff" opacity="0.955"/>
      </g>
      <g id="グループ_33-14" data-name="グループ 33" transform="translate(-1591.249 -1556.595)">
        <path id="パス_70-14" data-name="パス 70" d="M251.653,256.027a3.338,3.338,0,0,0-5.7,2.232v3.167a.3.3,0,0,0,.3.3h2.891a3.3,3.3,0,0,0,2.509-.974A3.345,3.345,0,0,0,251.653,256.027Z" transform="translate(1429.864 1337.545)" fill="#fff" opacity="0.955"/>
        <path id="パス_71-14" data-name="パス 71" d="M209.324,269.185a3.338,3.338,0,0,0,2.232,5.7h3.167a.3.3,0,0,0,.3-.3v-2.892a3.3,3.3,0,0,0-.974-2.508A3.344,3.344,0,0,0,209.324,269.185Z" transform="translate(1450.903 1324.387)" fill="#fff" opacity="0.955"/>
        <path id="パス_72-14" data-name="パス 72" d="M222.476,311.457a3.338,3.338,0,0,0,5.7-2.232v-3.167a.3.3,0,0,0-.3-.3h-2.892a3.3,3.3,0,0,0-2.508.974A3.344,3.344,0,0,0,222.476,311.457Z" transform="translate(1487.457 1286.835)" fill="#fff" opacity="0.955"/>
        <path id="パス_73-14" data-name="パス 73" d="M264.744,298.312a3.339,3.339,0,0,0-2.232-5.7h-3.167a.3.3,0,0,0-.3.3V295.8a3.3,3.3,0,0,0,.974,2.509A3.345,3.345,0,0,0,264.744,298.312Z" transform="translate(1433.341 1299.981)" fill="#fff" opacity="0.955"/>
      </g>
      <g id="グループ_33-15" data-name="グループ 33" transform="translate(-1523.249 -1556.595)">
        <path id="パス_70-15" data-name="パス 70" d="M251.653,256.027a3.338,3.338,0,0,0-5.7,2.232v3.167a.3.3,0,0,0,.3.3h2.891a3.3,3.3,0,0,0,2.509-.974A3.345,3.345,0,0,0,251.653,256.027Z" transform="translate(1429.864 1337.545)" fill="#fff" opacity="0.955"/>
        <path id="パス_71-15" data-name="パス 71" d="M209.324,269.185a3.338,3.338,0,0,0,2.232,5.7h3.167a.3.3,0,0,0,.3-.3v-2.892a3.3,3.3,0,0,0-.974-2.508A3.344,3.344,0,0,0,209.324,269.185Z" transform="translate(1450.903 1324.387)" fill="#fff" opacity="0.955"/>
        <path id="パス_72-15" data-name="パス 72" d="M222.476,311.457a3.338,3.338,0,0,0,5.7-2.232v-3.167a.3.3,0,0,0-.3-.3h-2.892a3.3,3.3,0,0,0-2.508.974A3.344,3.344,0,0,0,222.476,311.457Z" transform="translate(1487.457 1286.835)" fill="#fff" opacity="0.955"/>
        <path id="パス_73-15" data-name="パス 73" d="M264.744,298.312a3.339,3.339,0,0,0-2.232-5.7h-3.167a.3.3,0,0,0-.3.3V295.8a3.3,3.3,0,0,0,.974,2.509A3.345,3.345,0,0,0,264.744,298.312Z" transform="translate(1433.341 1299.981)" fill="#fff" opacity="0.955"/>
      </g>
      <g id="グループ_33-16" data-name="グループ 33" transform="translate(-1455.249 -1556.595)">
        <path id="パス_70-16" data-name="パス 70" d="M251.653,256.027a3.338,3.338,0,0,0-5.7,2.232v3.167a.3.3,0,0,0,.3.3h2.891a3.3,3.3,0,0,0,2.509-.974A3.345,3.345,0,0,0,251.653,256.027Z" transform="translate(1429.864 1337.545)" fill="#fff" opacity="0.955"/>
        <path id="パス_71-16" data-name="パス 71" d="M209.324,269.185a3.338,3.338,0,0,0,2.232,5.7h3.167a.3.3,0,0,0,.3-.3v-2.892a3.3,3.3,0,0,0-.974-2.508A3.344,3.344,0,0,0,209.324,269.185Z" transform="translate(1450.903 1324.387)" fill="#fff" opacity="0.955"/>
        <path id="パス_72-16" data-name="パス 72" d="M222.476,311.457a3.338,3.338,0,0,0,5.7-2.232v-3.167a.3.3,0,0,0-.3-.3h-2.892a3.3,3.3,0,0,0-2.508.974A3.344,3.344,0,0,0,222.476,311.457Z" transform="translate(1487.457 1286.835)" fill="#fff" opacity="0.955"/>
        <path id="パス_73-16" data-name="パス 73" d="M264.744,298.312a3.339,3.339,0,0,0-2.232-5.7h-3.167a.3.3,0,0,0-.3.3V295.8a3.3,3.3,0,0,0,.974,2.509A3.345,3.345,0,0,0,264.744,298.312Z" transform="translate(1433.341 1299.981)" fill="#fff" opacity="0.955"/>
      </g>
      <g id="グループ_33-17" data-name="グループ 33" transform="translate(-1387.249 -1556.595)">
        <path id="パス_70-17" data-name="パス 70" d="M251.653,256.027a3.338,3.338,0,0,0-5.7,2.232v3.167a.3.3,0,0,0,.3.3h2.891a3.3,3.3,0,0,0,2.509-.974A3.345,3.345,0,0,0,251.653,256.027Z" transform="translate(1429.864 1337.545)" fill="#fff" opacity="0.955"/>
        <path id="パス_71-17" data-name="パス 71" d="M209.324,269.185a3.338,3.338,0,0,0,2.232,5.7h3.167a.3.3,0,0,0,.3-.3v-2.892a3.3,3.3,0,0,0-.974-2.508A3.344,3.344,0,0,0,209.324,269.185Z" transform="translate(1450.903 1324.387)" fill="#fff" opacity="0.955"/>
        <path id="パス_72-17" data-name="パス 72" d="M222.476,311.457a3.338,3.338,0,0,0,5.7-2.232v-3.167a.3.3,0,0,0-.3-.3h-2.892a3.3,3.3,0,0,0-2.508.974A3.344,3.344,0,0,0,222.476,311.457Z" transform="translate(1487.457 1286.835)" fill="#fff" opacity="0.955"/>
        <path id="パス_73-17" data-name="パス 73" d="M264.744,298.312a3.339,3.339,0,0,0-2.232-5.7h-3.167a.3.3,0,0,0-.3.3V295.8a3.3,3.3,0,0,0,.974,2.509A3.345,3.345,0,0,0,264.744,298.312Z" transform="translate(1433.341 1299.981)" fill="#fff" opacity="0.955"/>
      </g>
      <g id="グループ_33-18" data-name="グループ 33" transform="translate(-1319.249 -1556.595)">
        <path id="パス_70-18" data-name="パス 70" d="M251.653,256.027a3.338,3.338,0,0,0-5.7,2.232v3.167a.3.3,0,0,0,.3.3h2.891a3.3,3.3,0,0,0,2.509-.974A3.345,3.345,0,0,0,251.653,256.027Z" transform="translate(1429.864 1337.545)" fill="#fff" opacity="0.955"/>
        <path id="パス_71-18" data-name="パス 71" d="M209.324,269.185a3.338,3.338,0,0,0,2.232,5.7h3.167a.3.3,0,0,0,.3-.3v-2.892a3.3,3.3,0,0,0-.974-2.508A3.344,3.344,0,0,0,209.324,269.185Z" transform="translate(1450.903 1324.387)" fill="#fff" opacity="0.955"/>
        <path id="パス_72-18" data-name="パス 72" d="M222.476,311.457a3.338,3.338,0,0,0,5.7-2.232v-3.167a.3.3,0,0,0-.3-.3h-2.892a3.3,3.3,0,0,0-2.508.974A3.344,3.344,0,0,0,222.476,311.457Z" transform="translate(1487.457 1286.835)" fill="#fff" opacity="0.955"/>
        <path id="パス_73-18" data-name="パス 73" d="M264.744,298.312a3.339,3.339,0,0,0-2.232-5.7h-3.167a.3.3,0,0,0-.3.3V295.8a3.3,3.3,0,0,0,.974,2.509A3.345,3.345,0,0,0,264.744,298.312Z" transform="translate(1433.341 1299.981)" fill="#fff" opacity="0.955"/>
      </g>
      <g id="グループ_33-19" data-name="グループ 33" transform="translate(-1659.249 -1538.595)">
        <path id="パス_70-19" data-name="パス 70" d="M251.653,256.027a3.338,3.338,0,0,0-5.7,2.232v3.167a.3.3,0,0,0,.3.3h2.891a3.3,3.3,0,0,0,2.509-.974A3.345,3.345,0,0,0,251.653,256.027Z" transform="translate(1429.864 1337.545)" fill="#fff" opacity="0.955"/>
        <path id="パス_71-19" data-name="パス 71" d="M209.324,269.185a3.338,3.338,0,0,0,2.232,5.7h3.167a.3.3,0,0,0,.3-.3v-2.892a3.3,3.3,0,0,0-.974-2.508A3.344,3.344,0,0,0,209.324,269.185Z" transform="translate(1450.903 1324.387)" fill="#fff" opacity="0.955"/>
        <path id="パス_72-19" data-name="パス 72" d="M222.476,311.457a3.338,3.338,0,0,0,5.7-2.232v-3.167a.3.3,0,0,0-.3-.3h-2.892a3.3,3.3,0,0,0-2.508.974A3.344,3.344,0,0,0,222.476,311.457Z" transform="translate(1487.457 1286.835)" fill="#fff" opacity="0.955"/>
        <path id="パス_73-19" data-name="パス 73" d="M264.744,298.312a3.339,3.339,0,0,0-2.232-5.7h-3.167a.3.3,0,0,0-.3.3V295.8a3.3,3.3,0,0,0,.974,2.509A3.345,3.345,0,0,0,264.744,298.312Z" transform="translate(1433.341 1299.981)" fill="#fff" opacity="0.955"/>
      </g>
      <g id="グループ_33-20" data-name="グループ 33" transform="translate(-1591.249 -1538.595)">
        <path id="パス_70-20" data-name="パス 70" d="M251.653,256.027a3.338,3.338,0,0,0-5.7,2.232v3.167a.3.3,0,0,0,.3.3h2.891a3.3,3.3,0,0,0,2.509-.974A3.345,3.345,0,0,0,251.653,256.027Z" transform="translate(1429.864 1337.545)" fill="#fff" opacity="0.955"/>
        <path id="パス_71-20" data-name="パス 71" d="M209.324,269.185a3.338,3.338,0,0,0,2.232,5.7h3.167a.3.3,0,0,0,.3-.3v-2.892a3.3,3.3,0,0,0-.974-2.508A3.344,3.344,0,0,0,209.324,269.185Z" transform="translate(1450.903 1324.387)" fill="#fff" opacity="0.955"/>
        <path id="パス_72-20" data-name="パス 72" d="M222.476,311.457a3.338,3.338,0,0,0,5.7-2.232v-3.167a.3.3,0,0,0-.3-.3h-2.892a3.3,3.3,0,0,0-2.508.974A3.344,3.344,0,0,0,222.476,311.457Z" transform="translate(1487.457 1286.835)" fill="#fff" opacity="0.955"/>
        <path id="パス_73-20" data-name="パス 73" d="M264.744,298.312a3.339,3.339,0,0,0-2.232-5.7h-3.167a.3.3,0,0,0-.3.3V295.8a3.3,3.3,0,0,0,.974,2.509A3.345,3.345,0,0,0,264.744,298.312Z" transform="translate(1433.341 1299.981)" fill="#fff" opacity="0.955"/>
      </g>
      <g id="グループ_33-21" data-name="グループ 33" transform="translate(-1523.249 -1538.595)">
        <path id="パス_70-21" data-name="パス 70" d="M251.653,256.027a3.338,3.338,0,0,0-5.7,2.232v3.167a.3.3,0,0,0,.3.3h2.891a3.3,3.3,0,0,0,2.509-.974A3.345,3.345,0,0,0,251.653,256.027Z" transform="translate(1429.864 1337.545)" fill="#fff" opacity="0.955"/>
        <path id="パス_71-21" data-name="パス 71" d="M209.324,269.185a3.338,3.338,0,0,0,2.232,5.7h3.167a.3.3,0,0,0,.3-.3v-2.892a3.3,3.3,0,0,0-.974-2.508A3.344,3.344,0,0,0,209.324,269.185Z" transform="translate(1450.903 1324.387)" fill="#fff" opacity="0.955"/>
        <path id="パス_72-21" data-name="パス 72" d="M222.476,311.457a3.338,3.338,0,0,0,5.7-2.232v-3.167a.3.3,0,0,0-.3-.3h-2.892a3.3,3.3,0,0,0-2.508.974A3.344,3.344,0,0,0,222.476,311.457Z" transform="translate(1487.457 1286.835)" fill="#fff" opacity="0.955"/>
        <path id="パス_73-21" data-name="パス 73" d="M264.744,298.312a3.339,3.339,0,0,0-2.232-5.7h-3.167a.3.3,0,0,0-.3.3V295.8a3.3,3.3,0,0,0,.974,2.509A3.345,3.345,0,0,0,264.744,298.312Z" transform="translate(1433.341 1299.981)" fill="#fff" opacity="0.955"/>
      </g>
      <g id="グループ_33-22" data-name="グループ 33" transform="translate(-1455.249 -1538.595)">
        <path id="パス_70-22" data-name="パス 70" d="M251.653,256.027a3.338,3.338,0,0,0-5.7,2.232v3.167a.3.3,0,0,0,.3.3h2.891a3.3,3.3,0,0,0,2.509-.974A3.345,3.345,0,0,0,251.653,256.027Z" transform="translate(1429.864 1337.545)" fill="#fff" opacity="0.955"/>
        <path id="パス_71-22" data-name="パス 71" d="M209.324,269.185a3.338,3.338,0,0,0,2.232,5.7h3.167a.3.3,0,0,0,.3-.3v-2.892a3.3,3.3,0,0,0-.974-2.508A3.344,3.344,0,0,0,209.324,269.185Z" transform="translate(1450.903 1324.387)" fill="#fff" opacity="0.955"/>
        <path id="パス_72-22" data-name="パス 72" d="M222.476,311.457a3.338,3.338,0,0,0,5.7-2.232v-3.167a.3.3,0,0,0-.3-.3h-2.892a3.3,3.3,0,0,0-2.508.974A3.344,3.344,0,0,0,222.476,311.457Z" transform="translate(1487.457 1286.835)" fill="#fff" opacity="0.955"/>
        <path id="パス_73-22" data-name="パス 73" d="M264.744,298.312a3.339,3.339,0,0,0-2.232-5.7h-3.167a.3.3,0,0,0-.3.3V295.8a3.3,3.3,0,0,0,.974,2.509A3.345,3.345,0,0,0,264.744,298.312Z" transform="translate(1433.341 1299.981)" fill="#fff" opacity="0.955"/>
      </g>
      <g id="グループ_33-23" data-name="グループ 33" transform="translate(-1387.249 -1538.595)">
        <path id="パス_70-23" data-name="パス 70" d="M251.653,256.027a3.338,3.338,0,0,0-5.7,2.232v3.167a.3.3,0,0,0,.3.3h2.891a3.3,3.3,0,0,0,2.509-.974A3.345,3.345,0,0,0,251.653,256.027Z" transform="translate(1429.864 1337.545)" fill="#fff" opacity="0.955"/>
        <path id="パス_71-23" data-name="パス 71" d="M209.324,269.185a3.338,3.338,0,0,0,2.232,5.7h3.167a.3.3,0,0,0,.3-.3v-2.892a3.3,3.3,0,0,0-.974-2.508A3.344,3.344,0,0,0,209.324,269.185Z" transform="translate(1450.903 1324.387)" fill="#fff" opacity="0.955"/>
        <path id="パス_72-23" data-name="パス 72" d="M222.476,311.457a3.338,3.338,0,0,0,5.7-2.232v-3.167a.3.3,0,0,0-.3-.3h-2.892a3.3,3.3,0,0,0-2.508.974A3.344,3.344,0,0,0,222.476,311.457Z" transform="translate(1487.457 1286.835)" fill="#fff" opacity="0.955"/>
        <path id="パス_73-23" data-name="パス 73" d="M264.744,298.312a3.339,3.339,0,0,0-2.232-5.7h-3.167a.3.3,0,0,0-.3.3V295.8a3.3,3.3,0,0,0,.974,2.509A3.345,3.345,0,0,0,264.744,298.312Z" transform="translate(1433.341 1299.981)" fill="#fff" opacity="0.955"/>
      </g>
      <g id="グループ_33-24" data-name="グループ 33" transform="translate(-1319.249 -1538.595)">
        <path id="パス_70-24" data-name="パス 70" d="M251.653,256.027a3.338,3.338,0,0,0-5.7,2.232v3.167a.3.3,0,0,0,.3.3h2.891a3.3,3.3,0,0,0,2.509-.974A3.345,3.345,0,0,0,251.653,256.027Z" transform="translate(1429.864 1337.545)" fill="#fff" opacity="0.955"/>
        <path id="パス_71-24" data-name="パス 71" d="M209.324,269.185a3.338,3.338,0,0,0,2.232,5.7h3.167a.3.3,0,0,0,.3-.3v-2.892a3.3,3.3,0,0,0-.974-2.508A3.344,3.344,0,0,0,209.324,269.185Z" transform="translate(1450.903 1324.387)" fill="#fff" opacity="0.955"/>
        <path id="パス_72-24" data-name="パス 72" d="M222.476,311.457a3.338,3.338,0,0,0,5.7-2.232v-3.167a.3.3,0,0,0-.3-.3h-2.892a3.3,3.3,0,0,0-2.508.974A3.344,3.344,0,0,0,222.476,311.457Z" transform="translate(1487.457 1286.835)" fill="#fff" opacity="0.955"/>
        <path id="パス_73-24" data-name="パス 73" d="M264.744,298.312a3.339,3.339,0,0,0-2.232-5.7h-3.167a.3.3,0,0,0-.3.3V295.8a3.3,3.3,0,0,0,.974,2.509A3.345,3.345,0,0,0,264.744,298.312Z" transform="translate(1433.341 1299.981)" fill="#fff" opacity="0.955"/>
      </g>
    </g>
  </g>
</svg>
