<svg xmlns="http://www.w3.org/2000/svg" width="29.811" height="23.102" viewBox="0 0 29.811 23.102">
  <path id="パス_1693" data-name="パス 1693" d="M0,16.392v-.17A13.38,13.38,0,0,1,1.7,9.427,47.519,47.519,0,0,1,8.323.764,2.273,2.273,0,0,1,9.937,0h.085a1.8,1.8,0,0,1,1.316.552q.552.552.552.807a.576.576,0,0,1-.17.425A31.43,31.43,0,0,0,7.9,9.682a4.822,4.822,0,0,1,4.162,2A7.9,7.9,0,0,1,13.5,16.434a6.356,6.356,0,0,1-2,4.714A6.615,6.615,0,0,1,6.71,23.1a6.473,6.473,0,0,1-4.756-1.953A6.473,6.473,0,0,1,0,16.392Zm16.307,0v-.17a13.38,13.38,0,0,1,1.7-6.795A47.519,47.519,0,0,1,24.63.764,2.273,2.273,0,0,1,26.244,0h.085a1.8,1.8,0,0,1,1.316.552q.552.552.552.807a.576.576,0,0,1-.17.425,31.43,31.43,0,0,0-3.822,7.9,4.822,4.822,0,0,1,4.162,2,7.9,7.9,0,0,1,1.444,4.756,6.356,6.356,0,0,1-2,4.714,6.615,6.615,0,0,1-4.8,1.953,6.67,6.67,0,0,1-6.71-6.71Z" fill="#fff"/>
</svg>
