<svg xmlns="http://www.w3.org/2000/svg" xmlns:xlink="http://www.w3.org/1999/xlink" width="227" height="18" viewBox="0 0 227 18">
  <defs>
    <clipPath id="clip-path">
      <rect id="長方形_384" data-name="長方形 384" width="227" height="18" transform="translate(-3 0.061)" fill="#fff" stroke="#707070" stroke-width="1"/>
    </clipPath>
    <clipPath id="clip-path-2">
      <rect width="304.909" height="29.326" fill="none"/>
    </clipPath>
  </defs>
  <g id="マスクグループ_52" data-name="マスクグループ 52" transform="translate(3 -0.061)" clip-path="url(#clip-path)">
    <g id="リピートグリッド_30" data-name="リピートグリッド 30" transform="translate(-71.347 -7.733)" clip-path="url(#clip-path-2)">
      <g transform="translate(-908.086 -1215.086)">
        <line id="線_607" data-name="線 607" x1="74" y2="74" transform="translate(909.5 1216.5)" fill="none" stroke="#f5ec00" stroke-width="4"/>
      </g>
      <g transform="translate(-896.086 -1215.086)">
        <line id="線_608" data-name="線 608" x1="74" y2="74" transform="translate(909.5 1216.5)" fill="none" stroke="#f5ec00" stroke-width="4"/>
      </g>
      <g transform="translate(-884.086 -1215.086)">
        <line id="線_609" data-name="線 609" x1="74" y2="74" transform="translate(909.5 1216.5)" fill="none" stroke="#f5ec00" stroke-width="4"/>
      </g>
      <g transform="translate(-872.086 -1215.086)">
        <line id="線_610" data-name="線 610" x1="74" y2="74" transform="translate(909.5 1216.5)" fill="none" stroke="#f5ec00" stroke-width="4"/>
      </g>
      <g transform="translate(-860.086 -1215.086)">
        <line id="線_611" data-name="線 611" x1="74" y2="74" transform="translate(909.5 1216.5)" fill="none" stroke="#f5ec00" stroke-width="4"/>
      </g>
      <g transform="translate(-848.086 -1215.086)">
        <line id="線_612" data-name="線 612" x1="74" y2="74" transform="translate(909.5 1216.5)" fill="none" stroke="#f5ec00" stroke-width="4"/>
      </g>
      <g transform="translate(-836.086 -1215.086)">
        <line id="線_613" data-name="線 613" x1="74" y2="74" transform="translate(909.5 1216.5)" fill="none" stroke="#f5ec00" stroke-width="4"/>
      </g>
      <g transform="translate(-824.086 -1215.086)">
        <line id="線_614" data-name="線 614" x1="74" y2="74" transform="translate(909.5 1216.5)" fill="none" stroke="#f5ec00" stroke-width="4"/>
      </g>
      <g transform="translate(-812.086 -1215.086)">
        <line id="線_615" data-name="線 615" x1="74" y2="74" transform="translate(909.5 1216.5)" fill="none" stroke="#f5ec00" stroke-width="4"/>
      </g>
      <g transform="translate(-800.086 -1215.086)">
        <line id="線_616" data-name="線 616" x1="74" y2="74" transform="translate(909.5 1216.5)" fill="none" stroke="#f5ec00" stroke-width="4"/>
      </g>
      <g transform="translate(-788.086 -1215.086)">
        <line id="線_617" data-name="線 617" x1="74" y2="74" transform="translate(909.5 1216.5)" fill="none" stroke="#f5ec00" stroke-width="4"/>
      </g>
      <g transform="translate(-776.086 -1215.086)">
        <line id="線_618" data-name="線 618" x1="74" y2="74" transform="translate(909.5 1216.5)" fill="none" stroke="#f5ec00" stroke-width="4"/>
      </g>
      <g transform="translate(-764.086 -1215.086)">
        <line id="線_619" data-name="線 619" x1="74" y2="74" transform="translate(909.5 1216.5)" fill="none" stroke="#f5ec00" stroke-width="4"/>
      </g>
      <g transform="translate(-752.086 -1215.086)">
        <line id="線_620" data-name="線 620" x1="74" y2="74" transform="translate(909.5 1216.5)" fill="none" stroke="#f5ec00" stroke-width="4"/>
      </g>
      <g transform="translate(-740.086 -1215.086)">
        <line id="線_621" data-name="線 621" x1="74" y2="74" transform="translate(909.5 1216.5)" fill="none" stroke="#f5ec00" stroke-width="4"/>
      </g>
      <g transform="translate(-728.086 -1215.086)">
        <line id="線_622" data-name="線 622" x1="74" y2="74" transform="translate(909.5 1216.5)" fill="none" stroke="#f5ec00" stroke-width="4"/>
      </g>
      <g transform="translate(-716.086 -1215.086)">
        <line id="線_623" data-name="線 623" x1="74" y2="74" transform="translate(909.5 1216.5)" fill="none" stroke="#f5ec00" stroke-width="4"/>
      </g>
      <g transform="translate(-704.086 -1215.086)">
        <line id="線_624" data-name="線 624" x1="74" y2="74" transform="translate(909.5 1216.5)" fill="none" stroke="#f5ec00" stroke-width="4"/>
      </g>
      <g transform="translate(-692.086 -1215.086)">
        <line id="線_625" data-name="線 625" x1="74" y2="74" transform="translate(909.5 1216.5)" fill="none" stroke="#f5ec00" stroke-width="4"/>
      </g>
      <g transform="translate(-680.086 -1215.086)">
        <line id="線_626" data-name="線 626" x1="74" y2="74" transform="translate(909.5 1216.5)" fill="none" stroke="#f5ec00" stroke-width="4"/>
      </g>
      <g transform="translate(-668.086 -1215.086)">
        <line id="線_627" data-name="線 627" x1="74" y2="74" transform="translate(909.5 1216.5)" fill="none" stroke="#f5ec00" stroke-width="4"/>
      </g>
      <g transform="translate(-656.086 -1215.086)">
        <line id="線_628" data-name="線 628" x1="74" y2="74" transform="translate(909.5 1216.5)" fill="none" stroke="#f5ec00" stroke-width="4"/>
      </g>
      <g transform="translate(-644.086 -1215.086)">
        <line id="線_629" data-name="線 629" x1="74" y2="74" transform="translate(909.5 1216.5)" fill="none" stroke="#f5ec00" stroke-width="4"/>
      </g>
      <g transform="translate(-632.086 -1215.086)">
        <line id="線_630" data-name="線 630" x1="74" y2="74" transform="translate(909.5 1216.5)" fill="none" stroke="#f5ec00" stroke-width="4"/>
      </g>
      <g transform="translate(-620.086 -1215.086)">
        <line id="線_630-2" data-name="線 630" x1="74" y2="74" transform="translate(909.5 1216.5)" fill="none" stroke="#f5ec00" stroke-width="4"/>
      </g>
      <g transform="translate(-608.086 -1215.086)">
        <line id="線_630-3" data-name="線 630" x1="74" y2="74" transform="translate(909.5 1216.5)" fill="none" stroke="#f5ec00" stroke-width="4"/>
      </g>
    </g>
  </g>
</svg>
