<svg xmlns="http://www.w3.org/2000/svg" width="150" height="150" viewBox="0 0 150 150">
  <g id="グループ_1206" data-name="グループ 1206" transform="translate(-456 -4622)">
    <circle id="楕円形_121" data-name="楕円形 121" cx="75" cy="75" r="75" transform="translate(456 4622)" fill="#fff"/>
    <g id="グループ_1292" data-name="グループ 1292" transform="translate(-30.47 4900.442)">
      <path id="パス_1477" data-name="パス 1477" d="M532.122-229.132h18.05l5.089,3.8h4.646l28.894,1.175s5.446,1.469,5.178,11.716,0,29.584,0,29.584S589.862-176.966,583-177.4s-48.181,0-48.181,0-4.566-.942-5.221-10.6,0-36.762,0-36.762Z" fill="#fabd35"/>
      <path id="パス_729" data-name="パス 729" d="M587.04-226.377H558.733a4.2,4.2,0,0,1-2.339-.708l-5.247-3.5A8.4,8.4,0,0,0,546.468-232H536.434A8.444,8.444,0,0,0,528-223.566v39.36a8.444,8.444,0,0,0,8.434,8.434H587.04a8.444,8.444,0,0,0,8.434-8.434v-33.737A8.444,8.444,0,0,0,587.04-226.377Zm4.217,42.172a4.221,4.221,0,0,1-4.217,4.217H536.434a4.221,4.221,0,0,1-4.217-4.217V-207.4h59.04Zm0-27.411h-59.04v-11.949a4.221,4.221,0,0,1,4.217-4.217h10.033a4.2,4.2,0,0,1,2.339.708l5.247,3.5a8.4,8.4,0,0,0,4.679,1.417H587.04a4.221,4.221,0,0,1,4.217,4.217Z" fill="#13202f"/>
    </g>
  </g>
</svg>
