<svg xmlns="http://www.w3.org/2000/svg" width="376" height="223" viewBox="0 0 376 223">
  <g id="グループ_2152" data-name="グループ 2152" transform="translate(-1228 -6176)">
    <rect id="長方形_302" data-name="長方形 302" width="376" height="223" rx="20" transform="translate(1228 6176)" fill="#fff"/>
    <g id="グループ_1327" data-name="グループ 1327" transform="translate(1206.651 6062.54)">
      <path id="パス_1108" data-name="パス 1108" d="M151.581,355.055v39.112h15.044v-5.546a2.135,2.135,0,0,1,2.134-2.135h94.312a2.135,2.135,0,0,1,2.134,2.135v5.545H280.25V339.332a6.132,6.132,0,0,0-.1-1.111A6.044,6.044,0,0,0,274.7,333.3c-.087-.007-.169-.019-.252-.034-.087.008-.173.015-.256.015h-8.99v27.191a2.134,2.134,0,0,1-2.134,2.134H168.759a2.134,2.134,0,0,1-2.134-2.134V333.281h-9a6.077,6.077,0,0,0-5.5,3.524l-.012.027a5.992,5.992,0,0,0-.538,2.5v7.184a2.138,2.138,0,0,1-2.134,2.135v4.27A2.136,2.136,0,0,1,151.581,355.055Z" transform="translate(-3.536 -118.137)" fill="#fff"/>
      <path id="パス_1109" data-name="パス 1109" d="M145.91,348.595h17.179v5.549a2.134,2.134,0,0,0,2.134,2.134h94.312a2.134,2.134,0,0,0,2.134-2.134v-5.549h17.179a2.126,2.126,0,0,0,2.131-2.135V289.49a10.525,10.525,0,0,0-.169-1.886,10.391,10.391,0,0,0-3.208-5.753,10.247,10.247,0,0,0-6.084-2.647,2.1,2.1,0,0,0-.429.008,2.052,2.052,0,0,0-.429-.041H259.988a2.1,2.1,0,0,0-.224.012,2.186,2.186,0,0,0-.229-.013H248.6V255.461a2.14,2.14,0,0,0-2.135-2.135H203.768a2.138,2.138,0,0,0-2.135,2.135v0a2.136,2.136,0,0,0,2.135,2.133h40.558v50.9H180.432V257.6h14.8a2.136,2.136,0,0,0,2.135-2.133v0a2.138,2.138,0,0,0-2.135-2.135H178.3a2.141,2.141,0,0,0-2.135,2.135v23.708H154.095a10.313,10.313,0,0,0-10.32,10.32v7.184a2.14,2.14,0,0,0,2.135,2.135h0a2.138,2.138,0,0,0,2.134-2.135V289.49a5.991,5.991,0,0,1,.538-2.5l.012-.027a6.077,6.077,0,0,1,5.5-3.524h9v27.191a2.134,2.134,0,0,0,2.134,2.134h94.312a2.134,2.134,0,0,0,2.134-2.134V283.439h8.99c.083,0,.169-.007.256-.015.082.015.165.026.252.034a6.044,6.044,0,0,1,5.445,4.921,6.132,6.132,0,0,1,.1,1.111v54.835H261.669V338.78a2.135,2.135,0,0,0-2.134-2.134H165.223a2.135,2.135,0,0,0-2.134,2.134v5.546H148.045V305.213a2.136,2.136,0,0,0-2.134-2.135h0a2.138,2.138,0,0,0-2.135,2.135V346.46a2.133,2.133,0,0,0,2.135,2.135Zm30.252-40.1h-8.8V283.438h8.8Zm81.238,0h-8.8V283.438h8.8Zm-90.043,32.418H257.4v11.095H167.357Z" transform="translate(0 -68.295)" fill="#13202f"/>
      <rect id="長方形_331" data-name="長方形 331" width="8.805" height="25.058" transform="translate(248.595 215.143)" fill="#55a797"/>
      <rect id="長方形_332" data-name="長方形 332" width="8.805" height="25.058" transform="translate(167.357 215.143)" fill="#55a797"/>
      <rect id="長方形_333" data-name="長方形 333" width="90.043" height="11.095" transform="translate(167.357 272.62)" fill="#55a797"/>
      <path id="パス_1110" data-name="パス 1110" d="M255.931,261.134h-14.8v50.9h63.894v-50.9H264.471A2.136,2.136,0,0,1,262.336,259h-4.27A2.136,2.136,0,0,1,255.931,261.134Zm41.389,41.955H248.842a2.134,2.134,0,0,1,0-4.269H297.32a2.134,2.134,0,1,1,0,4.269Zm0-14.37H248.842a2.134,2.134,0,0,1,0-4.269H297.32a2.134,2.134,0,0,1,0,4.269Zm0-18.639a2.134,2.134,0,1,1,0,4.269H248.842a2.134,2.134,0,0,1,0-4.269Z" transform="translate(-60.702 -71.833)" fill="#fff"/>
      <path id="パス_1111" data-name="パス 1111" d="M255.937,290.562a2.134,2.134,0,0,0,2.135,2.134H306.55a2.134,2.134,0,1,0,0-4.269H258.072A2.134,2.134,0,0,0,255.937,290.562Z" transform="translate(-69.932 -90.18)" fill="#13202f"/>
      <path id="パス_1112" data-name="パス 1112" d="M306.55,326.594H258.072a2.134,2.134,0,1,0,0,4.269H306.55a2.134,2.134,0,1,0,0-4.269Z" transform="translate(-69.932 -113.977)" fill="#13202f"/>
      <path id="パス_1113" data-name="パス 1113" d="M306.55,364.76H258.072a2.134,2.134,0,1,0,0,4.269H306.55a2.134,2.134,0,1,0,0-4.269Z" transform="translate(-69.932 -137.773)" fill="#13202f"/>
    </g>
    <path id="パス_1114" data-name="パス 1114" d="M321.82,649.655h78.355a17.472,17.472,0,1,1,0,34.944H383.4l4.1,11.554L376.223,684.6h-54.4a17.472,17.472,0,1,1,0-34.944Z" transform="translate(973.083 5555.345)" fill="#f03748"/>
    <path id="パス_1861" data-name="パス 1861" d="M-22.831-11.781H-24.4v1.666h-2.516v1.479H-24.4v1.547h-2.091v5.61h5.8v-5.61h-2.142V-8.636h2.567v-1.479h-2.567Zm.646,8.959h-2.822V-5.763h2.822Zm4.08-11.033H-29.087V1.156H-18.1ZM-19.788-.391h-7.65V-12.342h7.65Zm-10.693-9.5a20.891,20.891,0,0,0,1.054-4.4l-1.785-.2a13.1,13.1,0,0,1-2.737,6.987l.85,2.21c.425-.561.612-.8.935-1.292V1.513h1.683ZM-9.5-12.24A15.209,15.209,0,0,1-11-5.916,12.289,12.289,0,0,1-16.762-.272l1.258,1.7A13.93,13.93,0,0,0-8.517-7.616,14.114,14.114,0,0,0-1.5,1.428L-.323-.306a12.928,12.928,0,0,1-7.191-12V-14.4H-9.5Zm15.929,5.3V1.547H8.058v-2.89h6v.765c0,.357,0,.578-.408.578H11.7l.357,1.547h1.8c1.6,0,1.853-.238,1.853-1.836V-6.936Zm-.272-2.72a12.323,12.323,0,0,0-.782-2.04l-1.02.425V-14.45H2.584v16H4.352V-10.744A12.8,12.8,0,0,1,4.9-9.112Zm7.905,4.012v.884h-6v-.884Zm0,2.125V-2.6h-6v-.918Zm2.108-9.962H11.9v-.969H10.2v.969H5.95V-12.1H10.2v.918H6.426v1.258H10.2v.884H5.627v1.36h10.9v-1.36H11.9v-.884h3.961v-1.258H11.9V-12.1h4.267ZM1.683-6.052c.221-.68.476-1.683.425-4.9H.782A10.93,10.93,0,0,1,.289-6.783Zm26.4.68a11.66,11.66,0,0,0,1.6,3.434A7.517,7.517,0,0,1,27.9.068l1.037,1.445A14.218,14.218,0,0,0,30.719-.493a11.8,11.8,0,0,0,2.074,2.006l.9-1.649a14.9,14.9,0,0,1-2.023-1.887A16.993,16.993,0,0,0,33.116-7.7H27.761v-4.59H31.28c-.085,2.261-.306,2.261-.867,2.261H28.645l.289,1.581h2.227a1.247,1.247,0,0,0,1.326-.918,21.659,21.659,0,0,0,.391-4.539H26.1V1.513h1.666v-7.65H31.28a12.444,12.444,0,0,1-.7,2.465c-.425-.816-.748-1.564-1-2.159Zm-7.344-7.82H17.918v1.581H20.74v1.547H17.527v1.581h1.02a12.779,12.779,0,0,1,.476,2.227H17.68v1.581h3.06v1.683H17.918v1.6H20.74V1.513h1.7V-1.394h2.771v-1.6H22.44V-4.675h3.077V-6.256H24.174c.085-.34.425-1.768.493-2.227h1.02v-1.581H22.44v-1.547h2.771v-1.581H22.44v-1.241h-1.7Zm2.21,4.709a16.458,16.458,0,0,1-.374,2.227H20.6c-.136-.884-.2-1.258-.425-2.227Z" transform="translate(1333.783 6228.315)" fill="#fff"/>
    <g id="グループ_1625" data-name="グループ 1625" transform="translate(1464.881 6188.618) rotate(7)">
      <g id="パス_1608" data-name="パス 1608" transform="translate(0)" fill="#ed4950" stroke-linecap="round" stroke-linejoin="round">
        <path d="M 64.80417633056641 63.06562042236328 L 23.33055305480957 63.06562042236328 C 22.06376457214355 63.06562042236328 20.92924308776855 62.41068267822266 20.29571342468262 61.31366348266602 C 19.66213417053223 60.216552734375 19.66192436218262 58.90644073486328 20.29513359069824 57.80914306640625 L 41.03237533569336 21.89121246337891 C 41.52778244018555 21.03302192687988 42.3681526184082 20.42232131958008 43.33795547485352 20.21577262878418 C 43.57854461669922 20.16472244262695 43.82342529296875 20.13901138305664 44.06734466552734 20.13901138305664 C 45.31513214111328 20.13901138305664 46.47800445556641 20.8102912902832 47.10216522216797 21.89088249206543 L 67.83929443359375 57.80876159667969 C 68.47273254394531 58.90631103515625 68.47257995605469 60.21642303466797 67.83902740478516 61.31356048583984 C 67.20551300048828 62.41065216064453 66.07098388671875 63.06562042236328 64.80417633056641 63.06562042236328 Z" stroke="none"/>
        <path d="M 44.06734848022461 22.13901519775391 C 43.96369171142578 22.13901519775391 43.85893630981445 22.14975357055664 43.75457382202148 22.17189407348633 C 43.33745193481445 22.2607307434082 42.97746276855469 22.52217102050781 42.76442337036133 22.89121246337891 L 22.02739715576172 58.80875396728516 C 21.44855499267578 59.81186294555664 22.17235565185547 61.06561279296875 23.33055114746094 61.06561279296875 L 64.80416107177734 61.06561279296875 C 65.9622802734375 61.06561279296875 66.68617248535156 59.81186294555664 66.10723114013672 58.80875396728516 L 45.37030410766602 22.89121246337891 C 45.09770965576172 22.41927719116211 44.59690856933594 22.13901519775391 44.06734848022461 22.13901519775391 M 44.06734466552734 18.13901519775391 C 46.02721405029297 18.13901519775391 47.85370254516602 19.19334030151367 48.83402252197266 20.89054107666016 L 69.57133483886719 56.80876159667969 C 70.55148315429688 58.50701141357422 70.55123138427734 60.61618041992188 69.57099914550781 62.31368255615234 C 68.59080505371094 64.01113128662109 66.76426696777344 65.06561279296875 64.80416107177734 65.06561279296875 L 23.33055114746094 65.06561279296875 C 21.37052154541016 65.06561279296875 19.54399108886719 64.01119995117188 18.56378173828125 62.31386184692383 C 17.58351135253906 60.61643981933594 17.58315277099609 58.50730133056641 18.56283569335938 56.80953979492188 L 39.30032348632812 20.89121246337891 C 40.07847213745117 19.54325103759766 41.3983154296875 18.58402252197266 42.92132186889648 18.2596435546875 C 43.29967498779297 18.17937469482422 43.6841926574707 18.13901519775391 44.06734466552734 18.13901519775391 Z" stroke="none" fill="#16202e"/>
      </g>
      <path id="パス_1609" data-name="パス 1609" d="M260.678,200.42a2.146,2.146,0,1,0,2.161,2.161A1.991,1.991,0,0,0,260.678,200.42Zm0-17.041a2.45,2.45,0,0,0-2.631,2.631c0,.157.031.282.031.376l.908,10.525a1.57,1.57,0,0,0,1.692,1.6,1.612,1.612,0,0,0,1.723-1.6l.908-10.588v-.313A2.435,2.435,0,0,0,260.678,183.379Z" transform="translate(-216.733 -148.846)" fill="#fff"/>
    </g>
  </g>
</svg>
