<svg xmlns="http://www.w3.org/2000/svg" width="316" height="184" viewBox="0 0 316 184">
  <g id="グループ_2155" data-name="グループ 2155" transform="translate(846 -7739.571)">
    <path id="パス_1871" data-name="パス 1871" d="M20,0H296a20,20,0,0,1,20,20V164a20,20,0,0,1-20,20H20A20,20,0,0,1,0,164V20A20,20,0,0,1,20,0Z" transform="translate(-846 7739.571)" fill="#fff"/>
    <path id="パス_1114" data-name="パス 1114" d="M320.208,649.655h71.125c8.759,0,15.861,7.355,15.861,16.428s-7.1,16.429-15.861,16.429H376.1l3.718,10.864-10.23-10.864H320.208c-8.759,0-15.861-7.356-15.861-16.429S311.448,649.655,320.208,649.655Z" transform="translate(-1121.987 7111.975)" fill="#f03748"/>
    <path id="パス_1872" data-name="パス 1872" d="M-20.145-10.4h-1.38v1.47h-2.22v1.3h2.22v1.365H-23.37V-1.3h5.115v-4.95h-1.89V-7.62h2.265v-1.3h-2.265Zm.57,7.905h-2.49v-2.6h2.49Zm3.6-9.735h-9.69V1.02h9.69ZM-17.46-.345h-6.75V-10.89h6.75ZM-26.9-8.73a18.433,18.433,0,0,0,.93-3.885l-1.575-.18A11.559,11.559,0,0,1-29.955-6.63l.75,1.95c.375-.495.54-.7.825-1.14V1.335H-26.9Zm18.51-2.07A13.419,13.419,0,0,1-9.7-5.22,10.843,10.843,0,0,1-14.79-.24l1.11,1.5A12.291,12.291,0,0,0-7.515-6.72a12.453,12.453,0,0,0,6.2,7.98L-.285-.27A11.407,11.407,0,0,1-6.63-10.86V-12.7H-8.385ZM5.67-6.12V1.365H7.11v-2.55h5.3V-.51c0,.315,0,.51-.36.51H10.32l.315,1.365h1.59c1.41,0,1.635-.21,1.635-1.62V-6.12Zm-.24-2.4a10.873,10.873,0,0,0-.69-1.8l-.9.375V-12.75H2.28V1.365H3.84V-9.48a11.294,11.294,0,0,1,.48,1.44Zm6.975,3.54v.78H7.11v-.78Zm0,1.875v.81H7.11v-.81Zm1.86-8.79H10.5v-.855H9v.855H5.25v1.215H9v.81H5.67v1.11H9v.78H4.965v1.2H14.58v-1.2H10.5v-.78H14V-9.87H10.5v-.81h3.765ZM1.485-5.34A12.494,12.494,0,0,0,1.86-9.66H.69A9.644,9.644,0,0,1,.255-5.985Zm23.295.6a10.288,10.288,0,0,0,1.41,3.03A6.633,6.633,0,0,1,24.615.06l.915,1.275A12.546,12.546,0,0,0,27.1-.435a10.412,10.412,0,0,0,1.83,1.77L29.73-.12a13.146,13.146,0,0,1-1.785-1.665A14.993,14.993,0,0,0,29.22-6.8H24.495v-4.05h3.1c-.075,2-.27,2-.765,2h-1.56l.255,1.395h1.965a1.1,1.1,0,0,0,1.17-.81,19.111,19.111,0,0,0,.345-4.005H23.025V1.335h1.47v-6.75h3.1a10.98,10.98,0,0,1-.615,2.175c-.375-.72-.66-1.38-.885-1.9Zm-6.48-6.9H15.81v1.395H18.3V-8.88H15.465v1.395h.9a11.275,11.275,0,0,1,.42,1.965H15.6v1.395h2.7V-2.64H15.81v1.41H18.3V1.335h1.5V-1.23h2.445V-2.64H19.8V-4.125h2.715V-5.52H21.33c.075-.3.375-1.56.435-1.965h.9V-8.88H19.8v-1.365h2.445V-11.64H19.8v-1.095H18.3Zm1.95,4.155a14.522,14.522,0,0,1-.33,1.965H18.18c-.12-.78-.18-1.11-.375-1.965Z" transform="translate(-765.217 7782.886)" fill="#fff"/>
    <g id="パス_1608" data-name="パス 1608" transform="translate(-640.584 7751.221) rotate(7)" fill="#ed4950" stroke-linecap="round" stroke-linejoin="round">
      <path d="M 58.09348297119141 56.98786926269531 L 23.09528350830078 56.98786926269531 C 21.93104362487793 56.98786926269531 20.84611320495605 56.36155700683594 20.26387405395508 55.35334777832031 C 19.68159294128418 54.34505844116211 19.68138313293457 53.09223937988281 20.26333236694336 52.08376693725586 L 37.76282501220703 21.77377891540527 C 38.22502136230469 20.97311782836914 39.0090446472168 20.4033374786377 39.91379165649414 20.21063804626465 C 40.13835144042969 20.16299819946289 40.36679458618164 20.13901901245117 40.59436416625977 20.13901901245117 C 41.7585334777832 20.13901901245117 42.84347152709961 20.76530838012695 43.42577362060547 21.77347755432129 L 60.92514419555664 52.08338928222656 C 61.5073127746582 53.09209823608398 61.50716400146484 54.34494018554688 60.92491149902344 55.3532600402832 C 60.34268188476562 56.36151885986328 59.25774383544922 56.98786926269531 58.09348297119141 56.98786926269531 Z" stroke="none"/>
      <path d="M 40.59436416625977 22.13901519775391 C 40.50689315795898 22.13901519775391 40.41849517822266 22.14807510375977 40.33042144775391 22.1667594909668 C 39.97843170166016 22.24172973632812 39.67465209960938 22.46234893798828 39.494873046875 22.77376937866211 L 21.9955940246582 53.08338928222656 C 21.50713348388672 53.92987060546875 22.11792373657227 54.98786926269531 23.09528350830078 54.98786926269531 L 58.09348297119141 54.98786926269531 C 59.07076263427734 54.98786926269531 59.68163299560547 53.92987060546875 59.19309234619141 53.08338928222656 L 41.69389343261719 22.77376937866211 C 41.4638671875 22.37551879882812 41.0412483215332 22.13901519775391 40.59436416625977 22.13901519775391 M 40.59436416625977 18.13901901245117 C 42.47061157226562 18.13901901245117 44.21914291381836 19.14834976196289 45.15761184692383 20.77311706542969 L 62.65719604492188 51.08339691162109 C 63.59551239013672 52.70919036865234 63.59527587890625 54.72832870483398 62.65688323974609 56.35338592529297 C 61.71851348876953 57.97840118408203 59.96992492675781 58.98786926269531 58.09348297119141 58.98786926269531 L 23.09528350830078 58.98786926269531 C 21.21889495849609 58.98786926269531 19.47032165527344 57.97845840454102 18.53194427490234 56.35354614257812 C 17.59351348876953 54.72856903076172 17.59316253662109 52.70946884155273 18.53104400634766 51.08416748046875 L 36.0307731628418 20.77376937866211 C 36.77573394775391 19.48332977294922 38.03921508789062 18.56503677368164 39.49715423583984 18.25450897216797 C 39.85958480834961 18.17763900756836 40.22762298583984 18.13901901245117 40.59436416625977 18.13901901245117 Z" stroke="none" fill="#16202e"/>
    </g>
    <path id="パス_1609" data-name="パス 1609" d="M260.268,197.759a1.811,1.811,0,1,0,1.824,1.824A1.681,1.681,0,0,0,260.268,197.759Zm0-14.38a2.068,2.068,0,0,0-2.221,2.221c0,.132.027.238.027.317l.767,8.882a1.325,1.325,0,0,0,1.428,1.348,1.36,1.36,0,0,0,1.454-1.348l.767-8.934V185.6A2.055,2.055,0,0,0,260.268,183.379Z" transform="translate(-840.347 7574.78) rotate(7)" fill="#fff"/>
    <path id="パス_1108" data-name="パス 1108" d="M151.35,352.7v34.885h13.418v-4.947a1.9,1.9,0,0,1,1.9-1.9h84.119a1.9,1.9,0,0,1,1.9,1.9v4.946h13.418V338.676a5.471,5.471,0,0,0-.09-.991,5.391,5.391,0,0,0-4.856-4.389c-.077-.007-.151-.017-.225-.03-.078.007-.154.013-.228.013h-8.018v24.252a1.9,1.9,0,0,1-1.9,1.9H166.672a1.9,1.9,0,0,1-1.9-1.9V333.279h-8.025a5.42,5.42,0,0,0-4.9,3.143l-.01.024a5.344,5.344,0,0,0-.48,2.229v6.407a1.907,1.907,0,0,1-1.9,1.9V350.8A1.9,1.9,0,0,1,151.35,352.7Z" transform="translate(-895.542 7495.15)" fill="#fff"/>
    <path id="パス_1109" data-name="パス 1109" d="M145.679,338.3H161v4.949a1.9,1.9,0,0,0,1.9,1.9h84.119a1.9,1.9,0,0,0,1.9-1.9V338.3H264.25a1.9,1.9,0,0,0,1.9-1.9V285.581A9.385,9.385,0,0,0,266,283.9a9.267,9.267,0,0,0-2.862-5.132,9.139,9.139,0,0,0-5.427-2.361,1.868,1.868,0,0,0-.383.007,1.829,1.829,0,0,0-.383-.037h-9.517a1.872,1.872,0,0,0-.2.011,1.948,1.948,0,0,0-.2-.011h-9.757V255.23a1.909,1.909,0,0,0-1.9-1.9H197.284a1.907,1.907,0,0,0-1.9,1.9v0a1.9,1.9,0,0,0,1.9,1.9h36.174v45.4H176.47v-45.4h13.2a1.9,1.9,0,0,0,1.9-1.9v0a1.907,1.907,0,0,0-1.9-1.9h-15.1a1.91,1.91,0,0,0-1.9,1.9v21.146H152.979a9.2,9.2,0,0,0-9.2,9.2v6.407a1.909,1.909,0,0,0,1.9,1.9h0a1.907,1.907,0,0,0,1.9-1.9v-6.407a5.343,5.343,0,0,1,.48-2.23l.01-.024a5.42,5.42,0,0,1,4.9-3.143H161v24.252a1.9,1.9,0,0,0,1.9,1.9h84.119a1.9,1.9,0,0,0,1.9-1.9V280.185h8.018c.074,0,.151-.006.228-.013.074.013.147.024.225.03a5.391,5.391,0,0,1,4.856,4.389,5.471,5.471,0,0,1,.09.991V334.49H248.927v-4.946a1.9,1.9,0,0,0-1.9-1.9H162.9a1.9,1.9,0,0,0-1.9,1.9v4.947H147.583V299.605a1.9,1.9,0,0,0-1.9-1.9h0a1.907,1.907,0,0,0-1.9,1.9v36.789a1.9,1.9,0,0,0,1.9,1.9Zm26.983-35.765h-7.853v-22.35h7.853Zm72.458,0h-7.853v-22.35h7.853Zm-80.311,28.914H245.12v9.9H164.809Z" transform="translate(-891.775 7548.245)" fill="#13202f"/>
    <path id="パス_1873" data-name="パス 1873" d="M0,0H7.853V22.35H0Z" transform="translate(-654.508 7828.428)" fill="#55a797"/>
    <path id="パス_1874" data-name="パス 1874" d="M0,0H7.853V22.35H0Z" transform="translate(-726.966 7828.428)" fill="#55a797"/>
    <path id="パス_1875" data-name="パス 1875" d="M0,0H80.311V9.9H0Z" transform="translate(-726.966 7879.693)" fill="#55a797"/>
    <path id="パス_1110" data-name="パス 1110" d="M254.332,260.9h-13.2v45.4h56.989V260.9H261.948a1.9,1.9,0,0,1-1.9-1.9h-3.809A1.9,1.9,0,0,1,254.332,260.9Zm36.916,37.421H248.009a1.9,1.9,0,0,1,0-3.807h43.239a1.9,1.9,0,1,1,0,3.807Zm0-12.817H248.009a1.9,1.9,0,0,1,0-3.808h43.239a1.9,1.9,0,0,1,0,3.808Zm0-16.624a1.9,1.9,0,1,1,0,3.807H248.009a1.9,1.9,0,0,1,0-3.807Z" transform="translate(-956.439 7544.476)" fill="#fff"/>
    <path id="パス_1111" data-name="パス 1111" d="M255.937,290.332a1.9,1.9,0,0,0,1.9,1.9H301.08a1.9,1.9,0,1,0,0-3.807H257.841A1.9,1.9,0,0,0,255.937,290.332Z" transform="translate(-966.271 7524.931)" fill="#13202f"/>
    <path id="パス_1112" data-name="パス 1112" d="M301.08,326.594H257.841a1.9,1.9,0,1,0,0,3.808H301.08a1.9,1.9,0,1,0,0-3.808Z" transform="translate(-966.271 7499.582)" fill="#13202f"/>
    <path id="パス_1113" data-name="パス 1113" d="M301.08,364.76H257.841a1.9,1.9,0,1,0,0,3.807H301.08a1.9,1.9,0,1,0,0-3.807Z" transform="translate(-966.271 7474.232)" fill="#13202f"/>
  </g>
</svg>
