<svg xmlns="http://www.w3.org/2000/svg" xmlns:xlink="http://www.w3.org/1999/xlink" width="321" height="213" viewBox="0 0 321 213">
  <defs>
    <clipPath id="clip-path">
      <rect id="長方形_493" data-name="長方形 493" width="321" height="213" rx="20" transform="translate(-4646 1766)" fill="#fff"/>
    </clipPath>
  </defs>
  <g id="マスクグループ_81" data-name="マスクグループ 81" transform="translate(4646 -1766)" clip-path="url(#clip-path)">
    <g id="グループ_2150" data-name="グループ 2150" transform="translate(-4861.635 102.035)">
      <g id="グループ_1155" data-name="グループ 1155" transform="translate(267.304 1686)">
        <g id="グループ_1154" data-name="グループ 1154" transform="translate(0 0)">
          <path id="パス_687" data-name="パス 687" d="M784.03,445.637c13.3,0,27.575,13.031,25.853,23.259s-7.6,15.526-10,20.838-4.572,7.218-4.487,12.7,3.911,5.417,3.411,13.3-6.7,24.292-6.9,28.4-.622,35.125.019,43.825l-4.134.784-22.838-3.218s-3.711-31.057-1.333-46.591,11.437-31.673,11.437-31.673.241-4.4-2.7-6.5-14.5-10.137-12.249-30.576S784.03,445.637,784.03,445.637Z" transform="translate(-652.818 -431.87)" fill="#fff"/>
          <path id="パス_688" data-name="パス 688" d="M748.956,610.152a14.285,14.285,0,0,1,5.631-.93,154.665,154.665,0,0,1-2.317-40.065,96.755,96.755,0,0,1,10.805-37.734c-8.913,4.813-17.89,8.982-25.439,15.736s-13.651,15.6-15.238,25.605a84.726,84.726,0,0,1,14.8.465Z" transform="translate(-642.088 -456.467)" fill="#a7b0b7"/>
          <path id="パス_689" data-name="パス 689" d="M857.277,611.075c.882,6.183,1.516,13.259-2.636,17.924-3.3,3.709-8.659,4.69-13.613,5.022a84.534,84.534,0,0,1-27.738-2.733c-.715-8.173-6.089-12.7-15.333-17.067a4,4,0,0,1,4.9-1.877c.213.086.405-6.069.369-6.54q-.308-3.959-.517-7.924c-.268-5.171-.4-10.348-.336-15.525.06-5.156.238-10.273.558-15.393.316-5.053,2.031-9.726,3.718-14.454,1.863-5.221,3.939-10.779,2.937-16.231A17.026,17.026,0,0,0,807.5,530.7a43.8,43.8,0,0,1,7.329,2.389c2.61,1.235,5.133,2.7,7.688,4.049,5.97,3.145,12.017,6.343,16.964,10.933,7.555,7.009,11.844,17.221,13.452,27.257C854.822,587.094,855.583,599.2,857.277,611.075Z" transform="translate(-663.752 -456.259)" fill="#a7b0b7"/>
          <path id="パス_690" data-name="パス 690" d="M759.883,641.591c4.99-.441,9.972.68,14.856,1.793,2.774.632,5.548,1.264,8.316,1.922,2.06.49,5.1.624,6.843,1.864a62.11,62.11,0,0,1,10.017,8.236,3.426,3.426,0,0,1,1.213,2.661,2.435,2.435,0,0,1-2.029,1.814c-.921.174-1.82-.122-2.734,0a15.619,15.619,0,0,1-3.071.225l-29.33-1.594" transform="translate(-652.836 -488.026)" fill="#fff"/>
          <path id="パス_691" data-name="パス 691" d="M845.883,633.933a1.6,1.6,0,0,1-.459-3.13c1.161-.349,2.3-.6,3.409-.839,6.386-1.393,11.431-2.493,9.86-23.916-.544-7.427-2.7-25.761-4.6-33.433-1.392-5.638-2.881-11.156-5.755-16.668-3.077-5.9-8.475-9.048-14.19-12.38l-1.7-1c-1.665-.982-4.008-2.166-6.273-3.312-2.449-1.239-4.984-2.521-6.826-3.624a55.408,55.408,0,0,1-9.091-6.324,1.6,1.6,0,0,1,2.1-2.415,52.235,52.235,0,0,0,8.638,6c1.745,1.044,4.226,2.3,6.627,3.513,2.311,1.169,4.7,2.377,6.454,3.41l1.69.99c6.126,3.57,11.912,6.943,15.417,13.664,3.036,5.825,4.582,11.545,6.024,17.378,1.937,7.835,4.133,26.445,4.685,33.967,1.651,22.5-3.825,25.41-12.367,27.273-1.046.228-2.127.464-3.17.777A1.613,1.613,0,0,1,845.883,633.933Z" transform="translate(-667.119 -455.057)" fill="#13202f"/>
          <path id="パス_692" data-name="パス 692" d="M722.665,574.055a1.6,1.6,0,0,1-1.462-2.245c1.2-2.713,2.214-5.133,3.133-7.324,3.026-7.208,5.024-11.971,8.97-16.54,4.411-5.106,8.479-7.345,12.785-9.715,1.592-.875,3.238-1.781,4.938-2.858.838-.532,1.827-1.121,2.892-1.758,2.258-1.345,4.815-2.872,7.033-4.494a1.6,1.6,0,0,1,1.888,2.581c-2.34,1.711-4.966,3.278-7.283,4.66-1.039.619-2,1.193-2.818,1.71-1.785,1.131-3.474,2.061-5.108,2.961-4.224,2.324-7.871,4.33-11.907,9-3.614,4.186-5.534,8.761-8.442,15.689-.926,2.206-1.949,4.644-3.155,7.377A1.6,1.6,0,0,1,722.665,574.055Z" transform="translate(-641.706 -455.718)" fill="#13202f"/>
          <ellipse id="楕円形_111" data-name="楕円形 111" cx="2.285" cy="3.114" rx="2.285" ry="3.114" transform="translate(127.33 34.403) rotate(-9.718)" fill="#13202f"/>
          <ellipse id="楕円形_112" data-name="楕円形 112" cx="2.256" cy="3.086" rx="2.256" ry="3.086" transform="matrix(0.976, -0.216, 0.216, 0.976, 111.092, 34.37)" fill="#13202f"/>
          <path id="パス_693" data-name="パス 693" d="M843.5,621.654a1.411,1.411,0,0,1-1.411-1.406c-.029-9.318-1.91-22.084-3.66-30.926a1.411,1.411,0,0,1,2.768-.547c2.3,11.618,3.688,23.379,3.713,31.463a1.41,1.41,0,0,1-1.406,1.415Z" transform="translate(-675.347 -472.585)" fill="#13202f"/>
          <path id="パス_694" data-name="パス 694" d="M803.064,644.093c-1.517,0-2.942-.045-4.245-.138a1.411,1.411,0,0,1,.2-2.814c9.211.668,24.845-1.205,33.459-4.007a1.411,1.411,0,0,1,.872,2.683C825.679,642.312,812.609,644.093,803.064,644.093Z" transform="translate(-663.624 -486.757)" fill="#13202f"/>
          <path id="パス_695" data-name="パス 695" d="M786.958,647.131a1.407,1.407,0,0,1-.277-.026L771.006,644c-1.1-.218-2.133-.492-3.131-.757-2.973-.789-5.319-1.415-7.987-.128a1.411,1.411,0,1,1-1.225-2.541c3.6-1.735,6.678-.921,9.936-.057.942.25,1.919.51,2.956.715l15.676,3.109a1.41,1.41,0,0,1-.272,2.794Z" transform="translate(-652.257 -487.468)" fill="#13202f"/>
          <path id="パス_696" data-name="パス 696" d="M765.553,658.783a1.034,1.034,0,0,1-.1-2.064,41.161,41.161,0,0,0,7.954-1.707,1.035,1.035,0,1,1,.63,1.971,42.744,42.744,0,0,1-8.387,1.8A.936.936,0,0,1,765.553,658.783Z" transform="translate(-654.165 -491.888)" fill="#13202f"/>
          <path id="パス_697" data-name="パス 697" d="M762.01,653.271a1.035,1.035,0,0,1-.191-2.051c.969-.184,3.286-.894,4.817-1.363l.884-.27a1.034,1.034,0,1,1,.6,1.979l-.879.268c-1.669.511-3.957,1.213-5.04,1.418A1.051,1.051,0,0,1,762.01,653.271Z" transform="translate(-653.149 -490.334)" fill="#13202f"/>
          <path id="パス_698" data-name="パス 698" d="M812.746,661.772a1.128,1.128,0,0,1-.914-1.79c.633-.875-.032-2.408-1.023-3.237a38.654,38.654,0,0,0-3.23-2.358,23.96,23.96,0,0,1-5.567-4.729,1.128,1.128,0,1,1,1.746-1.429,21.844,21.844,0,0,0,5.086,4.289,40.585,40.585,0,0,1,3.411,2.5c1.824,1.525,2.848,4.295,1.405,6.291A1.128,1.128,0,0,1,812.746,661.772Z" transform="translate(-664.842 -489.839)" fill="#13202f"/>
          <path id="パス_699" data-name="パス 699" d="M743.943,604.921a1.411,1.411,0,0,1-1.354-1.016c-1.3-4.47-3.16-13.3-.949-22.187a1.411,1.411,0,0,1,2.738.681c-2.052,8.246-.3,16.518.919,20.716a1.412,1.412,0,0,1-.96,1.749A1.432,1.432,0,0,1,743.943,604.921Z" transform="translate(-647.311 -470.581)" fill="#13202f"/>
          <circle id="楕円形_113" data-name="楕円形 113" cx="2.345" cy="2.345" r="2.345" transform="translate(161.638 112.415)" fill="#13202f"/>
          <circle id="楕円形_114" data-name="楕円形 114" cx="2.069" cy="2.069" r="2.069" transform="translate(93.613 108.946)" fill="#13202f"/>
          <path id="パス_700" data-name="パス 700" d="M761.42,648.307a1.035,1.035,0,0,1-.354-2.006,4.362,4.362,0,0,1,.524-.168c.059-.016.118-.032.323-.106a1.034,1.034,0,0,1,.709,1.943,4.163,4.163,0,0,1-.524.168,3.31,3.31,0,0,0-.323.107A1.03,1.03,0,0,1,761.42,648.307Z" transform="translate(-652.98 -489.307)" fill="#13202f"/>
          <g id="グループ_1153" data-name="グループ 1153" transform="translate(0 114.724)">
            <path id="パス_701" data-name="パス 701" d="M899.3,671.574a2.161,2.161,0,0,0-2.16,2.161V675.4a.5.5,0,0,0,.5.5H899.3a2.161,2.161,0,1,0,0-4.322Z" transform="translate(-692.19 -611.375)" fill="#13202f"/>
            <g id="グループ_1152" data-name="グループ 1152">
              <path id="パス_702" data-name="パス 702" d="M629.979,649.51a387.241,387.241,0,0,1-16.423-59.353c1.884-.732,3.24-1.481,5.268-1.514q3.362-.056,6.723-.04c4.424.025,8.847.154,13.263.429,7.091.44,12.077-1.206,19.283-1,16.314.465,32.152,4.218,48.535,2.064,4.884,16.277,9.768,32.178,14.651,48.454a8.009,8.009,0,0,0,2.053,3.941c1.278,1.1,3.088,1.275,4.772,1.39q18.783,1.278,37.629,1.053l.237,5.23" transform="translate(-610.88 -587.416)" fill="#f03748"/>
              <path id="パス_703" data-name="パス 703" d="M628.388,649.81a1.881,1.881,0,0,1-1.795-1.325l-1.38-4.444c-5.24-16.868-13.159-42.358-15.37-53.108a1.879,1.879,0,0,1,.529-1.725l1.524-1.488a1.878,1.878,0,0,1,1.313-.534l5.805,0c21.86-.017,73.077-.058,84.965.8a1.881,1.881,0,1,1-.27,3.752c-11.749-.845-64.747-.809-84.69-.787l-5.044,0-.235.23c2.436,11.1,10,35.461,15.064,51.75l1.38,4.447a1.882,1.882,0,0,1-1.8,2.437Z" transform="translate(-609.805 -587.176)" fill="#13202f"/>
              <path id="パス_704" data-name="パス 704" d="M762.156,676c-56.647,0-118.769-.088-126.087-.464a1.88,1.88,0,1,1,.193-3.755c7.1.364,69.9.521,176.833.437l4.4,0a1.881,1.881,0,1,1,0,3.761l-4.4,0C798.024,675.99,780.369,676,762.156,676Z" transform="translate(-616.824 -611.433)" fill="#13202f"/>
              <path id="パス_705" data-name="パス 705" d="M758.891,644.826a1.5,1.5,0,0,1-1.444-1.085c-4.091-14.062-12.977-42.131-16.811-52.673a1.5,1.5,0,1,1,2.828-1.029c3.956,10.88,12.73,38.623,16.872,52.861a1.506,1.506,0,0,1-1.445,1.926Z" transform="translate(-647.291 -587.713)" fill="#13202f"/>
              <path id="パス_706" data-name="パス 706" d="M808.862,667.881h-.034l-7.343-.148c-17.075-.335-32.605-.668-35.062-1.048a1.5,1.5,0,0,1,.459-2.974c2.461.38,22.618.776,34.662,1.013l7.35.148a1.5,1.5,0,0,1-.032,3.008Z" transform="translate(-654.345 -609.116)" fill="#13202f"/>
              <path id="パス_707" data-name="パス 707" d="M826.773,673.448a1.6,1.6,0,0,1-1.594-1.5l-.281-4.725a1.6,1.6,0,0,1,3.192-.189l.281,4.726a1.6,1.6,0,0,1-1.5,1.691Z" transform="translate(-671.476 -609.64)" fill="#13202f"/>
              <path id="パス_708" data-name="パス 708" d="M755.717,646.242a1.128,1.128,0,0,1-1.081-.808c-1.088-3.669-4.487-14.472-7.774-24.919-3.519-11.181-7.157-22.743-8-25.7a1.128,1.128,0,1,1,2.169-.623c.84,2.932,4.474,14.479,7.987,25.647,3.29,10.456,6.693,21.267,7.785,24.955a1.128,1.128,0,0,1-.762,1.4A1.108,1.108,0,0,1,755.717,646.242Z" transform="translate(-646.795 -588.953)" fill="#fff" opacity="0.5"/>
            </g>
          </g>
          <path id="パス_709" data-name="パス 709" d="M773.868,519.162a1.639,1.639,0,0,1-.262-.021,1.6,1.6,0,0,1-1.317-1.837c.69-4.183-.817-5.2-3.55-7.049a19.768,19.768,0,0,1-4.987-4.353c-4.913-6.355-7.073-15.033-6.082-24.438a1.58,1.58,0,0,1,1.757-1.423,1.6,1.6,0,0,1,1.422,1.757c-.9,8.583,1.025,16.447,5.432,22.148a16.908,16.908,0,0,0,4.248,3.661c2.919,1.973,5.937,4.014,4.914,10.217A1.6,1.6,0,0,1,773.868,519.162Z" transform="translate(-652.133 -441.731)" fill="#13202f"/>
          <path id="パス_710" data-name="パス 710" d="M810.628,523.52a1.6,1.6,0,0,1-1.373-.777c-2.419-4.033-1.9-14.3,3.146-24.5a1.6,1.6,0,1,1,2.865,1.419c-5.091,10.278-4.628,19.168-3.269,21.434a1.6,1.6,0,0,1-1.369,2.421Z" transform="translate(-666.59 -446.699)" fill="#13202f"/>
          <path id="パス_711" data-name="パス 711" d="M777.238,496.939a2.908,2.908,0,0,1-1.727-.572.752.752,0,1,1,.9-1.2,1.362,1.362,0,0,0,1.036.251.765.765,0,0,1,.872.61.753.753,0,0,1-.61.872A2.71,2.71,0,0,1,777.238,496.939Z" transform="translate(-657.23 -446.027)" fill="#13202f"/>
          <path id="パス_712" data-name="パス 712" d="M816.08,491.942a1.6,1.6,0,0,1-.556-3.1c5.566-2.061,7.573-8.561,6.882-12.462-.222-1.256-.92-3.365-3.088-3.375a1.6,1.6,0,0,1-1.593-1.6,1.546,1.546,0,0,1,1.606-1.592c3.184.014,5.569,2.317,6.223,6.014,1.017,5.738-2.1,13.493-8.919,16.017A1.6,1.6,0,0,1,816.08,491.942Z" transform="translate(-668.49 -438.799)" fill="#13202f"/>
          <path id="パス_713" data-name="パス 713" d="M795.893,478.235c-2.116,2.135-7.115,14.34-4.416,16.986,2.021-4.544,11.466-3.859,16.91-13.408,4.323-7.584,4.834-17.37-.771-33.242-3.121-8.84-9.642-16.432-15.485-16.432-13.141-10.977-25-4.4-32.7,3.464-12.95,13.23-16.924,35.655-12.224,53.044,1.963,7.263,6.952,5.8,14.463,1.234-1.819-2.135-1.686-5.544-4.639-11.947-1.469-19.841,12.435-30.416,25.9-33.122a1.433,1.433,0,0,1,1.658,1.043c3.513,12.9,9.987,29.055,16.047,14.236C802.56,455.4,807.62,472.9,795.893,478.235Z" transform="translate(-648.656 -426.336)" fill="#13202f"/>
          <path id="パス_714" data-name="パス 714" d="M804.3,613.321a1.129,1.129,0,0,1-1.127-1.092c-.138-4.179-.335-8.126-.522-11.885-.461-9.233-.859-17.207-.223-24.833a190.2,190.2,0,0,1,4.128-22.266l.773-2.646c2.445-8.315,3.792-12.9.38-18.117a1.129,1.129,0,1,1,1.889-1.235c3.982,6.093,2.356,11.621-.1,19.987l-.768,2.633a190.661,190.661,0,0,0-4.048,21.828c-.623,7.477-.23,15.38.227,24.534.188,3.771.386,7.73.524,11.924a1.127,1.127,0,0,1-1.091,1.164Z" transform="translate(-664.941 -456.27)" fill="#13202f"/>
          <path id="パス_715" data-name="パス 715" d="M765.4,610.228a1.127,1.127,0,0,1-1.118-1c-1.111-9.45-1.377-13.138-2.023-22.046l-.275-3.772c-.516-7.05.212-21.607,3.444-31.9a84.569,84.569,0,0,1,8.655-19.2,1.128,1.128,0,0,1,1.908,1.2,82.3,82.3,0,0,0-8.41,18.678c-3.107,9.9-3.834,24.386-3.345,31.058l.275,3.774c.643,8.873.909,12.545,2.013,21.947a1.127,1.127,0,0,1-.989,1.252A1.155,1.155,0,0,1,765.4,610.228Z" transform="translate(-653.394 -456.569)" fill="#13202f"/>
          <path id="パス_716" data-name="パス 716" d="M782.477,564.855a61.429,61.429,0,0,1-14.828-1.6,1.128,1.128,0,0,1,.547-2.189c9.138,2.285,19.412,1.573,28.324.727a1.128,1.128,0,0,1,.213,2.246C792.226,564.462,787.377,564.855,782.477,564.855Z" transform="translate(-654.817 -464.955)" fill="#13202f"/>
        </g>
        <path id="パス_717" data-name="パス 717" d="M808.257,597.595a.985.985,0,0,1-.181-.017.941.941,0,0,1-.742-1.1c3.087-15.825,6.437-27.647,15.278-44.771a.94.94,0,1,1,1.671.863c-8.738,16.923-12.049,28.614-15.1,44.268A.939.939,0,0,1,808.257,597.595Z" transform="translate(-666.436 -462.136)" fill="#13202f"/>
        <path id="パス_718" data-name="パス 718" d="M794.992,475.6a.774.774,0,0,1-.15-.014c-1.844-.338-4.139-.76-5.825-2.239a.826.826,0,0,1,1.09-1.242c1.342,1.179,3.3,1.54,5.034,1.857a.826.826,0,0,1-.149,1.638Z" transform="translate(-661.59 -439.653)" fill="#13202f"/>
        <path id="パス_719" data-name="パス 719" d="M764.81,475.583a.8.8,0,0,1-.175-1.59,10.781,10.781,0,0,0,3.957-2.269.8.8,0,1,1,.988,1.27,11.985,11.985,0,0,1-4.592,2.569A.781.781,0,0,1,764.81,475.583Z" transform="translate(-654.352 -439.53)" fill="#13202f"/>
        <path id="パス_720" data-name="パス 720" d="M779.37,502.548a6.323,6.323,0,0,0-4.41,1.432.847.847,0,0,0,1.19,1.2c1.29-1.275,5.049-1.263,7.179.026a.846.846,0,1,0,.876-1.449A9.759,9.759,0,0,0,779.37,502.548Z" transform="translate(-657.086 -448.188)" fill="#13202f"/>
        <ellipse id="楕円形_115" data-name="楕円形 115" cx="1.109" cy="1.092" rx="1.109" ry="1.092" transform="matrix(0.823, -0.568, 0.568, 0.823, 125.696, 56.347)" fill="#13202f"/>
        <ellipse id="楕円形_116" data-name="楕円形 116" cx="1.054" cy="1.038" rx="1.054" ry="1.038" transform="matrix(0.823, -0.568, 0.568, 0.823, 116.795, 56.271)" fill="#13202f"/>
      </g>
      <path id="パス_721" data-name="パス 721" d="M19.574,27.131a1.215,1.215,0,0,0,1.18-.928,5.938,5.938,0,0,0-1.015-5.483,5.11,5.11,0,0,0-.305-3.386,6.35,6.35,0,0,0-1.363-1.995c1.434-1.756,2.655-4.06.872-6.177a6.592,6.592,0,0,0-1.321-1.169,5.09,5.09,0,0,0,.231-4.912C16.792.793,14.363-.3,11.187.073,6.527.627.929,4.259.024,8.786a1.215,1.215,0,0,0,2.383.476c.668-3.342,5.338-6.334,9.066-6.776,1.481-.176,3.408-.038,4.174,1.615a2.759,2.759,0,0,1,.2,1.844c-.174.7-.314.956-.987.68a7.2,7.2,0,0,0-6.6.53c-.729.453-1.483.963-2.166,1.48-1.367,1.032-2.882,2.631-2.359,4.5A3.047,3.047,0,0,0,6.024,15.4c2.872.669,7.269-2.411,8.017-3.248.293-.328.635-.673,1-1.037s.752-.757,1.131-1.177a4.226,4.226,0,0,1,.914.785c.658.781.172,1.826-1.058,3.265a5.969,5.969,0,0,0-.88-.277,5.793,5.793,0,0,0-5,1.586c-.59.588-2.386,2.38-1.717,4.238a2.3,2.3,0,0,0,1.345,1.4,3.841,3.841,0,0,0,2.965-.36A10.68,10.68,0,0,0,15.6,18.037c.1-.111.194-.221.29-.328.149-.168.335-.363.536-.571A3.914,3.914,0,0,1,17.2,18.3a3.165,3.165,0,0,1,.26,1.011,4.211,4.211,0,0,0-3.872.761,4.468,4.468,0,0,0-1.519,3.5,2.067,2.067,0,0,0,1.27,1.609c1.509.634,3.668-.986,4.952-2.26a4.2,4.2,0,0,1,.1,2.709,1.216,1.216,0,0,0,1.182,1.5ZM16.18,21.577a9.816,9.816,0,0,1-1.558,1.129,2.7,2.7,0,0,1,.553-.793A1.58,1.58,0,0,1,16.18,21.577ZM14.122,16.04l-.048.053-.3.34a8.761,8.761,0,0,1-2.179,2,1.873,1.873,0,0,1-.874.249c.009-.156.137-.66,1.141-1.663A3.691,3.691,0,0,1,14.122,16.04ZM13.8,8.912q-.234.242-.486.5c-.385.388-.748.754-1.084,1.13-.563.619-4.13,2.862-5.66,2.5-.193-.046-.376-.122-.5-.556-.223-.8,2.044-2.594,4.666-3.7A5.359,5.359,0,0,1,13.8,8.912Z" transform="translate(456.258 1689.175) rotate(65)" fill="#13202f"/>
    </g>
    <g id="グループ_2152" data-name="グループ 2152" transform="translate(-5476 133)">
      <circle id="楕円形_123" data-name="楕円形 123" cx="12" cy="12" r="12" transform="translate(872.34 1633.051) rotate(8)" fill="#fff"/>
      <circle id="楕円形_124" data-name="楕円形 124" cx="10" cy="10" r="10" transform="translate(902.977 1654.431) rotate(8)" fill="#fff"/>
    </g>
  </g>
</svg>
