<svg xmlns="http://www.w3.org/2000/svg" xmlns:xlink="http://www.w3.org/1999/xlink" width="400" height="403" viewBox="0 0 400 403">
  <defs>
    <clipPath id="clip-path">
      <rect id="長方形_496" data-name="長方形 496" width="400" height="403" rx="20" transform="translate(-2492 15747)" fill="#fff"/>
    </clipPath>
    <clipPath id="clip-path-2">
      <rect id="長方形_495" data-name="長方形 495" width="400" height="395" transform="translate(533.77 14481.036)" fill="#fff" stroke="#707070" stroke-width="1"/>
    </clipPath>
  </defs>
  <g id="マスクグループ_82" data-name="マスクグループ 82" transform="translate(2492 -15747)" clip-path="url(#clip-path)">
    <g id="マスクグループ_81" data-name="マスクグループ 81" transform="translate(-3025.77 1273.964)" clip-path="url(#clip-path-2)">
      <g id="グループ_2178" data-name="グループ 2178" transform="translate(533.718 14508.972)">
        <g id="グループ_2167" data-name="グループ 2167" transform="translate(0 0)">
          <path id="パス_1861" data-name="パス 1861" d="M431.286,368.529c-6.72-4.574-7.5-14.428-4.987-22.158s7.5-14.452,10.218-22.113a40.74,40.74,0,0,0,.767-24.662c-1.5-5.215-4.212-10.307-8.681-13.384-3.951-2.719-8.93-3.616-13.721-3.407s-9.471,1.447-14.108,2.675c-10.335,2.742-21.675,6.206-27.217,15.351-4.543,7.5-3.929,17.156-.991,25.414s7.941,15.593,12.053,23.333c1.878,3.537,3.6,7.718,2.089,11.426-1.623,3.971-6.376,5.85-8.338,9.666-1.824,3.547-.812,7.826.236,11.675l7.146,26.226c1.4,5.135,2.844,10.374,5.806,14.8s7.758,7.971,13.082,8.021c6.287.059,11.585-4.57,15.662-9.356a86.248,86.248,0,0,0,17.435-32.92" transform="translate(-288.063 -258.201)" fill="#fff"/>
          <path id="パス_1862" data-name="パス 1862" d="M323.156,428.763l-13.327,26.23c-3.1,6.1-6.252,12.39-6.8,19.205s2.135,14.363,8.189,17.542c5.189,2.725,11.743,1.651,16.751-1.392s8.736-7.78,12.068-12.6,6.422-9.877,10.6-13.982c8.171-8.024,19.714-11.677,28.525-18.989a43.553,43.553,0,0,0,15.483-31.094c.431-9.35-3.032-19.735-11.361-24.008-5.71-2.93-12.715-2.422-18.663-.011s-11.026,6.535-15.833,10.788a243.363,243.363,0,0,0-18.506,18.222" transform="translate(-300.82 -238.32)" fill="#fff"/>
          <path id="パス_1863" data-name="パス 1863" d="M444.821,436.488l32.786-13.179a679.527,679.527,0,0,1-.159,137.75c-.86,8.332-1.963,16.923-6.233,24.128A30.869,30.869,0,0,1,448.4,599.894" transform="translate(-273.929 -231.563)" fill="#fff"/>
          <path id="パス_1864" data-name="パス 1864" d="M348.9,775.805c-2.4,6.237-.595,13.679,3.858,18.661s11.226,7.58,17.908,7.655a17.439,17.439,0,0,0,8.816-1.945c3.947-2.236,6.4-6.519,7.441-10.932s.862-9.014.673-13.545" transform="translate(-292.314 -164.768)" fill="#fff"/>
          <path id="パス_1865" data-name="パス 1865" d="M423.137,778.465a44.912,44.912,0,0,0-1.044,10.853,15.1,15.1,0,0,0,4.079,9.879c4.074,3.972,10.436,4.275,16.093,3.667,4.271-.459,8.7-1.392,12-4.144,3.682-3.076,5.379-8.026,5.56-12.82s-.973-9.526-2.12-14.185" transform="translate(-278.247 -165.523)" fill="#fff"/>
          <g id="グループ_2166" data-name="グループ 2166">
            <path id="パス_1866" data-name="パス 1866" d="M474.15,826.8c1.467-33.481,2.836-66.837,3.067-100.273q.632-91.686,1.264-183.373c.033-4.755-.4-10.387-4.474-12.836a13.847,13.847,0,0,0-6.2-1.448c-18.28-1.348-36.139-3.47-54.546-3a321.858,321.858,0,0,0-53.908,5.954c-4.207.829-8.84,2.034-11.153,5.644-1.671,2.607-1.731,5.9-1.737,8.992l-.2,97.727-.093,45.667c-.027,13.849-1.235,27.41-.934,41.173l2,91.476c.189,8.655,9.609,9.064,16.688,10.222a55.437,55.437,0,0,0,13.07.574c1.366-.1,11.8-.932,12.043-2.3,1.569-8.7,1.237-17.639,1.856-26.521l2.155-30.952c0-14.794,2.082-29.894,3.11-44.658.955-13.7.743-27.059,1.937-40.822l7.93-91.422.792-9.142,13.788,4.322q9.908,119.02,12.967,238.476C447.309,835.738,460.889,831.065,474.15,826.8Z" transform="translate(-292.815 -212.134)" fill="#f03748"/>
            <path id="パス_1867" data-name="パス 1867" d="M473.039,368.294l-17.714-8.9c-3.083-1.55-13.1-8.9-15.89-5.712a6.946,6.946,0,0,0-1.269,2.97A75.156,75.156,0,0,1,431.7,374.2a191.622,191.622,0,0,1-9.9,16.779c-1.1,1.665-2.4,3.438-4.339,3.912a5.553,5.553,0,0,1-4.911-1.565,16.167,16.167,0,0,1-3.033-4.4q-9.7-18.1-18.442-36.694c-11.2,4.8-22.945,9.381-32.958,16.512-10.3,7.34-18.6,17.216-25.42,27.87s-12.256,22.126-17.67,33.56c-.784,1.656-1.587,3.494-1.1,5.26.62,2.252,3.027,3.431,5.182,4.332,2.854,1.194,10.619,6.462,13.425,4.663a8.136,8.136,0,0,0,2.732-3.882c2.374-5.571,4.016-11.439,6.541-16.943s6.1-10.771,11.3-13.863,12.29-3.546,17.124.1c3.711,2.8,5.528,7.4,6.953,11.828,1.319,4.093,2.464,8.469,1.461,12.651-1.5,6.265-7.3,10.39-12.646,13.988-4.424,2.978-11.358,7.435-11.951,13.318-.646,6.41-.375,13.419-.743,19.974-.513,9.1-.987,18.211-1.517,27.315-1.054,18.161-2.315,36.321-4.5,54.384-.319,2.637-.541,5.622,1.191,7.637,1.389,1.615,3.642,2.119,5.734,2.531,9.1,1.794,18.218,3.59,27.439,4.613,13.66,1.514,27.437,1.319,41.147.745a87.678,87.678,0,0,1,9.757-.337,32.555,32.555,0,0,0,5.885.37c6.223-.645,12.537-1.515,18.738-2.388l17.337-2.44c2.955-.416,6.094-.914,8.33-2.889,3.534-3.12.605-10.409.331-14.53-.418-6.269-.385-12.556-.356-18.834L483,499.789c.058-12.273-1.237-24.532-2.138-36.775-.2-2.705-.351-5.617,1.078-7.925,1.464-2.365,4.232-3.521,6.822-4.534l15.065-5.891c3.086-1.206,6.315-2.516,8.392-5.1,2.4-2.976,2.794-7.175,1.953-10.9-.778-3.445-2.567-6.25-4.132-9.34-1.69-3.333-2.949-6.935-4.519-10.334q-4.814-10.421-10.568-20.371c-2.609-4.508-5.41-9-9.277-12.492C481.981,372.8,477.481,370.527,473.039,368.294Z" transform="translate(-298.769 -245.036)" fill="#646e73"/>
            <path id="パス_1868" data-name="パス 1868" d="M406.1,406.364a1.9,1.9,0,0,1-1.406-3.169c11.705-12.932,20.76-30.433,24.22-46.823a1.9,1.9,0,1,1,3.711.784c-3.593,17.016-12.983,35.18-25.12,48.584A1.89,1.89,0,0,1,406.1,406.364Z" transform="translate(-281.628 -244.537)" fill="#fff"/>
            <path id="パス_1869" data-name="パス 1869" d="M399.378,405.72a1.885,1.885,0,0,1-1.154-.393c-14.348-11.008-25.86-38.974-26.152-48.775a1.9,1.9,0,1,1,3.792-.112c.278,9.319,11.62,35.865,24.67,45.88a1.9,1.9,0,0,1-1.156,3.4Z" transform="translate(-287.719 -244.587)" fill="#fff"/>
            <path id="パス_1870" data-name="パス 1870" d="M334.818,427.068a1.888,1.888,0,0,1-.946-.257c-2.358-1.355-5.294-3.174-8.229-4.993-2.874-1.782-5.746-3.564-8.057-4.895a1.9,1.9,0,1,1,1.895-3.286c2.34,1.347,5.25,3.15,8.162,4.957,2.9,1.794,5.8,3.591,8.122,4.931a1.9,1.9,0,0,1-.947,3.542Z" transform="translate(-298.227 -233.445)" fill="#fff"/>
            <path id="パス_1871" data-name="パス 1871" d="M455.523,434.024a1.9,1.9,0,0,1-.641-3.684c3.565-1.279,9.51-4.067,15.263-6.766,5.814-2.726,11.826-5.548,15.55-6.883a1.9,1.9,0,1,1,1.281,3.57c-3.554,1.279-9.484,4.058-15.22,6.747-5.831,2.736-11.86,5.565-15.591,6.9A1.866,1.866,0,0,1,455.523,434.024Z" transform="translate(-272.26 -232.84)" fill="#fff"/>
            <g id="グループ_2155" data-name="グループ 2155" transform="translate(29.741 615.142)">
              <path id="パス_1872" data-name="パス 1872" d="M342.382,793.127c-.014-.279,2.546-1.728,2.875-1.981.989-.756,1.837-1.636,2.769-2.449,1.984-1.728,3.864-3.791,4.5-6.438.207-.864.478-1.951,1.363-2.067a1.609,1.609,0,0,1,1.524,1.105,8.122,8.122,0,0,1,.339,1.967,7.11,7.11,0,0,0,2.33,4.3c2.174,1.914,5.634,2.408,8.247,3.444,3.678,1.461,7.475,2.944,11.363,2.907s7.932-1.978,9.188-5.593a12.807,12.807,0,0,1,.873-2.456,1.982,1.982,0,0,1,2.191-1.03c1.156.382,1.408,1.89,1.442,3.089l.278,10.059c.12,4.319.065,9.114-2.888,12.119-1.791,1.822-4.356,2.646-6.822,3.412-5.232,1.624-9.2,3.247-14.428,4.871s-10.505,3.256-16.008,3.775-11.322-.15-16.29-2.891a13.053,13.053,0,0,1-5.5-5.232c-2.186-4.3-.478-9.534,2.629-12.945A44.1,44.1,0,0,1,342.382,793.127Z" transform="translate(-325.672 -779.059)" fill="#dcdfe2"/>
              <path id="パス_1873" data-name="パス 1873" d="M348.319,825.208a40.823,40.823,0,0,1-10.6-1.328c-6.167-1.68-8.956-4.978-10.211-7.448A13.61,13.61,0,0,1,327.2,805.3c2.061-5.4,8.089-9.671,12.49-12.787l1.973-1.411c4.275-3.07,7.363-5.286,9.07-9.814a3.161,3.161,0,0,1,5.917,2.229c-2.381,6.318-6.714,9.427-11.3,12.722l-2.006,1.433c-3.741,2.649-8.862,6.277-10.24,9.88a7.511,7.511,0,0,0,.043,6.018c.983,1.933,3.081,3.351,6.234,4.208a38.851,38.851,0,0,0,18.235.06,44.447,44.447,0,0,0,6.981-2.461,43.275,43.275,0,0,1,9.412-3.067,29.793,29.793,0,0,0,7.943-2.856l.954-.447c1.979-.917,6.56-3.431,6.388-6.927-.077-1.54-.13-3.05-.181-4.523a66.827,66.827,0,0,0-.973-11.261,3.161,3.161,0,1,1,6.176-1.353,70.92,70.92,0,0,1,1.118,12.394c.049,1.442.1,2.922.174,4.429.263,5.24-3.3,9.849-10.036,12.978l-.937.435a35.415,35.415,0,0,1-9.562,3.363,37.984,37.984,0,0,0-8.053,2.676A49.623,49.623,0,0,1,359.026,824,48.244,48.244,0,0,1,348.319,825.208Z" transform="translate(-326.162 -779.239)" fill="#13202f"/>
              <path id="パス_1874" data-name="パス 1874" d="M367.257,793.034a33.565,33.565,0,0,1-5.4-.35,1.738,1.738,0,1,1,.642-3.415c3.42.64,13.292.328,15.8-1.521a1.739,1.739,0,0,1,2.065,2.8C377.769,792.46,371.856,793.034,367.257,793.034Z" transform="translate(-319.665 -777.69)" fill="#13202f"/>
              <g id="グループ_2154" data-name="グループ 2154" transform="translate(11.934 7.544)">
                <g id="グループ_2153" data-name="グループ 2153">
                  <path id="パス_1875" data-name="パス 1875" d="M372.022,793.148a43.7,43.7,0,0,0-27.4-5.969,12.049,12.049,0,0,0-5.063,1.444,4.11,4.11,0,0,0-1.992,4.068c.575,3.586,4.142,2.931,11.2,3.422a44.845,44.845,0,0,1,14.731,3.323" transform="translate(-335.942 -785.328)" fill="#dcdfe2"/>
                  <path id="パス_1876" data-name="パス 1876" d="M363.755,801.27a1.563,1.563,0,0,1-.6-.118,43.175,43.175,0,0,0-14.244-3.208c-1.293-.089-2.467-.142-3.526-.188-4.909-.213-8.457-.368-9.129-4.564a5.682,5.682,0,0,1,2.712-5.656,13.6,13.6,0,0,1,5.726-1.677,45.287,45.287,0,0,1,28.409,6.2,1.58,1.58,0,1,1-1.664,2.686,42.109,42.109,0,0,0-26.39-5.74,10.775,10.775,0,0,0-4.4,1.213,2.531,2.531,0,0,0-1.272,2.477c.231,1.436,1.035,1.683,6.145,1.9,1.082.046,2.284.1,3.607.191a46.631,46.631,0,0,1,15.22,3.438,1.581,1.581,0,0,1-.6,3.044Z" transform="translate(-336.194 -785.58)" fill="#13202f"/>
                </g>
              </g>
            </g>
            <ellipse id="楕円形_299" data-name="楕円形 299" cx="3.429" cy="3.429" rx="3.429" ry="3.429" transform="translate(178.917 175.77)" fill="#13202f"/>
            <ellipse id="楕円形_300" data-name="楕円形 300" cx="3.122" cy="4.032" rx="3.122" ry="4.032" transform="translate(99.37 48.611)" fill="#13202f"/>
            <ellipse id="楕円形_301" data-name="楕円形 301" cx="3.122" cy="4.032" rx="3.122" ry="4.032" transform="translate(126.284 48.613)" fill="#13202f"/>
            <path id="パス_1877" data-name="パス 1877" d="M375.215,330.139a3.143,3.143,0,0,1-1.683-.489c-4.034-2.541-5.8-9.772-6.112-15.691-.284-5.417-.224-10.987,3.809-14.344a3.162,3.162,0,1,1,4.044,4.86c-1.609,1.34-1.783,4.5-1.539,9.152.306,5.854,2.038,9.961,3.17,10.674a3.162,3.162,0,0,1-1.689,5.837Z" transform="translate(-288.619 -255.148)" fill="#13202f"/>
            <path id="パス_1878" data-name="パス 1878" d="M425.132,329.363a3.162,3.162,0,0,1-1.526-5.932c1.2-.664,2.957-4.915,2.971-10.869.014-5.031-1.266-7.834-1.954-8.216a3.163,3.163,0,1,1,3.075-5.528c4.721,2.628,5.213,10.5,5.2,13.763-.015,6.271-1.664,13.87-6.247,16.39A3.162,3.162,0,0,1,425.132,329.363Z" transform="translate(-278.261 -255.236)" fill="#13202f"/>
            <path id="パス_1879" data-name="パス 1879" d="M399.8,323.28a5.506,5.506,0,0,1-2.866-.759,1.422,1.422,0,0,1,1.494-2.421,2.893,2.893,0,0,0,2.637.018,1.422,1.422,0,0,1,1.711,2.273A5.011,5.011,0,0,1,399.8,323.28Z" transform="translate(-283.134 -251.177)" fill="#13202f"/>
            <path id="パス_1880" data-name="パス 1880" d="M400.02,333.707a11.1,11.1,0,0,1-5.189-1.124,1.423,1.423,0,0,1,1.381-2.489,10.1,10.1,0,0,0,8.389-.282,1.422,1.422,0,1,1,1.542,2.391A11.822,11.822,0,0,1,400.02,333.707Z" transform="translate(-283.543 -249.329)" fill="#13202f"/>
            <ellipse id="楕円形_302" data-name="楕円形 302" cx="1.726" cy="1.726" rx="1.726" ry="1.726" transform="translate(109.356 79.62)" fill="#13202f"/>
            <ellipse id="楕円形_303" data-name="楕円形 303" cx="1.726" cy="1.726" rx="1.726" ry="1.726" transform="translate(120.733 79.62)" fill="#13202f"/>
            <g id="グループ_2159" data-name="グループ 2159" transform="translate(32.958 135.581)">
              <g id="グループ_2156" data-name="グループ 2156" transform="translate(11.987)">
                <path id="パス_1881" data-name="パス 1881" d="M359.241,436.757l14.508,1.557c2.169.233,4.537.42,6.355-.813a6.639,6.639,0,0,0,2.574-4.9c.385-3.9-1.1-8.046-1.985-11.794l-2.952-12.531-5.9-25.061c-.355-1.5-.772-3.109-1.934-4.09-1.284-1.082-3.1-1.094-4.764-1.046q-8.486.25-16.962.751c-2.544.15-5.59.66-6.587,3.064a7.358,7.358,0,0,0,.136,4.514l4.316,17.627c.719,2.937,1.448,5.873,2.157,8.812.349,1.444.3,1.833,1.718,2.389a12.066,12.066,0,0,0,4.006.805,9.681,9.681,0,0,1,2.458.2,2.168,2.168,0,0,1,1.64,1.659" transform="translate(-338.501 -375.721)" fill="#f03748"/>
                <path id="パス_1882" data-name="パス 1882" d="M359.962,440.6a2.371,2.371,0,0,1-.1-4.739c.636-.029,15.618-.683,18.713-.692a2.343,2.343,0,0,0,1.709-.519,3.2,3.2,0,0,0,.316-2.4c-2.172-12.275-7-36.641-10.456-49.962a1.883,1.883,0,0,0-1.832-1.448h-.021c-6.471.068-16.17.46-23.257,1.186a1.462,1.462,0,0,0-1.038.608,1.627,1.627,0,0,0-.269,1.316c.457,2.109,1.142,5.389,1.87,8.878,1.23,5.9,2.624,12.589,3.187,14.84a2.373,2.373,0,0,1-4.6,1.149c-.582-2.343-1.925-8.788-3.225-15.019-.726-3.474-1.406-6.741-1.862-8.841a6.384,6.384,0,0,1,1.065-5.107,6.224,6.224,0,0,1,4.394-2.542c7.236-.741,17.112-1.142,23.689-1.21a6.577,6.577,0,0,1,6.5,5c3.49,13.445,8.348,37.978,10.535,50.326a7.879,7.879,0,0,1-1.348,6.271,6.627,6.627,0,0,1-5.334,2.22c-3,.01-18.366.679-18.52.686C360.031,440.6,360,440.6,359.962,440.6Z" transform="translate(-338.944 -376.094)" fill="#13202f"/>
              </g>
              <g id="グループ_2157" data-name="グループ 2157" transform="translate(0 21.415)">
                <path id="パス_1883" data-name="パス 1883" d="M330.994,436.653c.9-5,1.774-11.54,3.28-16.373,2.316-7.43,4.469-13.128,10.438-17.232a41.213,41.213,0,0,1,17.979-6.659c2.01-.276,4.378-.4,5.641,1.339,1.878,2.589-.158,5.2-2.839,6.811S355.08,410.311,353,411.607" transform="translate(-328.463 -393.693)" fill="#fff"/>
                <path id="パス_1884" data-name="パス 1884" d="M331.4,439.584a2.526,2.526,0,0,1-2.493-2.976c.211-1.161.418-2.409.633-3.7a103.616,103.616,0,0,1,2.724-12.978c2.409-7.725,4.778-14,11.421-18.564a43.807,43.807,0,0,1,19.065-7.08c1.725-.228,5.747-.79,8.033,2.359a5.893,5.893,0,0,1,1.093,4.731c-.437,2.15-2.1,4.184-4.676,5.734-1.3.785-3.779,2.159-6.238,3.523-2.586,1.439-5.152,2.86-6.211,3.523a2.531,2.531,0,0,1-2.684-4.292c1.1-.685,3.757-2.165,6.44-3.653,2.4-1.331,4.815-2.674,6.086-3.437,1.544-.929,2.217-1.877,2.326-2.409.024-.117.069-.337-.232-.751-.452-.623-2.067-.475-3.248-.318a38.837,38.837,0,0,0-16.89,6.238c-5.315,3.652-7.272,8.9-9.456,15.9a100.372,100.372,0,0,0-2.563,12.3c-.219,1.31-.431,2.579-.642,3.761A2.53,2.53,0,0,1,331.4,439.584Z" transform="translate(-328.866 -394.097)" fill="#13202f"/>
              </g>
              <g id="グループ_2158" data-name="グループ 2158" transform="translate(20.031 36.93)">
                <path id="パス_1885" data-name="パス 1885" d="M349.836,409.549c4.726-.049,9.942-.447,15.011-.209,3.444.161,13.462-1.52,11.322,5.474-.608,1.985-1.72,2.595-2.94,3.721.14,1.736.519,3.891-.52,5.4a28.692,28.692,0,0,1-4.251,4.016c.307,4.168-2.968,7.577-6.478,9.257-9.754,4.665-9.406,10.05-14.147,11.827" transform="translate(-345.303 -406.736)" fill="#fff"/>
                <path id="パス_1886" data-name="パス 1886" d="M348.236,451.968a2.529,2.529,0,0,1-.889-4.9c1.288-.482,2.035-1.387,3.35-3.079a26.569,26.569,0,0,1,10.593-8.661c2.667-1.275,5.263-3.866,5.048-6.788a2.52,2.52,0,0,1,.862-2.094l.84-.712a20.916,20.916,0,0,0,2.986-2.829c.387-.563.256-1.943.149-3.051l-.065-.716a2.525,2.525,0,0,1,.805-2.063c.257-.238.509-.454.754-.664a3.667,3.667,0,0,0,1.482-1.937c.236-.765.223-1.26.107-1.411-.772-1.012-5.14-.88-6.778-.821-.918.027-1.731.049-2.348.021-3.217-.143-6.546-.035-9.769.077-1.741.058-3.448.12-5.1.136h-.026a2.529,2.529,0,0,1-.026-5.058c1.611-.019,3.278-.074,4.976-.133,3.325-.117,6.758-.231,10.181-.074.509.019,1.19,0,1.952-.025,3.638-.126,8.608-.271,10.956,2.8.828,1.081,1.621,2.993.714,5.963a8.215,8.215,0,0,1-2.722,4.035,8.621,8.621,0,0,1-1.072,5.781,21.988,21.988,0,0,1-3.805,3.754c-.309,4.978-4.33,8.653-7.921,10.366a21.61,21.61,0,0,0-8.78,7.2c-1.416,1.819-2.879,3.7-5.567,4.71A2.508,2.508,0,0,1,348.236,451.968Z" transform="translate(-345.706 -407.139)" fill="#13202f"/>
              </g>
              <path id="パス_1887" data-name="パス 1887" d="M351.227,419.84c-.171,0-.345,0-.519,0a1.581,1.581,0,0,1,.02-3.162,1.652,1.652,0,0,0,.508,0,58.192,58.192,0,0,0,6.277-.413c1.368-.139,2.756-.282,4.275-.371a1.548,1.548,0,0,1,1.67,1.486,1.58,1.58,0,0,1-1.486,1.67c-1.469.087-2.812.226-4.136.362A62.338,62.338,0,0,1,351.227,419.84Z" transform="translate(-325.022 -368.551)" fill="#13202f"/>
              <path id="パス_1888" data-name="パス 1888" d="M350.35,428.8a1.581,1.581,0,0,1-.383-3.115l6.786-1.7a1.582,1.582,0,0,1,.766,3.069l-6.784,1.7A1.719,1.719,0,0,1,350.35,428.8Z" transform="translate(-325.094 -367.024)" fill="#13202f"/>
            </g>
            <path id="パス_1889" data-name="パス 1889" d="M441.914,303.577c-.25,1.726-.9,3.22-1.2,4.9-.264,1.445-.572,3.3-1.776,4.278-1.4,1.14-2.911,1.23-3.57,3.272-.225.7-.289,1.44-.546,2.123a2.052,2.052,0,0,1-1.5,1.424,1.847,1.847,0,0,1-1.777-1.226,5.639,5.639,0,0,1-.281-2.312c.062-3.238.124-5.3.184-8.541.039-2.038.46-5.866-2.673-5.83-1.825.02-3.6,2.242-5.117,1.207-1.165-.795-.7-2.661.1-3.835s1.866-2.464,1.5-3.842a2.764,2.764,0,0,0-2.7-1.812,8.482,8.482,0,0,0-3.324.927c-10.849,4.5-22.67,5.385-33.913,8.706-2.671.79-5.378.928-6.732,3.529s-1.184,5.675-.9,8.491a4.489,4.489,0,0,1-.1,2.031,1.431,1.431,0,0,1-1.558,1c-1.2-.318-.968-2.27-1.895-3.111-.969-.879-2.5-.071-3.778-.293a3.161,3.161,0,0,1-2.17-1.834,8.791,8.791,0,0,1-.673-2.891q-.312-2.885-.365-5.791c-.1-5.571-.1-10.137,2.114-15.343a40.472,40.472,0,0,1,8.278-12.4c6.927-7.083,16.548-11.441,26.543-10.9a40.91,40.91,0,0,1,6.682,1.023c.99.224,4.127,1.769,4.1-.48-.011-.842-.968-1.4-1.105-2.233a1.614,1.614,0,0,1,1.492-1.681,3.482,3.482,0,0,1,2.327.793c2.32,1.656,3.729,4.355,6.049,6.012a28.266,28.266,0,0,0,4.714,2.324C440.722,276.993,443.711,291.173,441.914,303.577Z" transform="translate(-288.66 -262.117)" fill="#13202f"/>
            <path id="パス_1890" data-name="パス 1890" d="M487.25,450.036a3.162,3.162,0,0,1-1.664-5.852c.847-.524,1.712-1.012,2.55-1.486,1.938-1.09,4.134-2.324,4.466-3.322,1.054-3.162.228-5.715-1.256-9.544l-1.965-5.116c-6.313-16.511-12.84-33.587-25.358-45.117-6.92-6.37-16.545-10.523-25.854-14.538-8.857-3.82-17.225-7.426-23.026-12.783a3.161,3.161,0,1,1,4.288-4.644c5.009,4.621,12.894,8.021,21.241,11.622,9.8,4.224,19.924,8.591,27.634,15.693,13.611,12.533,20.407,30.317,26.981,47.509l1.953,5.089c1.819,4.69,3.074,8.686,1.359,13.83-1.1,3.311-4.283,5.1-7.361,6.834-.767.432-1.556.874-2.331,1.353A3.135,3.135,0,0,1,487.25,450.036Z" transform="translate(-279.747 -246.066)" fill="#13202f"/>
            <path id="パス_1891" data-name="パス 1891" d="M317.846,443.7a3.178,3.178,0,0,1-1.317-.287c-6.306-2.894-6.673-6.513-5.87-9.038,1.587-4.994,6.954-14.955,11.267-22.955l.633-1.177c.491-.911,1.082-2.035,1.755-3.31,4.184-7.945,11.185-21.244,16.855-27.316,13.7-14.67,30.386-21.784,48.051-29.319,2.477-1.055,4.976-2.121,7.5-3.22a3.163,3.163,0,0,1,2.529,5.8c-2.537,1.105-5.053,2.177-7.544,3.239-17.034,7.262-33.123,14.124-45.91,27.818-5.092,5.454-12.111,18.784-15.883,25.944-.68,1.294-1.281,2.436-1.782,3.363l-.633,1.18c-3.956,7.339-9.372,17.388-10.8,21.834a14.087,14.087,0,0,0,2.468,1.407,3.163,3.163,0,0,1-1.319,6.037Z" transform="translate(-299.418 -246.063)" fill="#13202f"/>
            <path id="パス_1892" data-name="パス 1892" d="M353.882,564.124a6.078,6.078,0,0,1-4.318-1.726c-3.462-3.351-3.088-10.209-2.295-18.164l.19-2c.83-9.737,2-26.068,2.547-35.665.889-15.432,1.493-30.813,1.983-45.54-4.071,6.72-8.608,13.568-13.874,18.9-10.216,10.348-20.513,13.09-28.255,7.535-6.711-4.824-9.952-14.3-8.255-24.135,1.753-10.184,5.884-16.9,10.665-24.683,2.437-3.968,4.958-8.069,7.485-13.124a3.163,3.163,0,0,1,5.657,2.829c-2.651,5.3-5.362,9.715-7.753,13.6-4.623,7.523-8.274,13.463-9.823,22.449-.977,5.672-.068,13.768,5.715,17.922,6.773,4.875,15.481-2.2,20.067-6.84,6.4-6.484,11.876-15.816,16.706-24.044.848-1.445,1.68-2.866,2.5-4.241a3.162,3.162,0,0,1,5.876,1.714c-.563,18.392-1.238,38.148-2.379,58.018-.554,9.643-1.726,26.055-2.56,35.836l-.2,2.091c-.767,7.7-.633,12.065.4,12.988a3.175,3.175,0,0,1,3.595,2.686,3.1,3.1,0,0,1-2.674,3.517A7.566,7.566,0,0,1,353.882,564.124Z" transform="translate(-301.16 -231.475)" fill="#13202f"/>
            <path id="パス_1893" data-name="パス 1893" d="M459.66,596.614a3.161,3.161,0,0,1-1.113-6.12c5.006-1.883,9.524-8.932,11.6-14.685,1.512-4.178,1.789-16.919,1.957-24.527.065-3.011.125-5.6.226-7.318.278-4.7.7-10.844,1.15-17.411.822-11.972,1.752-25.54,2.066-34.142.95-26.009.514-34.605-.778-60.123a3.162,3.162,0,0,1,3-3.319,3.108,3.108,0,0,1,3.318,3c1.269,25.027,1.744,34.392.785,60.673-.319,8.705-1.254,22.328-2.078,34.346-.45,6.546-.87,12.67-1.148,17.353-.1,1.668-.151,4.172-.215,7.081-.257,11.7-.609,21.775-2.332,26.54-2.449,6.775-7.932,15.674-15.324,18.452A3.126,3.126,0,0,1,459.66,596.614Z" transform="translate(-271.716 -230.493)" fill="#13202f"/>
            <path id="パス_1894" data-name="パス 1894" d="M404.032,398.983a2.054,2.054,0,0,1-1.416-.565c-11.3-10.724-20.76-31.271-23.929-45.157a2.055,2.055,0,1,1,4.008-.914c3.57,15.639,13.352,34.163,22.752,43.087a2.058,2.058,0,0,1-1.415,3.548Z" transform="translate(-286.475 -245.317)" fill="#13202f"/>
            <path id="パス_1895" data-name="パス 1895" d="M400.831,399.093a2.055,2.055,0,0,1-1.565-3.384c11.1-13.092,17.556-25.892,21.594-42.806a2.055,2.055,0,0,1,4,.957c-4.2,17.583-10.914,30.891-22.458,44.506A2.045,2.045,0,0,1,400.831,399.093Z" transform="translate(-282.657 -245.208)" fill="#13202f"/>
            <path id="パス_1896" data-name="パス 1896" d="M457.553,558.289a.159.159,0,0,1-.04,0,2.051,2.051,0,0,1-2.016-2.09c.143-7.635-.67-40.068-1.454-71.428-.786-31.407-1.6-63.881-1.456-71.607a2.056,2.056,0,0,1,2.053-2.019.231.231,0,0,1,.04,0,2.053,2.053,0,0,1,2.016,2.091c-.143,7.636.67,40.068,1.454,71.428.786,31.407,1.6,63.881,1.456,71.606A2.057,2.057,0,0,1,457.553,558.289Z" transform="translate(-272.46 -233.87)" fill="#13202f"/>
            <path id="パス_1897" data-name="パス 1897" d="M410.832,546.723c-23.218,0-46.476-1.821-61.351-5.182a1.9,1.9,0,1,1,.836-3.7c31.483,7.111,100.931,7.284,126.183-2.289a1.9,1.9,0,0,1,1.344,3.551C464.065,544.324,437.477,546.723,410.832,546.723Z" transform="translate(-292.281 -210.311)" fill="#13202f"/>
            <path id="パス_1898" data-name="パス 1898" d="M347.608,826.564h-.06a3.164,3.164,0,0,1-3.1-3.221c.18-9.64-.315-76.488-.792-141.135-.477-64.684-.971-131.569-.792-141.29a3.209,3.209,0,0,1,3.221-3.1,3.165,3.165,0,0,1,3.1,3.221c-.18,9.637.314,76.482.791,141.126.477,64.688.972,131.579.792,141.3A3.163,3.163,0,0,1,347.608,826.564Z" transform="translate(-293.263 -209.859)" fill="#13202f"/>
            <path id="パス_1899" data-name="パス 1899" d="M410.336,584.909a3.141,3.141,0,0,1-1.116-.2,58.684,58.684,0,0,0-6.257-1.856,65.528,65.528,0,0,1-6.916-2.063,3.162,3.162,0,0,1,2.233-5.917,58.624,58.624,0,0,0,6.258,1.856,65.278,65.278,0,0,1,6.915,2.063,3.162,3.162,0,0,1-1.117,6.12Z" transform="translate(-283.562 -202.874)" fill="#13202f"/>
            <path id="パス_1900" data-name="パス 1900" d="M422.9,822.211a3.164,3.164,0,0,1-3.145-2.858c-.238-2.467-.764-14.831-1.562-33.547-2.493-58.508-7.683-180.256-13.076-203.7a3.162,3.162,0,1,1,6.163-1.42c5.523,24.011,10.537,141.648,13.231,204.846.764,17.947,1.317,30.909,1.539,33.21a3.162,3.162,0,0,1-2.845,3.449C423.107,822.205,423,822.211,422.9,822.211Z" transform="translate(-281.469 -202.197)" fill="#13202f"/>
            <path id="パス_1901" data-name="パス 1901" d="M382.937,825.326c-.059,0-.12,0-.18-.006a3.16,3.16,0,0,1-2.98-3.332c3.167-56.393,13.3-210.912,17.457-243.927a3.162,3.162,0,0,1,6.275.79c-4.14,32.879-14.255,187.164-17.417,243.489A3.161,3.161,0,0,1,382.937,825.326Z" transform="translate(-286.259 -202.754)" fill="#13202f"/>
            <path id="パス_1902" data-name="パス 1902" d="M455.687,442.234a2.056,2.056,0,0,1-.723-3.98c4.389-1.645,9.441-3.779,14.328-5.842,4.9-2.072,9.976-4.212,14.424-5.882a2.055,2.055,0,1,1,1.445,3.847c-4.373,1.643-9.406,3.767-14.272,5.82-4.924,2.078-10.014,4.228-14.48,5.9A2.053,2.053,0,0,1,455.687,442.234Z" transform="translate(-272.259 -230.978)" fill="#13202f"/>
            <path id="パス_1903" data-name="パス 1903" d="M315.551,449.1a2.527,2.527,0,0,1-1.913-4.18,39.326,39.326,0,0,1,10.407-8.477,33.869,33.869,0,0,0,8.774-7.024,2.53,2.53,0,0,1,3.807,3.334,38.558,38.558,0,0,1-9.93,8,34.807,34.807,0,0,0-9.23,7.473A2.517,2.517,0,0,1,315.551,449.1Z" transform="translate(-298.911 -230.568)" fill="#13202f"/>
            <g id="グループ_2160" data-name="グループ 2160" transform="translate(16.21 190.194)">
              <path id="パス_1904" data-name="パス 1904" d="M316.914,424.133c4.761,2.478,9.2,5.589,13.965,8.066" transform="translate(-314.384 -421.601)" fill="#fff"/>
              <path id="パス_1905" data-name="パス 1905" d="M331.28,435.132a2.5,2.5,0,0,1-1.166-.284c-2.453-1.279-4.827-2.717-7.123-4.112-2.229-1.353-4.533-2.751-6.841-3.953a2.53,2.53,0,0,1,2.334-4.489c2.456,1.278,4.834,2.72,7.134,4.118,2.226,1.35,4.527,2.749,6.832,3.947a2.53,2.53,0,0,1-1.169,4.774Z" transform="translate(-314.787 -422.004)" fill="#13202f"/>
            </g>
            <path id="パス_1906" data-name="パス 1906" d="M454.192,822.58H454.1a3.163,3.163,0,0,1-3.073-3.249l.162-5.8c4.25-150.986,5.98-240.2,4.871-251.224a3.162,3.162,0,1,1,6.293-.633c1.455,14.457-1.831,145.035-4.841,252.032l-.163,5.792A3.163,3.163,0,0,1,454.192,822.58Z" transform="translate(-272.752 -205.875)" fill="#13202f"/>
            <path id="パス_1907" data-name="パス 1907" d="M460.627,556.557c-2.549,0-4.571-2.291-5.44-6.194a2.055,2.055,0,1,1,4.014-.89c.5,2.239,1.3,2.927,1.469,2.976.527-.1,3.029-2.676,4.061-12.86a2.055,2.055,0,1,1,4.089.414c-1.057,10.43-3.877,16.31-7.939,16.548C460.794,556.557,460.71,556.557,460.627,556.557Z" transform="translate(-271.973 -209.874)" fill="#13202f"/>
            <path id="パス_1908" data-name="パス 1908" d="M371.014,787.335a55.424,55.424,0,0,1-19.321-3.415,1.9,1.9,0,0,1,1.343-3.551,51.519,51.519,0,0,0,28.428,2.057,1.9,1.9,0,1,1,.837,3.7A51.5,51.5,0,0,1,371.014,787.335Z" transform="translate(-291.814 -163.906)" fill="#13202f"/>
            <path id="パス_1909" data-name="パス 1909" d="M435.656,786.483a29.981,29.981,0,0,1-10.335-1.627,1.9,1.9,0,1,1,1.316-3.558c8.624,3.181,21.234.056,26.256-1.438a1.9,1.9,0,1,1,1.08,3.636A67.234,67.234,0,0,1,435.656,786.483Z" transform="translate(-277.86 -163.994)" fill="#13202f"/>
            <g id="グループ_2163" data-name="グループ 2163" transform="translate(138.809 613.726)">
              <path id="パス_1910" data-name="パス 1910" d="M469.162,793.127c.015-.279-2.537-1.728-2.866-1.981-.986-.756-.565-1.637-1.494-2.449-1.976-1.728-3.846-3.792-4.469-6.439-.2-.862-.469-1.95-1.353-2.066a1.617,1.617,0,0,0-1.529,1.105,8.061,8.061,0,0,0-.348,1.967,7.151,7.151,0,0,1-2.349,4.3c-2.184,1.914-6.91,2.407-9.527,3.444-3.685,1.461-6.224,2.944-10.111,2.907s-7.922-1.98-9.163-5.593a12.679,12.679,0,0,0-.862-2.456,1.972,1.972,0,0,0-2.185-1.03c-1.159.381-1.418,1.89-1.456,3.089l-.325,10.059c-.138,4.318-.106,9.114,2.835,12.119,1.783,1.821,4.343,2.646,6.807,3.412,5.224,1.624,9.183,3.247,14.407,4.871s10.489,3.256,15.99,3.775,11.323-.151,16.3-2.891a13.143,13.143,0,0,0,5.519-5.232c2.207-4.3.522-9.534-2.569-12.946S473.066,795.59,469.162,793.127Z" transform="translate(-417.238 -777.644)" fill="#dcdfe2"/>
              <path id="パス_1911" data-name="パス 1911" d="M465.464,825.434a48.182,48.182,0,0,1-10.7-1.208,36.256,36.256,0,0,1-7.656-2.893,26.964,26.964,0,0,0-7.1-2.57,58.276,58.276,0,0,1-13.082-3.8c-6.052-2.816-9.353-7.55-9.057-12.99.315-5.8.642-11.8,1.767-16.823a3.161,3.161,0,1,1,6.169,1.383c-1.008,4.5-1.319,10.236-1.62,15.784-.2,3.73,3.3,5.932,5.409,6.914a52.6,52.6,0,0,0,11.477,3.3,32.263,32.263,0,0,1,8.735,3.081,30.777,30.777,0,0,0,6.369,2.449A38.936,38.936,0,0,0,474.409,818c3.167-.861,5.274-2.284,6.268-4.227a7.5,7.5,0,0,0,.068-6.01c-1.148-3.044-6.152-6.37-9.805-8.8-1.1-.729-2.121-1.411-2.989-2.038-5-3.613-8.19-7.986-10.661-14.621a3.162,3.162,0,1,1,5.926-2.205c2.054,5.518,4.422,8.8,8.438,11.7.809.583,1.763,1.216,2.787,1.895,4.613,3.067,10.355,6.883,12.221,11.834a13.612,13.612,0,0,1-.352,11.115c-1.263,2.474-4.064,5.775-10.241,7.455A40.888,40.888,0,0,1,465.464,825.434Z" transform="translate(-417.851 -778.049)" fill="#13202f"/>
              <path id="パス_1912" data-name="パス 1912" d="M438.808,793.034c-4.6,0-10.514-.575-13.1-2.489a1.74,1.74,0,0,1,2.069-2.8c2.5,1.852,12.368,2.173,15.79,1.519a1.741,1.741,0,0,1,.642,3.421A34.068,34.068,0,0,1,438.808,793.034Z" transform="translate(-416.495 -776.274)" fill="#13202f"/>
              <g id="グループ_2162" data-name="グループ 2162" transform="translate(20.299 8.877)">
                <g id="グループ_2161" data-name="グループ 2161">
                  <path id="パス_1913" data-name="パス 1913" d="M436.244,793.162c7.367-4.545,15.022-7.36,27.425-5.969a12,12,0,0,1,5.057,1.444,4.087,4.087,0,0,1,1.973,4.068c-.59,3.585-5.42,2.931-12.483,3.422a35.313,35.313,0,0,0-13.023,3.1" transform="translate(-434.664 -785.26)" fill="#dcdfe2"/>
                  <path id="パス_1914" data-name="パス 1914" d="M445.445,801.055a1.581,1.581,0,0,1-.6-3.045,36.828,36.828,0,0,1,13.51-3.208c1.379-.1,2.672-.148,3.867-.2,5.006-.2,6.92-.42,7.165-1.9a2.5,2.5,0,0,0-1.255-2.471,10.682,10.682,0,0,0-4.392-1.213c-12.022-1.349-19.253,1.325-26.416,5.743a1.582,1.582,0,0,1-1.662-2.692c6.682-4.123,14.76-7.73,28.431-6.2a13.559,13.559,0,0,1,5.725,1.68,5.654,5.654,0,0,1,2.687,5.661c-.684,4.168-4.863,4.338-10.155,4.551-1.168.049-2.43.1-3.777.194a33.8,33.8,0,0,0-12.537,2.98A1.547,1.547,0,0,1,445.445,801.055Z" transform="translate(-434.915 -785.511)" fill="#13202f"/>
                </g>
              </g>
            </g>
            <path id="パス_1915" data-name="パス 1915" d="M424.74,495.834q-1.436,0-2.856-.024a1.9,1.9,0,0,1-1.866-1.927,1.8,1.8,0,0,1,1.928-1.865c12.376.155,25.885-.929,34.417-2.872a1.9,1.9,0,0,1,.842,3.7C449.06,494.7,436.581,495.834,424.74,495.834Z" transform="translate(-278.631 -219.094)" fill="#13202f"/>
            <path id="パス_1916" data-name="パス 1916" d="M375.142,496.232c-8.288,0-17.642-.778-23.51-3.127a1.9,1.9,0,1,1,1.408-3.52c8.206,3.278,24.172,3.224,32.9,2.374a1.931,1.931,0,0,1,2.071,1.707,1.9,1.9,0,0,1-1.706,2.072C383.252,496.033,379.333,496.232,375.142,496.232Z" transform="translate(-291.819 -219.026)" fill="#13202f"/>
            <path id="パス_1917" data-name="パス 1917" d="M421.77,427.361a1.9,1.9,0,1,1,0-3.791c9.564,0,20.867-.294,32.18-2.467a1.9,1.9,0,1,1,.716,3.723C443.041,427.063,431.514,427.361,421.77,427.361Z" transform="translate(-278.658 -231.989)" fill="#fff"/>
            <path id="パス_1918" data-name="パス 1918" d="M439.833,429.532a1.9,1.9,0,0,1-1.9-1.821c-1.275-32.91-10.547-75.665-20.146-79.4a1.9,1.9,0,0,1,1.374-3.539c13.718,5.336,21.581,57.407,22.565,82.788a1.9,1.9,0,0,1-1.822,1.97Z" transform="translate(-279.282 -246.474)" fill="#f03748"/>
            <path id="パス_1919" data-name="パス 1919" d="M417.072,358.314a3.162,3.162,0,0,1-3.149-2.906c-.539-6.66-.25-11.974,2.855-17.869,2.608-4.956,5.429-10.637,5.873-15.285a3.163,3.163,0,0,1,6.3.605c-.554,5.79-3.684,12.132-6.573,17.626-2.12,4.025-2.682,7.8-2.148,14.41a3.161,3.161,0,0,1-2.9,3.409C417.244,358.31,417.157,358.314,417.072,358.314Z" transform="translate(-279.827 -251.262)" fill="#13202f"/>
            <path id="パス_1920" data-name="パス 1920" d="M446.173,429.276H446.1a1.9,1.9,0,0,1-1.825-1.968c.182-4.851-3.657-10.066-8.743-11.872-5.235-1.865-11.108-1.335-16.67-.624l-1.243.158c-6.311.815-12.263,1.583-18.63-1.257-6.163-2.746-11.04-5.8-14.812-11.805-4.105-6.527-5.788-14.191-6.795-20.138a139.447,139.447,0,0,1-1.927-25.268c.087-5.579.879-10.662,9.526-11.57a1.9,1.9,0,1,1,.4,3.773c-5.5.577-6.049,2.612-6.129,7.852a135.275,135.275,0,0,0,1.873,24.579c.947,5.6,2.516,12.79,6.264,18.753,3.262,5.188,7.614,7.893,13.145,10.36,5.4,2.411,10.589,1.732,16.6.96l1.25-.164c6.02-.762,12.4-1.328,18.423.816,6.666,2.368,11.508,9.071,11.263,15.59A1.9,1.9,0,0,1,446.173,429.276Z" transform="translate(-287.08 -246.421)" fill="#f03748"/>
            <path id="パス_1921" data-name="パス 1921" d="M386.174,358.34a3.524,3.524,0,0,1-.352-.018,3.162,3.162,0,0,1-2.8-3.49c.728-6.589-.387-8.21-2.233-10.9a34.928,34.928,0,0,1-2.073-3.3l-1.219-2.227c-2.446-4.428-4.975-9-6.006-14.383a3.161,3.161,0,1,1,6.209-1.192c.843,4.39,3.023,8.34,5.333,12.517l1.248,2.276a27.964,27.964,0,0,0,1.721,2.724c2.592,3.773,4.224,6.867,3.307,15.17A3.164,3.164,0,0,1,386.174,358.34Z" transform="translate(-287.839 -251.094)" fill="#13202f"/>
            <path id="パス_1922" data-name="パス 1922" d="M421.77,418.6a1.9,1.9,0,1,1,0-3.791c9.566,0,20.871-.294,32.18-2.471a1.9,1.9,0,1,1,.716,3.725C443.044,418.3,431.515,418.6,421.77,418.6Z" transform="translate(-278.658 -233.651)" fill="#13202f"/>
            <path id="パス_1923" data-name="パス 1923" d="M397.723,377.627a49.588,49.588,0,0,1-6.732-.408,1.9,1.9,0,0,1,.522-3.76c6.439.9,14.9-.019,20.5-.624l2-.213a1.9,1.9,0,1,1,.389,3.773l-1.979.211A138.631,138.631,0,0,1,397.723,377.627Z" transform="translate(-284.442 -241.173)" fill="#13202f"/>
            <path id="パス_1924" data-name="パス 1924" d="M457.609,558.229a1.9,1.9,0,0,1-1.889-1.747l-1.358-17.175a1.892,1.892,0,0,1,1.741-2.041,1.868,1.868,0,0,1,2.04,1.738l1.36,17.181a1.9,1.9,0,0,1-1.743,2.039A1.3,1.3,0,0,1,457.609,558.229Z" transform="translate(-272.122 -209.964)" fill="#13202f"/>
            <g id="グループ_2164" data-name="グループ 2164" transform="translate(142.094 277.962)">
              <path id="パス_1925" data-name="パス 1925" d="M423.772,502.212a.693.693,0,0,1-.084,0c-.54-.027-1.079-.061-1.615-.1a1.581,1.581,0,1,1,.241-3.152c.51.04,1.025.074,1.54.1a1.58,1.58,0,0,1-.082,3.158Z" transform="translate(-420.612 -495.189)" fill="#13202f"/>
              <path id="パス_1926" data-name="パス 1926" d="M428.32,502.64a1.581,1.581,0,0,1-.04-3.162c1.038-.027,2.08-.072,3.12-.133a1.525,1.525,0,0,1,1.67,1.486,1.579,1.579,0,0,1-1.485,1.67c-1.073.062-2.15.112-3.222.139Zm8.866-.633a1.581,1.581,0,0,1-.175-3.152c1.05-.118,2.091-.251,3.118-.387a1.546,1.546,0,0,1,1.777,1.356,1.579,1.579,0,0,1-1.357,1.775q-1.572.214-3.183.4A1.786,1.786,0,0,1,437.186,502.007Zm8.8-1.269a1.58,1.58,0,0,1-.269-3.137c1.062-.185,2.1-.377,3.1-.565a1.58,1.58,0,1,1,.586,3.106q-1.529.293-3.149.571A1.3,1.3,0,0,1,445.983,500.738Z" transform="translate(-419.451 -495.556)" fill="#13202f"/>
              <path id="パス_1927" data-name="パス 1927" d="M450.519,499.275a1.581,1.581,0,0,1-.322-3.129l1.539-.327a1.581,1.581,0,0,1,.654,3.094l-1.545.327A1.47,1.47,0,0,1,450.519,499.275Z" transform="translate(-415.243 -495.788)" fill="#13202f"/>
            </g>
            <g id="グループ_2165" data-name="グループ 2165" transform="translate(58.851 279.674)">
              <path id="パス_1928" data-name="パス 1928" d="M353.667,501.009a1.553,1.553,0,0,1-.576-.108c-.528-.207-1.043-.422-1.544-.658a1.58,1.58,0,1,1,1.333-2.866c.442.2.9.4,1.362.578a1.581,1.581,0,0,1-.576,3.054Z" transform="translate(-350.633 -497.226)" fill="#13202f"/>
              <path id="パス_1929" data-name="パス 1929" d="M369.195,503.458h-.039c-1.029-.024-2.057-.07-3.074-.132a1.581,1.581,0,1,1,.2-3.156c.98.062,1.966.1,2.956.126a1.581,1.581,0,0,1-.038,3.162Zm5.429-.033a1.581,1.581,0,0,1-.05-3.162q1.493-.052,2.97-.143a1.581,1.581,0,1,1,.194,3.156c-1.011.062-2.033.114-3.06.149Zm-13.844-.667a1.648,1.648,0,0,1-.24-.018c-1.041-.161-2.065-.346-3.062-.565a1.58,1.58,0,1,1,.67-3.088c.936.2,1.895.379,2.87.528a1.58,1.58,0,0,1-.238,3.143Z" transform="translate(-349.572 -496.881)" fill="#13202f"/>
              <path id="パス_1930" data-name="パス 1930" d="M379.041,502.739a1.58,1.58,0,0,1-.163-3.152l1.539-.18a1.561,1.561,0,0,1,1.764,1.371,1.581,1.581,0,0,1-1.373,1.767c-.526.064-1.06.13-1.6.184A1.537,1.537,0,0,1,379.041,502.739Z" transform="translate(-345.548 -496.816)" fill="#13202f"/>
            </g>
            <path id="パス_1931" data-name="パス 1931" d="M346.951,812.367c-.69,0-1.387-.01-2.089-.035-5.547-.172-12.387-1.028-16.083-6.1a1.264,1.264,0,1,1,2.044-1.488c3.051,4.187,9.148,4.907,14.119,5.064a56.249,56.249,0,0,0,18.261-2.38c2.17-.633,3.989-1.331,5.749-2.008a54.053,54.053,0,0,1,11.658-3.334c4.231-.707,9.382-2.992,9.434-4.764.02-.7.627-1.374,1.3-1.226a1.265,1.265,0,0,1,1.228,1.3c-.152,5.135-11.432,7.167-11.546,7.185a51.128,51.128,0,0,0-11.167,3.2c-1.809.695-3.679,1.414-5.95,2.072A58.717,58.717,0,0,1,346.951,812.367Z" transform="translate(-295.971 -160.906)" fill="#13202f"/>
            <path id="パス_1932" data-name="パス 1932" d="M465.461,812.367a58.712,58.712,0,0,1-16.958-2.513c-2.27-.658-4.14-1.378-5.949-2.072a51.168,51.168,0,0,0-11.168-3.2c-.114-.018-11.4-2.047-11.544-7.185a1.263,1.263,0,0,1,1.226-1.3,1.164,1.164,0,0,1,1.3,1.227c.05,1.775,5.2,4.057,9.433,4.764a54.088,54.088,0,0,1,11.658,3.334c1.761.677,3.579,1.378,5.748,2.008a56.348,56.348,0,0,0,18.26,2.38c4.972-.157,11.069-.877,14.12-5.064a1.264,1.264,0,1,1,2.044,1.488c-3.7,5.073-10.536,5.929-16.083,6.1C466.846,812.358,466.151,812.367,465.461,812.367Z" transform="translate(-278.664 -160.906)" fill="#13202f"/>
          </g>
        </g>
        <g id="グループ_2177" data-name="グループ 2177" transform="translate(219.667 22.348)">
          <path id="パス_1933" data-name="パス 1933" d="M679.05,775.185l-4.361,11.65c-1.247,3.332-2.5,7.037-1.2,10.349a10.052,10.052,0,0,0,4.444,4.787,15.7,15.7,0,0,0,23.132-9.653c1.768-6.893-1.263-14.234-.051-21.247" transform="translate(-618.351 -187.993)" fill="#fff"/>
          <path id="パス_1934" data-name="パス 1934" d="M718.148,777.72c-.939,4.091-1.883,8.259-1.548,12.443s2.157,8.461,5.679,10.743c3.894,2.523,8.928,2.15,13.531,1.561,2.458-.314,5.162-.8,6.7-2.744,2.189-2.766.867-6.761-.17-10.133a46.863,46.863,0,0,1-1.687-19.613" transform="translate(-610.089 -188.201)" fill="#fff"/>
          <path id="パス_1935" data-name="パス 1935" d="M641.762,426.727a109.531,109.531,0,0,0-12.114,41.2c-.3,3.429-.428,6.981.751,10.216s3.948,6.106,7.374,6.443c5.334.525,9.218-4.751,11.917-9.38l24.7-42.359c2.875-4.931,5.849-10.68,4-16.078" transform="translate(-626.597 -255.151)" fill="#fff"/>
          <path id="パス_1936" data-name="パス 1936" d="M748.045,597.463c2.642,3.588,7.809,4.712,12.059,3.372s7.6-4.738,9.824-8.6c4.732-8.223,4.821-18.217,4.784-27.7q-.266-67.139-.532-134.276c-.006-1.418-.127-3.065-1.3-3.867-1.062-.728-2.493-.4-3.732-.05l-33.55,9.554" transform="translate(-606.474 -253.411)" fill="#fff"/>
          <path id="パス_1937" data-name="パス 1937" d="M736.552,387.236c-6.224-2.395-9.148-9.96-8.365-16.582s4.4-12.522,7.922-18.183,7.132-11.57,7.893-18.194c.749-6.523-1.413-13.161-5.085-18.6s-8.768-9.789-14.213-13.457c-5.158-3.476-10.825-6.454-16.982-7.341s-12.891.59-17.288,4.99c-3.9,3.9-5.5,9.482-6.953,14.8-2.1,7.675-4.2,15.776-2.224,23.483,1.68,6.535,6.09,11.953,9.639,17.691s6.368,12.669,4.4,19.122c-1.129,3.7-3.7,6.765-5.305,10.283-2.4,5.269-2.5,11.352-1.373,17.028s3.426,11.047,5.706,16.368c1.834,4.281,3.73,8.66,6.933,12.041s8.034,5.615,12.549,4.473c5.178-1.311,8.357-6.43,10.608-11.272s4.4-10.184,8.937-13" transform="translate(-616.925 -278.303)" fill="#fff"/>
          <g id="グループ_2176" data-name="グループ 2176">
            <path id="パス_1938" data-name="パス 1938" d="M660.027,510.248c-1.858,36.7-2.107,69.37-.753,106.091,1.285,34.823,5.743,69.436,7.545,104.123,1.844,35.488,5.548,70.984,8.316,106.414a51.483,51.483,0,0,0,31.332,1.463q-1.1-124.5,5.141-248.919L724,586.006l.126,24.631c.362,70.443-.45,140.952,1.289,211.272a9.41,9.41,0,0,0,1.034,4.928c1.9,2.952,11.4,4.291,14.536,4.546,5.27.431,11.007-1.166,14.244-5.347,2.9-3.752,3.324-8.8,3.628-13.536,1.118-17.362,3.884-35.459,3.4-52.84-.435-15.785,3.676-32,5.656-47.771,4.385-34.907,6.847-75.748,7.375-110.926q.451-30.077-.984-60.141c-.628-13.121-1.526-17.548-5.7-30" transform="translate(-621.105 -237.432)" fill="#f03748"/>
            <path id="パス_1939" data-name="パス 1939" d="M770.985,510.378c-2.452-9.363-2.741-17.543-1.909-27.1.8-9.183,2.427-18.693,2.427-27.9l30.192-10.161a66.652,66.652,0,0,0-33.142-62.83c-4.667-2.71-9.658-4.217-14.5-6.485-1.544-.724-14.79-7.324-14.3-8.931a127.892,127.892,0,0,1-16.553,34.411c-.749,1.1-1.722,2.3-3.052,2.309-1.392.01-2.392-1.287-3.142-2.46A154.375,154.375,0,0,1,701.007,368a60.255,60.255,0,0,0-50.357,40.391c-1.819,5.288-4.087,10.278-6.343,15.431L640.38,432.8c-.884,2.02-3.436,5.686-3.436,7.854l23.069,5.213c2.038.46,4.178.974,5.708,2.4,1.783,1.659,2.371,4.209,2.807,6.606a142.228,142.228,0,0,1-3.125,64.225c-2.35,8.245-2.334,16.371-2.923,24.8a3.443,3.443,0,0,0,.178,1.741,3.307,3.307,0,0,0,2.12,1.437c3.964,1.287,7.926,1.19,11.917,2.029a79.727,79.727,0,0,0,8.575,1.35,144.423,144.423,0,0,0,22.318.049c3.316-.187,6.767-.7,10.049-.615,3.586.1,7.213.84,10.815,1.016a122.881,122.881,0,0,0,42.848-5.5c3.169-1,4.574-2.386,4.623-5.744C776.052,530.768,773.235,518.976,770.985,510.378Z" transform="translate(-625.175 -264.592)" fill="#646e73"/>
            <path id="パス_1940" data-name="パス 1940" d="M711.041,412.034a1.9,1.9,0,0,1-1.2-3.366c10.01-8.154,17.552-22.065,24.212-35.886a1.9,1.9,0,0,1,3.419,1.649c-6.851,14.213-14.649,28.556-25.234,37.177A1.883,1.883,0,0,1,711.041,412.034Z" transform="translate(-611.489 -263.693)" fill="#fff"/>
            <path id="パス_1941" data-name="パス 1941" d="M706.561,412.517a1.9,1.9,0,0,1-1.342-.552,93.629,93.629,0,0,1-22.976-38.407,1.9,1.9,0,1,1,3.616-1.148A89.828,89.828,0,0,0,707.9,409.278a1.9,1.9,0,0,1-1.342,3.239Z" transform="translate(-616.605 -263.81)" fill="#fff"/>
            <path id="パス_1942" data-name="パス 1942" d="M750.443,436.282a1.9,1.9,0,0,1-.774-3.63c4.212-1.881,9.051-3.854,13.734-5.766,4.635-1.889,9.427-3.844,13.564-5.691a1.9,1.9,0,0,1,1.548,3.465c-4.2,1.871-9.017,3.838-13.68,5.74s-9.465,3.86-13.62,5.716A1.9,1.9,0,0,1,750.443,436.282Z" transform="translate(-604.021 -254.344)" fill="#fff"/>
            <path id="パス_1943" data-name="パス 1943" d="M647.312,425.686a1.889,1.889,0,0,1-.8-.178l-7.037-3.258a1.9,1.9,0,0,1,1.594-3.446l7.04,3.264a1.9,1.9,0,0,1-.8,3.619Z" transform="translate(-624.903 -254.798)" fill="#fff"/>
            <path id="パス_1944" data-name="パス 1944" d="M638.554,446.741a3.156,3.156,0,0,1-2.022-.732,6.9,6.9,0,0,0-1.147-.759c-2.553-1.433-3.233-3.237-2.43-6.426a75.191,75.191,0,0,1,4.764-12.107l2.533-5.59c5.281-11.755,10.741-23.909,20.3-33.7,6.763-6.933,14.135-10.286,22.674-14.17,4.671-2.124,9.967-4.537,15.784-7.838a3.161,3.161,0,1,1,3.123,5.5c-6.062,3.443-11.494,5.917-16.289,8.1-8.286,3.771-14.831,6.747-20.766,12.83-8.772,8.988-13.767,20.108-19.053,31.875l-2.557,5.642a73.654,73.654,0,0,0-4.313,10.767,12.311,12.311,0,0,1,1.43,1.022,3.162,3.162,0,0,1-2.026,5.592Z" transform="translate(-625.991 -264.963)" fill="#13202f"/>
            <ellipse id="楕円形_304" data-name="楕円形 304" cx="3.091" cy="4.071" rx="3.091" ry="4.071" transform="translate(79.333 40.258)" fill="#13202f"/>
            <ellipse id="楕円形_305" data-name="楕円形 305" cx="3.091" cy="4.071" rx="3.091" ry="4.071" transform="translate(102.961 40.386)" fill="#13202f"/>
            <path id="パス_1945" data-name="パス 1945" d="M706.969,332.846a4.08,4.08,0,0,1-2.123-.565,1.265,1.265,0,1,1,1.335-2.148,1.691,1.691,0,0,0,1.488.027,1.265,1.265,0,0,1,1.523,2.02A3.747,3.747,0,0,1,706.969,332.846Z" transform="translate(-612.417 -271.616)" fill="#13202f"/>
            <path id="パス_1946" data-name="パス 1946" d="M707.293,342.835a10.334,10.334,0,0,1-4.863-1.072,1.422,1.422,0,0,1,1.378-2.489,9.182,9.182,0,0,0,7.65-.257,1.422,1.422,0,1,1,1.541,2.39A10.919,10.919,0,0,1,707.293,342.835Z" transform="translate(-612.901 -269.933)" fill="#13202f"/>
            <ellipse id="楕円形_306" data-name="楕円形 306" cx="1.815" cy="1.815" rx="1.815" ry="1.815" transform="translate(87.622 68.33)" fill="#13202f"/>
            <ellipse id="楕円形_307" data-name="楕円形 307" cx="1.815" cy="1.815" rx="1.815" ry="1.815" transform="translate(98.119 68.096)" fill="#13202f"/>
            <path id="パス_1947" data-name="パス 1947" d="M685.794,341.938a3.133,3.133,0,0,1-1.037-.176c-7.576-2.631-8.283-17.517-6.9-23.023a3.161,3.161,0,1,1,6.132,1.537c-1.382,5.506.654,14.754,2.842,15.514a3.161,3.161,0,0,1-1.037,6.148Z" transform="translate(-617.528 -274.187)" fill="#13202f"/>
            <path id="パス_1948" data-name="パス 1948" d="M728.785,342.438a2.371,2.371,0,0,1-1-4.524c3.6-1.664,4.746-11.654,2.109-18.434a2.372,2.372,0,1,1,4.422-1.717c2.934,7.546,2.621,21.151-4.542,24.455A2.372,2.372,0,0,1,728.785,342.438Z" transform="translate(-608.216 -274.205)" fill="#13202f"/>
            <path id="パス_1949" data-name="パス 1949" d="M733.108,319.888q-.368-.671-.785-1.312a10.324,10.324,0,0,0-3.375-3.554c-1.664-.958-3.435-1.712-5.179-2.51-7.688-3.519-16.711-4.926-22.917-10.668-8.515,7.024-12.025,14.344-12.664,25.362-.055.947-.182,2.073-1.023,2.512-1.031.538-2.242-.448-2.712-1.513-.547-1.237-.613-2.843-1.971-3.3-1.166-.392-2.2,1.089-3.332-.651a5.838,5.838,0,0,1-.62-3.379c.216-8.257.93-17.3,5.264-24.467a32.882,32.882,0,0,1,23.244-15.182,35.448,35.448,0,0,1,19.869,3c6.091,2.687,11.466,9.229,14.14,15.357,4.373,10.02,2.792,19.735-.679,29.66a6.49,6.49,0,0,1-.992,2.032,2.19,2.19,0,0,1-1.989.864,2.25,2.25,0,0,1-1.586-1.565,8.531,8.531,0,0,1-.292-2.31A19.753,19.753,0,0,0,733.108,319.888Z" transform="translate(-617.294 -280.905)" fill="#13202f"/>
            <path id="パス_1950" data-name="パス 1950" d="M730.214,303.666c4.188-1.092,8.8.85,11.584,4.161a18.966,18.966,0,0,1,3.978,12.089,50.664,50.664,0,0,1-2.009,12.79,19.609,19.609,0,0,0-.9,6.171,6.392,6.392,0,0,0,2.957,5.226c.94.51,2.113.749,2.705,1.639a2.619,2.619,0,0,1-.491,3.123,6.726,6.726,0,0,1-2.983,1.583,36.2,36.2,0,0,1-18.631.741,73.53,73.53,0,0,0,5.495-11.5,24.667,24.667,0,0,0,1.251-12.551c-.94-4.9-3.807-9.181-6.609-13.31" transform="translate(-608.213 -276.648)" fill="#13202f"/>
            <path id="パス_1951" data-name="パス 1951" d="M778.194,451.257a3.162,3.162,0,0,1-.966-6.173l1.2-.375c2.179-.664,4.431-1.351,5.378-2.682.608-1.714-1.045-8.7-5.007-20.605l-.735-2.223a60.289,60.289,0,0,0-9.265-18.483c-6.987-9.061-16.731-14.152-28.012-20.046a202.306,202.306,0,0,1-20.142-11.577,3.163,3.163,0,0,1,3.539-5.244,195.74,195.74,0,0,0,19.532,11.215c11.443,5.981,22.254,11.629,30.091,21.791a66.422,66.422,0,0,1,10.272,20.391l.719,2.177c4.832,14.5,6.8,22.552,4.163,26.265-2.195,3.086-5.793,4.187-8.684,5.071l-1.116.345A3.182,3.182,0,0,1,778.194,451.257Z" transform="translate(-609.573 -265.284)" fill="#13202f"/>
            <g id="グループ_2169" data-name="グループ 2169" transform="translate(18.734 117.126)">
              <path id="パス_1952" data-name="パス 1952" d="M669.186,440.027l14.507,1.557c2.17.233,4.537.42,6.356-.812a6.639,6.639,0,0,0,2.574-4.9c.385-3.9-1.1-8.047-1.985-11.794l-2.952-12.531-5.906-25.061c-.353-1.5-.771-3.109-1.933-4.09-1.285-1.083-3.1-1.094-4.764-1.046q-8.486.25-16.963.749c-2.543.151-5.588.661-6.585,3.065a7.358,7.358,0,0,0,.136,4.514l6.915,28.245" transform="translate(-641.202 -378.994)" fill="#f03748"/>
              <path id="パス_1953" data-name="パス 1953" d="M659.8,451.953c1.95-1.726,1.338-2.9,2.944-5.01,1.878-2.47,3.882-5.039,6.7-6.25a24.946,24.946,0,0,1,6.064-1.26,30.2,30.2,0,0,0,11.592-4.417,5.137,5.137,0,0,0,1.781-1.64,2.045,2.045,0,0,0-.08-2.314,2.9,2.9,0,0,0-2.365-.613l-17.742.743,12.564-8.4a11.2,11.2,0,0,0,3.872-3.607c.866-1.574.815-3.837-.591-4.928a3.849,3.849,0,0,0,3.413-4.536,3.761,3.761,0,0,0-5.016-2.536c1.005-1.023.588-2.9-.49-3.842a7,7,0,0,0-3.977-1.337,30.283,30.283,0,0,0-8.406.113c-6.863,1.2-12.841,5.8-16.979,11.543s-4.587,10.765-6.475,17.636c-1.627,5.926-2.841,12.33-.905,18.162.614,1.852,4.25,10.476,6.842,9.651a1.988,1.988,0,0,0,.928-.9c1.721-2.575,3.866-4.194,6.165-6.119C659.7,452.046,659.75,452,659.8,451.953Z" transform="translate(-642.436 -375.12)" fill="#fff"/>
              <path id="パス_1954" data-name="パス 1954" d="M669.907,443.868a2.371,2.371,0,0,1-.1-4.739c.635-.029,15.618-.683,18.715-.689a2.344,2.344,0,0,0,1.7-.519,3.214,3.214,0,0,0,.317-2.405c-2.174-12.277-7-36.65-10.454-49.959a1.868,1.868,0,0,0-1.856-1.448c-6.434.064-16.117.453-23.258,1.186a1.472,1.472,0,0,0-1.036.6,1.634,1.634,0,0,0-.27,1.319c.463,2.127,1.156,5.455,1.894,8.985,1.222,5.859,2.606,12.494,3.163,14.729a2.371,2.371,0,0,1-4.6,1.149c-.58-2.326-1.915-8.723-3.206-14.907-.733-3.514-1.423-6.828-1.884-8.949a6.4,6.4,0,0,1,1.066-5.11,6.225,6.225,0,0,1,4.393-2.539c7.288-.747,17.15-1.145,23.69-1.21h.074a6.644,6.644,0,0,1,6.423,5c3.485,13.432,8.346,37.972,10.532,50.326a7.865,7.865,0,0,1-1.35,6.271,6.615,6.615,0,0,1-5.331,2.22c-3,.006-18.365.676-18.52.683C669.978,443.868,669.942,443.868,669.907,443.868Z" transform="translate(-641.644 -379.367)" fill="#13202f"/>
              <path id="パス_1955" data-name="パス 1955" d="M665.29,431.418a1.732,1.732,0,0,1-1.348-2.816c.809-.988,2.671-2.022,6.166-3.918,3.836-2.084,9.636-5.23,10.844-7.436A3.891,3.891,0,0,0,681,414.22a1.742,1.742,0,0,1,.681-1.989l.639-.414c.567-.362,1.9-1.21,2.012-1.645a1.266,1.266,0,0,0-.64-.853c-2.011-1.248-7.354-.555-11.464.625A36.958,36.958,0,0,0,666.99,412a34.643,34.643,0,0,1-6.99,2.548,1.738,1.738,0,1,1-.771-3.39,31.531,31.531,0,0,0,6.324-2.326,39.937,39.937,0,0,1,5.722-2.229c2.348-.677,10.324-2.686,14.259-.234a4.718,4.718,0,0,1,2.223,3.236c.42,2.332-1.606,3.872-3.11,4.855A6.711,6.711,0,0,1,684,418.92c-1.575,2.874-6.268,5.579-12.238,8.822a36,36,0,0,0-5.136,3.069A1.769,1.769,0,0,1,665.29,431.418Z" transform="translate(-639.941 -374.473)" fill="#13202f"/>
              <path id="パス_1956" data-name="パス 1956" d="M660.9,420.972a1.581,1.581,0,0,1-.558-3.061c1.6-.6,3.086-1.13,4.524-1.643,2.585-.916,5.026-1.784,7.689-2.942a1.582,1.582,0,0,1,1.26,2.9c-2.763,1.2-5.254,2.084-7.892,3.019-1.42.507-2.887,1.025-4.466,1.621A1.617,1.617,0,0,1,660.9,420.972Z" transform="translate(-639.668 -372.954)" fill="#13202f"/>
              <g id="グループ_2168" data-name="グループ 2168" transform="translate(22.963 53.213)">
                <path id="パス_1957" data-name="パス 1957" d="M664.435,426.491c3.447.177,9.589.7,12.966-.073a20.285,20.285,0,0,1,4.987-.708c1.387.025,2.757.842,2.635,1.965a3.17,3.17,0,0,1-.97,1.634c-2.462,2.668-5.935,3-9.608,4.294-4.543,1.6-5.968,1.7-10.747,2.387" transform="translate(-661.8 -423.796)" fill="#fff"/>
                <path id="パス_1958" data-name="パス 1958" d="M664,438.192a1.9,1.9,0,0,1-.269-3.773l1.327-.192a36.882,36.882,0,0,0,9.064-2.109c.969-.339,1.926-.617,2.855-.886,2.519-.728,4.51-1.306,5.986-2.9.117-.124.206-.226.274-.313a1.9,1.9,0,0,0-.578-.1,22.117,22.117,0,0,0-4.53.664c-3.162.72-8.2.423-11.879.207l-1.607-.089a1.9,1.9,0,0,1-1.8-1.991,1.84,1.84,0,0,1,1.991-1.8l1.637.093c3.255.189,8.178.479,10.809-.117a18.279,18.279,0,0,1,5.44-.757,5.01,5.01,0,0,1,3.665,1.556,3.244,3.244,0,0,1,.827,2.51,5,5,0,0,1-1.464,2.718c-2.192,2.374-5,3.189-7.719,3.973-.864.251-1.751.507-2.652.824a40.824,40.824,0,0,1-9.789,2.285l-1.318.189A2.156,2.156,0,0,1,664,438.192Z" transform="translate(-662.103 -424.101)" fill="#13202f"/>
              </g>
              <path id="パス_1959" data-name="パス 1959" d="M644.7,443.811a1.784,1.784,0,0,1-.458-.058,1.9,1.9,0,0,1-1.385-2.3c1.048-4.216,1.707-8.514,2.289-12.3.661-4.305,1.139-7.417,1.964-9.146,2.223-4.659,5.509-10.52,11.235-14.524,4.317-3.024,9.5-3.99,14.46-4.586,6.59-.791,10.634-.071,12.374,2.2a4.653,4.653,0,0,1,.384,4.841,1.9,1.9,0,1,1-3.518-1.42c.125-.312.307-.868.118-1.115-.467-.617-2.875-1.461-8.9-.741-4.47.536-9.106,1.383-12.739,3.924-5,3.5-7.963,8.812-9.985,13.052-.585,1.226-1.1,4.558-1.638,8.088-.565,3.68-1.268,8.26-2.356,12.641A1.9,1.9,0,0,1,644.7,443.811Z" transform="translate(-642.799 -375.345)" fill="#13202f"/>
            </g>
            <path id="パス_1960" data-name="パス 1960" d="M640.788,484.509a13.677,13.677,0,0,1-7.715-2.609c-4.789-3.255-6.738-9.388-5.79-18.227a92.7,92.7,0,0,1,10.9-34.581,3.163,3.163,0,0,1,5.537,3.057,86.3,86.3,0,0,0-10.15,32.2c-.466,4.357-.315,10.033,3.057,12.324a6.677,6.677,0,0,0,5.431,1.358c2.907-.716,5.981-3.965,8.893-9.4.97-1.809,2.181-4.749,3.352-7.593a92.016,92.016,0,0,1,4.292-9.5c.948-1.662,2.026-3.336,3.117-5.027a51.625,51.625,0,0,0,5.348-9.7A3.162,3.162,0,0,1,673,438.979a56.388,56.388,0,0,1-5.977,10.965c-1.029,1.593-2.047,3.168-2.94,4.73a89.928,89.928,0,0,0-3.936,8.769c-1.288,3.128-2.5,6.083-3.626,8.177-3.835,7.155-8.195,11.379-12.958,12.548A11.664,11.664,0,0,1,640.788,484.509Z" transform="translate(-627.05 -253.125)" fill="#13202f"/>
            <path id="パス_1961" data-name="パス 1961" d="M640.075,444.055a1.9,1.9,0,0,1-1.443-3.125l5.492-6.465a1.9,1.9,0,1,1,2.889,2.458l-5.491,6.465A1.891,1.891,0,0,1,640.075,444.055Z" transform="translate(-624.94 -251.924)" fill="#13202f"/>
            <path id="パス_1962" data-name="パス 1962" d="M645.33,433.2a1.862,1.862,0,0,1-.81-.184l-4.93-2.326a1.9,1.9,0,1,1,1.618-3.433l4.936,2.33a1.9,1.9,0,0,1-.814,3.613Z" transform="translate(-624.88 -253.197)" fill="#13202f"/>
            <path id="パス_1963" data-name="パス 1963" d="M750.65,444.009a1.9,1.9,0,0,1-.683-3.669c3.745-1.443,7.913-2.983,12.085-4.524,4.207-1.55,8.417-3.107,12.193-4.561a1.9,1.9,0,0,1,1.364,3.539c-3.79,1.463-8.019,3.023-12.243,4.582-4.155,1.535-8.307,3.066-12.033,4.5A1.922,1.922,0,0,1,750.65,444.009Z" transform="translate(-603.981 -252.429)" fill="#13202f"/>
            <path id="パス_1964" data-name="パス 1964" d="M759.708,601.761a3.163,3.163,0,0,1-2.5-5.092c5.029-6.527,10.035-13.568,11.15-21.571a51.787,51.787,0,0,0-.186-11.641l-.176-2.026c-.722-8.7-.764-13.077-.791-22.155-.019-6.426.171-12.367.354-18.113.327-10.2.636-19.826-.247-30.915l-.1-1.2a169.075,169.075,0,0,1-.763-23.533c.333-6.587.477-16.43.435-30.091a3.163,3.163,0,0,1,3.152-3.171h.009a3.162,3.162,0,0,1,3.162,3.153c.042,13.774-.1,23.729-.445,30.43a164.6,164.6,0,0,0,.752,22.7l.1,1.211c.91,11.44.6,21.241.263,31.619-.182,5.691-.371,11.576-.352,17.891.026,8.549.038,12.839.77,21.649l.174,1.989a57.339,57.339,0,0,1,.15,13.073c-1.327,9.539-7.1,17.678-12.406,24.561A3.153,3.153,0,0,1,759.708,601.761Z" transform="translate(-602.504 -252.217)" fill="#13202f"/>
            <path id="パス_1965" data-name="パス 1965" d="M658.262,533.323a3.021,3.021,0,0,1-.758-.093,3.16,3.16,0,0,1-2.316-3.822c7.543-30.69,9.733-64.382,5.86-90.129a3.161,3.161,0,1,1,6.252-.939c3.991,26.519,1.76,61.127-5.97,92.573A3.163,3.163,0,0,1,658.262,533.323Z" transform="translate(-621.734 -251.572)" fill="#13202f"/>
            <path id="パス_1966" data-name="パス 1966" d="M711.833,524.828c-19.783,0-39.726-1.4-51.914-4.557a1.9,1.9,0,0,1,.952-3.674c25.822,6.691,90.227,5.2,106.7-.852a1.9,1.9,0,0,1,1.31,3.563C759.417,522.781,735.74,524.828,711.833,524.828Z" transform="translate(-621.089 -236.411)" fill="#13202f"/>
            <path id="パス_1967" data-name="パス 1967" d="M754.821,538.73a.264.264,0,0,1-.044,0,2.053,2.053,0,0,1-2.012-2.1c.211-9.893-1.562-20.8-3.275-31.341a192.043,192.043,0,0,1-2.68-20.939,259.339,259.339,0,0,1,.733-32.432c.926-12.966,1.654-23.208-2.2-39.413a2.055,2.055,0,1,1,4-.95c4,16.819,3.248,27.336,2.3,40.658a255.678,255.678,0,0,0-.727,31.958,189.656,189.656,0,0,0,2.631,20.46c1.743,10.724,3.546,21.815,3.327,32.086A2.057,2.057,0,0,1,754.821,538.73Z" transform="translate(-604.637 -256.439)" fill="#13202f"/>
            <ellipse id="楕円形_308" data-name="楕円形 308" cx="3.429" cy="3.429" rx="3.429" ry="3.429" transform="translate(139.287 152.386)" fill="#13202f"/>
            <path id="パス_1968" data-name="パス 1968" d="M676.953,829.275a3.162,3.162,0,0,1-3.146-2.887c-1.1-12.545-2.245-25.434-3.41-38.508-9.262-103.939-19.76-221.743-12.708-268.691a3.161,3.161,0,1,1,6.252.939c-6.937,46.2,3.523,163.606,12.754,267.191,1.166,13.077,2.315,25.968,3.41,38.52a3.16,3.16,0,0,1-2.874,3.425A2.717,2.717,0,0,1,676.953,829.275Z" transform="translate(-621.68 -236.247)" fill="#13202f"/>
            <path id="パス_1969" data-name="パス 1969" d="M741.237,821.605c-.064,0-.128,0-.193-.006a3.161,3.161,0,0,1-2.966-3.347c2.247-37.254,5.536-74.963,8.715-111.431,4.917-56.38,9.559-109.63,9.155-149.185a3.162,3.162,0,1,1,6.324-.062c.407,39.861-4.248,93.258-9.178,149.794-3.176,36.428-6.459,74.1-8.7,111.267A3.162,3.162,0,0,1,741.237,821.605Z" transform="translate(-606.006 -229.055)" fill="#13202f"/>
            <path id="パス_1970" data-name="パス 1970" d="M717.175,582.457a3.152,3.152,0,0,1-2.421-1.127,35.352,35.352,0,0,0-6.836-5.644,40.26,40.26,0,0,1-8.051-6.753,3.162,3.162,0,1,1,4.839-4.071,35.357,35.357,0,0,0,6.836,5.645,40.208,40.208,0,0,1,8.05,6.753,3.161,3.161,0,0,1-2.417,5.2Z" transform="translate(-613.388 -227.294)" fill="#13202f"/>
            <path id="パス_1971" data-name="パス 1971" d="M715.188,818.78a3.161,3.161,0,0,1-3.162-3.162c0-42.73-.426-200.333-.642-237.516a3.161,3.161,0,0,1,3.143-3.181h.019a3.164,3.164,0,0,1,3.162,3.144c.216,37.19.642,194.817.642,237.553A3.161,3.161,0,0,1,715.188,818.78Z" transform="translate(-611.065 -225.174)" fill="#13202f"/>
            <path id="パス_1972" data-name="パス 1972" d="M700.019,820.078h0a3.162,3.162,0,0,1-3.161-3.165c.008-14.29.723-69.584,1.414-123.057.689-53.293,1.4-108.4,1.409-122.623a3.162,3.162,0,0,1,3.162-3.16h0A3.161,3.161,0,0,1,706,571.239c-.008,14.26-.721,69.386-1.411,122.7-.69,53.454-1.4,108.726-1.412,122.982A3.163,3.163,0,0,1,700.019,820.078Z" transform="translate(-613.818 -226.472)" fill="#13202f"/>
            <path id="パス_1973" data-name="パス 1973" d="M689.323,782.551a43.944,43.944,0,0,1-12.656-1.84,1.9,1.9,0,1,1,1.093-3.63,40.763,40.763,0,0,0,23.161,0,1.9,1.9,0,0,1,1.087,3.638A44.365,44.365,0,0,1,689.323,782.551Z" transform="translate(-617.901 -186.87)" fill="#13202f"/>
            <path id="パス_1974" data-name="パス 1974" d="M730.228,783.184a47.051,47.051,0,0,1-14.646-2.337,1.9,1.9,0,0,1,1.223-3.594c7.6,2.584,18.946,3.254,25.936-.476a1.9,1.9,0,0,1,1.784,3.348C740.436,782.308,735.33,783.184,730.228,783.184Z" transform="translate(-610.512 -186.954)" fill="#13202f"/>
            <g id="グループ_2171" data-name="グループ 2171" transform="translate(103.584 590.655)">
              <path id="パス_1975" data-name="パス 1975" d="M718.113,783.74c-1.529,7.276,10.7,5.825,15.1,5.549,2.975-.186,6.07-.589,8.854.457,5.342,2.009,5.652,7.993,6.842,12.649,1.134,4.437,2.134,9.583-.71,13.215a11.123,11.123,0,0,1-5.23,3.41,19.878,19.878,0,0,1-19.732-4.385c-3.35-3.221-6.071-8.37-5.644-13.062.5-5.474-.9-10.947-.357-16.526" transform="translate(-713.564 -776.248)" fill="#dcdfe2"/>
              <path id="パス_1976" data-name="パス 1976" d="M736.425,824.437c-5.567,0-9.7-1.63-13.25-5.188-10.129-10.137-9.479-22.167-8.579-38.816a3.162,3.162,0,1,1,6.314.339c-.918,17-1.036,26.228,6.74,34.009,2.572,2.575,5.466,3.542,10.041,3.3,5.094-.263,8.547-2.459,9.24-5.876a19.514,19.514,0,0,0-.286-7.821c-1.1-3.687-2.336-6.97-3.648-10.447-1.294-3.431-2.631-6.978-3.8-10.884a3.162,3.162,0,0,1,6.062-1.8c1.1,3.686,2.339,6.976,3.652,10.455,1.292,3.428,2.629,6.973,3.791,10.87a25.833,25.833,0,0,1,.424,10.885c-1.283,6.333-7.074,10.523-15.113,10.94C737.473,824.425,736.942,824.437,736.425,824.437Z" transform="translate(-714.128 -777.441)" fill="#13202f"/>
              <g id="グループ_2170" data-name="グループ 2170" transform="translate(9.17 10.809)">
                <path id="パス_1977" data-name="パス 1977" d="M725.186,798.292a30.875,30.875,0,0,1,13.867-1.386c3.488.453,7.176.463,6.255-4.344-1.268-6.611-17.495-4.658-22.14-3.563" transform="translate(-721.584 -786.276)" fill="#dcdfe2"/>
                <path id="パス_1978" data-name="パス 1978" d="M725.438,800.125a1.582,1.582,0,0,1-.512-3.079,32.341,32.341,0,0,1,14.583-1.455c.885.114,3.572.46,4.317-.331a2.662,2.662,0,0,0,.178-2.149,2.757,2.757,0,0,0-1.342-1.8c-3.929-2.544-14.405-1.577-18.882-.522a1.58,1.58,0,1,1-.726-3.075c3.078-.726,15.714-2.7,21.326.944a5.827,5.827,0,0,1,2.73,3.857c.409,2.132.079,3.786-.982,4.913-1.627,1.73-4.346,1.64-7.026,1.3a29.351,29.351,0,0,0-13.155,1.312A1.618,1.618,0,0,1,725.438,800.125Z" transform="translate(-721.837 -786.528)" fill="#13202f"/>
              </g>
              <path id="パス_1979" data-name="パス 1979" d="M723.612,792.187a1.9,1.9,0,0,1-.592-.1,9.368,9.368,0,0,1-6.351-8.705,1.919,1.919,0,0,1,1.907-1.887,1.9,1.9,0,0,1,1.888,1.906,5.554,5.554,0,0,0,3.74,5.079,1.9,1.9,0,0,1-.591,3.7Z" transform="translate(-713.647 -776.672)" fill="#13202f"/>
            </g>
            <g id="グループ_2173" data-name="グループ 2173" transform="translate(47.076 590.654)">
              <path id="パス_1980" data-name="パス 1980" d="M701,783.74c1.528,7.276-10.7,5.825-15.1,5.549-2.976-.186-6.071-.589-8.855.457-5.342,2.009-5.652,7.993-6.841,12.649-1.135,4.437-2.135,9.583.709,13.215a11.13,11.13,0,0,0,5.23,3.41,19.878,19.878,0,0,0,19.732-4.385c3.35-3.221,6.071-8.37,5.644-13.062-.5-5.474.9-10.947.357-16.526" transform="translate(-666.161 -776.247)" fill="#dcdfe2"/>
              <path id="パス_1981" data-name="パス 1981" d="M683.716,824.437c-.518,0-1.048-.012-1.592-.039-8.039-.418-13.828-4.607-15.112-10.94a25.837,25.837,0,0,1,.423-10.884c1.165-3.9,2.5-7.445,3.794-10.876,1.312-3.477,2.55-6.765,3.649-10.453a3.163,3.163,0,0,1,6.062,1.809c-1.164,3.9-2.5,7.445-3.793,10.876-1.312,3.477-2.55,6.765-3.65,10.453a19.488,19.488,0,0,0-.288,7.821c.693,3.418,4.147,5.613,9.24,5.876,4.556.246,7.468-.723,10.042-3.3,7.774-7.781,7.656-17.014,6.739-34.013a3.162,3.162,0,1,1,6.314-.339c.9,16.652,1.548,28.682-8.579,38.82C693.417,822.807,689.282,824.437,683.716,824.437Z" transform="translate(-666.625 -777.44)" fill="#13202f"/>
              <g id="グループ_2172" data-name="グループ 2172" transform="translate(4.773 10.807)">
                <path id="パス_1982" data-name="パス 1982" d="M692.23,798.292a30.875,30.875,0,0,0-13.867-1.386c-3.488.453-7.177.463-6.255-4.344,1.268-6.611,17.495-4.658,22.14-3.563" transform="translate(-670.386 -786.273)" fill="#dcdfe2"/>
                <path id="パス_1983" data-name="パス 1983" d="M692.483,800.125a1.636,1.636,0,0,1-.512-.084,29.334,29.334,0,0,0-13.153-1.312c-2.688.343-5.4.433-7.028-1.3-1.061-1.126-1.393-2.781-.984-4.913a5.828,5.828,0,0,1,2.731-3.857c5.612-3.644,18.249-1.674,21.325-.944a1.58,1.58,0,1,1-.726,3.075c-4.477-1.055-14.947-2.022-18.881.522a2.755,2.755,0,0,0-1.343,1.8,2.668,2.668,0,0,0,.179,2.149c.746.791,3.437.448,4.32.331a32.354,32.354,0,0,1,14.58,1.455,1.582,1.582,0,0,1-.51,3.079Z" transform="translate(-670.637 -786.526)" fill="#13202f"/>
              </g>
              <path id="パス_1984" data-name="パス 1984" d="M691.662,792.187a1.9,1.9,0,0,1-.591-3.7,5.555,5.555,0,0,0,3.738-5.079A1.9,1.9,0,0,1,696.7,781.5h.011a1.9,1.9,0,0,1,1.9,1.887,9.36,9.36,0,0,1-6.35,8.705A1.891,1.891,0,0,1,691.662,792.187Z" transform="translate(-662.239 -776.671)" fill="#13202f"/>
            </g>
            <path id="パス_1985" data-name="パス 1985" d="M709.548,406.241a2.053,2.053,0,0,1-1.512-.664c-9.461-10.279-17.09-25.648-18.556-37.372a2.056,2.056,0,0,1,4.079-.513c1.369,10.959,8.566,25.395,17.5,35.1a2.056,2.056,0,0,1-1.512,3.449Z" transform="translate(-615.219 -264.795)" fill="#13202f"/>
            <path id="パス_1986" data-name="パス 1986" d="M708.1,406.19a2.057,2.057,0,0,1-1.425-3.538c7.056-6.782,16.321-25.41,18.087-34.361a2.055,2.055,0,1,1,4.033.8c-1.914,9.7-11.6,29.158-19.27,36.53A2.057,2.057,0,0,1,708.1,406.19Z" transform="translate(-612.077 -264.655)" fill="#13202f"/>
            <path id="パス_1987" data-name="パス 1987" d="M721.646,476.9a1.9,1.9,0,0,1-.05-3.792c7.665-.207,20.479-1.426,26.636-2.013l.484-.046a1.9,1.9,0,0,1,.358,3.779l-.483.046c-6.2.59-19.1,1.815-26.893,2.026Z" transform="translate(-609.479 -244.864)" fill="#13202f"/>
            <path id="パス_1988" data-name="パス 1988" d="M696.35,477.484c-10.6,0-18.232-.577-26.312-1.192l-1.69-.126a1.9,1.9,0,0,1,.284-3.786l1.693.13c8.007.609,15.568,1.184,26.025,1.184a1.9,1.9,0,1,1,0,3.791Z" transform="translate(-619.555 -244.611)" fill="#13202f"/>
            <path id="パス_1989" data-name="パス 1989" d="M756.727,552.783a2.058,2.058,0,0,1-2.053-2,149.222,149.222,0,0,0-3.138-27.38c-.294-1.54-.588-3.084-.87-4.675a2.054,2.054,0,1,1,4.044-.722c.284,1.575.573,3.1.864,4.631a154.675,154.675,0,0,1,3.209,28.035,2.054,2.054,0,0,1-2,2.109A.44.44,0,0,1,756.727,552.783Z" transform="translate(-603.625 -236.283)" fill="#13202f"/>
            <path id="パス_1990" data-name="パス 1990" d="M757.471,564.151a2.056,2.056,0,0,1-1.69-3.224,28.185,28.185,0,0,0,4.784-18.351,2.054,2.054,0,1,1,4.091-.383,32.345,32.345,0,0,1-5.491,21.069A2.056,2.056,0,0,1,757.471,564.151Z" transform="translate(-602.718 -231.73)" fill="#13202f"/>
            <path id="パス_1991" data-name="パス 1991" d="M721.791,421.784c-.291,0-.575,0-.849-.006a1.9,1.9,0,0,1-1.875-1.918,2.007,2.007,0,0,1,1.921-1.875c4.609.068,11.787-.407,18.081-.811,2.918-.189,5.685-.368,8-.485a1.9,1.9,0,0,1,.188,3.792c-2.3.114-5.049.29-7.946.478C733.319,421.349,726.569,421.784,721.791,421.784Z" transform="translate(-609.608 -255.167)" fill="#fff"/>
            <path id="パス_1992" data-name="パス 1992" d="M734.9,422.734a1.9,1.9,0,0,1-1.893-1.794c-.289-5.346-.247-10.394-.207-15.276.048-5.755.09-11.19-.373-16.906l-.123-1.54c-.784-9.936-1.461-18.514-11.712-24.125a1.9,1.9,0,0,1,1.822-3.328c12.05,6.595,12.875,17.047,13.673,27.154l.123,1.532c.478,5.885.433,11.4.384,17.245-.039,4.827-.081,9.814.2,15.041a1.9,1.9,0,0,1-1.793,2Z" transform="translate(-609.505 -266.001)" fill="#f03748"/>
            <path id="パス_1993" data-name="パス 1993" d="M740.267,422.266a1.9,1.9,0,0,1-1.873-1.62,35.083,35.083,0,0,0-18.118-25.468c-2.781-1.464-6.027-2.869-9.464-4.355-8.3-3.594-17.715-7.663-23.227-14-2.583-2.97-3.5-6.583-2.448-9.665,1.107-3.255,4.236-5.555,8.807-6.475a1.9,1.9,0,1,1,.751,3.717c-3.193.646-5.313,2.057-5.967,3.98-.609,1.788.033,4.015,1.719,5.954,4.946,5.685,13.938,9.572,21.871,13.005,3.507,1.517,6.818,2.949,9.727,4.483a38.94,38.94,0,0,1,20.1,28.273,1.9,1.9,0,0,1-1.6,2.152A2.2,2.2,0,0,1,740.267,422.266Z" transform="translate(-616.121 -265.79)" fill="#f03748"/>
            <path id="パス_1994" data-name="パス 1994" d="M693.31,376.521a3.161,3.161,0,0,1-2.156-5.474c3.177-2.964,2.617-11.8.508-14.859l-.316-.46c-4.282-6.221-7.981-11.595-9.339-19.292a3.162,3.162,0,0,1,6.228-1.1c1.119,6.345,4.3,10.962,8.32,16.8l.316.463c3.6,5.232,4.406,17.647-1.4,23.07A3.15,3.15,0,0,1,693.31,376.521Z" transform="translate(-616.642 -271.083)" fill="#13202f"/>
            <path id="パス_1995" data-name="パス 1995" d="M723.687,376.242a3.151,3.151,0,0,1-2.391-1.092c-5.449-6.294-4.463-15.662-.673-21.665a61.446,61.446,0,0,0,7.491-16.937,3.163,3.163,0,0,1,6.118,1.606,68.068,68.068,0,0,1-8.26,18.709c-2.485,3.931-3.29,10.228.1,14.149a3.161,3.161,0,0,1-2.389,5.23Z" transform="translate(-609.906 -270.804)" fill="#13202f"/>
            <path id="パス_1996" data-name="パス 1996" d="M720.884,415.643a1.9,1.9,0,0,1-.165-3.785c2.6-.232,7.551-.47,12.339-.7,4.752-.228,9.666-.469,12.192-.691a1.9,1.9,0,1,1,.334,3.779c-2.6.232-7.552.47-12.34.7-4.752.228-9.665.469-12.192.691A1.586,1.586,0,0,1,720.884,415.643Z" transform="translate(-609.623 -256.348)" fill="#13202f"/>
            <g id="グループ_2174" data-name="グループ 2174" transform="translate(110.938 234.038)">
              <path id="パス_1997" data-name="パス 1997" d="M721.892,482.265a1.581,1.581,0,0,1-.039-3.162l1.374-.037.24,1.575.044,1.581-1.581.043Z" transform="translate(-720.311 -477.381)" fill="#13202f"/>
              <path id="パス_1998" data-name="パス 1998" d="M728.049,482.154a1.582,1.582,0,0,1-.068-3.162c1.047-.043,2.111-.1,3.181-.155a1.542,1.542,0,0,1,1.664,1.492,1.58,1.58,0,0,1-1.492,1.664c-1.081.058-2.155.112-3.214.16Zm8.949-.5a1.581,1.581,0,0,1-.106-3.158l3.179-.228a1.526,1.526,0,0,1,1.7,1.451,1.577,1.577,0,0,1-1.454,1.7l-3.208.236C737.07,481.657,737.033,481.657,737,481.657Z" transform="translate(-719.143 -477.536)" fill="#13202f"/>
              <path id="パス_1999" data-name="パス 1999" d="M743.1,481a1.581,1.581,0,0,1-.176-3.152l1.524-.186a1.582,1.582,0,0,1,.418,3.137c-.5.065-1.027.127-1.586.191C743.217,481,743.157,481,743.1,481Z" transform="translate(-716.291 -477.649)" fill="#13202f"/>
            </g>
            <g id="グループ_2175" data-name="グループ 2175" transform="translate(47.032 235.107)">
              <path id="パス_2000" data-name="パス 2000" d="M669.727,481.968a1.586,1.586,0,0,1-.247-.019c-.544-.086-1.076-.175-1.6-.268a1.582,1.582,0,0,1-1.271-1.84,1.6,1.6,0,0,1,1.839-1.273c.494.093,1,.176,1.518.257a1.581,1.581,0,0,1-.244,3.143Z" transform="translate(-666.588 -478.548)" fill="#13202f"/>
              <path id="パス_2001" data-name="パス 2001" d="M687.767,483.209h-.021c-1.13-.016-2.3-.04-3.481-.077a1.583,1.583,0,0,1-1.53-1.631,1.55,1.55,0,0,1,1.63-1.531c1.165.037,2.313.061,3.424.076a1.582,1.582,0,0,1-.021,3.163Zm-9.661-.381c-.036,0-.071,0-.107,0-1.171-.077-2.335-.17-3.483-.275a1.582,1.582,0,1,1,.29-3.15c1.123.1,2.26.192,3.4.269a1.581,1.581,0,0,1-.1,3.158Z" transform="translate(-665.357 -478.387)" fill="#13202f"/>
              <path id="パス_2002" data-name="パス 2002" d="M690.924,483.089a1.581,1.581,0,0,1-.036-3.162l1.548-.046a1.652,1.652,0,0,1,1.638,1.523,1.581,1.581,0,0,1-1.521,1.639l-1.593.046Z" transform="translate(-662.275 -478.295)" fill="#13202f"/>
            </g>
            <path id="パス_2003" data-name="パス 2003" d="M682.506,810.836c-4.724,0-10.164-1.093-12.52-3.656a4.143,4.143,0,0,1-1.165-3.366,1.264,1.264,0,1,1,2.51.309,1.6,1.6,0,0,0,.518,1.345c1.676,1.826,6.6,2.987,11.672,2.819,7.738-.283,10.7-1.059,13.191-3.455a1.265,1.265,0,1,1,1.755,1.821c-3.35,3.218-7.288,3.885-14.852,4.16C683.251,810.83,682.88,810.836,682.506,810.836Z" transform="translate(-619.138 -181.998)" fill="#13202f"/>
            <path id="パス_2004" data-name="パス 2004" d="M734.015,810.97c-.673,0-1.338-.019-1.993-.05-3.556-.176-9.826-1-11.866-4.539a1.264,1.264,0,1,1,2.192-1.26c1.021,1.773,4.774,3.026,9.8,3.274,7,.333,14.308-1.359,15.99-3.715a1.265,1.265,0,0,1,2.059,1.47C747.866,809.411,740.633,810.97,734.015,810.97Z" transform="translate(-609.434 -181.724)" fill="#13202f"/>
          </g>
        </g>
      </g>
    </g>
  </g>
</svg>
