<svg xmlns="http://www.w3.org/2000/svg" width="316" height="184" viewBox="0 0 316 184">
  <g id="グループ_2153" data-name="グループ 2153" transform="translate(842 -6994.571)">
    <path id="パス_1861" data-name="パス 1861" d="M20,0H296a20,20,0,0,1,20,20V164a20,20,0,0,1-20,20H20A20,20,0,0,1,0,164V20A20,20,0,0,1,20,0Z" transform="translate(-842 6994.571)" fill="#fff"/>
    <path id="パス_1869" data-name="パス 1869" d="M0,0H126.882" transform="translate(-769.441 7150.996)" fill="none" stroke="#16202e" stroke-linecap="round" stroke-width="3.5"/>
    <g id="パス_1862" data-name="パス 1862" transform="translate(-758.6 7030.94)" fill="#bfbfbf">
      <path d="M 47.23595809936523 119.5102996826172 L 1.750008583068848 119.5102996826172 L 1.750008583068848 7 C 1.750008583068848 4.105133056640625 4.105142116546631 1.74999988079071 7.000008583068848 1.74999988079071 L 41.98595809936523 1.74999988079071 C 44.88082504272461 1.74999988079071 47.23595809936523 4.105133056640625 47.23595809936523 7 L 47.23595809936523 119.5102996826172 Z" stroke="none"/>
      <path d="M 6.999992370605469 3.500007629394531 C 5.070083618164062 3.500007629394531 3.499992370605469 5.070098876953125 3.499992370605469 7.000007629394531 L 3.499992370605469 117.7602920532227 L 45.48595809936523 117.7602920532227 L 45.48595809936523 7.000007629394531 C 45.48595809936523 5.070098876953125 43.91586685180664 3.500007629394531 41.98595809936523 3.500007629394531 L 6.999992370605469 3.500007629394531 M 6.999992370605469 7.62939453125e-06 L 41.98595809936523 7.62939453125e-06 C 45.8519401550293 7.62939453125e-06 48.98595809936523 3.134002685546875 48.98595809936523 7.000007629394531 L 48.98595809936523 121.2602920532227 L -7.62939453125e-06 121.2602920532227 L -7.62939453125e-06 7.000007629394531 C -7.62939453125e-06 3.134002685546875 3.134010314941406 7.62939453125e-06 6.999992370605469 7.62939453125e-06 Z" stroke="none" fill="#16202e"/>
    </g>
    <g id="パス_1868" data-name="パス 1868" transform="translate(-701.583 7091.972)" fill="#f03748">
      <path d="M 47.23595428466797 58.47862243652344 L 1.75000524520874 58.47862243652344 L 1.75000524520874 7.000003337860107 C 1.75000524520874 4.105143070220947 4.105145454406738 1.750003099441528 7.00000524520874 1.750003099441528 L 41.98595428466797 1.750003099441528 C 44.88081359863281 1.750003099441528 47.23595428466797 4.105143070220947 47.23595428466797 7.000003337860107 L 47.23595428466797 58.47862243652344 Z" stroke="none"/>
      <path d="M 6.999996185302734 3.500003814697266 C 5.070087432861328 3.500003814697266 3.499996185302734 5.070091247558594 3.499996185302734 7.000003814697266 L 3.499996185302734 56.72862243652344 L 45.48595428466797 56.72862243652344 L 45.48595428466797 7.000003814697266 C 45.48595428466797 5.070091247558594 43.91586303710938 3.500003814697266 41.98595428466797 3.500003814697266 L 6.999996185302734 3.500003814697266 M 6.999996185302734 3.814697265625e-06 L 41.98595428466797 3.814697265625e-06 C 45.8519401550293 3.814697265625e-06 48.98595428466797 3.134002685546875 48.98595428466797 7.000003814697266 L 48.98595428466797 60.22862243652344 L -3.814697265625e-06 60.22862243652344 L -3.814697265625e-06 7.000003814697266 C -3.814697265625e-06 3.134002685546875 3.134010314941406 3.814697265625e-06 6.999996185302734 3.814697265625e-06 Z" stroke="none" fill="#16202e"/>
    </g>
    <path id="パス_1863" data-name="パス 1863" d="M0,0H66.106" transform="translate(-707.606 7031.342)" fill="none" stroke="#16202e" stroke-linecap="round" stroke-width="3" stroke-dasharray="0 6"/>
    <path id="パス_1610" data-name="パス 1610" d="M-3760.5,6122.077v33.861" transform="translate(3084.213 920.168)" fill="none" stroke="#f03748" stroke-linecap="round" stroke-width="8"/>
    <path id="パス_1866" data-name="パス 1866" d="M8.342,2.714a2,2,0,0,1,3.392,0L18.164,13a2,2,0,0,1-1.7,3.06H3.608A2,2,0,0,1,1.912,13Z" transform="translate(-666.249 7087.154) rotate(180)" fill="#f03748"/>
    <path id="パス_1864" data-name="パス 1864" d="M44.344,0A44.344,44.344,0,1,1,0,44.344,44.344,44.344,0,0,1,44.344,0Z" transform="translate(-645 7030.94)" fill="#f7ac00"/>
    <path id="パス_1865" data-name="パス 1865" d="M-2.436-22.344H-15.26v12.6h3.332A4.206,4.206,0,0,1-8.9-10.836c2.352,0,4.2,1.4,4.2,3.752,0,1.232-.644,3.92-5.04,3.92A10.584,10.584,0,0,1-15.624-4.9l-1.008,3.64A14.774,14.774,0,0,0-9.688.448c6.5,0,8.932-4,8.932-7.56,0-4.284-3.332-7.28-7.868-7.28a8.961,8.961,0,0,0-2.912.476v-4.816h9.1ZM8.68.448c8.008,0,8.008-9.548,8.008-11.62,0-2.044,0-11.62-8.008-11.62a7.136,7.136,0,0,0-6.132,3.248C1.372-17.724.672-15.12.672-11.172.672-9.128.672.448,8.68.448Zm0-3.612c-2.968,0-4.06-3.164-4.06-8.008,0-4.424.9-8.008,4.06-8.008,2.968,0,4.06,3.192,4.06,8.008C12.74-6.58,11.76-3.164,8.68-3.164Z" transform="translate(-608.386 7077.934)" fill="#fff"/>
    <path id="パス_1870" data-name="パス 1870" d="M-6.834-10.132a3.418,3.418,0,0,0,3.3,3.723,3.418,3.418,0,0,0,3.3-3.723,3.412,3.412,0,0,0-3.3-3.706A3.412,3.412,0,0,0-6.834-10.132Zm1.819,0c0-1.5.765-2.159,1.479-2.159.663,0,1.462.595,1.462,2.159,0,1.547-.782,2.176-1.462,2.176C-4.25-7.956-5.015-8.619-5.015-10.132Zm5.253,6.7A3.4,3.4,0,0,0,3.536.272a3.412,3.412,0,0,0,3.3-3.706,3.412,3.412,0,0,0-3.3-3.706A3.4,3.4,0,0,0,.238-3.434Zm1.819,0c0-1.428.714-2.159,1.479-2.159C4.216-5.593,5-4.981,5-3.434S4.216-1.275,3.536-1.275C2.8-1.275,2.057-1.955,2.057-3.434ZM-5.372,0h1.394l9.35-13.566H3.978Z" transform="translate(-581.065 7077.788)" fill="#fff"/>
    <path id="パス_1867" data-name="パス 1867" d="M-13.024-9.424H-16.1V1.424h1.888V-2.288h4.256V-.816c0,.288-.032.368-.512.368H-12.24l.384,1.872h2.368c1.3,0,1.424-.816,1.424-1.536V-9.424h-3.1v-4.192h-1.856ZM-9.952-7.76v1.1h-4.256v-1.1Zm0,2.688v1.184h-4.256V-5.072Zm4.7,2.7V-12.656H-7.12V-2.368ZM-16.624-12.8a13.462,13.462,0,0,1,1.056,3.008l1.824-.512a17.79,17.79,0,0,0-1.12-3.024Zm7.168-.544a12.089,12.089,0,0,1-1.1,3.008l1.728.544A15.3,15.3,0,0,0-7.648-12.88ZM-4.128-1.056c0,.352,0,.464-.432.464H-6.528l.368,2.016h2.544A1.263,1.263,0,0,0-2.224.064v-13.68h-1.9ZM11.68-6.384H7.9v5.328h2.88A10.186,10.186,0,0,1,9.152-.032L10.3,1.488A11.251,11.251,0,0,0,13.232-.8c.128.416.72,2.3,1.84,2.3,1.056,0,1.76-1.7,1.968-2.192L16.1-2.4c-.144.368-.544,1.344-.8,1.344-.288,0-.48-.8-.672-1.664a18.875,18.875,0,0,0,2.128-5.792L15.12-9.088a21.262,21.262,0,0,1-.96,3.376c-.144-1.488-.256-2.656-.272-4.112h2.848v-1.84h-.624l.832-.736a10.46,10.46,0,0,0-1.68-1.376l-1.136.976a15.579,15.579,0,0,1,1.312,1.136h-1.6c0-.3-.016-1.664-.016-1.936H12.048c0,.256.016,1.3.032,1.936H5.616V-5.68a10.736,10.736,0,0,1-1.408,6L5.888,1.5C7.184-.48,7.44-3.024,7.44-5.584v-4.24h4.672A47.741,47.741,0,0,0,12.7-2.992,7.033,7.033,0,0,1,11.68-1.84ZM10.272-4.928v2.416H9.3V-4.928ZM1.936-11.952a12.479,12.479,0,0,1,2.5,1.6L5.584-12a12,12,0,0,0-2.528-1.5ZM1.472-7.776A13.693,13.693,0,0,1,3.856-6.192L4.992-7.744A11.489,11.489,0,0,0,2.464-9.3ZM3.52-5.216A19.569,19.569,0,0,1,1.344-.208L2.8,1.36A23.8,23.8,0,0,0,5.12-4.3ZM7.7-7.264H11.84V-8.928H7.7Z" transform="translate(-600.437 7097.781)" fill="#fff"/>
  </g>
</svg>
