<svg xmlns="http://www.w3.org/2000/svg" xmlns:xlink="http://www.w3.org/1999/xlink" width="321" height="190" viewBox="0 0 321 190">
  <defs>
    <clipPath id="clip-path">
      <rect id="長方形_495" data-name="長方形 495" width="321" height="190" rx="20" transform="translate(-3835 1766)" fill="#fff"/>
    </clipPath>
  </defs>
  <g id="マスクグループ_83" data-name="マスクグループ 83" transform="translate(3835 -1766)" clip-path="url(#clip-path)">
    <g id="グループ_2151" data-name="グループ 2151" transform="translate(-4674 133)">
      <circle id="楕円形_123" data-name="楕円形 123" cx="12" cy="12" r="12" transform="translate(872.34 1633.051) rotate(8)" fill="#fff"/>
      <circle id="楕円形_124" data-name="楕円形 124" cx="10" cy="10" r="10" transform="translate(902.977 1654.431) rotate(8)" fill="#fff"/>
    </g>
    <g id="グループ_2155" data-name="グループ 2155" transform="translate(-3915.514 1255.731)">
      <g id="グループ_1663" data-name="グループ 1663" transform="translate(128.667 604.878)">
        <g id="グループ_1660" data-name="グループ 1660" transform="translate(28.179 16.591)">
          <path id="パス_1645" data-name="パス 1645" d="M176.764,677.8c6.371-2.13,11.905-3.941,18.285-6.046q6.06-2,12.124-3.994c.1-.033.2-.069.232-.079" transform="translate(-175.608 -666.529)" fill="#fff"/>
          <path id="パス_1646" data-name="パス 1646" d="M176.1,678.3a1.156,1.156,0,0,1-.367-2.253c4.7-1.57,8.938-2.967,13.4-4.435L194.027,670q4.289-1.414,8.58-2.826l3.776-1.247a1.156,1.156,0,1,1,.725,2.2l-.229.078-3.549,1.168q-4.29,1.412-8.578,2.826l-4.893,1.612c-4.456,1.468-8.695,2.863-13.388,4.432A1.154,1.154,0,0,1,176.1,678.3Z" transform="translate(-174.947 -665.868)"/>
        </g>
        <g id="グループ_1661" data-name="グループ 1661" transform="translate(27.722 26.3)">
          <path id="パス_1647" data-name="パス 1647" d="M176.047,693.059c6.371-2.13,11.905-3.94,18.285-6.045q6.061-2,12.124-3.993l.232-.079" transform="translate(-174.891 -681.786)" fill="#fff"/>
          <path id="パス_1648" data-name="パス 1648" d="M175.386,693.555a1.156,1.156,0,0,1-.367-2.253c4.7-1.571,8.938-2.967,13.4-4.435l4.892-1.612q4.289-1.415,8.579-2.826l3.776-1.246a1.156,1.156,0,1,1,.725,2.2l-.229.078-3.549,1.168q-4.289,1.412-8.578,2.826l-4.892,1.612c-4.457,1.467-8.7,2.862-13.388,4.432A1.158,1.158,0,0,1,175.386,693.555Z" transform="translate(-174.23 -681.125)"/>
        </g>
        <path id="パス_1649" data-name="パス 1649" d="M157.09,668.256a1.149,1.149,0,0,1-.72-.253,102.448,102.448,0,0,1-23.416-26.444,1.156,1.156,0,1,1,1.969-1.212A100.116,100.116,0,0,0,157.812,666.2a1.156,1.156,0,0,1-.722,2.06Z" transform="translate(-131.436 -639.797)"/>
        <path id="パス_1650" data-name="パス 1650" d="M156.523,676.945a1.147,1.147,0,0,1-.695-.234,102.435,102.435,0,0,1-24.128-25.8,1.156,1.156,0,0,1,1.935-1.265,100.134,100.134,0,0,0,23.584,25.216,1.156,1.156,0,0,1-.7,2.079Z" transform="translate(-130.974 -643.19)"/>
        <g id="グループ_1662" data-name="グループ 1662" transform="translate(27.722 21.47)">
          <path id="パス_1651" data-name="パス 1651" d="M176.047,685.469c6.371-2.131,11.905-3.94,18.285-6.046q6.061-2,12.124-3.993l.232-.079" transform="translate(-174.891 -674.196)" fill="#fff"/>
          <path id="パス_1652" data-name="パス 1652" d="M175.386,685.965a1.156,1.156,0,0,1-.367-2.253c4.7-1.571,8.938-2.967,13.4-4.436l4.892-1.611q4.289-1.415,8.579-2.826l3.776-1.246a1.156,1.156,0,1,1,.725,2.2l-.229.078-3.549,1.168q-4.289,1.412-8.578,2.825l-4.892,1.613c-4.457,1.467-8.7,2.862-13.388,4.432A1.159,1.159,0,0,1,175.386,685.965Z" transform="translate(-174.23 -673.535)"/>
        </g>
        <path id="パス_1653" data-name="パス 1653" d="M155.838,686.125a1.145,1.145,0,0,1-.7-.24c-10.352-7.962-18.51-16.045-24.249-24.024a1.156,1.156,0,1,1,1.877-1.35c5.608,7.8,13.609,15.717,23.782,23.542a1.156,1.156,0,0,1-.706,2.072Z" transform="translate(-130.667 -647.155)"/>
      </g>
      <path id="パス_1654" data-name="パス 1654" d="M177.7,679.51c.065.022.292.1.521.177q13.6,4.478,27.209,8.955,21.476,7.081,42.936,14.206a2.6,2.6,0,0,0,2.85-.554,226.226,226.226,0,0,0,51.412-59.149c1.086-1.8,2.116-3.636,3.221-5.539-.534-.135-.912-.236-1.292-.326q-18.334-4.356-36.668-8.713-11.733-2.8-23.456-5.638a1.48,1.48,0,0,0-1.67.5,353.933,353.933,0,0,1-52.512,47.2C186.124,673.652,181.9,676.545,177.7,679.51Z" transform="translate(-17.103 -26.759)" fill="#fff"/>
      <g id="グループ_1665" data-name="グループ 1665" transform="translate(156.479 593.287)">
        <path id="パス_1655" data-name="パス 1655" d="M289.679,629.767c4.7,1.158,9.422,2.267,14.141,3.363,2.888.67,3.642,2.294,2.177,4.874a228.036,228.036,0,0,1-55.47,65.274,3.944,3.944,0,0,1-4.147.786c-10.311-3.454-20.643-6.846-30.97-10.252q-12.117-4-24.238-7.978-8.334-2.748-16.662-5.513a2.537,2.537,0,0,1-1.865-2.268,2.652,2.652,0,0,1,1.307-2.642c3.566-2.333,7.213-4.555,10.668-7.042a350.974,350.974,0,0,0,54.584-48.718,3.11,3.11,0,0,1,3.337-1.094ZM175.857,677.9c.065.022.292.1.521.177q13.6,4.478,27.209,8.955,21.476,7.081,42.936,14.206a2.6,2.6,0,0,0,2.85-.554,226.226,226.226,0,0,0,51.412-59.149c1.086-1.8,2.116-3.636,3.221-5.539-.534-.135-.912-.236-1.292-.326q-18.334-4.356-36.668-8.713-11.733-2.8-23.456-5.638a1.48,1.48,0,0,0-1.67.5,353.927,353.927,0,0,1-52.512,47.2C184.279,672.046,180.054,674.939,175.857,677.9Z" transform="translate(-171.738 -618.44)"/>
        <g id="グループ_1664" data-name="グループ 1664" transform="translate(0 20.469)">
          <path id="パス_1656" data-name="パス 1656" d="M355.6,663.47c-.952,1.869-1.935,3.893-3,5.873-7.5,13.965-17.268,26.219-28.367,37.45a203.41,203.41,0,0,1-30.52,25.411,6.442,6.442,0,0,1-.715.474,1.317,1.317,0,0,1-1.814-.4,1.262,1.262,0,0,1,.251-1.824,10.029,10.029,0,0,1,.964-.679A195.867,195.867,0,0,0,341.277,682.3a123.8,123.8,0,0,0,11.458-19.33,6.386,6.386,0,0,1,.382-.767,1.27,1.27,0,0,1,1.67-.559C355.549,661.942,355.741,662.555,355.6,663.47Z" transform="translate(-214.745 -654.575)"/>
          <path id="パス_1657" data-name="パス 1657" d="M356.348,678.409c-1.014,1.843-2.066,3.84-3.2,5.792-7.972,13.763-18.144,25.756-29.617,36.693A205.807,205.807,0,0,1,292.17,745.5a6.568,6.568,0,0,1-.731.456,1.313,1.313,0,0,1-1.8-.449,1.265,1.265,0,0,1,.312-1.816,10,10,0,0,1,.986-.654,198.13,198.13,0,0,0,50.46-46.184,125,125,0,0,0,12.1-19.022,6.487,6.487,0,0,1,.407-.757,1.278,1.278,0,0,1,1.689-.516C356.349,676.88,356.521,677.5,356.348,678.409Z" transform="translate(-214.193 -659.994)"/>
          <path id="パス_1658" data-name="パス 1658" d="M353.8,652.55c-.65,1.21-1.387,2.638-2.176,4.038-13.188,23.436-30.114,43.71-51.566,60.147-1.736,1.331-3.524,2.6-5.3,3.869-.887.635-1.693.582-2.192-.083s-.272-1.531.638-2.174c24.714-17.482,43.618-39.959,57.833-66.465.361-.673.7-1.366,1.656-1.268C353.551,650.7,354.059,651.448,353.8,652.55Z" transform="translate(-215.252 -650.605)"/>
          <path id="パス_1659" data-name="パス 1659" d="M244.129,746.749q-14.236-4.787-28.474-9.572-11.537-3.866-23.084-7.7-10.062-3.35-20.127-6.7c-1.025-.342-1.426-1.019-1.109-1.858.357-.948,1.086-1.044,1.94-.76q8.736,2.9,17.47,5.813,10.469,3.494,20.933,7,15.619,5.24,31.234,10.492c.953.32,1.911.626,2.854.971.971.356,1.334.992,1.031,1.794-.336.888-1.016,1.025-1.844.767Z" transform="translate(-171.229 -675.848)"/>
          <path id="パス_1660" data-name="パス 1660" d="M209.055,746.705,174.161,735.29c-1.11-.363-1.542-1.015-1.238-1.875.287-.813,1-1.062,2.049-.72q18.627,6.079,37.254,12.157,16.22,5.3,32.432,10.629c1.138.374,1.557,1.116,1.122,1.991a1.325,1.325,0,0,1-1.825.626q-9.264-3.018-18.53-6.031-8.187-2.675-16.367-5.371Z" transform="translate(-171.81 -680.402)"/>
          <path id="パス_1661" data-name="パス 1661" d="M208.23,757.967l-34.874-11.473c-1.11-.365-1.541-1.018-1.236-1.877.288-.813,1.007-1.06,2.051-.717q18.617,6.109,37.234,12.218,16.211,5.329,32.414,10.682c1.138.375,1.556,1.118,1.119,1.993a1.324,1.324,0,0,1-1.826.623q-9.259-3.034-18.52-6.063-8.183-2.687-16.359-5.4Z" transform="translate(-171.518 -684.476)"/>
        </g>
        <path id="パス_1662" data-name="パス 1662" d="M238.4,704.976c9.061,2.611,17.815,5.132,26.568,7.657,1.081.312,1.593,1.026,1.34,1.838s-1.022,1.11-2.143.787q-17.054-4.927-34.106-9.865-9.146-2.645-18.295-5.289c-.964-.28-1.4-.957-1.126-1.739a1.305,1.305,0,0,1,1.807-.857c.207.059.416.113.622.172q12.508,3.608,25.017,7.216A2.388,2.388,0,0,0,238.4,704.976Z" transform="translate(-185.53 -647.158)"/>
        <path id="パス_1663" data-name="パス 1663" d="M265.71,646.915c11.919,3.729,23.831,7.481,35.761,11.176,5.072,1.571,10.181,3.028,15.275,4.528,1.317.388,1.809.967,1.548,1.882s-1.19,1.214-2.438.829c-2.845-.876-5.693-1.739-8.534-2.624q-18.554-5.779-37.1-11.57c-1.987-.62-3.98-1.226-5.951-1.892-1.136-.384-1.5-1.346-.888-2.166a1.376,1.376,0,0,1,1.735-.423c.2.071.416.108.625.161Z" transform="translate(-204.631 -628.651)"/>
        <path id="パス_1664" data-name="パス 1664" d="M230.343,685.431c11.366,3.571,22.725,7.167,34.1,10.7,5.449,1.691,10.937,3.259,16.407,4.882.206.061.417.108.622.172a1.281,1.281,0,0,1,1.037,1.525,1.26,1.26,0,0,1-1.543,1.142,13.874,13.874,0,0,1-2.044-.58q-17.916-5.466-35.828-10.945c-4.9-1.511-9.775-3.128-14.654-4.717-1.046-.34-1.493-1.2-.944-1.95a2.187,2.187,0,0,1,1.415-.658,4.487,4.487,0,0,1,1.456.332Z" transform="translate(-191.605 -642.641)"/>
        <path id="パス_1665" data-name="パス 1665" d="M266.871,684.111q-12.542-3.52-25.082-7.045c-1.3-.367-1.814-1.576-.907-2.266a2.436,2.436,0,0,1,1.863-.228c5.785,1.564,11.551,3.2,17.324,4.808q15.919,4.439,31.839,8.872c.346.1.683.22,1.03.312a1.252,1.252,0,0,1,1.032,1.693,1.284,1.284,0,0,1-1.787.89q-3.476-.958-6.952-1.924-9.178-2.561-18.354-5.128Z" transform="translate(-196.39 -638.821)"/>
        <path id="パス_1666" data-name="パス 1666" d="M303.432,643.027q12.587,3.521,25.173,7.041c.88.246,1.419.7,1.212,1.688-.185.876-.878,1.227-1.942.931q-12.955-3.6-25.9-7.228-11.813-3.294-23.628-6.578c-.345-.1-.688-.2-1.026-.318a1.265,1.265,0,0,1-.942-1.667,1.282,1.282,0,0,1,1.772-.913c2.419.672,4.833,1.358,7.251,2.031Q294.413,640.524,303.432,643.027Z" transform="translate(-209.437 -624.789)"/>
        <path id="パス_1667" data-name="パス 1667" d="M280.34,670.423q-11.626-3.549-23.254-7.1c-.206-.063-.415-.116-.618-.185a1.424,1.424,0,0,1-1.117-1.777,1.457,1.457,0,0,1,1.945-.837c1.445.425,2.881.876,4.322,1.315q12.553,3.827,25.108,7.653,8.9,2.713,17.8,5.424c1.256.383,1.753,1.229,1.245,2.115a1.407,1.407,0,0,1-1.866.563q-7.559-2.318-15.128-4.609Q284.559,671.707,280.34,670.423Z" transform="translate(-201.794 -633.712)"/>
      </g>
      <g id="グループ_1666" data-name="グループ 1666" transform="translate(130.497 591.176)">
        <path id="パス_1668" data-name="パス 1668" d="M186.872,641.369a157.708,157.708,0,0,1-23.4-21.033.66.66,0,0,0-.745-.223q-5.224,1.266-10.453,2.512-8.168,1.946-16.339,3.883c-.17.04-.338.085-.576.145.492.848.951,1.665,1.435,2.468A100.822,100.822,0,0,0,159.7,655.482a1.158,1.158,0,0,0,1.27.246q9.557-3.193,19.134-6.33,6.061-2,12.125-3.991l.232-.079C190.6,644.007,188.712,642.717,186.872,641.369Z" transform="translate(-134.203 -618.926)" fill="#fff"/>
        <path id="パス_1669" data-name="パス 1669" d="M159.838,656.312a2.364,2.364,0,0,1-1.522-.594,102.451,102.451,0,0,1-23.171-26.659c-.335-.554-.657-1.115-.986-1.688l-.459-.8a1.156,1.156,0,0,1,.715-1.7l.206-.053c.143-.037.264-.068.384-.1l5.45-1.294q5.447-1.293,10.893-2.589,5.225-1.246,10.448-2.511a1.8,1.8,0,0,1,1.871.568,157.333,157.333,0,0,0,23.229,20.879h0c1.249.914,2.545,1.822,3.8,2.7q.889.622,1.778,1.248a1.156,1.156,0,0,1-.3,2.042l-.23.078-3.371,1.109q-4.379,1.44-8.756,2.883l-2.925.964q-8.106,2.671-16.205,5.365A2.639,2.639,0,0,1,159.838,656.312Zm-23.369-29.559c.217.375.433.746.654,1.112a100.139,100.139,0,0,0,22.65,26.059c.043.035.074.057.095.071.018,0,.045-.012.08-.023q8.1-2.706,16.214-5.368l2.924-.964q4.379-1.444,8.758-2.883l1.413-.465c-1.229-.86-2.5-1.748-3.728-2.65h0a159.575,159.575,0,0,1-23.411-21.01q-5.13,1.243-10.235,2.46-5.447,1.3-10.895,2.589Z" transform="translate(-133.543 -618.265)"/>
      </g>
      <g id="グループ_1671" data-name="グループ 1671" transform="translate(137.382 569.343)">
        <path id="パス_1680" data-name="パス 1680" d="M203.653,608.9a175.061,175.061,0,0,1-26.406-22.856.732.732,0,0,0-.831-.232q-5.771,1.513-11.548,3-9.025,2.329-18.054,4.648c-.187.048-.373.1-.636.173.564.931,1.09,1.829,1.644,2.71a111.916,111.916,0,0,0,25.973,28.778,1.286,1.286,0,0,0,1.415.247q10.541-3.743,21.1-7.423,6.686-2.343,13.374-4.68l.256-.092C207.839,611.75,205.722,610.359,203.653,608.9Z" transform="translate(-145.022 -584.616)" fill="#fff"/>
        <path id="パス_1681" data-name="パス 1681" d="M173.993,625.98a2.494,2.494,0,0,1-1.571-.6A113.569,113.569,0,0,1,146.183,596.3c-.381-.6-.748-1.217-1.123-1.842l-.531-.883a1.155,1.155,0,0,1,.684-1.714l.247-.068c.15-.041.277-.076.406-.11l6.018-1.548q6.017-1.547,12.034-3.1,5.775-1.49,11.544-3a1.883,1.883,0,0,1,1.964.555A174.657,174.657,0,0,0,203.658,607.3h0c1.41.994,2.873,1.977,4.287,2.927q.993.667,1.985,1.338a1.156,1.156,0,0,1-.249,2.041l-.272.1-4.46,1.56-8.915,3.121-3.056,1.071c-5.916,2.073-12.035,4.217-18.043,6.35A2.817,2.817,0,0,1,173.993,625.98ZM147.3,593.7c.278.463.554.918.838,1.369a111.271,111.271,0,0,0,25.707,28.484.892.892,0,0,0,.169.113s.052-.011.146-.045c6.012-2.134,12.133-4.279,18.052-6.352l3.056-1.072q4.458-1.562,8.917-3.121l2.541-.889-.071-.048c-1.425-.957-2.9-1.948-4.329-2.956h0a176.979,176.979,0,0,1-26.45-22.87q-5.712,1.5-11.381,2.96-6.018,1.553-12.036,3.1Z" transform="translate(-144.362 -583.957)"/>
      </g>
      <g id="グループ_1672" data-name="グループ 1672" transform="translate(266.397 637.345)">
        <path id="パス_1682" data-name="パス 1682" d="M345.629,703.3c.025.02.11.092.2.162q5.191,4.161,10.382,8.322,8.192,6.573,16.37,13.164a1.207,1.207,0,0,0,1.33.223A105.083,105.083,0,0,0,405.9,707.8c.766-.606,1.512-1.238,2.3-1.886-.21-.146-.358-.251-.509-.353q-7.268-4.877-14.536-9.755-4.65-3.124-9.288-6.268a.687.687,0,0,0-.808-.054,164.37,164.37,0,0,1-30.523,11.993C350.246,702.122,347.937,702.693,345.629,703.3Z" transform="translate(-344.564 -688.294)" fill="#fff"/>
        <path id="パス_1683" data-name="パス 1683" d="M372.753,725.741a2.269,2.269,0,0,1-1.466-.568q-6.871-5.557-13.771-11.079l-2.6-2.083q-3.364-2.7-6.73-5.4l-3.824-3.067a1.121,1.121,0,0,1-.387-1.086,1.083,1.083,0,0,1,.764-.832q1.1-.288,2.192-.57c1.544-.4,3.142-.811,4.7-1.249A164.093,164.093,0,0,0,381.953,687.9a1.766,1.766,0,0,1,1.913.122q4.636,3.141,9.284,6.265,4.945,3.323,9.891,6.639l4.645,3.116c.11.074.22.151.353.243l.171.119a1.085,1.085,0,0,1,.069,1.73l-.732.605c-.532.441-1.054.873-1.584,1.292a106.666,106.666,0,0,1-32.317,17.55A2.8,2.8,0,0,1,372.753,725.741Zm-25.368-22.552,2.163,1.733q3.366,2.7,6.731,5.4l2.6,2.083q6.9,5.533,13.777,11.084a.7.7,0,0,0,.128.088s.057-.011.172-.05a104.474,104.474,0,0,0,31.661-17.195c.392-.311.78-.627,1.17-.951l-3.951-2.651q-4.947-3.318-9.892-6.64-4.583-3.079-9.153-6.176A166.3,166.3,0,0,1,352.22,701.9c-1.576.444-3.185.86-4.741,1.261Z" transform="translate(-343.955 -687.674)"/>
      </g>
      <g id="グループ_1674" data-name="グループ 1674" transform="translate(6 -7)">
        <g id="グループ_1667" data-name="グループ 1667" transform="translate(287.714 568.738)">
          <path id="パス_1670" data-name="パス 1670" d="M431.747,603.385a160.557,160.557,0,0,1-23.823-21.413.672.672,0,0,0-.758-.226q-5.319,1.289-10.641,2.557-8.317,1.982-16.635,3.953c-.172.041-.344.087-.586.148.5.864.968,1.7,1.461,2.513a102.642,102.642,0,0,0,23.324,26.835,1.18,1.18,0,0,0,1.293.251q9.73-3.251,19.479-6.445,6.171-2.034,12.344-4.062c.1-.034.207-.07.237-.08C435.537,606.07,433.62,604.758,431.747,603.385Z" transform="translate(-378.126 -580.536)" fill="#fff"/>
          <path id="パス_1671" data-name="パス 1671" d="M404.223,618.6a2.4,2.4,0,0,1-1.55-.6,104.315,104.315,0,0,1-23.59-27.14c-.339-.563-.666-1.132-1-1.714l-.47-.816a1.176,1.176,0,0,1,.73-1.732l.234-.06c.136-.034.252-.064.368-.092l5.213-1.238q5.71-1.356,11.42-2.715,5.322-1.268,10.637-2.556a1.832,1.832,0,0,1,1.9.577,160.167,160.167,0,0,0,23.649,21.257h0c1.268.929,2.585,1.85,3.858,2.741q.911.636,1.82,1.276a1.176,1.176,0,0,1-.288,2.071c-.032.012-.147.052-.262.089l-15.441,5.084q-8.192,2.7-16.376,5.421A2.687,2.687,0,0,1,404.223,618.6Zm-23.79-30.092c.221.381.44.759.666,1.131a101.932,101.932,0,0,0,23.059,26.53c.044.035.075.058.1.071.019,0,.046-.012.082-.024q8.183-2.734,16.384-5.424l13.454-4.43c-1.251-.875-2.542-1.779-3.8-2.7h0a162.549,162.549,0,0,1-23.834-21.39q-5.223,1.266-10.42,2.5-5.711,1.361-11.423,2.716Z" transform="translate(-377.453 -579.864)"/>
        </g>
        <g id="グループ_1670" data-name="グループ 1670" transform="translate(285.851 582.688)">
          <path id="パス_1672" data-name="パス 1672" d="M420.784,640.981a1.177,1.177,0,0,1-.373-2.293c4.708-1.575,8.969-2.978,13.435-4.448l17.741-5.847a1.177,1.177,0,0,1,.784,2.219c-.033.011-.148.052-.263.09l-17.525,5.773c-4.463,1.469-8.72,2.871-13.425,4.444A1.177,1.177,0,0,1,420.784,640.981Z" transform="translate(-390.919 -611.436)"/>
          <path id="パス_1673" data-name="パス 1673" d="M401.427,630.757a1.169,1.169,0,0,1-.733-.257,104.323,104.323,0,0,1-23.84-26.922,1.177,1.177,0,0,1,2-1.234,101.974,101.974,0,0,0,23.3,26.316,1.177,1.177,0,0,1-.734,2.1Z" transform="translate(-375.309 -601.785)"/>
          <path id="パス_1674" data-name="パス 1674" d="M400.849,639.6a1.171,1.171,0,0,1-.708-.237A104.29,104.29,0,0,1,375.578,613.1a1.177,1.177,0,1,1,1.97-1.288,101.967,101.967,0,0,0,24.01,25.671,1.177,1.177,0,0,1-.71,2.116Z" transform="translate(-374.839 -605.238)"/>
          <g id="グループ_1668" data-name="グループ 1668" transform="translate(28.223 21.856)">
            <path id="パス_1675" data-name="パス 1675" d="M420.726,648.28c6.486-2.169,12.12-4.012,18.615-6.154q6.17-2.036,12.343-4.066c.1-.034.207-.07.236-.08" transform="translate(-419.549 -636.803)" fill="#fff"/>
            <path id="パス_1676" data-name="パス 1676" d="M420.053,648.785a1.177,1.177,0,0,1-.373-2.293c4.708-1.574,8.968-2.978,13.434-4.448l17.741-5.847a1.177,1.177,0,1,1,.784,2.219c-.033.011-.148.052-.263.09l-17.525,5.773c-4.463,1.469-8.719,2.871-13.425,4.444A1.173,1.173,0,0,1,420.053,648.785Z" transform="translate(-418.876 -636.13)"/>
          </g>
          <path id="パス_1677" data-name="パス 1677" d="M400.152,648.948a1.172,1.172,0,0,1-.717-.244c-10.538-8.107-18.845-16.336-24.687-24.458a1.177,1.177,0,1,1,1.911-1.375c5.709,7.937,13.855,16,24.212,23.968a1.177,1.177,0,0,1-.718,2.109Z" transform="translate(-374.526 -609.274)"/>
          <g id="グループ_1669" data-name="グループ 1669" transform="translate(28.223 26.774)">
            <path id="パス_1678" data-name="パス 1678" d="M420.726,656.009c6.486-2.169,12.12-4.012,18.615-6.155q6.17-2.036,12.343-4.065c.1-.034.207-.071.236-.081" transform="translate(-419.549 -644.53)" fill="#fff"/>
            <path id="パス_1679" data-name="パス 1679" d="M420.053,656.513a1.177,1.177,0,0,1-.373-2.293c4.78-1.6,9.1-3.02,13.639-4.515l4.98-1.641q4.3-1.419,8.6-2.834l3.912-1.29.059-.02a1.177,1.177,0,0,1,.745,2.233l-.244.083-3.737,1.23q-4.3,1.416-8.6,2.834l-4.982,1.642c-4.537,1.494-8.852,2.915-13.629,4.511A1.176,1.176,0,0,1,420.053,656.513Z" transform="translate(-418.876 -643.857)"/>
          </g>
        </g>
        <g id="グループ_1673" data-name="グループ 1673" transform="translate(244.006 549.269)">
          <path id="パス_1684" data-name="パス 1684" d="M310.616,551.117c.015.031.067.141.12.249q3.206,6.461,6.411,12.921,5.055,10.2,10.09,20.418a1.309,1.309,0,0,0,1.207.826,113.927,113.927,0,0,0,39.387-2.485c1.03-.247,2.052-.527,3.125-.8-.14-.239-.237-.41-.34-.578q-4.921-8.114-9.843-16.227-3.146-5.2-6.273-10.4a.745.745,0,0,0-.77-.422,178.227,178.227,0,0,1-35.491-2.136C315.694,552.065,313.163,551.573,310.616,551.117Z" transform="translate(-309.441 -549.941)" fill="#fff"/>
          <path id="パス_1685" data-name="パス 1685" d="M340.385,586.731a116.343,116.343,0,0,1-12.741-.7,2.46,2.46,0,0,1-2.133-1.477q-4.184-8.528-8.413-17.032l-1.676-3.382q-2.134-4.308-4.273-8.615l-2.138-4.307c-.055-.11-.109-.225-.129-.265a1.179,1.179,0,0,1,1.27-1.665q1.2.216,2.407.438c1.7.314,3.466.637,5.2.916a178.068,178.068,0,0,0,35.257,2.122,1.9,1.9,0,0,1,1.826.992q3.124,5.206,6.271,10.4,3.4,5.607,6.8,11.212l3.043,5.015c.067.109.132.221.207.35l.141.242a1.176,1.176,0,0,1-.72,1.736l-1,.263c-.722.19-1.429.376-2.14.546A115.633,115.633,0,0,1,340.385,586.731Zm-12.675-3.071c.01,0,.067.016.192.03a113.281,113.281,0,0,0,38.984-2.459c.528-.127,1.053-.262,1.584-.4l-2.573-4.242q-3.4-5.605-6.8-11.213-3.1-5.12-6.182-10.251a180.107,180.107,0,0,1-35.533-2.159c-1.757-.283-3.531-.61-5.247-.925l-.094-.017,1.218,2.455q2.138,4.307,4.274,8.616l1.676,3.382q4.22,8.514,8.417,17.039a.763.763,0,0,0,.085.144Z" transform="translate(-308.77 -549.269)"/>
        </g>
      </g>
    </g>
  </g>
</svg>
