<svg xmlns="http://www.w3.org/2000/svg" xmlns:xlink="http://www.w3.org/1999/xlink" width="493" height="328" viewBox="0 0 493 328">
  <defs>
    <clipPath id="clip-path">
      <rect id="長方形_492" data-name="長方形 492" width="493" height="328" rx="20" transform="translate(-5959 7592)" fill="#f03748"/>
    </clipPath>
  </defs>
  <g id="マスクグループ_81" data-name="マスクグループ 81" transform="translate(5959 -7592)" clip-path="url(#clip-path)">
    <path id="パス_1861" data-name="パス 1861" d="M444.5,374.487c-6.8-4.629-7.591-14.6-5.047-22.425s7.587-14.626,10.34-22.379a41.212,41.212,0,0,0,.777-24.959c-1.512-5.278-4.263-10.432-8.786-13.545-4-2.752-9.036-3.66-13.886-3.448s-9.587,1.464-14.278,2.708c-10.461,2.775-21.937,6.282-27.546,15.536-4.6,7.586-3.976,17.363-1,25.72s8.036,15.781,12.2,23.614c1.9,3.58,3.647,7.811,2.114,11.563-1.642,4.019-6.453,5.922-8.438,9.783-1.846,3.59-.822,7.92.24,11.816l7.232,26.542c1.416,5.2,2.879,10.5,5.875,14.976s7.853,8.067,13.24,8.118c6.361.06,11.724-4.625,15.849-9.469a87.272,87.272,0,0,0,17.646-33.317" transform="translate(-6258.317 7362.512)" fill="#fff"/>
    <path id="パス_1862" data-name="パス 1862" d="M335.879,434.183l-13.487,26.546c-3.134,6.169-6.328,12.54-6.886,19.437s2.162,14.536,8.289,17.754c5.25,2.758,11.885,1.671,16.953-1.409s8.84-7.873,12.212-12.752,6.5-10,10.732-14.151c8.268-8.119,19.951-11.816,28.868-19.218a44.076,44.076,0,0,0,15.671-31.469c.435-9.463-3.07-19.973-11.5-24.3-5.78-2.965-12.87-2.451-18.889-.011s-11.159,6.614-16.024,10.918a246.066,246.066,0,0,0-18.728,18.441" transform="translate(-6272.04 7383.898)" fill="#fff"/>
    <path id="パス_1863" data-name="パス 1863" d="M457.3,441.571l33.182-13.338a687.644,687.644,0,0,1-.161,139.412c-.869,8.431-1.986,17.125-6.307,24.417a31.243,31.243,0,0,1-23.086,14.885" transform="translate(-6243.114 7391.167)" fill="#fff"/>
    <path id="パス_1867" data-name="パス 1867" d="M487.44,373.412,469.513,364.4c-3.122-1.57-13.256-9-16.082-5.782a7.015,7.015,0,0,0-1.285,3.007,76.123,76.123,0,0,1-6.548,17.766,194.232,194.232,0,0,1-10.024,16.981c-1.114,1.685-2.429,3.48-4.392,3.96a5.62,5.62,0,0,1-4.97-1.584,16.343,16.343,0,0,1-3.07-4.452q-9.811-18.322-18.663-37.137c-11.335,4.853-23.223,9.5-33.355,16.711C360.7,381.3,352.3,391.294,345.4,402.078s-12.4,22.391-17.881,33.964c-.793,1.676-1.606,3.535-1.115,5.322.627,2.279,3.065,3.472,5.245,4.385,2.887,1.209,10.747,6.54,13.586,4.721A8.239,8.239,0,0,0,348,446.54c2.4-5.638,4.064-11.577,6.62-17.147s6.172-10.9,11.442-14.03,12.437-3.588,17.33.1c3.756,2.834,5.593,7.492,7.037,11.97,1.334,4.143,2.492,8.571,1.477,12.8-1.519,6.341-7.388,10.516-12.8,14.157-4.477,3.013-11.5,7.524-12.1,13.479-.655,6.488-.38,13.581-.754,20.215-.519,9.215-1,18.43-1.534,27.644-1.068,18.38-2.344,36.758-4.558,55.04-.323,2.67-.547,5.69,1.206,7.729,1.4,1.635,3.686,2.145,5.8,2.562,9.212,1.815,18.438,3.633,27.77,4.669,13.826,1.534,27.768,1.335,41.643.754a88.761,88.761,0,0,1,9.874-.341,32.967,32.967,0,0,0,5.957.374c6.3-.652,12.687-1.534,18.963-2.417l17.546-2.469c2.99-.421,6.167-.925,8.432-2.924,3.576-3.158.612-10.534.333-14.706-.423-6.344-.39-12.707-.36-19.061l.183-38.45c.059-12.421-1.252-24.828-2.163-37.218-.2-2.738-.355-5.685,1.091-8.02,1.482-2.393,4.284-3.564,6.906-4.588L518.6,450.7c3.122-1.221,6.39-2.546,8.494-5.157,2.425-3.011,2.827-7.262,1.976-11.033-.786-3.488-2.6-6.326-4.182-9.454-1.71-3.373-2.983-7.019-4.572-10.458q-4.874-10.546-10.7-20.617c-2.639-4.563-5.475-9.11-9.389-12.642C496.49,377.972,491.935,375.671,487.44,373.412Z" transform="translate(-6269.833 7376.674)" fill="#eff4f9"/>
    <path id="パス_1868" data-name="パス 1868" d="M418.6,411.909a1.92,1.92,0,0,1-1.423-3.207c11.848-13.088,21.012-30.8,24.513-47.388a1.92,1.92,0,0,1,3.757.793c-3.637,17.223-13.139,35.6-25.423,49.17A1.917,1.917,0,0,1,418.6,411.909Z" transform="translate(-6251.396 7377.211)" fill="#fff"/>
    <path id="パス_1869" data-name="パス 1869" d="M412.186,411.26a1.9,1.9,0,0,1-1.167-.4c-14.523-11.141-26.173-39.444-26.468-49.363a1.919,1.919,0,1,1,3.837-.113c.282,9.431,11.76,36.3,24.968,46.433a1.918,1.918,0,0,1-1.17,3.441Z" transform="translate(-6257.947 7377.157)" fill="#fff"/>
    <path id="パス_1870" data-name="パス 1870" d="M347.516,432.157a1.892,1.892,0,0,1-.956-.26c-2.386-1.371-5.359-3.212-8.329-5.053-2.91-1.8-5.816-3.607-8.155-4.954A1.919,1.919,0,1,1,332,418.566c2.367,1.362,5.313,3.187,8.26,5.015,2.93,1.815,5.865,3.635,8.22,4.99a1.921,1.921,0,0,1-.96,3.585Z" transform="translate(-6269.25 7389.142)" fill="#fff"/>
    <path id="パス_1871" data-name="パス 1871" d="M468.025,439.159a1.921,1.921,0,0,1-.648-3.728c3.608-1.294,9.625-4.116,15.447-6.847,5.885-2.759,11.969-5.616,15.736-6.966a1.919,1.919,0,1,1,1.3,3.612c-3.6,1.294-9.6,4.107-15.4,6.828-5.9,2.769-12,5.632-15.779,6.985A1.889,1.889,0,0,1,468.025,439.159Z" transform="translate(-6241.318 7389.793)" fill="#fff"/>
    <ellipse id="楕円形_299" data-name="楕円形 299" cx="3.471" cy="3.471" rx="3.471" ry="3.471" transform="translate(-5777.691 7803.231)" fill="#13202f"/>
    <ellipse id="楕円形_300" data-name="楕円形 300" cx="3.16" cy="4.081" rx="3.16" ry="4.081" transform="translate(-5858.198 7674.539)" fill="#13202f"/>
    <ellipse id="楕円形_301" data-name="楕円形 301" cx="3.16" cy="4.081" rx="3.16" ry="4.081" transform="translate(-5830.959 7674.541)" fill="#13202f"/>
    <path id="パス_1877" data-name="パス 1877" d="M387.789,335.44a3.187,3.187,0,0,1-1.7-.494c-4.084-2.573-5.874-9.891-6.187-15.882-.288-5.481-.226-11.119,3.855-14.517a3.2,3.2,0,0,1,4.094,4.919c-1.63,1.357-1.8,4.549-1.558,9.263.309,5.926,2.062,10.081,3.207,10.8a3.2,3.2,0,0,1-1.71,5.906Z" transform="translate(-6258.916 7365.796)" fill="#13202f"/>
    <path id="パス_1878" data-name="パス 1878" d="M437.651,334.66a3.2,3.2,0,0,1-1.546-6c1.221-.672,2.994-4.974,3.007-11,.014-5.09-1.281-7.928-1.978-8.315a3.2,3.2,0,0,1,3.113-5.595c4.778,2.659,5.274,10.626,5.266,13.929-.016,6.347-1.685,14.037-6.324,16.587A3.193,3.193,0,0,1,437.651,334.66Z" transform="translate(-6247.773 7365.702)" fill="#13202f"/>
    <path id="パス_1879" data-name="パス 1879" d="M412.321,328.247a5.577,5.577,0,0,1-2.9-.769,1.44,1.44,0,1,1,1.513-2.45,2.925,2.925,0,0,0,2.668.018,1.44,1.44,0,0,1,1.732,2.3A5.079,5.079,0,0,1,412.321,328.247Z" transform="translate(-6253.016 7370.068)" fill="#13202f"/>
    <path id="パス_1880" data-name="パス 1880" d="M412.571,338.681a11.23,11.23,0,0,1-5.251-1.138,1.44,1.44,0,0,1,1.4-2.519,10.229,10.229,0,0,0,8.491-.284,1.439,1.439,0,1,1,1.559,2.419A11.948,11.948,0,0,1,412.571,338.681Z" transform="translate(-6253.456 7372.056)" fill="#13202f"/>
    <ellipse id="楕円形_302" data-name="楕円形 302" cx="1.747" cy="1.747" rx="1.747" ry="1.747" transform="translate(-5848.091 7705.921)" fill="#13202f"/>
    <ellipse id="楕円形_303" data-name="楕円形 303" cx="1.747" cy="1.747" rx="1.747" ry="1.747" transform="translate(-5836.577 7705.921)" fill="#13202f"/>
    <path id="パス_1881" data-name="パス 1881" d="M371.937,442.389l14.683,1.576c2.195.236,4.592.425,6.432-.822a6.727,6.727,0,0,0,2.605-4.961c.389-3.951-1.116-8.143-2.009-11.935l-2.989-12.682L384.683,388.2c-.358-1.518-.781-3.146-1.958-4.139-1.3-1.1-3.141-1.108-4.822-1.058q-8.589.253-17.166.76c-2.575.152-5.656.668-6.666,3.1-.592,1.428-.231,3.063.137,4.57l4.368,17.838c.728,2.972,1.465,5.944,2.184,8.92.353,1.46.3,1.854,1.737,2.416a12.187,12.187,0,0,0,4.056.815,9.917,9.917,0,0,1,2.487.2,2.2,2.2,0,0,1,1.66,1.679" transform="translate(-6264.226 7381.94)" fill="#f03748"/>
    <path id="パス_1882" data-name="パス 1882" d="M372.695,446.3a2.4,2.4,0,0,1-.1-4.8c.643-.029,15.8-.691,18.937-.7a2.371,2.371,0,0,0,1.73-.525,3.236,3.236,0,0,0,.32-2.431c-2.2-12.423-7.081-37.082-10.581-50.564a1.908,1.908,0,0,0-1.855-1.466h-.022c-6.549.069-16.365.466-23.536,1.2a1.483,1.483,0,0,0-1.052.615,1.652,1.652,0,0,0-.272,1.332c.464,2.135,1.157,5.454,1.893,8.985,1.246,5.973,2.657,12.741,3.225,15.019a2.4,2.4,0,0,1-4.659,1.163c-.59-2.372-1.949-8.894-3.265-15.2-.734-3.515-1.423-6.821-1.884-8.947a6.458,6.458,0,0,1,1.079-5.168,6.291,6.291,0,0,1,4.446-2.572c7.324-.75,17.318-1.157,23.974-1.226a6.659,6.659,0,0,1,6.576,5.06c3.531,13.606,8.448,38.434,10.661,50.932a7.969,7.969,0,0,1-1.364,6.347,6.707,6.707,0,0,1-5.4,2.246c-3.036.01-18.587.687-18.742.695C372.766,446.3,372.73,446.3,372.695,446.3Z" transform="translate(-6264.701 7381.539)" fill="#13202f"/>
    <path id="パス_1883" data-name="パス 1883" d="M343.473,442.064c.91-5.056,1.8-11.679,3.32-16.57,2.344-7.52,4.522-13.286,10.564-17.44a41.7,41.7,0,0,1,18.194-6.738c2.035-.28,4.432-.409,5.71,1.354,1.9,2.621-.161,5.262-2.874,6.894s-10.539,5.841-12.639,7.152" transform="translate(-6266.322 7385.644)" fill="#fff"/>
    <path id="パス_1884" data-name="パス 1884" d="M343.91,445.058a2.563,2.563,0,0,1-2.523-3.013c.212-1.175.421-2.437.64-3.743a104.856,104.856,0,0,1,2.756-13.136c2.438-7.818,4.836-14.169,11.559-18.788a44.342,44.342,0,0,1,19.3-7.166c1.744-.231,5.815-.8,8.13,2.387a5.973,5.973,0,0,1,1.106,4.788c-.443,2.175-2.124,4.235-4.734,5.8-1.317.793-3.825,2.184-6.312,3.565-2.617,1.457-5.214,2.894-6.287,3.566a2.561,2.561,0,0,1-2.716-4.344c1.114-.693,3.8-2.191,6.518-3.7,2.427-1.347,4.873-2.706,6.159-3.478,1.563-.94,2.244-1.9,2.354-2.438.025-.118.07-.341-.235-.758-.457-.632-2.092-.482-3.285-.323a39.3,39.3,0,0,0-17.094,6.313c-5.38,3.7-7.359,9-9.571,16.094a101.623,101.623,0,0,0-2.593,12.453c-.223,1.325-.437,2.61-.65,3.807A2.562,2.562,0,0,1,343.91,445.058Z" transform="translate(-6266.756 7385.21)" fill="#13202f"/>
    <path id="パス_1885" data-name="パス 1885" d="M362.339,414.477c4.783-.049,10.062-.453,15.192-.212,3.485.164,13.625-1.539,11.459,5.54-.615,2.009-1.741,2.626-2.976,3.766.143,1.757.526,3.938-.526,5.468a29.167,29.167,0,0,1-4.3,4.066c.309,4.217-3,7.668-6.558,9.368-9.872,4.722-9.518,10.172-14.317,11.969" transform="translate(-6262.889 7388.303)" fill="#fff"/>
    <path id="パス_1886" data-name="パス 1886" d="M360.746,457.433a2.56,2.56,0,0,1-.9-4.957c1.3-.488,2.059-1.4,3.389-3.116a26.908,26.908,0,0,1,10.721-8.766c2.7-1.291,5.326-3.913,5.109-6.869a2.553,2.553,0,0,1,.874-2.119l.85-.721a21.163,21.163,0,0,0,3.022-2.863c.39-.568.258-1.966.149-3.088l-.065-.725a2.56,2.56,0,0,1,.814-2.088c.261-.241.515-.46.764-.672a3.723,3.723,0,0,0,1.5-1.96c.237-.774.225-1.275.107-1.428-.781-1.025-5.2-.891-6.86-.831-.929.028-1.75.049-2.377.022-3.254-.144-6.625-.035-9.885.078-1.764.059-3.491.122-5.161.137h-.026a2.56,2.56,0,0,1-.028-5.119c1.63-.019,3.318-.075,5.037-.135,3.364-.118,6.838-.234,10.3-.075.515.019,1.205,0,1.977-.025,3.682-.128,8.711-.274,11.088,2.838.837,1.094,1.64,3.029.721,6.035a8.324,8.324,0,0,1-2.755,4.085,8.708,8.708,0,0,1-1.085,5.85,22.252,22.252,0,0,1-3.851,3.8c-.313,5.038-4.381,8.757-8.016,10.491a21.853,21.853,0,0,0-8.886,7.291c-1.434,1.841-2.915,3.748-5.635,4.766A2.531,2.531,0,0,1,360.746,457.433Z" transform="translate(-6263.323 7387.869)" fill="#13202f"/>
    <path id="パス_1887" data-name="パス 1887" d="M363.731,424.812c-.173,0-.348,0-.525,0a1.6,1.6,0,0,1,.02-3.2,1.674,1.674,0,0,0,.514,0,58.864,58.864,0,0,0,6.353-.419c1.384-.141,2.789-.284,4.327-.376a1.565,1.565,0,0,1,1.69,1.5,1.6,1.6,0,0,1-1.5,1.69c-1.488.088-2.847.229-4.186.366A63.1,63.1,0,0,1,363.731,424.812Z" transform="translate(-6262.621 7389.653)" fill="#13202f"/>
    <path id="パス_1888" data-name="パス 1888" d="M362.848,433.785a1.6,1.6,0,0,1-.388-3.154l6.869-1.718a1.6,1.6,0,0,1,.774,3.106l-6.866,1.719A1.653,1.653,0,0,1,362.848,433.785Z" transform="translate(-6262.698 7391.295)" fill="#13202f"/>
    <path id="パス_1889" data-name="パス 1889" d="M455.3,309c-.253,1.748-.908,3.259-1.219,4.96-.267,1.464-.579,3.34-1.8,4.329-1.419,1.153-2.946,1.245-3.613,3.312-.228.7-.291,1.458-.553,2.149a2.075,2.075,0,0,1-1.517,1.441,1.87,1.87,0,0,1-1.8-1.241,5.685,5.685,0,0,1-.283-2.34c.061-3.276.124-5.367.187-8.644.039-2.062.465-5.936-2.706-5.9-1.847.02-3.644,2.269-5.179,1.222-1.179-.8-.7-2.693.1-3.881s1.89-2.493,1.517-3.889a2.8,2.8,0,0,0-2.734-1.832,8.582,8.582,0,0,0-3.365.937c-10.98,4.554-22.944,5.45-34.322,8.811-2.7.8-5.442.939-6.813,3.572s-1.2,5.745-.914,8.593a4.527,4.527,0,0,1-.1,2.055,1.448,1.448,0,0,1-1.577,1.008c-1.216-.321-.979-2.3-1.918-3.148-.98-.89-2.529-.072-3.824-.3a3.2,3.2,0,0,1-2.2-1.856,8.882,8.882,0,0,1-.681-2.926q-.314-2.92-.37-5.861c-.1-5.637-.1-10.26,2.139-15.528a40.975,40.975,0,0,1,8.378-12.554c7.01-7.168,16.747-11.579,26.863-11.026a41.307,41.307,0,0,1,6.763,1.037c1,.225,4.175,1.789,4.149-.488-.01-.852-.98-1.418-1.118-2.26a1.635,1.635,0,0,1,1.51-1.7,3.521,3.521,0,0,1,2.355.8c2.348,1.676,3.774,4.407,6.122,6.084a28.569,28.569,0,0,0,4.772,2.352C454.089,282.1,457.114,296.447,455.3,309Z" transform="translate(-6258.959 7358.3)" fill="#13202f"/>
    <path id="パス_1890" data-name="パス 1890" d="M500.611,456.2a3.2,3.2,0,0,1-1.684-5.922c.858-.531,1.734-1.025,2.581-1.5,1.961-1.1,4.184-2.354,4.519-3.363,1.067-3.2.231-5.785-1.27-9.66l-1.989-5.178c-6.39-16.71-13-33.992-25.663-45.661-7-6.447-16.746-10.65-26.167-14.713-8.964-3.866-17.431-7.516-23.3-12.937a3.2,3.2,0,1,1,4.341-4.7c5.068,4.678,13.049,8.119,21.5,11.762,9.914,4.275,20.164,8.695,27.968,15.882,13.775,12.684,20.654,30.682,27.307,48.082l1.977,5.15c1.841,4.747,3.111,8.791,1.377,14-1.116,3.349-4.336,5.162-7.451,6.915-.776.438-1.575.885-2.36,1.369A3.166,3.166,0,0,1,500.611,456.2Z" transform="translate(-6249.372 7375.566)" fill="#13202f"/>
    <path id="パス_1891" data-name="パス 1891" d="M330.415,449.792a3.219,3.219,0,0,1-1.333-.29c-6.382-2.928-6.754-6.591-5.941-9.147,1.607-5.054,7.038-15.135,11.4-23.232l.642-1.191c.5-.922,1.094-2.06,1.775-3.35,4.234-8.041,11.32-21.5,17.058-27.644,13.864-14.848,30.752-22.048,48.631-29.674,2.507-1.068,5.036-2.147,7.586-3.259a3.2,3.2,0,0,1,2.56,5.869c-2.567,1.118-5.114,2.2-7.635,3.278-17.239,7.35-33.523,14.294-46.463,28.154-5.153,5.519-12.257,19.01-16.073,26.256-.69,1.31-1.3,2.467-1.8,3.4l-.64,1.194c-4.005,7.428-9.487,17.6-10.928,22.1a14.248,14.248,0,0,0,2.5,1.424,3.2,3.2,0,0,1-1.336,6.11Z" transform="translate(-6270.532 7375.569)" fill="#13202f"/>
    <path id="パス_1892" data-name="パス 1892" d="M367,570.74a6.152,6.152,0,0,1-4.37-1.747c-3.5-3.391-3.125-10.332-2.322-18.382l.193-2.021c.84-9.854,2.023-26.382,2.579-36.1.9-15.618,1.511-31.185,2.006-46.088-4.119,6.8-8.711,13.732-14.041,19.128-10.339,10.473-20.76,13.248-28.6,7.625-6.792-4.881-10.072-14.468-8.355-24.426,1.776-10.305,5.956-17.106,10.794-24.981,2.468-4.016,5.018-8.166,7.576-13.283a3.2,3.2,0,0,1,5.725,2.863c-2.682,5.366-5.427,9.832-7.847,13.769-4.678,7.613-8.373,13.626-9.941,22.72-.99,5.74-.069,13.934,5.782,18.138,6.855,4.935,15.668-2.222,20.309-6.922,6.482-6.562,12.021-16.007,16.909-24.334.857-1.463,1.7-2.9,2.531-4.291a3.2,3.2,0,0,1,5.947,1.734c-.568,18.613-1.253,38.608-2.408,58.718-.561,9.759-1.747,26.369-2.591,36.27l-.2,2.115c-.777,7.788-.64,12.21.4,13.144a3.212,3.212,0,0,1,3.637,2.718,3.136,3.136,0,0,1-2.706,3.56A7.657,7.657,0,0,1,367,570.74Z" transform="translate(-6272.406 7391.262)" fill="#13202f"/>
    <path id="パス_1893" data-name="パス 1893" d="M472.178,603.559a3.2,3.2,0,0,1-1.127-6.193c5.066-1.907,9.637-9.041,11.743-14.863,1.529-4.228,1.811-17.122,1.979-24.822.067-3.047.126-5.667.23-7.408.28-4.759.708-10.975,1.164-17.621.831-12.116,1.773-25.848,2.09-34.554.963-26.322.52-35.023-.787-60.849a3.2,3.2,0,0,1,3.033-3.359,3.147,3.147,0,0,1,3.359,3.034c1.283,25.329,1.764,34.807.793,61.4-.321,8.81-1.269,22.6-2.1,34.76-.455,6.625-.88,12.823-1.161,17.564-.1,1.687-.154,4.221-.219,7.166-.26,11.844-.615,22.037-2.36,26.86-2.478,6.856-8.026,15.863-15.509,18.675A3.157,3.157,0,0,1,472.178,603.559Z" transform="translate(-6240.732 7392.318)" fill="#13202f"/>
    <path id="パス_1894" data-name="パス 1894" d="M416.817,404.489a2.079,2.079,0,0,1-1.433-.572c-11.431-10.853-21.009-31.648-24.218-45.7a2.08,2.08,0,1,1,4.056-.925c3.613,15.828,13.514,34.576,23.028,43.606a2.083,2.083,0,0,1-1.434,3.591Z" transform="translate(-6256.608 7376.372)" fill="#13202f"/>
    <path id="パス_1895" data-name="パス 1895" d="M413.336,404.593a2.08,2.08,0,0,1-1.586-3.425c11.232-13.25,17.768-26.2,21.854-43.322a2.08,2.08,0,0,1,4.046.968c-4.249,17.795-11.044,31.264-22.728,45.043A2.067,2.067,0,0,1,413.336,404.593Z" transform="translate(-6252.502 7376.489)" fill="#13202f"/>
    <path id="パス_1896" data-name="パス 1896" d="M470.092,564.988a.218.218,0,0,1-.04,0,2.077,2.077,0,0,1-2.041-2.116c.143-7.728-.679-40.551-1.472-72.289-.8-31.785-1.619-64.652-1.474-72.47a2.081,2.081,0,0,1,2.078-2.044.157.157,0,0,1,.041,0,2.076,2.076,0,0,1,2.041,2.115c-.143,7.728.678,40.551,1.472,72.289.795,31.785,1.618,64.652,1.474,72.471A2.082,2.082,0,0,1,470.092,564.988Z" transform="translate(-6241.534 7388.686)" fill="#13202f"/>
    <path id="パス_1902" data-name="パス 1902" d="M468.191,447.349a2.081,2.081,0,0,1-.731-4.028c4.442-1.665,9.554-3.825,14.5-5.912,4.962-2.1,10.1-4.263,14.6-5.953a2.079,2.079,0,1,1,1.462,3.893c-4.424,1.663-9.518,3.813-14.443,5.892-4.983,2.1-10.136,4.277-14.655,5.975A2.079,2.079,0,0,1,468.191,447.349Z" transform="translate(-6241.317 7391.796)" fill="#13202f"/>
    <path id="パス_1903" data-name="パス 1903" d="M328.06,454.276a2.559,2.559,0,0,1-1.936-4.232,39.838,39.838,0,0,1,10.533-8.579,34.258,34.258,0,0,0,8.88-7.109,2.561,2.561,0,0,1,3.854,3.375,39.077,39.077,0,0,1-10.05,8.095A35.175,35.175,0,0,0,330,453.387,2.553,2.553,0,0,1,328.06,454.276Z" transform="translate(-6269.987 7392.237)" fill="#13202f"/>
    <path id="パス_1904" data-name="パス 1904" d="M329.394,429.058c4.818,2.506,9.316,5.655,14.134,8.162" transform="translate(-6269.193 7391.334)" fill="#fff"/>
    <path id="パス_1905" data-name="パス 1905" d="M343.959,440.214a2.532,2.532,0,0,1-1.18-.288c-2.484-1.293-4.887-2.75-7.21-4.162-2.256-1.369-4.587-2.785-6.924-4a2.561,2.561,0,1,1,2.363-4.544c2.486,1.293,4.891,2.753,7.219,4.169,2.254,1.365,4.583,2.781,6.914,3.993a2.56,2.56,0,0,1-1.182,4.831Z" transform="translate(-6269.627 7390.9)" fill="#13202f"/>
    <path id="パス_1915" data-name="パス 1915" d="M437.276,500.839q-1.452,0-2.891-.024a1.919,1.919,0,0,1-1.889-1.95,1.819,1.819,0,0,1,1.952-1.888c12.525.156,26.2-.94,34.832-2.906a1.92,1.92,0,0,1,.854,3.744C461.889,499.689,449.26,500.839,437.276,500.839Z" transform="translate(-6248.171 7404.58)" fill="#13202f"/>
    <path id="パス_1916" data-name="パス 1916" d="M387.92,501.238c-8.388,0-17.855-.787-23.8-3.165a1.918,1.918,0,1,1,1.425-3.562c8.3,3.318,24.463,3.263,33.3,2.4a1.954,1.954,0,0,1,2.095,1.728,1.92,1.92,0,0,1-1.726,2.1C396.128,501.036,392.162,501.238,387.92,501.238Z" transform="translate(-6262.358 7404.652)" fill="#13202f"/>
    <path id="パス_1917" data-name="パス 1917" d="M434.272,432.361a1.918,1.918,0,1,1,0-3.837c9.681,0,21.12-.3,32.568-2.5a1.919,1.919,0,1,1,.726,3.768C455.8,432.059,444.133,432.361,434.272,432.361Z" transform="translate(-6248.2 7390.708)" fill="#fff"/>
    <path id="パス_1918" data-name="パス 1918" d="M452.592,435.48a1.918,1.918,0,0,1-1.918-1.843c-1.291-33.307-10.674-76.577-20.389-80.355a1.921,1.921,0,0,1,1.391-3.582c13.883,5.4,21.841,58.1,22.837,83.786a1.919,1.919,0,0,1-1.843,1.994Z" transform="translate(-6248.872 7375.127)" fill="#f03748"/>
    <path id="パス_1919" data-name="パス 1919" d="M429.592,363.707a3.2,3.2,0,0,1-3.186-2.941c-.545-6.741-.254-12.118,2.889-18.085,2.639-5.015,5.493-10.765,5.944-15.469a3.169,3.169,0,0,1,3.49-2.879,3.2,3.2,0,0,1,2.882,3.491c-.561,5.859-3.728,12.279-6.654,17.838-2.145,4.075-2.714,7.894-2.173,14.584a3.2,3.2,0,0,1-2.931,3.45C429.765,363.7,429.679,363.707,429.592,363.707Z" transform="translate(-6249.458 7369.977)" fill="#13202f"/>
    <path id="パス_1920" data-name="パス 1920" d="M459.506,435.218h-.073a1.921,1.921,0,0,1-1.847-1.99c.184-4.909-3.7-10.189-8.849-12.016-5.3-1.888-11.243-1.351-16.873-.632l-1.258.16c-6.385.825-12.411,1.6-18.853-1.273-6.239-2.777-11.175-5.875-14.991-11.946-4.156-6.607-5.858-14.364-6.877-20.382a140.911,140.911,0,0,1-1.95-25.573c.087-5.646.888-10.79,9.641-11.709a1.92,1.92,0,0,1,.4,3.819c-5.568.584-6.123,2.644-6.2,7.947a136.933,136.933,0,0,0,1.9,24.876c.957,5.666,2.545,12.943,6.339,18.978,3.3,5.25,7.706,7.988,13.3,10.485,5.463,2.44,10.717,1.753,16.8.972l1.267-.165c6.092-.773,12.549-1.345,18.644.825,6.747,2.4,11.648,9.181,11.4,15.778A1.92,1.92,0,0,1,459.506,435.218Z" transform="translate(-6257.26 7375.184)" fill="#f03748"/>
    <path id="パス_1921" data-name="パス 1921" d="M398.831,363.723a3.555,3.555,0,0,1-.355-.018,3.2,3.2,0,0,1-2.83-3.531c.738-6.67-.39-8.31-2.26-11.029a35.56,35.56,0,0,1-2.1-3.337l-1.234-2.254c-2.475-4.481-5.035-9.112-6.078-14.556a3.2,3.2,0,1,1,6.284-1.206c.854,4.444,3.059,8.441,5.4,12.669l1.263,2.3a28.521,28.521,0,0,0,1.742,2.757c2.623,3.819,4.275,6.95,3.347,15.353A3.2,3.2,0,0,1,398.831,363.723Z" transform="translate(-6258.076 7370.158)" fill="#13202f"/>
    <path id="パス_1922" data-name="パス 1922" d="M434.272,423.6a1.918,1.918,0,1,1,0-3.837c9.682,0,21.122-.3,32.568-2.5a1.919,1.919,0,1,1,.726,3.769C455.8,423.294,444.136,423.6,434.272,423.6Z" transform="translate(-6248.2 7388.921)" fill="#13202f"/>
    <path id="パス_1923" data-name="パス 1923" d="M410.3,382.611a50.21,50.21,0,0,1-6.813-.413,1.921,1.921,0,0,1,.528-3.806c6.518.909,15.081-.019,20.75-.632l2.023-.215a1.92,1.92,0,0,1,.394,3.819l-2,.213A140.319,140.319,0,0,1,410.3,382.611Z" transform="translate(-6254.423 7380.83)" fill="#13202f"/>
    <path id="パス_1935" data-name="パス 1935" d="M641.911,426.847a110.855,110.855,0,0,0-12.261,41.7c-.307,3.471-.433,7.066.76,10.339s4,6.18,7.463,6.52c5.4.531,9.329-4.808,12.061-9.493l25-42.87c2.91-4.99,5.92-10.809,4.046-16.272" transform="translate(-6363.013 7393.783)" fill="#fff"/>
    <path id="パス_1936" data-name="パス 1936" d="M748.195,599.531c2.674,3.631,7.9,4.769,12.2,3.413s7.694-4.8,9.943-8.7c4.789-8.323,4.879-18.436,4.842-28.039l-.538-135.9c-.006-1.435-.129-3.1-1.312-3.914-1.075-.737-2.523-.407-3.776-.051l-33.955,9.67" transform="translate(-6341.367 7395.655)" fill="#fff"/>
    <path id="パス_1937" data-name="パス 1937" d="M737.229,388.353c-6.3-2.423-9.258-10.08-8.466-16.782s4.451-12.673,8.018-18.4,7.219-11.709,7.988-18.414c.758-6.6-1.43-13.32-5.147-18.829s-8.874-9.907-14.384-13.62c-5.22-3.518-10.956-6.532-17.187-7.429s-13.047.6-17.5,5.05c-3.946,3.95-5.564,9.6-7.037,14.983-2.122,7.767-4.255,15.966-2.251,23.766,1.7,6.614,6.164,12.1,9.755,17.9s6.445,12.821,4.448,19.353c-1.142,3.741-3.748,6.847-5.369,10.406-2.428,5.332-2.534,11.489-1.389,17.234s3.467,11.181,5.775,16.566c1.856,4.333,3.775,8.764,7.016,12.186s8.131,5.682,12.7,4.527c5.241-1.327,8.457-6.507,10.736-11.408s4.452-10.307,9.045-13.156" transform="translate(-6352.609 7368.879)" fill="#fff"/>
    <path id="パス_1939" data-name="パス 1939" d="M772.6,512.107c-2.481-9.476-2.774-17.755-1.932-27.431.808-9.294,2.456-18.918,2.456-28.241l30.556-10.284a67.456,67.456,0,0,0-33.542-63.587c-4.723-2.742-9.774-4.268-14.672-6.564-1.563-.733-14.968-7.412-14.468-9.039a129.44,129.44,0,0,1-16.752,34.826c-.759,1.112-1.743,2.33-3.089,2.337-1.409.01-2.421-1.3-3.18-2.49a156.233,156.233,0,0,1-16.2-33.62,60.982,60.982,0,0,0-50.965,40.878c-1.841,5.351-4.136,10.4-6.419,15.617l-3.974,9.083c-.894,2.044-3.478,5.755-3.478,7.948l23.347,5.275c2.062.466,4.228.986,5.776,2.427,1.8,1.679,2.4,4.259,2.841,6.685a143.946,143.946,0,0,1-3.163,65c-2.379,8.344-2.362,16.568-2.958,25.1a3.486,3.486,0,0,0,.181,1.763,3.347,3.347,0,0,0,2.145,1.454c4.011,1.3,8.021,1.2,12.061,2.054a80.632,80.632,0,0,0,8.679,1.366,146.16,146.16,0,0,0,22.587.049c3.357-.189,6.849-.71,10.171-.622,3.63.1,7.3.85,10.946,1.028a124.367,124.367,0,0,0,43.364-5.57c3.207-1.013,4.629-2.415,4.678-5.814C777.73,532.743,774.879,520.809,772.6,512.107Z" transform="translate(-6361.483 7383.627)" fill="#f7e7e7"/>
    <path id="パス_1940" data-name="パス 1940" d="M711.064,412.521a1.919,1.919,0,0,1-1.215-3.407c10.131-8.253,17.763-22.331,24.5-36.319a1.921,1.921,0,0,1,3.46,1.669c-6.933,14.384-14.826,28.9-25.538,37.625A1.906,1.906,0,0,1,711.064,412.521Z" transform="translate(-6346.762 7384.595)" fill="#fff"/>
    <path id="パス_1941" data-name="パス 1941" d="M706.856,413.017a1.927,1.927,0,0,1-1.358-.559,94.758,94.758,0,0,1-23.253-38.87,1.92,1.92,0,1,1,3.66-1.162,90.911,90.911,0,0,0,22.309,37.312,1.92,1.92,0,0,1-1.358,3.278Z" transform="translate(-6352.265 7384.469)" fill="#fff"/>
    <path id="パス_1942" data-name="パス 1942" d="M750.466,436.466a1.921,1.921,0,0,1-.784-3.674c4.263-1.9,9.161-3.9,13.9-5.835,4.69-1.912,9.541-3.89,13.728-5.759a1.92,1.92,0,0,1,1.566,3.507c-4.246,1.894-9.126,3.884-13.845,5.809s-9.579,3.907-13.785,5.785A1.92,1.92,0,0,1,750.466,436.466Z" transform="translate(-6338.728 7394.652)" fill="#fff"/>
    <path id="パス_1943" data-name="パス 1943" d="M647.419,425.771a1.912,1.912,0,0,1-.807-.181l-7.122-3.3a1.921,1.921,0,0,1,1.613-3.488l7.125,3.3a1.921,1.921,0,0,1-.809,3.662Z" transform="translate(-6361.191 7394.163)" fill="#fff"/>
    <path id="パス_1944" data-name="パス 1944" d="M638.625,447.727a3.194,3.194,0,0,1-2.047-.74,6.982,6.982,0,0,0-1.161-.768c-2.584-1.451-3.272-3.276-2.46-6.5a76.1,76.1,0,0,1,4.822-12.253l2.563-5.657c5.345-11.9,10.871-24.2,20.541-34.106,6.844-7.016,14.306-10.41,22.948-14.341,4.728-2.15,10.087-4.592,15.974-7.932a3.2,3.2,0,1,1,3.16,5.563c-6.135,3.484-11.633,5.988-16.485,8.194-8.386,3.816-15.01,6.828-21.016,12.985-8.878,9.1-13.933,20.351-19.283,32.26l-2.589,5.71a74.534,74.534,0,0,0-4.365,10.9,12.484,12.484,0,0,1,1.447,1.034,3.2,3.2,0,0,1-2.05,5.66Z" transform="translate(-6362.361 7383.229)" fill="#13202f"/>
    <ellipse id="楕円形_304" data-name="楕円形 304" cx="3.128" cy="4.12" rx="3.128" ry="4.12" transform="translate(-5656.16 7687.729)" fill="#13202f"/>
    <ellipse id="楕円形_305" data-name="楕円形 305" cx="3.128" cy="4.12" rx="3.128" ry="4.12" transform="translate(-5632.248 7687.858)" fill="#13202f"/>
    <path id="パス_1945" data-name="パス 1945" d="M707,332.881a4.129,4.129,0,0,1-2.149-.572,1.28,1.28,0,1,1,1.351-2.174,1.711,1.711,0,0,0,1.506.028,1.28,1.28,0,0,1,1.541,2.044A3.792,3.792,0,0,1,707,332.881Z" transform="translate(-6347.76 7376.072)" fill="#13202f"/>
    <path id="パス_1946" data-name="パス 1946" d="M707.36,342.884a10.458,10.458,0,0,1-4.922-1.085,1.439,1.439,0,1,1,1.394-2.519,9.293,9.293,0,0,0,7.742-.26,1.439,1.439,0,1,1,1.559,2.419A11.051,11.051,0,0,1,707.36,342.884Z" transform="translate(-6348.28 7377.883)" fill="#13202f"/>
    <ellipse id="楕円形_306" data-name="楕円形 306" cx="1.837" cy="1.837" rx="1.837" ry="1.837" transform="translate(-5647.771 7716.14)" fill="#13202f"/>
    <ellipse id="楕円形_307" data-name="楕円形 307" cx="1.837" cy="1.837" rx="1.837" ry="1.837" transform="translate(-5637.147 7715.903)" fill="#13202f"/>
    <path id="パス_1947" data-name="パス 1947" d="M685.9,342.247a3.171,3.171,0,0,1-1.05-.178c-7.668-2.663-8.383-17.729-6.983-23.3a3.2,3.2,0,1,1,6.206,1.555c-1.4,5.573.662,14.932,2.876,15.7a3.2,3.2,0,0,1-1.05,6.222Z" transform="translate(-6353.257 7373.307)" fill="#13202f"/>
    <path id="パス_1948" data-name="パス 1948" d="M728.814,342.754a2.4,2.4,0,0,1-1.008-4.578c3.645-1.684,4.8-11.795,2.135-18.657a2.4,2.4,0,1,1,4.475-1.737c2.97,7.638,2.652,21.407-4.6,24.75A2.4,2.4,0,0,1,728.814,342.754Z" transform="translate(-6343.241 7373.288)" fill="#13202f"/>
    <path id="パス_1949" data-name="パス 1949" d="M733.766,320.358q-.372-.679-.794-1.328a10.449,10.449,0,0,0-3.415-3.6c-1.684-.969-3.477-1.732-5.242-2.54-7.781-3.561-16.912-4.985-23.193-10.8-8.617,7.109-12.17,14.517-12.817,25.668-.055.958-.184,2.1-1.035,2.543-1.044.544-2.269-.454-2.745-1.531-.554-1.252-.62-2.877-1.995-3.341-1.18-.4-2.225,1.1-3.372-.659a5.91,5.91,0,0,1-.627-3.42c.219-8.356.941-17.508,5.327-24.762a33.279,33.279,0,0,1,23.524-15.365,35.876,35.876,0,0,1,20.109,3.035c6.165,2.72,11.6,9.34,14.311,15.542,4.426,10.14,2.826,19.973-.687,30.018a6.565,6.565,0,0,1-1,2.056,2.216,2.216,0,0,1-2.013.874,2.277,2.277,0,0,1-1.6-1.584,8.632,8.632,0,0,1-.295-2.338A19.992,19.992,0,0,0,733.766,320.358Z" transform="translate(-6353.005 7366.081)" fill="#13202f"/>
    <path id="パス_1950" data-name="パス 1950" d="M730.259,303.669c4.239-1.105,8.9.861,11.724,4.211s3.987,7.854,4.026,12.235a51.271,51.271,0,0,1-2.033,12.944,19.849,19.849,0,0,0-.909,6.246,6.469,6.469,0,0,0,2.993,5.289c.951.516,2.138.758,2.738,1.659a2.65,2.65,0,0,1-.5,3.16,6.807,6.807,0,0,1-3.019,1.6,36.638,36.638,0,0,1-18.855.75,74.415,74.415,0,0,0,5.561-11.634,24.964,24.964,0,0,0,1.267-12.7c-.951-4.96-3.852-9.292-6.689-13.47" transform="translate(-6343.238 7370.659)" fill="#13202f"/>
    <path id="パス_1951" data-name="パス 1951" d="M778.906,452.318a3.2,3.2,0,0,1-.978-6.247l1.211-.379c2.206-.672,4.485-1.368,5.443-2.715.615-1.735-1.057-8.806-5.067-20.854l-.744-2.25a61.016,61.016,0,0,0-9.377-18.706c-7.072-9.17-16.933-14.323-28.349-20.288a204.748,204.748,0,0,1-20.384-11.716,3.2,3.2,0,0,1,3.582-5.307,198.123,198.123,0,0,0,19.768,11.35c11.581,6.053,22.522,11.769,30.454,22.054a67.221,67.221,0,0,1,10.4,20.637l.727,2.2c4.89,14.679,6.881,22.823,4.214,26.582-2.221,3.123-5.863,4.238-8.789,5.132l-1.129.349A3.22,3.22,0,0,1,778.906,452.318Z" transform="translate(-6344.701 7382.883)" fill="#13202f"/>
    <path id="パス_1952" data-name="パス 1952" d="M669.4,440.735l14.682,1.576c2.2.236,4.592.425,6.432-.822a6.719,6.719,0,0,0,2.605-4.961c.39-3.951-1.115-8.144-2.009-11.937l-2.988-12.682-5.977-25.364c-.358-1.518-.78-3.147-1.956-4.139-1.3-1.1-3.142-1.108-4.822-1.058q-8.589.253-17.168.759c-2.574.153-5.656.669-6.665,3.1-.592,1.428-.231,3.063.137,4.569l7,28.585" transform="translate(-6358.572 7386.558)" fill="#f03748"/>
    <path id="パス_1953" data-name="パス 1953" d="M659.986,452.559c1.973-1.747,1.354-2.935,2.98-5.071,1.9-2.5,3.928-5.1,6.779-6.325a25.243,25.243,0,0,1,6.137-1.275,30.564,30.564,0,0,0,11.732-4.47,5.2,5.2,0,0,0,1.8-1.66,2.07,2.07,0,0,0-.081-2.342,2.934,2.934,0,0,0-2.393-.62l-17.956.752,12.716-8.5a11.337,11.337,0,0,0,3.919-3.65c.876-1.593.825-3.884-.6-4.988a3.9,3.9,0,0,0,3.454-4.591,3.806,3.806,0,0,0-5.077-2.567c1.017-1.035.595-2.934-.5-3.889a7.087,7.087,0,0,0-4.025-1.353,30.649,30.649,0,0,0-8.508.114c-6.945,1.216-13,5.875-17.183,11.683s-4.642,10.9-6.553,17.849c-1.647,6-2.875,12.478-.916,18.381.621,1.874,4.3,10.6,6.925,9.767a2.012,2.012,0,0,0,.939-.913c1.742-2.606,3.913-4.245,6.24-6.193C659.877,452.653,659.932,452.607,659.986,452.559Z" transform="translate(-6359.899 7390.725)" fill="#fff"/>
    <path id="パス_1954" data-name="パス 1954" d="M670.161,444.646a2.4,2.4,0,0,1-.1-4.8c.643-.029,15.806-.691,18.941-.7a2.373,2.373,0,0,0,1.725-.525,3.254,3.254,0,0,0,.32-2.434c-2.2-12.425-7.084-37.092-10.58-50.561a1.89,1.89,0,0,0-1.878-1.465c-6.512.065-16.312.459-23.539,1.2a1.49,1.49,0,0,0-1.049.612,1.654,1.654,0,0,0-.273,1.335c.468,2.153,1.17,5.521,1.917,9.093,1.236,5.929,2.638,12.645,3.2,14.907a2.4,2.4,0,0,1-4.657,1.163c-.587-2.354-1.938-8.828-3.245-15.087-.742-3.556-1.44-6.91-1.907-9.057a6.477,6.477,0,0,1,1.079-5.172,6.3,6.3,0,0,1,4.446-2.569c7.376-.756,17.357-1.159,23.976-1.224h.075a6.725,6.725,0,0,1,6.5,5.059c3.527,13.594,8.447,38.43,10.659,50.933a7.959,7.959,0,0,1-1.366,6.347,6.694,6.694,0,0,1-5.395,2.246c-3.036.006-18.587.684-18.743.691C670.232,444.646,670.2,444.646,670.161,444.646Z" transform="translate(-6359.048 7386.157)" fill="#13202f"/>
    <path id="パス_1955" data-name="パス 1955" d="M665.38,431.735a1.752,1.752,0,0,1-1.364-2.85c.819-1,2.7-2.047,6.24-3.966,3.883-2.109,9.753-5.294,10.975-7.526a3.938,3.938,0,0,0,.053-3.065,1.763,1.763,0,0,1,.689-2.013l.646-.419c.574-.366,1.92-1.224,2.036-1.665a1.281,1.281,0,0,0-.648-.863c-2.036-1.263-7.443-.562-11.6.632a37.386,37.386,0,0,0-5.3,2.08,35.064,35.064,0,0,1-7.074,2.579,1.759,1.759,0,0,1-.78-3.431,31.915,31.915,0,0,0,6.4-2.354,40.424,40.424,0,0,1,5.791-2.256c2.377-.685,10.449-2.718,14.431-.237a4.775,4.775,0,0,1,2.25,3.275c.425,2.36-1.625,3.919-3.148,4.913a6.791,6.791,0,0,1-.651,4.516c-1.594,2.909-6.343,5.646-12.386,8.928a36.449,36.449,0,0,0-5.2,3.106A1.79,1.79,0,0,1,665.38,431.735Z" transform="translate(-6357.215 7391.421)" fill="#13202f"/>
    <path id="パス_1956" data-name="パス 1956" d="M660.916,421.066a1.6,1.6,0,0,1-.565-3.1c1.618-.609,3.123-1.144,4.578-1.663,2.616-.927,5.086-1.806,7.782-2.977a1.6,1.6,0,0,1,1.275,2.938c-2.8,1.216-5.318,2.109-7.987,3.055-1.437.513-2.922,1.038-4.519,1.641A1.636,1.636,0,0,1,660.916,421.066Z" transform="translate(-6356.921 7393.056)" fill="#13202f"/>
    <path id="パス_1957" data-name="パス 1957" d="M664.444,426.5c3.489.179,9.7.707,13.122-.073a20.522,20.522,0,0,1,5.047-.716c1.4.025,2.791.852,2.667,1.989a3.209,3.209,0,0,1-.981,1.654c-2.492,2.7-6.006,3.041-9.724,4.346-4.6,1.616-6.04,1.717-10.877,2.416" transform="translate(-6356.028 7395.605)" fill="#fff"/>
    <path id="パス_1958" data-name="パス 1958" d="M664.02,438.362a1.919,1.919,0,0,1-.272-3.819l1.344-.194a37.326,37.326,0,0,0,9.174-2.135c.981-.343,1.949-.625,2.889-.9,2.55-.737,4.564-1.322,6.058-2.94.118-.125.208-.229.277-.317a1.926,1.926,0,0,0-.585-.106,22.385,22.385,0,0,0-4.584.672c-3.2.728-8.3.429-12.022.209l-1.626-.09a1.92,1.92,0,0,1-1.818-2.015,1.862,1.862,0,0,1,2.015-1.823l1.656.094c3.294.191,8.277.485,10.94-.118a18.5,18.5,0,0,1,5.505-.766,5.071,5.071,0,0,1,3.709,1.575,3.283,3.283,0,0,1,.837,2.54,5.055,5.055,0,0,1-1.482,2.751c-2.219,2.4-5.062,3.228-7.812,4.021-.874.254-1.772.513-2.683.834a41.316,41.316,0,0,1-9.907,2.313l-1.334.191A2.179,2.179,0,0,1,664.02,438.362Z" transform="translate(-6356.354 7395.278)" fill="#13202f"/>
    <path id="パス_1959" data-name="パス 1959" d="M644.72,444.332a1.805,1.805,0,0,1-.463-.059,1.919,1.919,0,0,1-1.4-2.325c1.061-4.267,1.728-8.616,2.316-12.451.669-4.357,1.152-7.506,1.987-9.257,2.25-4.716,5.575-10.647,11.371-14.7,4.369-3.06,9.616-4.038,14.635-4.641,6.67-.8,10.763-.072,12.523,2.228a4.709,4.709,0,0,1,.389,4.9,1.92,1.92,0,1,1-3.56-1.437c.127-.315.311-.879.119-1.128-.473-.625-2.91-1.478-9.012-.75-4.524.543-9.216,1.4-12.893,3.972-5.06,3.541-8.059,8.918-10.105,13.209-.592,1.241-1.109,4.613-1.658,8.185-.572,3.725-1.283,8.36-2.385,12.794A1.922,1.922,0,0,1,644.72,444.332Z" transform="translate(-6360.29 7390.483)" fill="#13202f"/>
    <path id="パス_1960" data-name="パス 1960" d="M640.954,485.2a13.843,13.843,0,0,1-7.809-2.64c-4.847-3.294-6.819-9.5-5.859-18.447a93.812,93.812,0,0,1,11.031-35,3.2,3.2,0,0,1,5.6,3.094,87.336,87.336,0,0,0-10.273,32.585c-.472,4.41-.319,10.154,3.094,12.472a6.759,6.759,0,0,0,5.5,1.375c2.942-.725,6.053-4.013,9-9.51.981-1.831,2.207-4.806,3.393-7.685a93.16,93.16,0,0,1,4.344-9.612c.96-1.682,2.05-3.376,3.154-5.088a52.234,52.234,0,0,0,5.413-9.813,3.2,3.2,0,0,1,6.016,2.188,57.067,57.067,0,0,1-6.05,11.1c-1.041,1.612-2.072,3.206-2.976,4.787a90.975,90.975,0,0,0-3.984,8.875c-1.3,3.166-2.534,6.157-3.669,8.276-3.881,7.241-8.294,11.516-13.114,12.7A11.8,11.8,0,0,1,640.954,485.2Z" transform="translate(-6363.5 7395.963)" fill="#13202f"/>
    <path id="パス_1961" data-name="パス 1961" d="M640.1,444.179a1.919,1.919,0,0,1-1.46-3.163l5.558-6.543a1.919,1.919,0,1,1,2.924,2.487l-5.557,6.543A1.914,1.914,0,0,1,640.1,444.179Z" transform="translate(-6361.231 7397.255)" fill="#13202f"/>
    <path id="パス_1962" data-name="パス 1962" d="M645.413,433.277a1.885,1.885,0,0,1-.82-.187l-4.989-2.354a1.92,1.92,0,1,1,1.637-3.474l4.995,2.358a1.921,1.921,0,0,1-.823,3.656Z" transform="translate(-6361.166 7395.885)" fill="#13202f"/>
    <path id="パス_1963" data-name="パス 1963" d="M750.673,444.165a1.921,1.921,0,0,1-.691-3.713c3.79-1.46,8.008-3.019,12.23-4.578,4.258-1.569,8.519-3.145,12.34-4.616a1.919,1.919,0,1,1,1.381,3.582c-3.836,1.481-8.115,3.059-12.391,4.637-4.205,1.553-8.407,3.1-12.179,4.557A1.946,1.946,0,0,1,750.673,444.165Z" transform="translate(-6338.686 7396.711)" fill="#13202f"/>
    <path id="パス_1964" data-name="パス 1964" d="M759.746,603.806a3.2,3.2,0,0,1-2.533-5.154c5.09-6.606,10.156-13.732,11.284-21.831a52.414,52.414,0,0,0-.188-11.781l-.178-2.05c-.731-8.8-.773-13.234-.8-22.423-.019-6.5.173-12.516.359-18.332.331-10.319.644-20.065-.25-31.288l-.1-1.218a171.161,171.161,0,0,1-.772-23.817c.337-6.666.483-16.628.441-30.454a3.2,3.2,0,0,1,3.19-3.21h.01a3.2,3.2,0,0,1,3.2,3.192c.042,13.94-.1,24.015-.45,30.8a166.585,166.585,0,0,0,.761,22.979l.1,1.226c.921,11.578.6,21.5.266,32-.184,5.759-.376,11.715-.356,18.107.026,8.653.039,12.994.779,21.91l.176,2.013a58.032,58.032,0,0,1,.152,13.231c-1.344,9.654-7.186,17.891-12.555,24.857A3.191,3.191,0,0,1,759.746,603.806Z" transform="translate(-6337.096 7396.939)" fill="#13202f"/>
    <path id="パス_1965" data-name="パス 1965" d="M658.3,534.5a3.06,3.06,0,0,1-.767-.094,3.2,3.2,0,0,1-2.344-3.868c7.634-31.061,9.85-65.159,5.93-91.216a3.2,3.2,0,1,1,6.328-.95c4.039,26.839,1.781,61.865-6.042,93.69A3.2,3.2,0,0,1,658.3,534.5Z" transform="translate(-6357.782 7397.633)" fill="#13202f"/>
    <path id="パス_1967" data-name="パス 1967" d="M754.937,540.283a.258.258,0,0,1-.045,0,2.078,2.078,0,0,1-2.036-2.122c.213-10.013-1.581-21.048-3.314-31.719-1.254-7.719-2.442-15.007-2.712-21.191a262.494,262.494,0,0,1,.742-32.823c.937-13.122,1.673-23.488-2.224-39.889a2.08,2.08,0,1,1,4.047-.962c4.045,17.022,3.288,27.665,2.326,41.148a258.786,258.786,0,0,0-.736,32.344,191.961,191.961,0,0,0,2.663,20.707c1.764,10.853,3.589,22.078,3.367,32.473A2.082,2.082,0,0,1,754.937,540.283Z" transform="translate(-6339.392 7392.397)" fill="#13202f"/>
    <ellipse id="楕円形_308" data-name="楕円形 308" cx="3.471" cy="3.471" rx="3.471" ry="3.471" transform="translate(-5595.483 7801.209)" fill="#13202f"/>
    <path id="パス_1985" data-name="パス 1985" d="M709.791,406.727a2.077,2.077,0,0,1-1.53-.672c-9.575-10.4-17.3-25.957-18.78-37.823a2.08,2.08,0,0,1,4.128-.519c1.386,11.091,8.669,25.7,17.712,35.523a2.08,2.08,0,0,1-1.53,3.49Z" transform="translate(-6350.774 7383.409)" fill="#13202f"/>
    <path id="パス_1986" data-name="パス 1986" d="M708.121,406.667a2.081,2.081,0,0,1-1.442-3.58c7.142-6.863,16.517-25.716,18.305-34.776a2.08,2.08,0,1,1,4.081.805c-1.937,9.819-11.743,29.51-19.5,36.97A2.082,2.082,0,0,1,708.121,406.667Z" transform="translate(-6347.395 7383.56)" fill="#13202f"/>
    <path id="パス_1987" data-name="パス 1987" d="M721.669,476.971a1.919,1.919,0,0,1-.051-3.838c7.758-.21,20.726-1.444,26.958-2.037l.49-.047a1.921,1.921,0,0,1,.362,3.825l-.489.047c-6.274.6-19.329,1.837-27.218,2.05Z" transform="translate(-6344.599 7404.849)" fill="#13202f"/>
    <path id="パス_1988" data-name="パス 1988" d="M696.709,477.546c-10.729,0-18.452-.584-26.629-1.206l-1.711-.128a1.921,1.921,0,0,1,.288-3.832l1.713.131c8.1.616,15.755,1.2,26.339,1.2a1.918,1.918,0,1,1,0,3.837Z" transform="translate(-6355.438 7405.121)" fill="#13202f"/>
    <path id="パス_1991" data-name="パス 1991" d="M721.824,421.846c-.295,0-.581,0-.86-.006a1.92,1.92,0,0,1-1.9-1.941,2.032,2.032,0,0,1,1.944-1.9c4.665.069,11.929-.412,18.3-.821,2.953-.191,5.753-.372,8.1-.491a1.921,1.921,0,0,1,.19,3.838c-2.33.116-5.109.294-8.042.484C733.491,421.4,726.66,421.846,721.824,421.846Z" transform="translate(-6344.738 7393.767)" fill="#fff"/>
    <path id="パス_1992" data-name="パス 1992" d="M735.089,423.5a1.918,1.918,0,0,1-1.915-1.815c-.293-5.41-.25-10.52-.209-15.46.048-5.824.091-11.325-.378-17.11l-.124-1.559c-.793-10.056-1.478-18.737-11.854-24.416a1.92,1.92,0,1,1,1.844-3.369c12.2,6.674,13.03,17.253,13.838,27.481l.124,1.551c.484,5.956.438,11.541.389,17.453-.04,4.885-.082,9.932.2,15.222a1.922,1.922,0,0,1-1.814,2.022Z" transform="translate(-6344.628 7382.113)" fill="#f03748"/>
    <path id="パス_1993" data-name="パス 1993" d="M740.937,423.01a1.918,1.918,0,0,1-1.9-1.64A35.506,35.506,0,0,0,720.7,395.595c-2.815-1.482-6.1-2.9-9.578-4.407-8.4-3.637-17.929-7.756-23.507-14.169-2.614-3.006-3.541-6.662-2.478-9.782,1.121-3.294,4.287-5.622,8.914-6.553a1.919,1.919,0,1,1,.76,3.762c-3.231.654-5.377,2.082-6.039,4.028-.616,1.809.034,4.063,1.74,6.026,5.006,5.753,14.106,9.688,22.135,13.162,3.549,1.535,6.9,2.984,9.844,4.538a39.41,39.41,0,0,1,20.346,28.614,1.919,1.919,0,0,1-1.622,2.178A2.221,2.221,0,0,1,740.937,423.01Z" transform="translate(-6351.744 7382.339)" fill="#f03748"/>
    <path id="パス_1994" data-name="パス 1994" d="M693.447,377.049a3.2,3.2,0,0,1-2.183-5.54c3.216-3,2.649-11.938.514-15.038l-.32-.466c-4.334-6.3-8.077-11.734-9.452-19.525a3.2,3.2,0,0,1,6.3-1.112c1.133,6.422,4.348,11.094,8.42,17.006l.32.468c3.645,5.295,4.459,17.86-1.421,23.348A3.187,3.187,0,0,1,693.447,377.049Z" transform="translate(-6352.305 7376.646)" fill="#13202f"/>
    <path id="パス_1995" data-name="パス 1995" d="M723.762,376.749a3.189,3.189,0,0,1-2.42-1.105c-5.515-6.37-4.517-15.85-.681-21.927a62.191,62.191,0,0,0,7.581-17.141,3.2,3.2,0,0,1,6.192,1.625,68.891,68.891,0,0,1-8.36,18.935c-2.515,3.979-3.33,10.351.106,14.319a3.2,3.2,0,0,1-2.417,5.293Z" transform="translate(-6345.059 7376.945)" fill="#13202f"/>
    <path id="パス_1996" data-name="パス 1996" d="M720.907,415.706a1.919,1.919,0,0,1-.167-3.831c2.632-.235,7.642-.476,12.488-.713,4.81-.231,9.783-.474,12.339-.7a1.92,1.92,0,0,1,.338,3.825c-2.632.235-7.644.476-12.489.713-4.81.231-9.782.474-12.339.7A1.592,1.592,0,0,1,720.907,415.706Z" transform="translate(-6344.754 7392.496)" fill="#13202f"/>
    <path id="パス_1997" data-name="パス 1997" d="M721.911,482.3a1.6,1.6,0,0,1-.04-3.2l1.391-.037.243,1.594.044,1.6-1.6.043Z" transform="translate(-6344.485 7406.485)" fill="#13202f"/>
    <path id="パス_1998" data-name="パス 1998" d="M728.068,482.2A1.6,1.6,0,0,1,728,479c1.06-.043,2.137-.1,3.219-.156a1.561,1.561,0,0,1,1.684,1.51,1.6,1.6,0,0,1-1.51,1.684c-1.094.059-2.181.113-3.253.163Zm9.057-.5a1.6,1.6,0,0,1-.107-3.2l3.217-.231a1.544,1.544,0,0,1,1.718,1.469,1.6,1.6,0,0,1-1.471,1.718l-3.247.238C737.2,481.7,737.161,481.7,737.125,481.7Z" transform="translate(-6343.229 7406.318)" fill="#13202f"/>
    <path id="パス_1999" data-name="パス 1999" d="M743.117,481.043a1.6,1.6,0,0,1-.178-3.19l1.542-.188a1.6,1.6,0,0,1,.423,3.175c-.5.066-1.039.129-1.6.194C743.237,481.039,743.177,481.043,743.117,481.043Z" transform="translate(-6340.161 7406.196)" fill="#13202f"/>
    <path id="パス_2000" data-name="パス 2000" d="M669.765,482.009a1.608,1.608,0,0,1-.251-.019c-.55-.087-1.089-.177-1.614-.271a1.6,1.6,0,0,1-1.286-1.862,1.62,1.62,0,0,1,1.861-1.288c.5.094,1.011.178,1.536.26a1.6,1.6,0,0,1-.247,3.181Z" transform="translate(-6355.438 7406.379)" fill="#13202f"/>
    <path id="パス_2001" data-name="パス 2001" d="M687.945,483.255h-.022c-1.144-.016-2.323-.041-3.523-.078a1.6,1.6,0,0,1-1.548-1.651,1.569,1.569,0,0,1,1.649-1.549c1.179.037,2.34.061,3.465.077a1.6,1.6,0,0,1-.022,3.2Zm-9.778-.385c-.036,0-.072,0-.108,0-1.185-.078-2.363-.172-3.525-.278a1.6,1.6,0,0,1,.294-3.188c1.136.106,2.287.194,3.444.272a1.6,1.6,0,0,1-.1,3.2Z" transform="translate(-6354.115 7406.553)" fill="#13202f"/>
    <path id="パス_2002" data-name="パス 2002" d="M690.943,483.128a1.6,1.6,0,0,1-.036-3.2l1.566-.047a1.672,1.672,0,0,1,1.658,1.541,1.6,1.6,0,0,1-1.54,1.659l-1.612.047Z" transform="translate(-6350.799 7406.651)" fill="#13202f"/>
    <path id="パス_2005" data-name="パス 2005" d="M315.036,321.8A54.8,54.8,0,0,0,221.5,358.442v51.983a4.892,4.892,0,0,0,4.892,4.892h47.466c16.688.057,29.877-4.67,41.178-15.99A54.9,54.9,0,0,0,315.036,321.8Z" transform="translate(-5797.419 7346.683)" fill="#fff" opacity="0.5"/>
  </g>
</svg>
