<svg xmlns="http://www.w3.org/2000/svg" xmlns:xlink="http://www.w3.org/1999/xlink" width="1720" height="619" viewBox="0 0 1720 619">
  <defs>
    <clipPath id="clip-path">
      <rect id="長方形_492" data-name="長方形 492" width="1720" height="619" transform="translate(100 751)" fill="#fff" stroke="#707070" stroke-width="1"/>
    </clipPath>
  </defs>
  <g id="マスクグループ_81" data-name="マスクグループ 81" transform="translate(-100 -751)" clip-path="url(#clip-path)">
    <g id="グループ_2149" data-name="グループ 2149">
      <path id="パス_1630" data-name="パス 1630" d="M11.348,0,0,8.291l6.331,4.094L17.678,4.094Z" transform="translate(1177.267 1091.404) rotate(56)" fill="#fb71d9"/>
      <text id="_" data-name="※" transform="translate(1036 1085.5)" fill="#444" font-size="12" font-family="UDShinGoNTPro-Light, A-OTF UD Shin Go NT Pro" font-weight="300"><tspan x="0" y="0">※</tspan></text>
      <path id="パス_1631" data-name="パス 1631" d="M11.348,12.384,0,4.094,6.331,0,17.678,8.291Z" transform="translate(316.756 1036.341) rotate(106)" fill="#fb71d9"/>
      <path id="パス_1632" data-name="パス 1632" d="M11.348,12.384,0,4.094,6.331,0,17.678,8.291Z" transform="translate(250.319 1125.322) rotate(175)" fill="#f6ae01"/>
      <path id="パス_1633" data-name="パス 1633" d="M11.348,12.384,0,4.094,6.331,0,17.678,8.291Z" transform="matrix(-0.588, 0.809, -0.809, -0.588, 552, 865.472)" fill="#72c6ea"/>
      <path id="パス_1634" data-name="パス 1634" d="M11.348,12.384,0,4.094,6.331,0,17.678,8.291Z" transform="translate(311.103 1192.252) rotate(-129)" fill="#72c6ea"/>
      <path id="パス_1635" data-name="パス 1635" d="M13.6,16.823,5.356,17.879A25.073,25.073,0,0,0,0,5.159l3.258-2.58L6.515,0A33.616,33.616,0,0,1,13.6,16.823" transform="translate(746.81 922.651) rotate(143)" fill="#fb71d9"/>
      <path id="パス_1636" data-name="パス 1636" d="M11.348,0,0,8.291l6.331,4.094L17.678,4.094Z" transform="matrix(-0.719, -0.695, 0.695, -0.719, 252.376, 977.5)" fill="#72c6ea"/>
      <path id="パス_1637" data-name="パス 1637" d="M11.348,0,0,8.291l6.331,4.094L17.678,4.094Z" transform="matrix(-0.174, 0.985, -0.985, -0.174, 1615.84, 885.651)" fill="#72c6ea"/>
      <path id="パス_1638" data-name="パス 1638" d="M8.7.847,3.428,0A23.017,23.017,0,0,1,0,10.2l2.085,2.069L4.17,14.337A30.865,30.865,0,0,0,8.7.847" transform="translate(1430.261 887.92) rotate(-135)" fill="#2bb599"/>
      <path id="パス_1639" data-name="パス 1639" d="M12.053,1.173,4.747,0A31.874,31.874,0,0,1,0,14.125l2.887,2.865,2.887,2.864A42.741,42.741,0,0,0,12.053,1.173" transform="matrix(0.743, 0.669, -0.669, 0.743, 769.409, 1183.09)" fill="#2bb599"/>
      <path id="パス_1641" data-name="パス 1641" d="M11.348,12.384,0,4.094,6.331,0,17.678,8.291Z" transform="translate(1689.596 989.834) rotate(-47)" fill="#fb71d9"/>
      <path id="パス_1642" data-name="パス 1642" d="M11.248,0,0,8.218l6.276,4.058L17.523,4.058Z" transform="translate(1609.839 1003.634) rotate(49)" fill="#2eafd8"/>
      <g id="グループ_1656" data-name="グループ 1656" transform="translate(1762.689 -884.046) rotate(60)">
        <ellipse id="楕円形_237" data-name="楕円形 237" cx="45.682" cy="45.682" rx="45.682" ry="45.682" transform="translate(1634.654 981.453) rotate(-5)" fill="none" stroke="#d5dce6" stroke-linecap="round" stroke-linejoin="round" stroke-width="2.8" stroke-dasharray="0 7"/>
        <ellipse id="楕円形_238" data-name="楕円形 238" cx="27.6" cy="27.6" rx="27.6" ry="27.6" transform="translate(1606.687 1020.097) rotate(-5)" fill="#f03748" opacity="0.056"/>
      </g>
      <path id="パス_1643" data-name="パス 1643" d="M11.348,0,0,8.291l6.331,4.094L17.678,4.094Z" transform="matrix(0.94, -0.342, 0.342, 0.94, 1684.596, 1176.766)" fill="#f6ae01"/>
      <path id="パス_1644" data-name="パス 1644" d="M12.053,18.681,4.747,19.854A31.874,31.874,0,0,0,0,5.729L2.887,2.864,5.775,0a42.741,42.741,0,0,1,6.278,18.681" transform="matrix(-0.809, 0.588, -0.588, -0.809, 360, 880.124)" fill="#2bb599"/>
    </g>
  </g>
</svg>
