<svg xmlns="http://www.w3.org/2000/svg" width="150" height="150" viewBox="0 0 150 150">
  <g id="グループ_1181" data-name="グループ 1181" transform="translate(-456 -4622)">
    <circle id="楕円形_121" data-name="楕円形 121" cx="75" cy="75" r="75" transform="translate(456 4622)" fill="#fff"/>
    <g id="グループ_1219" data-name="グループ 1219" transform="translate(2271 4901.63)">
      <rect id="長方形_369" data-name="長方形 369" width="59" height="57" rx="7" transform="translate(-1770 -232.63)" fill="#22b395"/>
      <path id="パス_731" data-name="パス 731" d="M-1762.391-173.3h44.481a8.619,8.619,0,0,0,8.609-8.609v-44.481A8.619,8.619,0,0,0-1717.91-235h-44.481a8.619,8.619,0,0,0-8.609,8.609v44.481A8.619,8.619,0,0,0-1762.391-173.3Zm-4.3-53.09a4.309,4.309,0,0,1,4.3-4.3h44.481a4.309,4.309,0,0,1,4.3,4.3v44.481a4.309,4.309,0,0,1-4.3,4.3h-44.481a4.309,4.309,0,0,1-4.3-4.3Z" transform="translate(0 0)" fill="#13202f"/>
      <path id="パス_732" data-name="パス 732" d="M-1739.8-184.526a2.147,2.147,0,0,0,1.5.6,2.147,2.147,0,0,0,1.495-.6l18.593-17.955a2.152,2.152,0,0,0,.053-3.043,2.152,2.152,0,0,0-3.043-.053l-17.1,16.51-10.045-9.7a2.152,2.152,0,0,0-3.043.054,2.152,2.152,0,0,0,.053,3.043Z" transform="translate(-5.369 -8.143)" fill="#13202f"/>
    </g>
  </g>
</svg>
