<svg xmlns="http://www.w3.org/2000/svg" width="130" height="130" viewBox="0 0 130 130">
  <g id="グループ_2154" data-name="グループ 2154" transform="translate(156.892 -145.108)">
    <g id="グループ_2153" data-name="グループ 2153">
      <path id="パス_1854" data-name="パス 1854" d="M-30.039-2.293V-7.268H-42.848v5.33h5.589V-.533c0,1.05.759,1.1,1.551,1.1h5.573c1.211,0,1.308-1.244,1.405-2.487Zm-1.615-.888H-35.66v-.953h4.006Zm-5.6,0h-4.006v-.953h4.006Zm0-2H-41.2v-.921h3.941Zm5.6,0H-35.66v-.921h4.006ZM-35.272-.9c-.372,0-.388-.081-.388-.452v-.581h5.346c-.065.969-.162,1.034-.63,1.034Zm5.33-13.051H-42.864v1.341h5.637v.646h-6.412V-8.5h1.664v-2.294h4.749v3.134h1.518v-3.134h4.8V-8.5H-29.2v-3.473h-6.509v-.646h5.766ZM-41.168-8.706v.856H-37.9v-.856Zm6.235,0v.856h3.311v-.856Zm-6.235-1.438v.824H-37.9v-.824Zm6.235,0v.824h3.311v-.824Zm19.706-2.342a22.646,22.646,0,0,0,3.037-.614l-.662-1.47a36.648,36.648,0,0,1-7.769.937l.275,1.551c1.341-.032,2.1-.081,3.489-.21v2.084h-3.618v1.583h3.618v2.277h-2.956V.372H-12.4V-6.348h-2.827V-8.625h3.473v-1.583h-3.473ZM-13.983-1.13H-18.2v-3.7h4.216ZM-26.356-14.1v1.454h5.1V-14.1Zm0,9.53V.388h5.1V-4.571ZM-22.851-1h-1.906V-3.182h1.906Zm-4.038-10.741v1.47h6.2v-1.47Zm.533,2.358v1.421h5.1V-9.384Zm0,2.391V-5.54h5.1V-6.994ZM5.4-1.017A14.058,14.058,0,0,1-.157-3.5H5.318V-4.845h-6.7v-.969H4.3V-7.058H-1.385v-.969H4.672V-9.352H1.2c.065-.178.372-1.05.452-1.26H5.318V-12H2.831a13.347,13.347,0,0,0,.888-2l-1.68-.485A17.568,17.568,0,0,1,1.151-12H.1v-2.374H-1.482V-12H-2.887v-2.374H-4.47V-12h-.985a13.113,13.113,0,0,0-.969-2.487L-8.1-14c.307.662.824,1.761.937,2H-9.7v1.389h3.634a7.776,7.776,0,0,1,.436,1.26H-8.912v1.324h5.9v.969H-8.572v1.244h5.556v.969H-9.7V-3.5h5.476A17.091,17.091,0,0,1-9.687-1l.84,1.438A15.381,15.381,0,0,0-3.016-2.729V.646h1.631V-2.746A14.946,14.946,0,0,0,4.462.453ZM-3.9-9.352c-.081-.194-.372-1.082-.452-1.26H-.125a6.659,6.659,0,0,1-.388,1.26Zm18.979,2.81a12.02,12.02,0,0,0,3.537-1.648,13.494,13.494,0,0,0,3.424,1.68L22.8-7.963a11.772,11.772,0,0,1-2.972-1.2,6.582,6.582,0,0,0,1.7-2.714h1.05v-1.389H17.643a5.72,5.72,0,0,0,.388-1L16.4-14.521a7.381,7.381,0,0,1-2.7,3.553l1.131,1.082a7.307,7.307,0,0,0,1.131-1A14.414,14.414,0,0,0,17.4-9.174a7.821,7.821,0,0,1-2.875,1.2v-1.1H12.054l.678-.711a7.29,7.29,0,0,0-.614-.6,15.97,15.97,0,0,0,1.987-2.067v-1.486H7.58v1.486h4.7a7.13,7.13,0,0,1-1.179,1.26,8.461,8.461,0,0,0-1.534-.969L8.549-11a14.294,14.294,0,0,1,2.52,1.922H7.386v1.534h2.6A11.326,11.326,0,0,1,7.079-3.489l.808,1.405a11.9,11.9,0,0,0,2.439-3.344v4.216c0,.355-.226.436-.549.436H8.048l.307,1.5h1.971A1.3,1.3,0,0,0,11.812-.565V-7.543h1.228a7.183,7.183,0,0,1-.985,2.035l1.292.711a11.335,11.335,0,0,0,1.163-2.7Zm4.716-5.33a4.5,4.5,0,0,1-1.26,1.793,8.554,8.554,0,0,1-1.648-1.793Zm-5.8,6.251v1.454H16.27A5.376,5.376,0,0,1,12.894-.6l1.1,1.324a6.727,6.727,0,0,0,3.925-4.894h2.6a8.869,8.869,0,0,1-.436,2.891.786.786,0,0,1-.872.517H17.255L17.594.727h2.2A1.555,1.555,0,0,0,21.568-.484,20.542,20.542,0,0,0,22.1-5.621H18.143c.048-.63.065-.872.065-1.244H16.625c-.016.42-.016.711-.065,1.244Zm16.782-8.367c-.355.727-.485.985-1.018,1.987H28.642c-.985,0-1.906-.032-2.552-.065L26.058-10.4c1.244.032,1.712.032,2.762.016a37.994,37.994,0,0,1-3.311,4.716L26.9-4.7c1.211-1.777,2.407-3.344,4.28-3.344a1.3,1.3,0,0,1,1.373.921c-1.793.84-4.135,2.067-4.135,4.119,0,2.827,3.78,2.827,5.217,2.827A30.877,30.877,0,0,0,37.316-.42l.178-1.761a24.123,24.123,0,0,1-4.151.372c-2.294,0-3.279-.355-3.279-1.26,0-.953,1.179-1.68,2.617-2.358-.016.969-.048,1.583-.113,2.407h1.712c.016-.436.065-2.035.016-3.117,1.421-.581,2.714-1.082,4.183-1.583l-.646-1.6c-1,.372-2.245.856-3.828,1.534a2.556,2.556,0,0,0-2.568-1.68,2.763,2.763,0,0,0-1.777.533c.323-.5.646-1.018.969-1.518a56.711,56.711,0,0,0,6.073-.6l.016-1.664a35.96,35.96,0,0,1-5.072.63c.258-.4.646-1.05.888-1.47Z" transform="translate(-88.214 191.51)" fill="#13202f"/>
      <path id="パス_1861" data-name="パス 1861" d="M1.9,0A1.9,1.9,0,1,1,0,1.9,1.9,1.9,0,0,1,1.9,0Z" transform="translate(-92.146 198.45)" fill="#f03748"/>
      <path id="パス_1862" data-name="パス 1862" d="M1.9,0A1.9,1.9,0,1,1,0,1.9,1.9,1.9,0,0,1,1.9,0Z" transform="translate(-72.668 198.45)" fill="#f03748"/>
      <path id="パス_1863" data-name="パス 1863" d="M1.9,0A1.9,1.9,0,1,1,0,1.9,1.9,1.9,0,0,1,1.9,0Z" transform="translate(-112.574 198.45)" fill="#f03748"/>
      <path id="パス_1855" data-name="パス 1855" d="M-4.371-25.4H-17.809v13.2h3.132a5.249,5.249,0,0,1,3.466-1.155c2.828,0,5.138,1.7,5.138,4.53,0,2.007-1.277,4.743-5.929,4.743A11.006,11.006,0,0,1-18.357-6l-1,3.314A15.012,15.012,0,0,0-11.972-.8c6.78,0,9.517-4.2,9.517-8,0-4.317-3.344-7.753-8.513-7.753a9.165,9.165,0,0,0-3.466.608v-6.172H-4.371ZM8.916-.8c8.513,0,8.513-10.216,8.513-12.557,0-2.311,0-12.527-8.513-12.527S.4-15.7.4-13.361.4-.8,8.916-.8Zm0-3.284c-3.892,0-4.9-4.378-4.9-9.273,0-4.621.882-9.243,4.9-9.243s4.9,4.591,4.9,9.243C13.811-8.77,12.929-4.088,8.916-4.088Z" transform="translate(-99.257 231.98)" fill="#f03748" stroke="#f03748" stroke-width="0.25"/>
      <path id="パス_1856" data-name="パス 1856" d="M-7.6-11.472A3.567,3.567,0,0,0-4.152-7.59,3.567,3.567,0,0,0-.7-11.472c0-2.419-1.607-3.9-3.448-3.9S-7.6-13.909-7.6-11.472Zm1.661,0c0-1.769.993-2.437,1.787-2.437.74,0,1.787.614,1.787,2.437S-3.412-9.053-4.152-9.053C-4.946-9.053-5.939-9.7-5.939-11.472ZM-.054-4.377c0,2.4,1.589,3.9,3.448,3.9a3.583,3.583,0,0,0,3.448-3.9A3.567,3.567,0,0,0,3.394-8.258,3.556,3.556,0,0,0-.054-4.377Zm1.661,0C1.607-6.146,2.6-6.8,3.394-6.8c.776,0,1.787.632,1.787,2.419,0,1.841-1.047,2.437-1.787,2.437C2.636-1.94,1.607-2.554,1.607-4.377ZM-6.029-.767H-4.6L5.253-15.082H3.827Z" transform="translate(-70.389 230.505)" fill="#f03748" stroke="#f03748" stroke-width="0.25"/>
      <path id="パス_1857" data-name="パス 1857" d="M-18.859-6.025V-4.62h-4.8V-6.025Zm-3.214-4.248h-3.166V.646h1.583V-3.166h4.8v1.858c0,.355-.129.355-.517.355h-2l.355,1.6h2.229c1.324,0,1.534-.549,1.534-1.6v-9.32h-3.247v-4.167h-1.567Zm3.214,1.486v1.308h-4.8V-8.787Zm2.794-4.7V-3.166h1.648V-13.488Zm-9.708-.194a15.048,15.048,0,0,1,1.115,2.988l1.6-.42a24.745,24.745,0,0,0-1.179-3Zm7.22-.436a11.959,11.959,0,0,1-1.05,2.956l1.567.436a15.431,15.431,0,0,0,1.082-3.069ZM-13.06-1.5c0,.4-.048.468-.517.468h-1.938l.275,1.68h2.358A1.241,1.241,0,0,0-11.429-.63v-13.81H-13.06ZM1.283-7.35H-2.658v5.427H.7A11.171,11.171,0,0,1-1.285-.6L-.364.71A13.728,13.728,0,0,0,2.882-1.858c.307.937.872,2.6,1.922,2.6.678,0,1.244-.791,1.809-2.277l-1-1.211c-.1.275-.468,1.357-.711,1.357-.307,0-.662-1.583-.791-2.132A19.715,19.715,0,0,0,6.29-9.514L4.869-9.983a22.1,22.1,0,0,1-1.2,3.893A34.589,34.589,0,0,1,3.4-10.774H6.29v-1.567H5.757l.727-.953a11.368,11.368,0,0,0-1.906-1.292l-.888,1.1a8.728,8.728,0,0,1,1.6,1.147H3.383c0-.323-.032-1.793-.032-2.084h-1.5c0,.307.016,1.68.032,2.084H-4.806v6.38A9.764,9.764,0,0,1-6.325-.34L-4.887.742A9.364,9.364,0,0,0-3.53-3.021,22.048,22.048,0,0,0-3.223-6.4v-4.377H1.9c.178,4.668.194,5.2.533,6.994A8.44,8.44,0,0,1,1.283-2.44ZM-.138-6.106v2.924H-1.285V-6.106Zm-8.3-6.849a12.716,12.716,0,0,1,2.455,1.631l1.018-1.47a11.9,11.9,0,0,0-2.487-1.5Zm-.646,4.329A13.817,13.817,0,0,1-6.7-7.091l1-1.308A11.636,11.636,0,0,0-8.247-9.9Zm2.245,2.794A17.855,17.855,0,0,1-9.184-.792L-7.94.6a24.167,24.167,0,0,0,2.487-5.6Zm4.054-2.5H1.428V-9.756H-2.787Zm17.59-5.2.242,9.207h1.583l.242-9.207Zm0,12.809h2.051V-2.795H14.8Z" transform="translate(-86.128 253.335)" fill="#13202f"/>
    </g>
    <g id="楕円形_296" data-name="楕円形 296" transform="translate(-156.892 145.108)" fill="none" stroke="#13202f" stroke-width="1.6">
      <circle cx="65" cy="65" r="65" stroke="none"/>
      <circle cx="65" cy="65" r="64.2" fill="none"/>
    </g>
  </g>
</svg>
