<svg xmlns="http://www.w3.org/2000/svg" width="150" height="150" viewBox="0 0 150 150">
  <g id="グループ_1215" data-name="グループ 1215" transform="translate(-456 -4622)">
    <circle id="楕円形_121" data-name="楕円形 121" cx="75" cy="75" r="75" transform="translate(456 4622)" fill="#fff"/>
    <g id="グループ_1290" data-name="グループ 1290" transform="translate(1757.636 4898.253)">
      <path id="パス_1478" data-name="パス 1478" d="M727.973,5032.652c5.32-.189,61.777,0,61.777,0s6.318.931,6.658,9.51,0,36.981,0,36.981-.967,6.68-9.718,6.225-58.717,0-58.717,0a7.443,7.443,0,0,1-6.231-6.95c-.678-6.309.6-39.131.6-39.131S722.653,5032.841,727.973,5032.652Z" transform="translate(-1985.636 -5261.253)" fill="#56b3d0"/>
      <path id="パス_1479" data-name="パス 1479" d="M738.695,5083.761s4.836-17.575,20.32-17.575,19.475,15.084,20.226,17.575S738.695,5083.761,738.695,5083.761Z" transform="translate(-1985.636 -5261.253)" fill="#fff"/>
      <circle id="楕円形_213" data-name="楕円形 213" cx="11" cy="11" r="11" transform="translate(-1237.636 -217.253)" fill="#fff"/>
      <path id="パス_730" data-name="パス 730" d="M-1256.553-174.316H-1229v7.085h-14.958a2.362,2.362,0,0,0-2.362,2.362,2.362,2.362,0,0,0,2.362,2.362h34.64a2.362,2.362,0,0,0,2.362-2.362,2.362,2.362,0,0,0-2.362-2.362h-14.958v-7.085h27.555a9.458,9.458,0,0,0,9.447-9.447v-37.789A9.458,9.458,0,0,0-1196.72-231h-59.833a9.458,9.458,0,0,0-9.447,9.447v37.789A9.458,9.458,0,0,0-1256.553-174.316Zm29.917-22.831a8.67,8.67,0,0,1-8.66-8.66,8.67,8.67,0,0,1,8.66-8.66,8.67,8.67,0,0,1,8.66,8.66A8.67,8.67,0,0,1-1226.636-197.147Zm0,4.724c.025,0,.05,0,.075,0a17.351,17.351,0,0,1,16.793,13.388h-33.738a17.351,17.351,0,0,1,16.793-13.388C-1226.687-192.428-1226.661-192.424-1226.636-192.424Zm-34.64-29.129a4.728,4.728,0,0,1,4.724-4.724h59.833a4.729,4.729,0,0,1,4.724,4.724v37.789a4.729,4.729,0,0,1-4.724,4.724h-8.237a22.109,22.109,0,0,0-13.217-16.409,13.361,13.361,0,0,0,4.921-10.358,13.4,13.4,0,0,0-13.384-13.384,13.4,13.4,0,0,0-13.384,13.384,13.36,13.36,0,0,0,4.921,10.358,22.109,22.109,0,0,0-13.217,16.409h-8.237a4.728,4.728,0,0,1-4.724-4.724Z" fill="#13202f"/>
    </g>
  </g>
</svg>
