<svg xmlns="http://www.w3.org/2000/svg" width="315" height="165" viewBox="0 0 315 165">
  <g id="グループ_1832" data-name="グループ 1832" transform="translate(-267 -8218)">
    <rect id="長方形_439" data-name="長方形 439" width="315" height="165" transform="translate(267 8218)" fill="#fff"/>
    <g id="グループ_1836" data-name="グループ 1836" transform="translate(-833.521 1350.269)">
      <g id="グループ_1377" data-name="グループ 1377" transform="translate(1173.677 6915.227)">
        <rect id="長方形_349" data-name="長方形 349" width="105.34" height="64.703" transform="translate(30.681 9.99)" fill="#dcdfe2"/>
        <path id="パス_1216" data-name="パス 1216" d="M87-177.629v-56.478h90.128Z" transform="translate(-56.319 244.097)" fill="#fff"/>
        <g id="グループ_1376" data-name="グループ 1376" transform="translate(0 0)">
          <g id="グループ_1374" data-name="グループ 1374">
            <path id="パス_1217" data-name="パス 1217" d="M214.628-150.758H52.466a2.207,2.207,0,0,1-2.208-2.208v-4.4a2.208,2.208,0,0,1,1.112-1.917l19.608-11.2v-73.369a2.208,2.208,0,0,1,2.208-2.208h120.72a2.208,2.208,0,0,1,2.208,2.208v73.369l19.608,11.2a2.208,2.208,0,0,1,1.112,1.917v4.4A2.207,2.207,0,0,1,214.628-150.758ZM54.674-155.174H212.42v-.916L192.812-167.3a2.208,2.208,0,0,1-1.113-1.916v-72.442H75.394v72.442a2.208,2.208,0,0,1-1.113,1.916L54.674-156.09Z" transform="translate(-50.258 246.07)" fill="#13202f"/>
            <g id="グループ_1373" data-name="グループ 1373" transform="translate(50.641 82.434)">
              <path id="パス_1218" data-name="パス 1218" d="M216.81-144.04h-5.5a1.657,1.657,0,0,1-1.656-1.656,1.657,1.657,0,0,1,1.656-1.656h5.5a1.656,1.656,0,0,1,1.656,1.656A1.657,1.657,0,0,1,216.81-144.04Z" transform="translate(-127.193 147.352)" fill="#13202f"/>
              <path id="パス_1219" data-name="パス 1219" d="M202.033-144.04h-5.5a1.657,1.657,0,0,1-1.656-1.656,1.657,1.657,0,0,1,1.656-1.656h5.5a1.656,1.656,0,0,1,1.656,1.656A1.657,1.657,0,0,1,202.033-144.04Z" transform="translate(-124.755 147.352)" fill="#13202f"/>
              <path id="パス_1220" data-name="パス 1220" d="M187.257-144.04h-5.5A1.657,1.657,0,0,1,180.1-145.7a1.656,1.656,0,0,1,1.656-1.656h5.5a1.656,1.656,0,0,1,1.655,1.656A1.656,1.656,0,0,1,187.257-144.04Z" transform="translate(-122.318 147.352)" fill="#13202f"/>
              <path id="パス_1221" data-name="パス 1221" d="M172.478-144.04h-5.5a1.657,1.657,0,0,1-1.656-1.656,1.656,1.656,0,0,1,1.656-1.656h5.5a1.656,1.656,0,0,1,1.656,1.656A1.657,1.657,0,0,1,172.478-144.04Z" transform="translate(-119.88 147.352)" fill="#13202f"/>
              <path id="パス_1222" data-name="パス 1222" d="M157.7-144.04h-5.5a1.657,1.657,0,0,1-1.656-1.656,1.656,1.656,0,0,1,1.656-1.656h5.5a1.657,1.657,0,0,1,1.656,1.656A1.657,1.657,0,0,1,157.7-144.04Z" transform="translate(-117.442 147.352)" fill="#13202f"/>
              <path id="パス_1223" data-name="パス 1223" d="M142.925-144.04h-5.5a1.657,1.657,0,0,1-1.656-1.656,1.656,1.656,0,0,1,1.656-1.656h5.5a1.656,1.656,0,0,1,1.656,1.656A1.657,1.657,0,0,1,142.925-144.04Z" transform="translate(-115.005 147.352)" fill="#13202f"/>
              <path id="パス_1224" data-name="パス 1224" d="M128.147-144.04h-5.5a1.657,1.657,0,0,1-1.656-1.656,1.657,1.657,0,0,1,1.656-1.656h5.5A1.656,1.656,0,0,1,129.8-145.7,1.657,1.657,0,0,1,128.147-144.04Z" transform="translate(-112.567 147.352)" fill="#13202f"/>
              <path id="パス_1225" data-name="パス 1225" d="M114.328-144.04h-1.769A1.657,1.657,0,0,1,110.9-145.7a1.657,1.657,0,0,1,1.656-1.656h1.769a1.657,1.657,0,0,1,1.656,1.656A1.657,1.657,0,0,1,114.328-144.04Z" transform="translate(-110.903 147.352)" fill="#13202f"/>
            </g>
          </g>
          <g id="グループ_1375" data-name="グループ 1375" transform="translate(29.249 8.881)">
            <path id="パス_1226" data-name="パス 1226" d="M176.846-168.316H86.592a1.307,1.307,0,0,1-1.307-1.308v-64.5a1.307,1.307,0,0,1,1.307-1.308H192.058a1.307,1.307,0,0,1,1.307,1.308v64.5a1.307,1.307,0,0,1-1.307,1.308H188.6a1.306,1.306,0,0,1-1.308-1.307,1.306,1.306,0,0,1,1.308-1.307h2.151v-61.892H87.9v61.892h89.014a1.306,1.306,0,0,1,1.308,1.307,1.306,1.306,0,0,1-1.308,1.307Z" transform="translate(-85.285 235.435)" fill="#13202f"/>
            <path id="パス_1227" data-name="パス 1227" d="M202.4-155.573h-1.664a1.306,1.306,0,0,1-1.308-1.307,1.306,1.306,0,0,1,1.308-1.307H202.4a1.306,1.306,0,0,1,1.309,1.307A1.306,1.306,0,0,1,202.4-155.573Z" transform="translate(-104.115 222.692)" fill="#13202f"/>
          </g>
        </g>
      </g>
      <g id="グループ_1614" data-name="グループ 1614" transform="matrix(0.996, -0.087, 0.087, 0.996, 1126.437, 6890.79)">
        <rect id="長方形_403" data-name="長方形 403" width="49.384" height="39.096" rx="10" transform="translate(1.653 0.527)" fill="#f03748"/>
        <path id="多角形_9" data-name="多角形 9" d="M7.24,2.58a2,2,0,0,1,3.354,0l5.231,8.048a2,2,0,0,1-1.677,3.09H3.685a2,2,0,0,1-1.677-3.09Z" transform="translate(35.262 11.501) rotate(90)" fill="#fff"/>
        <g id="グループ_1611" data-name="グループ 1611" transform="translate(0 0)">
          <path id="パス_1230" data-name="パス 1230" d="M1.29,17.542a2.554,2.554,0,0,0,2.579,0l11.02-6.363a2.579,2.579,0,0,0,0-4.467L3.869.35A2.579,2.579,0,0,0,0,2.584V15.308A2.554,2.554,0,0,0,1.29,17.542ZM2.579,2.584,13.6,8.946,2.579,15.308Z" transform="translate(19.781 11.346)" fill="#13202f"/>
          <path id="パス_1231" data-name="パス 1231" d="M6.581,40.584H46.069A6.589,6.589,0,0,0,52.65,34V6.581A6.589,6.589,0,0,0,46.069,0H6.581A6.589,6.589,0,0,0,0,6.581V34A6.589,6.589,0,0,0,6.581,40.584Zm-3.291-34A3.294,3.294,0,0,1,6.581,3.291H46.069a3.294,3.294,0,0,1,3.291,3.291V34a3.294,3.294,0,0,1-3.291,3.291H6.581A3.294,3.294,0,0,1,3.291,34Z" transform="translate(0 0)" fill="#13202f"/>
        </g>
      </g>
      <g id="グループ_1615" data-name="グループ 1615" transform="matrix(0.996, 0.087, -0.087, 0.996, 1343.608, 6952.982)">
        <circle id="楕円形_235" data-name="楕円形 235" cx="4.801" cy="4.801" r="4.801" transform="translate(28.642 9.637) rotate(-5)" fill="#ffd471"/>
        <path id="パス_1599" data-name="パス 1599" d="M0,13.023,11.342.949,14.369,0,16.6.949l3.307,1.228L42.53,18.823s-.714,2.018-5.126,2.047-33.427,0-33.427,0L0,18.27Z" transform="translate(1.28 16.459)" fill="#74d0a2"/>
        <g id="グループ_1610" data-name="グループ 1610" transform="translate(0 0)">
          <path id="パス_1228" data-name="パス 1228" d="M6.253,0a6.253,6.253,0,1,0,6.253,6.253A6.26,6.26,0,0,0,6.253,0Zm0,9.619A3.367,3.367,0,1,1,9.619,6.253,3.371,3.371,0,0,1,6.253,9.619Z" transform="translate(27.415 7.695)" fill="#13202f"/>
          <path id="パス_1229" data-name="パス 1229" d="M40.4,0H5.772A5.778,5.778,0,0,0,0,5.772V32.705a5.778,5.778,0,0,0,5.772,5.772H40.4a5.778,5.778,0,0,0,5.772-5.772V5.772A5.778,5.778,0,0,0,40.4,0Zm0,35.591H5.772a2.889,2.889,0,0,1-2.886-2.886V29.328A1.484,1.484,0,0,0,3.1,29.15L12.7,19.137a4.307,4.307,0,0,1,5.483-.6L41.474,35.382A2.864,2.864,0,0,1,40.4,35.591Zm2.886-2.886a2.854,2.854,0,0,1-.032.4l-23.4-16.923-.043-.03a7.19,7.19,0,0,0-9.189.981L2.886,25.2V5.772A2.889,2.889,0,0,1,5.772,2.886H40.4a2.889,2.889,0,0,1,2.886,2.886Z" transform="translate(0 0)" fill="#13202f"/>
        </g>
      </g>
    </g>
  </g>
</svg>
