<svg xmlns="http://www.w3.org/2000/svg" width="468" height="245" viewBox="0 0 468 245">
  <g id="グループ_2150" data-name="グループ 2150" transform="translate(-1067 -6963)">
    <rect id="長方形_350" data-name="長方形 350" width="468" height="245" transform="translate(1067 6963)" fill="#fff"/>
    <g id="グループ_1707" data-name="グループ 1707" transform="translate(-17.438 89.799)">
      <g id="グループ_1377" data-name="グループ 1377" transform="translate(1145.052 7174.59)">
        <rect id="長方形_349" data-name="長方形 349" width="153.581" height="94.335" transform="translate(94.99 -231.506)" fill="#dcdfe2"/>
        <path id="パス_1216" data-name="パス 1216" d="M87-151.764v-82.343H218.4Z" transform="translate(7.99 2.601)" fill="#fff"/>
        <g id="グループ_1376" data-name="グループ 1376" transform="translate(50.258 -246.07)">
          <g id="グループ_1374" data-name="グループ 1374">
            <path id="パス_1217" data-name="パス 1217" d="M289.9-107.109H53.477a3.218,3.218,0,0,1-3.219-3.219v-6.422a3.219,3.219,0,0,1,1.622-2.8l28.588-16.336V-242.851a3.219,3.219,0,0,1,3.219-3.219H259.692a3.219,3.219,0,0,1,3.219,3.219v106.969L291.5-119.546a3.219,3.219,0,0,1,1.622,2.8v6.422A3.218,3.218,0,0,1,289.9-107.109ZM56.7-113.547H286.683v-1.336L258.1-131.22a3.22,3.22,0,0,1-1.623-2.794V-239.632H86.906v105.618a3.22,3.22,0,0,1-1.623,2.794L56.7-114.883Z" transform="translate(-50.258 246.07)" fill="#13202f"/>
            <g id="グループ_1373" data-name="グループ 1373" transform="translate(73.833 120.185)">
              <path id="パス_1218" data-name="パス 1218" d="M220.088-142.524h-8.019a2.416,2.416,0,0,1-2.414-2.414,2.415,2.415,0,0,1,2.414-2.414h8.019a2.415,2.415,0,0,1,2.414,2.414A2.415,2.415,0,0,1,220.088-142.524Z" transform="translate(-89.429 147.352)" fill="#13202f"/>
              <path id="パス_1219" data-name="パス 1219" d="M205.311-142.524H197.29a2.416,2.416,0,0,1-2.414-2.414,2.415,2.415,0,0,1,2.414-2.414h8.021a2.414,2.414,0,0,1,2.414,2.414A2.415,2.415,0,0,1,205.311-142.524Z" transform="translate(-92.642 147.352)" fill="#13202f"/>
              <path id="パス_1220" data-name="パス 1220" d="M190.535-142.524h-8.021a2.415,2.415,0,0,1-2.414-2.414,2.415,2.415,0,0,1,2.414-2.414h8.021a2.414,2.414,0,0,1,2.413,2.414A2.415,2.415,0,0,1,190.535-142.524Z" transform="translate(-95.856 147.352)" fill="#13202f"/>
              <path id="パス_1221" data-name="パス 1221" d="M175.755-142.524h-8.018a2.415,2.415,0,0,1-2.414-2.414,2.415,2.415,0,0,1,2.414-2.414h8.018a2.415,2.415,0,0,1,2.414,2.414A2.415,2.415,0,0,1,175.755-142.524Z" transform="translate(-99.069 147.352)" fill="#13202f"/>
              <path id="パス_1222" data-name="パス 1222" d="M160.98-142.524h-8.021a2.415,2.415,0,0,1-2.414-2.414,2.415,2.415,0,0,1,2.414-2.414h8.021a2.415,2.415,0,0,1,2.414,2.414A2.416,2.416,0,0,1,160.98-142.524Z" transform="translate(-102.283 147.352)" fill="#13202f"/>
              <path id="パス_1223" data-name="パス 1223" d="M146.2-142.524h-8.021a2.415,2.415,0,0,1-2.414-2.414,2.415,2.415,0,0,1,2.414-2.414H146.2a2.415,2.415,0,0,1,2.414,2.414A2.415,2.415,0,0,1,146.2-142.524Z" transform="translate(-105.496 147.352)" fill="#13202f"/>
              <path id="パス_1224" data-name="パス 1224" d="M131.425-142.524h-8.019a2.416,2.416,0,0,1-2.414-2.414,2.415,2.415,0,0,1,2.414-2.414h8.019a2.415,2.415,0,0,1,2.414,2.414A2.415,2.415,0,0,1,131.425-142.524Z" transform="translate(-108.709 147.352)" fill="#13202f"/>
              <path id="パス_1225" data-name="パス 1225" d="M115.9-142.524h-2.579a2.416,2.416,0,0,1-2.414-2.414,2.415,2.415,0,0,1,2.414-2.414H115.9a2.415,2.415,0,0,1,2.414,2.414A2.416,2.416,0,0,1,115.9-142.524Z" transform="translate(-110.903 147.352)" fill="#13202f"/>
            </g>
          </g>
          <g id="グループ_1375" data-name="グループ 1375" transform="translate(42.644 12.948)">
            <path id="パス_1226" data-name="パス 1226" d="M218.777-137.578H87.19a1.906,1.906,0,0,1-1.905-1.907v-94.044a1.906,1.906,0,0,1,1.905-1.907H240.955a1.906,1.906,0,0,1,1.905,1.907v94.044a1.906,1.906,0,0,1-1.905,1.907h-5.044A1.9,1.9,0,0,1,234-139.484a1.9,1.9,0,0,1,1.907-1.905h3.136v-90.236H89.1v90.236H218.877a1.9,1.9,0,0,1,1.907,1.905,1.9,1.9,0,0,1-1.907,1.905Z" transform="translate(-85.285 235.435)" fill="#13202f"/>
            <path id="パス_1227" data-name="パス 1227" d="M203.766-154.376H201.34a1.9,1.9,0,0,1-1.907-1.905,1.9,1.9,0,0,1,1.907-1.905h2.426a1.9,1.9,0,0,1,1.908,1.905A1.9,1.9,0,0,1,203.766-154.376Z" transform="translate(-60.463 252.233)" fill="#13202f"/>
          </g>
        </g>
      </g>
      <g id="グループ_1614" data-name="グループ 1614" transform="matrix(0.996, -0.087, 0.087, 0.996, 6938.771, -2862.001)">
        <rect id="長方形_403" data-name="長方形 403" width="72" height="57" rx="10" transform="translate(-6638 9211.962)" fill="#f03748"/>
        <path id="多角形_9" data-name="多角形 9" d="M11.323,2.58a2,2,0,0,1,3.354,0l9.315,14.33A2,2,0,0,1,22.315,20H3.685a2,2,0,0,1-1.677-3.09Z" transform="translate(-6589 9227.962) rotate(90)" fill="#fff"/>
        <g id="グループ_1611" data-name="グループ 1611" transform="translate(-7168.411 8928.193)">
          <path id="パス_1230" data-name="パス 1230" d="M561.88,324.765a3.724,3.724,0,0,0,3.76,0l16.066-9.276a3.76,3.76,0,0,0,0-6.513L565.641,299.7A3.76,3.76,0,0,0,560,302.956v18.551A3.723,3.723,0,0,0,561.88,324.765Zm1.88-21.809,16.066,9.276-16.066,9.276Z" transform="translate(-3.16 0.353)" fill="#13202f"/>
          <path id="パス_1231" data-name="パス 1231" d="M537.6,342.17h57.571a9.606,9.606,0,0,0,9.6-9.6V292.6a9.606,9.606,0,0,0-9.6-9.6H537.6a9.606,9.606,0,0,0-9.6,9.6v39.98A9.606,9.606,0,0,0,537.6,342.17ZM532.8,292.6a4.8,4.8,0,0,1,4.8-4.8h57.571a4.8,4.8,0,0,1,4.8,4.8v39.98a4.8,4.8,0,0,1-4.8,4.8H537.6a4.8,4.8,0,0,1-4.8-4.8Z" transform="translate(0 0)" fill="#13202f"/>
        </g>
      </g>
      <g id="グループ_1615" data-name="グループ 1615" transform="matrix(0.996, 0.087, -0.087, 0.996, 8691.465, -1690.895)">
        <circle id="楕円形_235" data-name="楕円形 235" cx="7" cy="7" r="7" transform="translate(-6423.032 9287.241) rotate(-5)" fill="#ffd471"/>
        <path id="パス_1599" data-name="パス 1599" d="M-6462.925,9316.174l16.537-17.6,4.413-1.383,3.25,1.383,4.822,1.79,32.985,24.271s-1.041,2.942-7.474,2.984-48.735,0-48.735,0l-5.8-3.791Z" fill="#74d0a2"/>
        <g id="グループ_1610" data-name="グループ 1610" transform="translate(-5456.791 9249.19)">
          <path id="パス_1228" data-name="パス 1228" d="M-941.884,40A9.126,9.126,0,0,0-951,49.116a9.126,9.126,0,0,0,9.116,9.116,9.126,9.126,0,0,0,9.116-9.116A9.126,9.126,0,0,0-941.884,40Zm0,14.024a4.914,4.914,0,0,1-4.909-4.909,4.914,4.914,0,0,1,4.909-4.909,4.914,4.914,0,0,1,4.909,4.909A4.915,4.915,0,0,1-941.884,54.024Z" transform="translate(-17.03 -4.78)" fill="#13202f"/>
          <path id="パス_1229" data-name="パス 1229" d="M-949.1,24h-50.488A8.424,8.424,0,0,0-1008,32.415V71.683a8.424,8.424,0,0,0,8.415,8.415H-949.1a8.424,8.424,0,0,0,8.415-8.415V32.415A8.424,8.424,0,0,0-949.1,24Zm0,51.891h-50.488a4.212,4.212,0,0,1-4.207-4.207V66.759a2.167,2.167,0,0,0,.305-.259l14.01-14.6a6.28,6.28,0,0,1,7.995-.87l33.95,24.554A4.176,4.176,0,0,1-949.1,75.891Zm4.207-4.207a4.17,4.17,0,0,1-.046.588L-979.05,47.6l-.062-.043a10.483,10.483,0,0,0-13.4,1.431l-11.283,11.756V32.415a4.212,4.212,0,0,1,4.207-4.207H-949.1a4.212,4.212,0,0,1,4.207,4.207Z" fill="#13202f"/>
        </g>
      </g>
    </g>
  </g>
</svg>
