<svg xmlns="http://www.w3.org/2000/svg" xmlns:xlink="http://www.w3.org/1999/xlink" width="315" height="168.949" viewBox="0 0 315 168.949">
  <defs>
    <clipPath id="clip-path">
      <rect id="長方形_495" data-name="長方形 495" width="315" height="168.949" rx="20" transform="translate(230 1637.672)" fill="#fff"/>
    </clipPath>
    <clipPath id="clip-path-2">
      <rect id="長方形_493" data-name="長方形 493" width="345" height="158" transform="translate(15 1470)" fill="#fff"/>
    </clipPath>
  </defs>
  <g id="マスクグループ_83" data-name="マスクグループ 83" transform="translate(-230 -1637.672)" clip-path="url(#clip-path)">
    <g id="グループ_2170" data-name="グループ 2170" transform="translate(169)">
      <g id="グループ_2155" data-name="グループ 2155" transform="translate(31 199.621)">
        <g id="グループ_1720" data-name="グループ 1720" transform="translate(-795 -195)">
          <circle id="楕円形_123" data-name="楕円形 123" cx="10.096" cy="10.096" r="10.096" transform="translate(871.81 1633.051) rotate(8)" fill="#fff"/>
          <circle id="楕円形_124" data-name="楕円形 124" cx="8.413" cy="8.413" r="8.413" transform="translate(891.696 1655.856) rotate(8)" fill="#fff"/>
        </g>
      </g>
      <g id="マスクグループ_82" data-name="マスクグループ 82" transform="translate(31 178.621)" clip-path="url(#clip-path-2)">
        <g id="グループ_2162" data-name="グループ 2162" transform="translate(-180.304 -211.044)">
          <g id="グループ_2161" data-name="グループ 2161" transform="translate(267.304 1686)">
            <g id="グループ_2160" data-name="グループ 2160" transform="translate(0 0)">
              <path id="パス_1861" data-name="パス 1861" d="M780.1,445.637c11.136,0,23.1,10.914,21.653,19.48s-6.366,13-8.372,17.453-3.829,6.046-3.758,10.635,3.275,4.537,2.857,11.136-5.61,20.345-5.781,23.786-.521,29.418.016,36.705l-3.463.657-19.127-2.7s-3.108-26.011-1.116-39.022,9.579-26.527,9.579-26.527.2-3.688-2.26-5.445-12.145-8.49-10.259-25.608S780.1,445.637,780.1,445.637Z" transform="translate(-670.203 -434.107)" fill="#fff"/>
              <path id="パス_1862" data-name="パス 1862" d="M744.642,597.361a11.965,11.965,0,0,1,4.716-.779,129.535,129.535,0,0,1-1.94-33.555,81.034,81.034,0,0,1,9.05-31.6c-7.465,4.031-14.983,7.522-21.306,13.179s-11.434,13.066-12.762,21.445a70.959,70.959,0,0,1,12.4.39Z" transform="translate(-655.136 -468.645)" fill="#a7b0b7"/>
              <path id="パス_1863" data-name="パス 1863" d="M847.639,598.016c.739,5.179,1.269,11.1-2.208,15.012-2.765,3.107-7.252,3.928-11.4,4.206a70.8,70.8,0,0,1-23.231-2.289c-.6-6.845-5.1-10.639-12.841-14.294a3.352,3.352,0,0,1,4.106-1.572,42.587,42.587,0,0,0,.309-5.477q-.258-3.316-.433-6.636c-.225-4.331-.333-8.667-.281-13,.05-4.318.2-8.6.467-12.892.265-4.232,1.7-8.146,3.114-12.106,1.56-4.373,3.3-9.028,2.459-13.594a14.263,14.263,0,0,0-1.747-4.672,36.687,36.687,0,0,1,6.138,2c2.186,1.034,4.3,2.264,6.439,3.391,5,2.634,10.064,5.313,14.208,9.157,6.328,5.87,9.92,14.423,11.267,22.829C845.583,577.931,846.22,588.074,847.639,598.016Z" transform="translate(-685.556 -468.353)" fill="#a7b0b7"/>
              <path id="パス_1864" data-name="パス 1864" d="M759.883,641.575c4.179-.369,8.352.569,12.442,1.5,2.323.529,4.647,1.059,6.965,1.61,1.725.41,4.271.523,5.731,1.562a52.018,52.018,0,0,1,8.389,6.9,2.87,2.87,0,0,1,1.016,2.229,2.039,2.039,0,0,1-1.7,1.519c-.771.146-1.524-.1-2.29,0a13.085,13.085,0,0,1-2.572.189L763.3,655.749" transform="translate(-670.228 -512.959)" fill="#fff"/>
              <path id="パス_1865" data-name="パス 1865" d="M840,616.48a1.339,1.339,0,0,1-.385-2.621c.972-.292,1.93-.5,2.855-.7,5.348-1.167,9.574-2.088,8.258-20.031-.456-6.221-2.265-21.576-3.853-28a60.385,60.385,0,0,0-4.82-13.96c-2.577-4.943-7.1-7.578-11.885-10.368l-1.428-.835c-1.394-.822-3.357-1.814-5.254-2.774-2.051-1.038-4.175-2.111-5.717-3.035a46.406,46.406,0,0,1-7.614-5.3,1.339,1.339,0,0,1,1.755-2.023,43.747,43.747,0,0,0,7.234,5.023c1.461.874,3.54,1.925,5.55,2.942,1.936.979,3.937,1.991,5.405,2.856l1.416.829c5.13,2.99,9.976,5.815,12.912,11.444a62.78,62.78,0,0,1,5.045,14.555c1.622,6.562,3.462,22.148,3.924,28.448,1.382,18.848-3.2,21.282-10.358,22.842-.876.191-1.781.389-2.655.651A1.349,1.349,0,0,1,840,616.48Z" transform="translate(-690.284 -466.665)" fill="#13202f"/>
              <path id="パス_1866" data-name="パス 1866" d="M722.4,566.7a1.34,1.34,0,0,1-1.225-1.88c1-2.272,1.854-4.3,2.624-6.134,2.534-6.037,4.208-10.026,7.513-13.853,3.694-4.277,7.1-6.151,10.708-8.136,1.333-.733,2.712-1.492,4.136-2.394.7-.446,1.53-.939,2.422-1.472,1.891-1.127,4.033-2.405,5.89-3.764a1.339,1.339,0,0,1,1.581,2.161c-1.959,1.433-4.159,2.746-6.1,3.9-.87.518-1.677,1-2.36,1.433-1.495.947-2.909,1.726-4.279,2.48-3.538,1.946-6.592,3.627-9.972,7.54-3.027,3.506-4.635,7.338-7.071,13.14-.776,1.848-1.633,3.89-2.642,6.178A1.341,1.341,0,0,1,722.4,566.7Z" transform="translate(-654.6 -467.594)" fill="#13202f"/>
              <ellipse id="楕円形_299" data-name="楕円形 299" cx="1.914" cy="2.608" rx="1.914" ry="2.608" transform="translate(106.643 28.814) rotate(-9.718)" fill="#13202f"/>
              <ellipse id="楕円形_300" data-name="楕円形 300" cx="1.889" cy="2.584" rx="1.889" ry="2.584" transform="matrix(0.976, -0.216, 0.216, 0.976, 93.043, 28.786)" fill="#13202f"/>
              <path id="パス_1867" data-name="パス 1867" d="M842.667,616.128a1.182,1.182,0,0,1-1.182-1.177c-.025-7.8-1.6-18.5-3.065-25.9a1.181,1.181,0,0,1,2.318-.458,150.923,150.923,0,0,1,3.11,26.352,1.181,1.181,0,0,1-1.177,1.185Z" transform="translate(-701.838 -491.278)" fill="#13202f"/>
              <path id="パス_1868" data-name="パス 1868" d="M802.162,642.951c-1.27,0-2.464-.038-3.555-.116a1.181,1.181,0,0,1,.171-2.357c7.715.56,20.808-1.01,28.023-3.356a1.182,1.182,0,0,1,.731,2.247C821.1,641.46,810.156,642.951,802.162,642.951Z" transform="translate(-685.377 -511.177)" fill="#13202f"/>
              <path id="パス_1869" data-name="パス 1869" d="M782.231,645.9a1.181,1.181,0,0,1-.232-.022l-13.129-2.6c-.919-.182-1.787-.412-2.622-.634-2.49-.661-4.455-1.185-6.689-.107a1.181,1.181,0,1,1-1.026-2.128c3.019-1.453,5.593-.771,8.322-.048.789.209,1.607.427,2.476.6l13.129,2.6a1.181,1.181,0,0,1-.228,2.34Z" transform="translate(-669.415 -512.176)" fill="#13202f"/>
              <path id="パス_1870" data-name="パス 1870" d="M765.385,658.162a.866.866,0,0,1-.081-1.728,34.478,34.478,0,0,0,6.662-1.43.866.866,0,1,1,.527,1.651,35.8,35.8,0,0,1-7.025,1.5A.778.778,0,0,1,765.385,658.162Z" transform="translate(-672.094 -518.383)" fill="#13202f"/>
              <path id="パス_1871" data-name="パス 1871" d="M761.843,652.665a.867.867,0,0,1-.16-1.718c.812-.154,2.752-.749,4.035-1.142l.741-.226a.866.866,0,1,1,.5,1.658l-.736.225c-1.4.428-3.314,1.016-4.221,1.188A.88.88,0,0,1,761.843,652.665Z" transform="translate(-670.668 -516.2)" fill="#13202f"/>
              <path id="パス_1872" data-name="パス 1872" d="M810.961,659.5a.945.945,0,0,1-.765-1.5c.53-.733-.027-2.017-.857-2.711a32.369,32.369,0,0,0-2.705-1.975,20.067,20.067,0,0,1-4.663-3.961.945.945,0,1,1,1.462-1.2,18.294,18.294,0,0,0,4.26,3.592,33.987,33.987,0,0,1,2.857,2.09c1.528,1.277,2.385,3.6,1.177,5.269A.945.945,0,0,1,810.961,659.5Z" transform="translate(-687.086 -515.505)" fill="#13202f"/>
              <path id="パス_1873" data-name="パス 1873" d="M743.4,600.977a1.182,1.182,0,0,1-1.134-.851c-1.091-3.744-2.646-11.137-.795-18.582a1.182,1.182,0,1,1,2.293.57c-1.719,6.906-.255,13.834.77,17.35a1.183,1.183,0,0,1-.8,1.465A1.2,1.2,0,0,1,743.4,600.977Z" transform="translate(-662.47 -488.463)" fill="#13202f"/>
              <circle id="楕円形_301" data-name="楕円形 301" cx="1.964" cy="1.964" r="1.964" transform="translate(135.377 94.151)" fill="#13202f"/>
              <circle id="楕円形_302" data-name="楕円形 302" cx="1.733" cy="1.733" r="1.733" transform="translate(78.403 91.246)" fill="#13202f"/>
              <path id="パス_1874" data-name="パス 1874" d="M761.252,647.926a.867.867,0,0,1-.3-1.68,3.642,3.642,0,0,1,.439-.141c.049-.013.1-.027.271-.089a.866.866,0,0,1,.594,1.627,3.483,3.483,0,0,1-.439.14,2.787,2.787,0,0,0-.271.09A.863.863,0,0,1,761.252,647.926Z" transform="translate(-670.43 -514.759)" fill="#13202f"/>
              <g id="グループ_2159" data-name="グループ 2159" transform="translate(0 96.085)">
                <path id="パス_1875" data-name="パス 1875" d="M898.948,671.574a1.81,1.81,0,0,0-1.809,1.81v1.394a.415.415,0,0,0,.415.415h1.394a1.81,1.81,0,1,0,0-3.62Z" transform="translate(-725.488 -621.155)" fill="#13202f"/>
                <g id="グループ_2158" data-name="グループ 2158">
                  <path id="パス_1876" data-name="パス 1876" d="M627.311,639.519a324.325,324.325,0,0,1-13.755-49.71,11.9,11.9,0,0,1,4.412-1.268q2.816-.047,5.631-.033c3.7.021,7.41.129,11.108.359,5.939.369,10.115-1.01,16.15-.838,13.664.389,26.928,3.533,40.65,1.728,4.09,13.632,8.181,26.95,12.271,40.582a5.02,5.02,0,0,0,5.716,4.464q15.732,1.071,31.515.882l.2,4.38" transform="translate(-611.315 -587.513)" fill="#f03748"/>
                  <path id="パス_1877" data-name="パス 1877" d="M625.369,639.634a1.576,1.576,0,0,1-1.5-1.109L622.71,634.8c-4.388-14.127-11.021-35.476-12.873-44.479a1.574,1.574,0,0,1,.443-1.445l1.277-1.246a1.573,1.573,0,0,1,1.1-.448l4.862,0c18.309-.014,61.2-.049,71.161.667a1.575,1.575,0,1,1-.226,3.142c-9.84-.708-54.228-.677-70.931-.659l-4.225,0-.2.192c2.04,9.3,8.378,29.7,12.617,43.342l1.156,3.724a1.577,1.577,0,0,1-1.505,2.041Z" transform="translate(-609.805 -587.176)" fill="#13202f"/>
                  <path id="パス_1878" data-name="パス 1878" d="M741.381,675.313c-47.444,0-99.472-.074-105.6-.388a1.575,1.575,0,1,1,.161-3.145c5.95.3,58.547.437,148.1.366l3.685,0a1.575,1.575,0,1,1,0,3.15l-3.683,0C771.421,675.306,756.635,675.313,741.381,675.313Z" transform="translate(-619.661 -621.238)" fill="#13202f"/>
                  <path id="パス_1879" data-name="パス 1879" d="M755.911,635.763a1.26,1.26,0,0,1-1.209-.909c-3.426-11.778-10.869-35.286-14.08-44.116a1.26,1.26,0,1,1,2.369-.862c3.313,9.113,10.662,32.348,14.131,44.273a1.262,1.262,0,0,1-1.21,1.613Z" transform="translate(-662.442 -587.93)" fill="#13202f"/>
                  <path id="パス_1880" data-name="パス 1880" d="M801.76,667.2h-.029l-6.15-.124c-14.3-.281-27.308-.559-29.365-.878a1.26,1.26,0,0,1,.385-2.49c2.061.318,18.943.65,29.03.848l6.156.124a1.26,1.26,0,0,1-.027,2.519Z" transform="translate(-672.347 -617.983)" fill="#13202f"/>
                  <path id="パス_1881" data-name="パス 1881" d="M826.468,672.161a1.339,1.339,0,0,1-1.335-1.26l-.235-3.958a1.339,1.339,0,0,1,2.673-.158l.235,3.958a1.34,1.34,0,0,1-1.258,1.416Z" transform="translate(-696.402 -618.72)" fill="#13202f"/>
                  <path id="パス_1882" data-name="パス 1882" d="M752.971,637.652a.945.945,0,0,1-.9-.677c-.911-3.073-3.758-12.121-6.511-20.87-2.947-9.364-5.994-19.048-6.7-21.525a.945.945,0,1,1,1.817-.522c.7,2.455,3.747,12.126,6.69,21.48,2.756,8.757,5.606,17.812,6.521,20.9a.945.945,0,0,1-.638,1.174A.926.926,0,0,1,752.971,637.652Z" transform="translate(-661.745 -589.67)" fill="#fff" opacity="0.5"/>
                </g>
              </g>
              <path id="パス_1883" data-name="パス 1883" d="M771.2,512.8a1.38,1.38,0,0,1-.219-.018,1.339,1.339,0,0,1-1.1-1.539c.578-3.5-.684-4.356-2.973-5.9a16.555,16.555,0,0,1-4.177-3.646c-4.115-5.323-5.924-12.591-5.094-20.467a1.323,1.323,0,0,1,1.471-1.192,1.338,1.338,0,0,1,1.191,1.471c-.757,7.188.858,13.775,4.55,18.55a14.162,14.162,0,0,0,3.558,3.066c2.445,1.652,4.972,3.361,4.116,8.557A1.339,1.339,0,0,1,771.2,512.8Z" transform="translate(-669.242 -447.953)" fill="#13202f"/>
              <path id="パス_1884" data-name="パス 1884" d="M810.178,519.269a1.338,1.338,0,0,1-1.15-.651c-2.026-3.378-1.6-11.977,2.635-20.517a1.339,1.339,0,1,1,2.4,1.189c-4.264,8.608-3.876,16.054-2.738,17.952a1.339,1.339,0,0,1-1.146,2.028Z" transform="translate(-689.542 -454.929)" fill="#13202f"/>
              <path id="パス_1885" data-name="パス 1885" d="M776.908,496.626a2.436,2.436,0,0,1-1.447-.479.63.63,0,1,1,.757-1.007,1.141,1.141,0,0,0,.868.21.641.641,0,0,1,.731.511.63.63,0,0,1-.511.731A2.27,2.27,0,0,1,776.908,496.626Z" transform="translate(-676.398 -453.986)" fill="#13202f"/>
              <path id="パス_1886" data-name="パス 1886" d="M815.821,488.346a1.339,1.339,0,0,1-.465-2.594c4.661-1.726,6.342-7.17,5.764-10.438-.186-1.052-.771-2.819-2.587-2.826a1.339,1.339,0,0,1-1.334-1.344,1.3,1.3,0,0,1,1.345-1.333c2.667.011,4.664,1.941,5.212,5.037.851,4.805-1.762,11.3-7.47,13.414A1.34,1.34,0,0,1,815.821,488.346Z" transform="translate(-692.209 -443.837)" fill="#13202f"/>
              <path id="パス_1887" data-name="パス 1887" d="M787.674,469.8c-1.772,1.788-5.959,12.01-3.7,14.226,1.692-3.805,9.6-3.232,14.163-11.229,3.621-6.351,4.049-14.548-.646-27.841-2.614-7.4-8.076-13.763-12.969-13.763-11.006-9.194-20.936-3.689-27.386,2.9-10.846,11.08-14.174,29.862-10.238,44.426,1.644,6.083,5.822,4.855,12.113,1.034-1.523-1.788-1.412-4.643-3.885-10.006-1.23-16.618,10.415-25.475,21.694-27.741a1.2,1.2,0,0,1,1.388.874c2.942,10.806,8.364,24.334,13.44,11.923C793.258,450.675,797.5,465.334,787.674,469.8Z" transform="translate(-664.358 -426.336)" fill="#13202f"/>
              <path id="パス_1888" data-name="パス 1888" d="M803.947,599.9a.946.946,0,0,1-.944-.915c-.115-3.5-.28-6.806-.437-9.954-.386-7.733-.719-14.411-.187-20.8a159.293,159.293,0,0,1,3.458-18.648l.647-2.216c2.048-6.964,3.176-10.8.318-15.173a.945.945,0,1,1,1.582-1.034c3.335,5.1,1.973,9.733-.088,16.74l-.643,2.206a159.7,159.7,0,0,0-3.39,18.282c-.522,6.262-.192,12.881.191,20.548.157,3.158.323,6.475.438,9.987a.944.944,0,0,1-.913.975Z" transform="translate(-687.225 -468.369)" fill="#13202f"/>
              <path id="パス_1889" data-name="パス 1889" d="M764.818,597.483a.944.944,0,0,1-.937-.835c-.93-7.915-1.154-11-1.695-18.464l-.23-3.159c-.432-5.9.177-18.1,2.884-26.717a70.828,70.828,0,0,1,7.249-16.085.945.945,0,0,1,1.6,1.008,68.929,68.929,0,0,0-7.044,15.643c-2.6,8.291-3.211,20.424-2.8,26.012l.23,3.161c.538,7.432.762,10.507,1.686,18.381a.944.944,0,0,1-.829,1.048A.975.975,0,0,1,764.818,597.483Z" transform="translate(-671.011 -468.789)" fill="#13202f"/>
              <path id="パス_1890" data-name="パス 1890" d="M779.929,564.233a51.45,51.45,0,0,1-12.419-1.344.945.945,0,0,1,.458-1.833c7.653,1.913,16.258,1.318,23.722.609a.945.945,0,0,1,.179,1.881C788.094,563.9,784.033,564.233,779.929,564.233Z" transform="translate(-673.01 -480.564)" fill="#13202f"/>
            </g>
            <path id="パス_1891" data-name="パス 1891" d="M808.1,590.056a.829.829,0,0,1-.152-.014.788.788,0,0,1-.622-.924c2.585-13.254,5.391-23.155,12.8-37.5a.788.788,0,1,1,1.4.723c-7.319,14.174-10.092,23.965-12.65,37.076A.787.787,0,0,1,808.1,590.056Z" transform="translate(-689.324 -476.605)" fill="#13202f"/>
            <path id="パス_1892" data-name="パス 1892" d="M793.975,475a.648.648,0,0,1-.126-.012,9.864,9.864,0,0,1-4.878-1.875.692.692,0,0,1,.913-1.04,8.671,8.671,0,0,0,4.216,1.555.692.692,0,0,1-.125,1.372Z" transform="translate(-682.247 -444.893)" fill="#13202f"/>
            <path id="パス_1893" data-name="パス 1893" d="M764.679,474.928a.674.674,0,0,1-.147-1.332,9.03,9.03,0,0,0,3.314-1.9.674.674,0,1,1,.828,1.063,10.038,10.038,0,0,1-3.846,2.152A.653.653,0,0,1,764.679,474.928Z" transform="translate(-672.167 -444.733)" fill="#13202f"/>
            <path id="パス_1894" data-name="パス 1894" d="M778.613,502.548a5.3,5.3,0,0,0-3.694,1.2.709.709,0,0,0,1,1.009c1.081-1.068,4.228-1.058,6.013.021a.709.709,0,1,0,.734-1.213A8.174,8.174,0,0,0,778.613,502.548Z" transform="translate(-676.196 -457.019)" fill="#13202f"/>
            <ellipse id="楕円形_303" data-name="楕円形 303" cx="0.929" cy="0.914" rx="0.929" ry="0.914" transform="matrix(0.823, -0.568, 0.568, 0.823, 105.274, 47.192)" fill="#13202f"/>
            <ellipse id="楕円形_304" data-name="楕円形 304" cx="0.883" cy="0.87" rx="0.883" ry="0.87" transform="matrix(0.823, -0.568, 0.568, 0.823, 97.819, 47.129)" fill="#13202f"/>
          </g>
          <path id="パス_1895" data-name="パス 1895" d="M16.394,22.723a1.018,1.018,0,0,0,.988-.777,4.973,4.973,0,0,0-.85-4.592,4.28,4.28,0,0,0-.256-2.836,5.319,5.319,0,0,0-1.142-1.671c1.2-1.471,2.223-3.4.73-5.173a5.521,5.521,0,0,0-1.106-.979,4.263,4.263,0,0,0,.193-4.114C14.064.664,12.029-.255,9.369.061,5.466.525.778,3.567.02,7.359a1.018,1.018,0,0,0,2,.4c.56-2.8,4.471-5.3,7.593-5.675,1.241-.147,2.854-.032,3.5,1.353a2.311,2.311,0,0,1,.169,1.544c-.145.585-.263.8-.826.569a6.026,6.026,0,0,0-5.531.444C6.3,6.373,5.674,6.8,5.1,7.233,3.956,8.1,2.687,9.436,3.125,11a2.552,2.552,0,0,0,1.92,1.9c2.406.561,6.088-2.019,6.715-2.72.246-.275.532-.563.835-.868s.629-.634.947-.986a3.54,3.54,0,0,1,.766.657c.551.654.144,1.529-.886,2.734a5,5,0,0,0-.737-.232A4.852,4.852,0,0,0,8.5,12.815c-.494.493-2,1.993-1.438,3.55a1.93,1.93,0,0,0,1.126,1.173,3.217,3.217,0,0,0,2.483-.3,8.945,8.945,0,0,0,2.4-2.129c.082-.093.162-.185.243-.275.125-.141.281-.3.449-.478a3.278,3.278,0,0,1,.651.972,2.651,2.651,0,0,1,.218.847,3.527,3.527,0,0,0-3.243.637,3.742,3.742,0,0,0-1.272,2.931,1.731,1.731,0,0,0,1.064,1.348c1.264.531,3.072-.826,4.148-1.893a3.515,3.515,0,0,1,.082,2.269,1.019,1.019,0,0,0,.99,1.258Zm-2.843-4.652a8.221,8.221,0,0,1-1.3.946,2.262,2.262,0,0,1,.463-.664A1.323,1.323,0,0,1,13.551,18.071Zm-1.723-4.637-.04.045-.252.285A7.338,7.338,0,0,1,9.711,15.44a1.569,1.569,0,0,1-.732.208c.008-.13.114-.553.956-1.393A3.092,3.092,0,0,1,11.828,13.434Zm-.27-5.97q-.2.2-.407.415c-.322.325-.627.631-.908.946-.472.518-3.459,2.4-4.741,2.093-.161-.038-.315-.1-.416-.466C4.9,9.785,6.8,8.281,8.993,7.358A4.488,4.488,0,0,1,11.558,7.464Z" transform="translate(425.558 1688.659) rotate(65)" fill="#13202f"/>
        </g>
      </g>
    </g>
  </g>
</svg>
