<svg xmlns="http://www.w3.org/2000/svg" xmlns:xlink="http://www.w3.org/1999/xlink" width="550" height="368" viewBox="0 0 550 368">
  <defs>
    <clipPath id="clip-path">
      <rect id="長方形_140" data-name="長方形 140" width="95.074" height="33.851" fill="none"/>
    </clipPath>
  </defs>
  <g id="グループ_2152" data-name="グループ 2152" transform="translate(-360 -3850)">
    <rect id="長方形_300" data-name="長方形 300" width="550" height="368" rx="20" transform="translate(360 3850)" fill="#fff"/>
    <g id="グループ_1365" data-name="グループ 1365" transform="translate(456.268 3884.446)">
      <g id="グループ_1355" data-name="グループ 1355" transform="translate(50.258 92.93)">
        <path id="パス_1190" data-name="パス 1190" d="M325,252.242H53.948a3.689,3.689,0,0,1-3.69-3.69v-7.363a3.691,3.691,0,0,1,1.859-3.2l32.775-18.728V96.62a3.69,3.69,0,0,1,3.69-3.69H290.364a3.69,3.69,0,0,1,3.69,3.69V219.256l32.775,18.728a3.691,3.691,0,0,1,1.859,3.2v7.363A3.689,3.689,0,0,1,325,252.242Zm-267.36-7.381h263.67V243.33L288.535,224.6a3.691,3.691,0,0,1-1.861-3.2V100.311H92.273V221.4a3.691,3.691,0,0,1-1.861,3.2L57.639,243.33Z" transform="translate(-50.258 -92.93)" fill="#13202f"/>
        <g id="グループ_1354" data-name="グループ 1354" transform="translate(84.646 137.786)">
          <path id="パス_1191" data-name="パス 1191" d="M221.616,197.184h-9.194a2.768,2.768,0,0,1,0-5.536h9.194a2.768,2.768,0,1,1,0,5.536Z" transform="translate(-71.822 -191.648)" fill="#13202f"/>
          <path id="パス_1192" data-name="パス 1192" d="M206.839,197.184h-9.2a2.768,2.768,0,0,1,0-5.536h9.2a2.768,2.768,0,0,1,0,5.536Z" transform="translate(-77.67 -191.648)" fill="#13202f"/>
          <path id="パス_1193" data-name="パス 1193" d="M192.063,197.184h-9.2a2.768,2.768,0,0,1,0-5.536h9.2a2.768,2.768,0,0,1,0,5.536Z" transform="translate(-83.518 -191.648)" fill="#13202f"/>
          <path id="パス_1194" data-name="パス 1194" d="M177.283,197.184h-9.192a2.768,2.768,0,0,1,0-5.536h9.192a2.768,2.768,0,0,1,0,5.536Z" transform="translate(-89.366 -191.648)" fill="#13202f"/>
          <path id="パス_1195" data-name="パス 1195" d="M162.508,197.184h-9.2a2.768,2.768,0,1,1,0-5.536h9.2a2.768,2.768,0,0,1,0,5.536Z" transform="translate(-95.214 -191.648)" fill="#13202f"/>
          <path id="パス_1196" data-name="パス 1196" d="M147.731,197.184h-9.2a2.768,2.768,0,1,1,0-5.536h9.2a2.768,2.768,0,1,1,0,5.536Z" transform="translate(-101.063 -191.648)" fill="#13202f"/>
          <path id="パス_1197" data-name="パス 1197" d="M132.953,197.184h-9.194a2.768,2.768,0,1,1,0-5.536h9.194a2.768,2.768,0,0,1,0,5.536Z" transform="translate(-106.911 -191.648)" fill="#13202f"/>
          <path id="パス_1198" data-name="パス 1198" d="M116.627,197.184h-2.956a2.768,2.768,0,1,1,0-5.536h2.956a2.768,2.768,0,1,1,0,5.536Z" transform="translate(-110.903 -191.648)" fill="#13202f"/>
        </g>
      </g>
      <g id="グループ_1364" data-name="グループ 1364" transform="translate(99.147 107.774)">
        <g id="グループ_1356" data-name="グループ 1356" transform="translate(2.155 8.226)">
          <rect id="長方形_343" data-name="長方形 343" width="33.211" height="102.082" transform="translate(143.38)" fill="#dcdfe2"/>
          <rect id="長方形_344" data-name="長方形 344" width="36.569" height="102.082" fill="#dcdfe2"/>
        </g>
        <path id="パス_1199" data-name="パス 1199" d="M238.327,215.753H87.469a2.185,2.185,0,0,1-2.184-2.186V105.751a2.185,2.185,0,0,1,2.184-2.186H263.753a2.185,2.185,0,0,1,2.184,2.186V213.567a2.185,2.185,0,0,1-2.184,2.186h-5.783a2.184,2.184,0,1,1,0-4.369h3.6V107.934H89.657V211.384H238.441a2.184,2.184,0,1,1,0,4.369Z" transform="translate(-85.285 -103.565)" fill="#13202f"/>
        <path id="パス_1200" data-name="パス 1200" d="M204.4,185.412h-2.782a2.184,2.184,0,1,1,0-4.369H204.4a2.184,2.184,0,1,1,0,4.369Z" transform="translate(-40.11 -72.903)" fill="#13202f"/>
        <g id="グループ_1357" data-name="グループ 1357" transform="translate(50.557 22.97)">
          <circle id="楕円形_155" data-name="楕円形 155" cx="5.172" cy="5.172" r="5.172" fill="#646e73"/>
          <path id="パス_1201" data-name="パス 1201" d="M192.393,126.762H137.34a2.184,2.184,0,1,1,0-4.369h55.053a2.184,2.184,0,1,1,0,4.369Z" transform="translate(-116.106 -119.084)" fill="#13202f"/>
        </g>
        <g id="グループ_1358" data-name="グループ 1358" transform="translate(50.557 44.76)">
          <circle id="楕円形_156" data-name="楕円形 156" cx="5.172" cy="5.172" r="5.172" fill="#646e73"/>
          <path id="パス_1202" data-name="パス 1202" d="M192.393,142.374H137.34a2.184,2.184,0,1,1,0-4.369h55.053a2.184,2.184,0,1,1,0,4.369Z" transform="translate(-116.106 -134.695)" fill="#13202f"/>
        </g>
        <g id="グループ_1359" data-name="グループ 1359" transform="translate(50.557 66.549)">
          <circle id="楕円形_157" data-name="楕円形 157" cx="5.172" cy="5.172" r="5.172" fill="#646e73"/>
          <path id="パス_1203" data-name="パス 1203" d="M192.393,157.982H137.34a2.184,2.184,0,1,1,0-4.367h55.053a2.184,2.184,0,1,1,0,4.367Z" transform="translate(-116.106 -150.306)" fill="#13202f"/>
        </g>
        <g id="グループ_1360" data-name="グループ 1360" transform="translate(50.557 88.338)">
          <circle id="楕円形_158" data-name="楕円形 158" cx="5.172" cy="5.172" r="5.172" fill="#646e73"/>
          <path id="パス_1204" data-name="パス 1204" d="M192.393,173.594H137.34a2.184,2.184,0,1,1,0-4.367h55.053a2.184,2.184,0,1,1,0,4.367Z" transform="translate(-116.106 -165.917)" fill="#13202f"/>
        </g>
        <rect id="長方形_345" data-name="長方形 345" width="176.586" height="11.149" transform="translate(2.033 2.39)" fill="#13202f"/>
        <g id="グループ_1361" data-name="グループ 1361" transform="translate(36.874 8.293)">
          <path id="パス_1205" data-name="パス 1205" d="M116.072,210.872V109.507H111.7V210.872" transform="translate(-111.704 -109.507)" fill="#13202f"/>
          <rect id="長方形_346" data-name="長方形 346" width="4.368" height="101.365" transform="translate(105.895)" fill="#13202f"/>
        </g>
        <g id="グループ_1362" data-name="グループ 1362" transform="translate(11.595 21.026)">
          <path id="パス_1206" data-name="パス 1206" d="M109.018,123H95.779a2.184,2.184,0,1,1,0-4.367h13.239a2.184,2.184,0,1,1,0,4.367Z" transform="translate(-93.592 -118.629)" fill="#13202f"/>
          <path id="パス_1207" data-name="パス 1207" d="M109.018,133.88H95.779a2.184,2.184,0,1,1,0-4.369h13.239a2.184,2.184,0,1,1,0,4.369Z" transform="translate(-93.592 -114.322)" fill="#13202f"/>
          <path id="パス_1208" data-name="パス 1208" d="M109.018,144.762H95.779a2.184,2.184,0,1,1,0-4.369h13.239a2.184,2.184,0,1,1,0,4.369Z" transform="translate(-93.592 -110.016)" fill="#13202f"/>
          <path id="パス_1209" data-name="パス 1209" d="M109.018,155.643H95.779a2.184,2.184,0,1,1,0-4.367h13.239a2.184,2.184,0,1,1,0,4.367Z" transform="translate(-93.592 -105.709)" fill="#13202f"/>
          <path id="パス_1210" data-name="パス 1210" d="M109.018,166.527H95.779a2.184,2.184,0,1,1,0-4.369h13.239a2.184,2.184,0,1,1,0,4.369Z" transform="translate(-93.592 -101.402)" fill="#13202f"/>
          <path id="パス_1211" data-name="パス 1211" d="M109.018,177.409H95.779a2.184,2.184,0,1,1,0-4.369h13.239a2.184,2.184,0,1,1,0,4.369Z" transform="translate(-93.592 -97.095)" fill="#13202f"/>
        </g>
        <g id="グループ_1363" data-name="グループ 1363" transform="translate(155.189 21.026)">
          <path id="パス_1212" data-name="パス 1212" d="M204.238,123h-5.582a2.184,2.184,0,1,1,0-4.367h5.582a2.184,2.184,0,1,1,0,4.367Z" transform="translate(-196.471 -118.629)" fill="#13202f"/>
          <path id="パス_1213" data-name="パス 1213" d="M204.238,132.609h-5.582a2.184,2.184,0,1,1,0-4.367h5.582a2.184,2.184,0,1,1,0,4.367Z" transform="translate(-196.471 -114.825)" fill="#13202f"/>
        </g>
      </g>
    </g>
    <g id="グループ_1366" data-name="グループ 1366" transform="translate(-380.415 -2394.314)">
      <g id="グループ_253" data-name="グループ 253" transform="translate(814.353 6333.698)">
        <g id="グループ_252" data-name="グループ 252" transform="translate(0 0)" clip-path="url(#clip-path)">
          <path id="パス_702" data-name="パス 702" d="M0,6.995c7.764,1.29,15.88.871,23.823.949L48.6,8.184l3.468.034a4.325,4.325,0,0,0,1.957-.282c.694-.354.456-.732.388-1.2a8.916,8.916,0,0,1-.065-1.97q.184-2.381.369-4.762" transform="translate(6.496 24.594)" fill="#dcdfe2"/>
          <path id="パス_703" data-name="パス 703" d="M24.074,7.711a1.589,1.589,0,0,1-.615-.121C17.214,4.973,7.291,2.079,1.2,1.873.506,1.849-.03,1.411,0,.894S.629-.007,1.315,0c7.266.246,18.2,3.785,23.376,5.957.605.253.82.825.479,1.276a1.378,1.378,0,0,1-1.1.478" transform="translate(34.644 0.06)" fill="#0a1929"/>
          <path id="パス_704" data-name="パス 704" d="M30.256,12.185a1.546,1.546,0,0,1-.778-.2C22.95,8.143,9.821,3.808.9,1.836.234,1.689-.145,1.167.052.671A1.364,1.364,0,0,1,1.615.039C10.764,2.062,24.27,6.532,31.036,10.512a.789.789,0,0,1,.208,1.317,1.451,1.451,0,0,1-.988.357" transform="translate(63.56 8.843)" fill="#0a1929"/>
          <path id="パス_705" data-name="パス 705" d="M46.554,33.851c-13.758,0-29.267-.319-36.693-.492-2.514-.059-4.757-.228-6.806-.4a7.791,7.791,0,0,1-2.243-.563,1.3,1.3,0,0,1-.372-2.188c.706-.809,1.549-1.7,2.313-2.43,1.141-1.1,2.306-2.179,3.481-3.254,2.975-2.724,6.258-5.635,10.331-9.164,3.842-3.328,7.346-6.3,10.712-9.083l.723-.6c2.187-1.812,4.447-3.685,6.848-5.414a1.576,1.576,0,0,1,1.778.023.78.78,0,0,1-.031,1.325C34.257,3.3,32.026,5.143,29.868,6.931l-.725.6c-3.353,2.773-6.844,5.734-10.674,9.05C14.411,20.1,11.142,23,8.182,25.706c-1.162,1.064-2.316,2.134-3.443,3.218-.65.626-1.362,1.368-1.986,2.07.221.046.462.089.586.1,2,.17,4.177.334,6.6.391,10.126.236,35.315.744,50.479.34.706-.013,1.276.387,1.3.9s-.518.951-1.212.97c-4.091.108-8.905.151-13.954.151" transform="translate(0 0)" fill="#0a1929"/>
          <path id="パス_706" data-name="パス 706" d="M1.258,9.025C.565,9.025,0,8.607,0,8.091c0-.9.046-1.9.1-2.95C.169,3.781.24,2.375.2.955.192.437.744.01,1.439,0c.7.021,1.268.4,1.281.92.037,1.473-.036,2.907-.107,4.292-.052,1.022-.1,1.993-.1,2.872,0,.518-.558.939-1.253.941Z" transform="translate(59.519 24.525)" fill="#0a1929"/>
          <path id="パス_707" data-name="パス 707" d="M1.256,6.3A1.2,1.2,0,0,1,.014,5.5c-.1-.512.367-.99,1.054-1.068C13.774,2.992,22.63,1.67,29.747.608c1.378-.205,2.7-.4,3.977-.59A1.288,1.288,0,0,1,35.2.757c.135.508-.31,1-.99,1.1-1.277.188-2.594.384-3.97.589C23.1,3.512,14.21,4.839,1.448,6.29a1.669,1.669,0,0,1-.192.011" transform="translate(59.667 19.701)" fill="#0a1929"/>
          <path id="パス_708" data-name="パス 708" d="M.816,12.406a.789.789,0,0,1-.8-.5c-.079-.331.217-.648.661-.707C2.706,10.927,11.4,9.846,22.4,8.478,46.334,5.5,82.509,1,89.034.013A.843.843,0,0,1,90,.489c.089.33-.2.651-.639.718C82.807,2.2,46.614,6.7,22.666,9.679c-11,1.368-19.682,2.448-21.7,2.717a1.113,1.113,0,0,1-.145.009" transform="translate(3.7 19.892)" fill="#0a1929"/>
          <path id="パス_709" data-name="パス 709" d="M.817,20.372a.851.851,0,0,1-.761-.387c-.165-.313.042-.667.462-.79,3.277-.958,15.753-5.333,27.818-9.563C40.421,5.4,52.915,1.014,56.242.042A.928.928,0,0,1,57.3.387c.165.313-.042.667-.462.789-3.277.958-15.747,5.331-27.807,9.559C16.944,14.974,4.444,19.356,1.116,20.329a1.062,1.062,0,0,1-.3.043" transform="translate(8.249 8.969)" fill="#0a1929"/>
          <path id="パス_710" data-name="パス 710" d="M1.8,5.715a1.18,1.18,0,0,1-1.25-.84L.007,1.034C-.066.519.436.059,1.127,0A1.224,1.224,0,0,1,2.508.839l.54,3.841c.072.515-.429.976-1.12,1.03-.044,0-.089,0-.132,0" transform="translate(57.814 6.036)" fill="#0a1929"/>
          <path id="パス_711" data-name="パス 711" d="M.818,11.3a.9.9,0,0,1-.7-.3A.531.531,0,0,1,.4,10.169C3.722,8.7,8.367,6.877,12.861,5.112c4.476-1.758,9.1-3.577,12.39-5.027A.986.986,0,0,1,26.369.3a.531.531,0,0,1-.287.834C22.762,2.6,18.116,4.424,13.623,6.19c-4.476,1.758-9.1,3.577-12.389,5.027a1.034,1.034,0,0,1-.416.085" transform="translate(32.868 6.637)" fill="#0a1929"/>
          <path id="パス_712" data-name="パス 712" d="M.818,1.6a.915.915,0,0,1-.686-.277A.525.525,0,0,1,.372.482L1.16.1A1,1,0,0,1,2.292.276a.525.525,0,0,1-.238.843L1.263,1.5a1.021,1.021,0,0,1-.445.1" transform="translate(29.526 17.764)" fill="#0a1929"/>
        </g>
      </g>
      <path id="パス_794" data-name="パス 794" d="M0,19.242S23.167-1,57.179.038s36.983,25.18,84.2,25.569c20.918.172,35.217-4.395,44.935-9.688" transform="matrix(0.996, -0.087, 0.087, 0.996, 890.93, 6315.75)" fill="none" stroke="#0a1929" stroke-linecap="round" stroke-width="2" stroke-dasharray="6 8"/>
    </g>
  </g>
</svg>
