<svg xmlns="http://www.w3.org/2000/svg" xmlns:xlink="http://www.w3.org/1999/xlink" width="345" height="165" viewBox="0 0 345 165">
  <defs>
    <clipPath id="clip-path">
      <rect id="長方形_492" data-name="長方形 492" width="345" height="165" rx="14" transform="translate(10 6591.571)" fill="#f03748"/>
    </clipPath>
    <clipPath id="clip-path-2">
      <rect id="長方形_478" data-name="長方形 478" width="294" height="165" transform="translate(498.244 14481.243)" fill="#fff" stroke="#707070" stroke-width="1"/>
    </clipPath>
  </defs>
  <g id="マスクグループ_81" data-name="マスクグループ 81" transform="translate(-10 -6591.571)" clip-path="url(#clip-path)">
    <g id="グループ_2153" data-name="グループ 2153" transform="translate(-5 191.571)">
      <g id="グループ_2018" data-name="グループ 2018" transform="translate(0 44)">
        <path id="パス_1689" data-name="パス 1689" d="M269.377,313.971A28.051,28.051,0,0,0,221.5,332.726v26.608a2.5,2.5,0,0,0,2.5,2.5h24.3c8.542.029,15.293-2.39,21.077-8.185A28.1,28.1,0,0,0,269.377,313.971Z" transform="translate(49.899 6063.761)" fill="#fff" opacity="0.5"/>
        <g id="マスクグループ_78" data-name="マスクグループ 78" transform="translate(-457.244 -8125.243)" clip-path="url(#clip-path-2)">
          <g id="グループ_2015" data-name="グループ 2015" transform="translate(530.917 14485.334)">
            <g id="グループ_2004" data-name="グループ 2004" transform="translate(0 0)">
              <path id="パス_1698" data-name="パス 1698" d="M402.28,327.774c-3.526-2.4-3.935-7.571-2.617-11.627s3.934-7.583,5.362-11.6a21.378,21.378,0,0,0,.4-12.941,12.525,12.525,0,0,0-4.555-7.023,11.781,11.781,0,0,0-7.2-1.788,35.107,35.107,0,0,0-7.4,1.4c-5.423,1.439-11.373,3.256-14.282,8.055-2.384,3.933-2.062,9-.52,13.335s4.167,8.182,6.324,12.244c.986,1.856,1.891,4.05,1.1,6-.851,2.084-3.346,3.07-4.375,5.072-.957,1.861-.426,4.107.124,6.126l3.75,13.762a25.957,25.957,0,0,0,3.047,7.765c1.554,2.321,4.071,4.183,6.864,4.209,3.3.031,6.079-2.4,8.218-4.909a45.257,45.257,0,0,0,9.149-17.274" transform="translate(-327.126 -269.882)" fill="#fff"/>
              <path id="パス_1699" data-name="パス 1699" d="M313.555,409.23l-6.993,13.764c-1.625,3.2-3.281,6.5-3.57,10.078s1.12,7.537,4.3,9.2c2.723,1.43,6.162.866,8.79-.73a22.06,22.06,0,0,0,6.332-6.611,48.686,48.686,0,0,1,5.563-7.337c4.288-4.21,10.345-6.127,14.968-9.964a22.854,22.854,0,0,0,8.125-16.316c.226-4.906-1.591-10.355-5.962-12.6a11.93,11.93,0,0,0-9.793-.006A29.868,29.868,0,0,0,327,394.375a127.722,127.722,0,0,0-9.711,9.561" transform="translate(-301.834 -309.298)" fill="#fff"/>
              <path id="パス_1700" data-name="パス 1700" d="M444.821,430.224l17.2-6.915a356.564,356.564,0,0,1-.084,72.282c-.451,4.372-1.03,8.88-3.271,12.661a16.2,16.2,0,0,1-11.97,7.718" transform="translate(-355.148 -322.694)" fill="#fff"/>
              <path id="パス_1701" data-name="パス 1701" d="M348.389,775.754a9.807,9.807,0,0,0,2.024,9.792,12.84,12.84,0,0,0,9.4,4.017,9.15,9.15,0,0,0,4.626-1.021,8.8,8.8,0,0,0,3.9-5.736,26.085,26.085,0,0,0,.353-7.108" transform="translate(-318.699 -455.123)" fill="#fff"/>
              <path id="パス_1702" data-name="パス 1702" d="M422.616,775.258a23.565,23.565,0,0,0-.548,5.7,7.925,7.925,0,0,0,2.14,5.184c2.138,2.084,5.476,2.243,8.445,1.924a11.584,11.584,0,0,0,6.3-2.175,9.15,9.15,0,0,0,2.917-6.727,27.128,27.128,0,0,0-1.112-7.443" transform="translate(-346.587 -453.627)" fill="#fff"/>
              <g id="グループ_2003" data-name="グループ 2003">
                <path id="パス_1703" data-name="パス 1703" d="M412.858,683.751c.77-17.569,1.488-35.072,1.609-52.617q.331-48.11.663-96.221c.018-2.5-.21-5.451-2.348-6.736a7.266,7.266,0,0,0-3.256-.76c-9.592-.707-18.963-1.821-28.622-1.572a168.9,168.9,0,0,0-28.287,3.124c-2.208.435-4.638,1.067-5.852,2.962a8.66,8.66,0,0,0-.911,4.718l-.1,51.281-.049,23.963c-.014,7.267-.648,14.383-.49,21.6q.525,24,1.05,48c.1,4.542,5.042,4.756,8.757,5.364a29.091,29.091,0,0,0,6.858.3c.717-.054,6.19-.489,6.319-1.209.823-4.565.649-9.256.974-13.916L370.3,655.8c0-7.763,1.092-15.687,1.632-23.433.5-7.191.39-14.2,1.016-21.421l4.161-47.972.416-4.8,7.235,2.268q5.2,62.454,6.8,125.136C398.773,688.439,405.9,685.987,412.858,683.751Z" transform="translate(-317.705 -361.214)" fill="#f03748"/>
                <path id="パス_1704" data-name="パス 1704" d="M397.346,360.662l-9.295-4.673c-1.618-.813-6.873-4.668-8.338-3a3.644,3.644,0,0,0-.666,1.559,39.44,39.44,0,0,1-3.4,9.212,100.546,100.546,0,0,1-5.2,8.8,4.273,4.273,0,0,1-2.277,2.053,2.914,2.914,0,0,1-2.577-.821,8.485,8.485,0,0,1-1.592-2.308q-5.088-9.5-9.677-19.255c-5.876,2.516-12.04,4.922-17.294,8.664A52.261,52.261,0,0,0,323.7,375.524a156.427,156.427,0,0,0-9.272,17.61,4.113,4.113,0,0,0-.577,2.76c.325,1.182,1.589,1.8,2.719,2.273,1.5.627,5.572,3.391,7.045,2.447a4.268,4.268,0,0,0,1.434-2.037c1.246-2.923,2.107-6,3.433-8.89a15.888,15.888,0,0,1,5.932-7.274c2.733-1.622,6.449-1.861,8.985.054,1.948,1.469,2.9,3.884,3.648,6.206.692,2.148,1.293,4.444.767,6.638-.788,3.288-3.831,5.452-6.636,7.34-2.321,1.562-5.96,3.9-6.271,6.988-.339,3.364-.2,7.042-.39,10.481-.269,4.778-.518,9.556-.8,14.333-.553,9.53-1.215,19.059-2.363,28.537-.167,1.384-.284,2.95.625,4.007a5.1,5.1,0,0,0,3.009,1.328c4.776.941,9.56,1.884,14.4,2.421a141.98,141.98,0,0,0,21.591.391,45.994,45.994,0,0,1,5.12-.177,17.084,17.084,0,0,0,3.088.194c3.265-.338,6.578-.8,9.832-1.253l9.1-1.28a8.126,8.126,0,0,0,4.371-1.516c1.854-1.637.318-5.462.173-7.625-.219-3.289-.2-6.588-.187-9.883l.095-19.935c.031-6.44-.649-12.873-1.122-19.3a5.156,5.156,0,0,1,4.145-6.538l7.905-3.091a10.1,10.1,0,0,0,4.4-2.674,6.791,6.791,0,0,0,1.025-5.721,21.217,21.217,0,0,0-2.168-4.9c-.887-1.749-1.547-3.639-2.371-5.422q-2.526-5.468-5.545-10.689a26.341,26.341,0,0,0-4.868-6.555A29.246,29.246,0,0,0,397.346,360.662Z" transform="translate(-305.9 -295.984)" fill="#eff4f9"/>
                <path id="パス_1705" data-name="パス 1705" d="M405.2,381.889a.995.995,0,0,1-.738-1.663,55.415,55.415,0,0,0,12.709-24.57,1,1,0,1,1,1.948.411,57.474,57.474,0,0,1-13.181,25.493A.992.992,0,0,1,405.2,381.889Z" transform="translate(-339.884 -296.973)" fill="#fff"/>
                <path id="パス_1706" data-name="パス 1706" d="M386.4,381.424a.988.988,0,0,1-.605-.206c-7.529-5.776-13.569-20.451-13.723-25.594a1,1,0,0,1,1.99-.059c.146,4.89,6.1,18.82,12.945,24.075a.994.994,0,0,1-.607,1.784Z" transform="translate(-327.809 -296.873)" fill="#fff"/>
                <path id="パス_1707" data-name="パス 1707" d="M326.177,420.563a.99.99,0,0,1-.5-.135c-1.237-.711-2.778-1.665-4.318-2.62-1.508-.935-3.015-1.87-4.228-2.569a1,1,0,1,1,.994-1.724c1.228.707,2.755,1.653,4.283,2.6s3.041,1.884,4.262,2.587a1,1,0,0,1-.5,1.859Z" transform="translate(-306.976 -318.963)" fill="#fff"/>
                <path id="パス_1708" data-name="パス 1708" d="M454.621,425.731a1,1,0,0,1-.336-1.933c1.871-.671,4.99-2.134,8.009-3.55,3.051-1.431,6.206-2.911,8.159-3.612a1,1,0,1,1,.672,1.873c-1.865.671-4.977,2.129-7.987,3.54-3.06,1.436-6.223,2.92-8.181,3.622A.98.98,0,0,1,454.621,425.731Z" transform="translate(-358.457 -320.163)" fill="#fff"/>
                <g id="グループ_1992" data-name="グループ 1992" transform="translate(15.606 322.785)">
                  <path id="パス_1709" data-name="パス 1709" d="M335.9,786.976c-.008-.147,1.336-.907,1.509-1.039.519-.4.964-.858,1.453-1.285a6.767,6.767,0,0,0,2.36-3.378c.109-.453.251-1.024.715-1.085a.844.844,0,0,1,.8.58,4.265,4.265,0,0,1,.178,1.032,3.731,3.731,0,0,0,1.223,2.256c1.141,1,2.956,1.263,4.327,1.807a16.156,16.156,0,0,0,5.962,1.526c2.04-.019,4.162-1.038,4.821-2.935a6.719,6.719,0,0,1,.458-1.289,1.04,1.04,0,0,1,1.15-.541c.607.2.739.992.757,1.621l.146,5.278c.063,2.267.034,4.783-1.516,6.359a8.285,8.285,0,0,1-3.58,1.79c-2.745.852-4.826,1.7-7.571,2.556a41.7,41.7,0,0,1-8.4,1.981,14.821,14.821,0,0,1-8.548-1.517,6.85,6.85,0,0,1-2.884-2.745c-1.147-2.256-.251-5,1.379-6.793A23.142,23.142,0,0,1,335.9,786.976Z" transform="translate(-327.132 -779.594)" fill="#dcdfe2"/>
                  <path id="パス_1710" data-name="パス 1710" d="M337.788,803.36a21.425,21.425,0,0,1-5.562-.7,7.945,7.945,0,0,1-5.358-3.908,7.142,7.142,0,0,1-.164-5.843c1.082-2.832,4.245-5.075,6.554-6.71l1.036-.74c2.243-1.611,3.864-2.774,4.759-5.15a1.659,1.659,0,0,1,3.1,1.169c-1.25,3.315-3.523,4.947-5.929,6.676l-1.052.752c-1.963,1.39-4.65,3.294-5.373,5.185a3.941,3.941,0,0,0,.022,3.158,4.845,4.845,0,0,0,3.271,2.208,20.387,20.387,0,0,0,9.568.031,23.327,23.327,0,0,0,3.663-1.291,22.707,22.707,0,0,1,4.939-1.609,15.635,15.635,0,0,0,4.168-1.5l.5-.234c1.039-.481,3.442-1.8,3.352-3.635-.041-.808-.068-1.6-.095-2.373a35.067,35.067,0,0,0-.511-5.909,1.659,1.659,0,1,1,3.241-.71,37.214,37.214,0,0,1,.587,6.5c.026.756.052,1.533.091,2.324.138,2.75-1.733,5.168-5.266,6.81l-.492.229a18.581,18.581,0,0,1-5.017,1.765,19.938,19.938,0,0,0-4.226,1.4,26.031,26.031,0,0,1-4.194,1.46A25.318,25.318,0,0,1,337.788,803.36Z" transform="translate(-326.162 -779.238)" fill="#13202f"/>
                  <path id="パス_1711" data-name="パス 1711" d="M364.015,790.36a17.636,17.636,0,0,1-2.835-.183.912.912,0,1,1,.337-1.792c1.795.336,6.975.172,8.291-.8a.912.912,0,0,1,1.084,1.468C369.531,790.058,366.428,790.36,364.015,790.36Z" transform="translate(-339.042 -782.308)" fill="#13202f"/>
                  <g id="グループ_1991" data-name="グループ 1991" transform="translate(6.262 3.958)">
                    <g id="グループ_1990" data-name="グループ 1990">
                      <path id="パス_1712" data-name="パス 1712" d="M355.626,790.184a22.932,22.932,0,0,0-14.377-3.132,6.32,6.32,0,0,0-2.657.758,2.157,2.157,0,0,0-1.046,2.135c.3,1.882,2.173,1.538,5.879,1.8a23.531,23.531,0,0,1,7.73,1.744" transform="translate(-336.693 -786.08)" fill="#dcdfe2"/>
                      <path id="パス_1713" data-name="パス 1713" d="M350.656,793.813a.819.819,0,0,1-.313-.062,22.659,22.659,0,0,0-7.474-1.683c-.678-.047-1.295-.074-1.85-.1-2.576-.112-4.437-.193-4.79-2.395a2.982,2.982,0,0,1,1.423-2.968,7.138,7.138,0,0,1,3-.88,23.764,23.764,0,0,1,14.907,3.252.829.829,0,1,1-.873,1.41,22.1,22.1,0,0,0-13.848-3.012,5.655,5.655,0,0,0-2.309.637,1.329,1.329,0,0,0-.667,1.3c.121.754.543.883,3.225,1,.568.024,1.2.052,1.893.1a24.474,24.474,0,0,1,7.987,1.8.83.83,0,0,1-.314,1.6Z" transform="translate(-336.194 -785.58)" fill="#13202f"/>
                    </g>
                  </g>
                </g>
                <ellipse id="楕円形_276" data-name="楕円形 276" cx="1.8" cy="1.8" rx="1.8" ry="1.8" transform="translate(93.884 92.232)" fill="#13202f"/>
                <ellipse id="楕円形_277" data-name="楕円形 277" cx="1.638" cy="2.116" rx="1.638" ry="2.116" transform="translate(52.143 25.508)" fill="#13202f"/>
                <ellipse id="楕円形_278" data-name="楕円形 278" cx="1.638" cy="2.116" rx="1.638" ry="2.116" transform="translate(66.265 25.509)" fill="#13202f"/>
                <path id="パス_1714" data-name="パス 1714" d="M371.463,315.285a1.649,1.649,0,0,1-.883-.257c-2.117-1.333-3.045-5.128-3.207-8.234-.149-2.843-.117-5.765,2-7.527a1.659,1.659,0,1,1,2.122,2.55c-.844.7-.936,2.359-.808,4.8.16,3.072,1.069,5.227,1.664,5.6a1.659,1.659,0,0,1-.886,3.063Z" transform="translate(-326.023 -275.935)" fill="#13202f"/>
                <path id="パス_1715" data-name="パス 1715" d="M423.628,314.656a1.659,1.659,0,0,1-.8-3.113c.632-.348,1.552-2.579,1.559-5.7.007-2.64-.664-4.111-1.026-4.311a1.66,1.66,0,0,1,1.614-2.9c2.477,1.379,2.735,5.509,2.73,7.222-.008,3.291-.873,7.278-3.278,8.6A1.659,1.659,0,0,1,423.628,314.656Z" transform="translate(-346.56 -275.76)" fill="#13202f"/>
                <path id="パス_1716" data-name="パス 1716" d="M398.116,321.642a2.889,2.889,0,0,1-1.5-.4.746.746,0,0,1,.784-1.27,1.518,1.518,0,0,0,1.384.009.746.746,0,0,1,.9,1.193A2.629,2.629,0,0,1,398.116,321.642Z" transform="translate(-336.898 -283.807)" fill="#13202f"/>
                <path id="パス_1717" data-name="パス 1717" d="M397.205,331.748a5.827,5.827,0,0,1-2.723-.59.747.747,0,0,1,.725-1.306,5.3,5.3,0,0,0,4.4-.148.746.746,0,1,1,.809,1.255A6.2,6.2,0,0,1,397.205,331.748Z" transform="translate(-336.086 -287.472)" fill="#13202f"/>
                <ellipse id="楕円形_279" data-name="楕円形 279" cx="0.906" cy="0.906" rx="0.906" ry="0.906" transform="translate(57.383 41.779)" fill="#13202f"/>
                <ellipse id="楕円形_280" data-name="楕円形 280" cx="0.906" cy="0.906" rx="0.906" ry="0.906" transform="translate(63.353 41.779)" fill="#13202f"/>
                <g id="グループ_1996" data-name="グループ 1996" transform="translate(17.294 71.144)">
                  <g id="グループ_1993" data-name="グループ 1993" transform="translate(6.29)">
                    <path id="パス_1718" data-name="パス 1718" d="M350.7,408.861l7.613.817a4.937,4.937,0,0,0,3.335-.426A3.484,3.484,0,0,0,363,406.68c.2-2.049-.578-4.222-1.042-6.189l-1.549-6.575-3.1-13.151a3.851,3.851,0,0,0-1.015-2.146,3.625,3.625,0,0,0-2.5-.549q-4.453.131-8.9.394c-1.335.079-2.933.346-3.456,1.608a3.861,3.861,0,0,0,.071,2.369l2.265,9.249c.377,1.541.76,3.082,1.132,4.624.183.758.155.962.9,1.253a6.331,6.331,0,0,0,2.1.423,5.082,5.082,0,0,1,1.29.1,1.138,1.138,0,0,1,.861.871" transform="translate(-339.821 -376.834)" fill="#f03748"/>
                    <path id="パス_1719" data-name="パス 1719" d="M349.973,409.943a1.244,1.244,0,0,1-.054-2.487c.334-.015,8.2-.358,9.819-.363a1.23,1.23,0,0,0,.9-.272,1.68,1.68,0,0,0,.166-1.26c-1.14-6.441-3.671-19.227-5.487-26.217a.988.988,0,0,0-.961-.76h-.011c-3.4.036-8.485.242-12.2.622a.767.767,0,0,0-.545.319.854.854,0,0,0-.141.69c.24,1.107.6,2.828.981,4.658.645,3.1,1.377,6.606,1.672,7.787a1.245,1.245,0,0,1-2.416.6c-.305-1.23-1.01-4.612-1.692-7.881-.381-1.823-.738-3.537-.977-4.639a3.35,3.35,0,0,1,.559-2.68,3.266,3.266,0,0,1,2.306-1.334c3.8-.389,8.979-.6,12.43-.635a3.451,3.451,0,0,1,3.409,2.623c1.831,7.055,4.381,19.928,5.528,26.408a4.134,4.134,0,0,1-.707,3.291,3.477,3.477,0,0,1-2.8,1.165c-1.574.005-9.637.357-9.718.36Z" transform="translate(-338.944 -376.094)" fill="#13202f"/>
                  </g>
                  <g id="グループ_1994" data-name="グループ 1994" transform="translate(0 11.237)">
                    <path id="パス_1720" data-name="パス 1720" d="M330.994,417.439a77.737,77.737,0,0,1,1.721-8.591c1.215-3.9,2.345-6.889,5.477-9.042a21.625,21.625,0,0,1,9.434-3.494c1.055-.145,2.3-.212,2.96.7.986,1.358-.083,2.728-1.49,3.574s-5.464,3.029-6.553,3.708" transform="translate(-329.666 -394.897)" fill="#fff"/>
                    <path id="パス_1721" data-name="パス 1721" d="M330.2,417.965a1.342,1.342,0,0,1-.237-.021,1.328,1.328,0,0,1-1.072-1.541c.111-.609.219-1.264.332-1.941a54.373,54.373,0,0,1,1.429-6.81c1.264-4.054,2.507-7.346,5.993-9.741a22.987,22.987,0,0,1,10-3.715c.905-.12,3.016-.414,4.215,1.238a3.092,3.092,0,0,1,.574,2.482,4.863,4.863,0,0,1-2.454,3.009c-.683.412-1.983,1.133-3.273,1.849-1.357.755-2.7,1.5-3.259,1.849a1.328,1.328,0,0,1-1.408-2.252c.577-.36,1.971-1.136,3.379-1.917,1.258-.7,2.527-1.4,3.193-1.8.81-.487,1.164-.985,1.22-1.264.012-.061.036-.177-.122-.394-.237-.327-1.085-.249-1.7-.167a20.379,20.379,0,0,0-8.863,3.273c-2.789,1.916-3.816,4.668-4.962,8.344a52.668,52.668,0,0,0-1.345,6.457c-.115.687-.226,1.353-.337,1.974A1.327,1.327,0,0,1,330.2,417.965Z" transform="translate(-328.866 -394.097)" fill="#13202f"/>
                  </g>
                  <g id="グループ_1995" data-name="グループ 1995" transform="translate(10.511 19.378)">
                    <path id="パス_1722" data-name="パス 1722" d="M348.884,409.414c2.48-.026,5.217-.235,7.877-.11,1.807.084,7.064-.8,5.941,2.873a3.974,3.974,0,0,1-1.543,1.953,4.43,4.43,0,0,1-.273,2.835,15.055,15.055,0,0,1-2.231,2.107c.161,2.187-1.557,3.976-3.4,4.858-5.118,2.448-4.936,5.274-7.424,6.206" transform="translate(-346.505 -407.938)" fill="#fff"/>
                    <path id="パス_1723" data-name="パス 1723" d="M347.034,430.662a1.327,1.327,0,0,1-.466-2.57c.676-.253,1.068-.728,1.758-1.615a13.942,13.942,0,0,1,5.558-4.545c1.4-.669,2.761-2.029,2.649-3.562a1.322,1.322,0,0,1,.452-1.1l.441-.374a10.972,10.972,0,0,0,1.567-1.484,3.142,3.142,0,0,0,.078-1.6l-.034-.376a1.325,1.325,0,0,1,.423-1.082c.135-.125.267-.238.4-.348a1.924,1.924,0,0,0,.778-1.016c.124-.4.117-.661.056-.74-.405-.531-2.7-.462-3.557-.431-.482.014-.908.026-1.232.011-1.688-.075-3.435-.018-5.126.041-.914.031-1.81.063-2.676.071h-.014a1.327,1.327,0,0,1-.014-2.654c.845-.01,1.72-.039,2.611-.07,1.745-.061,3.546-.121,5.342-.039.267.01.624,0,1.024-.013,1.909-.066,4.517-.142,5.749,1.471a3.306,3.306,0,0,1,.375,3.129,4.31,4.31,0,0,1-1.428,2.117,4.524,4.524,0,0,1-.562,3.034,11.535,11.535,0,0,1-2,1.97c-.162,2.612-2.272,4.54-4.156,5.439a11.339,11.339,0,0,0-4.607,3.78,6.578,6.578,0,0,1-2.921,2.471A1.317,1.317,0,0,1,347.034,430.662Z" transform="translate(-345.706 -407.139)" fill="#13202f"/>
                  </g>
                  <path id="パス_1724" data-name="パス 1724" d="M350.239,417.961c-.09,0-.181,0-.272,0a.83.83,0,0,1,.011-1.659.869.869,0,0,0,.267,0,30.537,30.537,0,0,0,3.294-.217c.718-.073,1.446-.148,2.243-.195a.812.812,0,0,1,.876.78.829.829,0,0,1-.78.876c-.771.046-1.476.119-2.17.19A32.7,32.7,0,0,1,350.239,417.961Z" transform="translate(-336.488 -391.048)" fill="#13202f"/>
                  <path id="パス_1725" data-name="パス 1725" d="M349.6,426.492a.83.83,0,0,1-.2-1.635l3.561-.891a.83.83,0,0,1,.4,1.61l-3.56.891A.9.9,0,0,1,349.6,426.492Z" transform="translate(-336.346 -394.076)" fill="#13202f"/>
                </g>
                <path id="パス_1726" data-name="パス 1726" d="M406.361,283.873c-.131.906-.471,1.69-.632,2.572a3.685,3.685,0,0,1-.932,2.245c-.737.6-1.527.645-1.873,1.717-.118.365-.152.756-.286,1.114a1.077,1.077,0,0,1-.787.747.969.969,0,0,1-.933-.643,2.959,2.959,0,0,1-.147-1.213c.032-1.7.065-2.783.1-4.482.021-1.069.242-3.078-1.4-3.059-.958.011-1.89,1.177-2.685.634-.611-.417-.365-1.4.054-2.012s.979-1.293.786-2.016a1.45,1.45,0,0,0-1.418-.951,4.449,4.449,0,0,0-1.744.486c-5.693,2.361-11.9,2.826-17.8,4.568-1.4.414-2.822.487-3.532,1.852a7.922,7.922,0,0,0-.474,4.455,2.356,2.356,0,0,1-.054,1.066.751.751,0,0,1-.818.522c-.63-.167-.508-1.191-.994-1.632-.509-.461-1.311-.037-1.982-.154a1.659,1.659,0,0,1-1.139-.962,4.609,4.609,0,0,1-.353-1.517q-.164-1.514-.192-3.039c-.054-2.923-.053-5.319,1.109-8.051a21.235,21.235,0,0,1,4.344-6.509,18.321,18.321,0,0,1,13.928-5.717,21.467,21.467,0,0,1,3.506.537c.519.117,2.165.928,2.152-.252-.006-.442-.508-.735-.58-1.172a.847.847,0,0,1,.783-.882,1.827,1.827,0,0,1,1.221.416c1.217.869,1.957,2.285,3.174,3.155a14.833,14.833,0,0,0,2.474,1.22C405.735,269.923,407.3,277.364,406.361,283.873Z" transform="translate(-325.943 -262.117)" fill="#13202f"/>
                <path id="パス_1727" data-name="パス 1727" d="M452.5,400.97a1.659,1.659,0,0,1-.873-3.071c.444-.275.9-.531,1.338-.78,1.017-.572,2.169-1.22,2.343-1.743.553-1.659.12-3-.659-5.008l-1.031-2.685c-3.313-8.664-6.738-17.624-13.306-23.674-3.631-3.343-8.682-5.522-13.566-7.628-4.648-2-9.038-3.9-12.083-6.708a1.658,1.658,0,1,1,2.25-2.437c2.629,2.425,6.766,4.209,11.146,6.1,5.14,2.216,10.455,4.508,14.5,8.234,7.142,6.577,10.708,15.908,14.158,24.93l1.025,2.67c.954,2.461,1.613,4.558.713,7.257-.578,1.737-2.248,2.677-3.863,3.586-.4.227-.816.459-1.223.71A1.645,1.645,0,0,1,452.5,400.97Z" transform="translate(-343.613 -293.94)" fill="#13202f"/>
                <path id="パス_1728" data-name="パス 1728" d="M314.282,397.653a1.669,1.669,0,0,1-.691-.15c-3.309-1.519-3.5-3.417-3.08-4.743.833-2.62,3.649-7.847,5.912-12.045l.332-.617c.258-.478.568-1.068.921-1.737,2.2-4.169,5.869-11.147,8.844-14.333,7.188-7.7,15.944-11.431,25.214-15.384,1.3-.554,2.611-1.113,3.934-1.69A1.66,1.66,0,0,1,356.995,350c-1.331.58-2.652,1.142-3.959,1.7-8.939,3.811-17.381,7.411-24.09,14.6-2.672,2.862-6.355,9.857-8.334,13.614-.357.679-.672,1.278-.935,1.765l-.332.619c-2.076,3.851-4.918,9.124-5.665,11.457a7.388,7.388,0,0,0,1.3.738,1.66,1.66,0,0,1-.692,3.168Z" transform="translate(-304.613 -293.947)" fill="#13202f"/>
                <path id="パス_1729" data-name="パス 1729" d="M328.825,497.422a3.19,3.19,0,0,1-2.266-.906c-1.816-1.758-1.62-5.357-1.2-9.531l.1-1.048c.436-5.109,1.048-13.679,1.336-18.715.466-8.1.783-16.169,1.041-23.9a54.05,54.05,0,0,1-7.28,9.918c-5.361,5.43-10.764,6.869-14.827,3.954-3.522-2.531-5.222-7.5-4.332-12.664.92-5.344,3.087-8.869,5.6-12.952,1.279-2.082,2.6-4.234,3.927-6.887a1.659,1.659,0,0,1,2.969,1.484c-1.391,2.782-2.814,5.1-4.068,7.139-2.426,3.947-4.342,7.065-5.155,11.78-.512,2.976-.036,7.224,3,9.4,3.554,2.558,8.123-1.152,10.53-3.589,3.36-3.4,6.232-8.3,8.766-12.617.445-.759.881-1.5,1.313-2.225a1.659,1.659,0,0,1,3.083.9c-.3,9.651-.65,20.017-1.248,30.444-.291,5.06-.906,13.672-1.343,18.8l-.1,1.1c-.4,4.038-.332,6.331.21,6.815a1.666,1.666,0,0,1,1.886,1.409,1.626,1.626,0,0,1-1.4,1.846A3.978,3.978,0,0,1,328.825,497.422Z" transform="translate(-301.16 -322.87)" fill="#13202f"/>
                <path id="パス_1730" data-name="パス 1730" d="M458.157,516.932a1.659,1.659,0,0,1-.584-3.212c2.627-.988,5-4.687,6.088-7.706.793-2.192.939-8.878,1.027-12.87.034-1.58.066-2.937.119-3.84.146-2.467.367-5.69.6-9.136.431-6.282.919-13.4,1.084-17.916.5-13.648.27-18.158-.408-31.549a1.659,1.659,0,0,1,1.572-1.742,1.631,1.631,0,0,1,1.741,1.573,287.144,287.144,0,0,1,.412,31.837c-.167,4.568-.658,11.716-1.091,18.022-.236,3.435-.456,6.648-.6,9.106-.051.875-.079,2.189-.113,3.716-.135,6.141-.32,11.426-1.223,13.926-1.285,3.555-4.162,8.225-8.041,9.683A1.64,1.64,0,0,1,458.157,516.932Z" transform="translate(-359.536 -324.816)" fill="#13202f"/>
                <path id="パス_1731" data-name="パス 1731" d="M391.962,376.059a1.077,1.077,0,0,1-.743-.3c-5.927-5.627-10.893-16.409-12.556-23.7a1.078,1.078,0,1,1,2.1-.479c1.873,8.206,7.006,17.926,11.939,22.609a1.08,1.08,0,0,1-.743,1.862Z" transform="translate(-330.276 -295.426)" fill="#13202f"/>
                <path id="パス_1732" data-name="パス 1732" d="M399.855,376.39a1.078,1.078,0,0,1-.821-1.776,50.891,50.891,0,0,0,11.331-22.462,1.079,1.079,0,0,1,2.1.5,52.9,52.9,0,0,1-11.784,23.354A1.073,1.073,0,0,1,399.855,376.39Z" transform="translate(-337.845 -295.642)" fill="#13202f"/>
                <path id="パス_1733" data-name="パス 1733" d="M455.185,488.355a.079.079,0,0,1-.021,0,1.076,1.076,0,0,1-1.058-1.1c.075-4.007-.351-21.025-.763-37.48-.413-16.48-.839-33.521-.764-37.575a1.079,1.079,0,0,1,1.077-1.059h.021a1.077,1.077,0,0,1,1.058,1.1c-.075,4.007.351,21.025.763,37.48.413,16.48.84,33.521.764,37.574A1.079,1.079,0,0,1,455.185,488.355Z" transform="translate(-358.06 -318.121)" fill="#13202f"/>
                <path id="パス_1734" data-name="パス 1734" d="M380.97,541.357c-12.183,0-24.387-.956-32.193-2.719a.995.995,0,1,1,.439-1.941c16.52,3.732,52.962,3.822,66.212-1.2a1,1,0,0,1,.705,1.863C408.9,540.1,394.952,541.357,380.97,541.357Z" transform="translate(-318.763 -364.83)" fill="#13202f"/>
                <path id="パス_1735" data-name="パス 1735" d="M345.334,689.33H345.3a1.66,1.66,0,0,1-1.629-1.69c.094-5.058-.165-40.136-.416-74.058-.25-33.942-.509-69.038-.416-74.139a1.684,1.684,0,0,1,1.69-1.629,1.661,1.661,0,0,1,1.629,1.69c-.094,5.057.165,40.133.415,74.053.25,33.944.51,69.044.416,74.144A1.66,1.66,0,0,1,345.334,689.33Z" transform="translate(-316.817 -365.725)" fill="#13202f"/>
                <path id="パス_1736" data-name="パス 1736" d="M402.573,580.041a1.647,1.647,0,0,1-.586-.107,30.8,30.8,0,0,0-3.283-.974,34.409,34.409,0,0,1-3.629-1.082,1.659,1.659,0,0,1,1.172-3.1,30.782,30.782,0,0,0,3.284.974,34.264,34.264,0,0,1,3.629,1.082,1.659,1.659,0,0,1-.586,3.212Z" transform="translate(-336.05 -379.575)" fill="#13202f"/>
                <path id="パス_1737" data-name="パス 1737" d="M414.413,706.259a1.66,1.66,0,0,1-1.65-1.5c-.125-1.295-.4-7.782-.819-17.6-1.308-30.7-4.032-94.586-6.861-106.885a1.659,1.659,0,1,1,3.234-.745c2.9,12.6,5.529,74.327,6.943,107.489.4,9.417.691,16.219.808,17.426a1.659,1.659,0,0,1-1.493,1.81C414.52,706.256,414.466,706.259,414.413,706.259Z" transform="translate(-340.198 -380.917)" fill="#13202f"/>
                <path id="パス_1738" data-name="パス 1738" d="M381.433,706.495c-.031,0-.063,0-.094,0a1.658,1.658,0,0,1-1.564-1.748c1.662-29.591,6.979-110.672,9.16-128a1.659,1.659,0,0,1,3.293.414c-2.172,17.253-7.48,98.211-9.139,127.767A1.659,1.659,0,0,1,381.433,706.495Z" transform="translate(-330.703 -379.811)" fill="#13202f"/>
                <path id="パス_1739" data-name="パス 1739" d="M454.71,434.708a1.079,1.079,0,0,1-.379-2.089c2.3-.863,4.954-1.983,7.518-3.065s5.234-2.21,7.569-3.087a1.078,1.078,0,1,1,.758,2.019c-2.295.862-4.936,1.977-7.489,3.054-2.584,1.091-5.254,2.218-7.6,3.1A1.077,1.077,0,0,1,454.71,434.708Z" transform="translate(-358.459 -323.855)" fill="#13202f"/>
                <path id="パス_1740" data-name="パス 1740" d="M314.349,439.339a1.326,1.326,0,0,1-1-2.193,20.636,20.636,0,0,1,5.461-4.448,17.771,17.771,0,0,0,4.6-3.686,1.328,1.328,0,0,1,2,1.75,20.232,20.232,0,0,1-5.211,4.2,18.264,18.264,0,0,0-4.843,3.921A1.321,1.321,0,0,1,314.349,439.339Z" transform="translate(-305.618 -324.667)" fill="#13202f"/>
                <g id="グループ_1997" data-name="グループ 1997" transform="translate(8.506 99.801)">
                  <path id="パス_1741" data-name="パス 1741" d="M316.914,424.133c2.5,1.3,4.83,2.933,7.328,4.233" transform="translate(-315.586 -422.804)" fill="#fff"/>
                  <path id="パス_1742" data-name="パス 1742" d="M323.441,428.893a1.313,1.313,0,0,1-.612-.149c-1.287-.671-2.533-1.426-3.738-2.158-1.17-.71-2.379-1.444-3.59-2.074a1.328,1.328,0,0,1,1.225-2.356c1.289.67,2.537,1.427,3.743,2.161,1.168.708,2.376,1.443,3.585,2.071a1.327,1.327,0,0,1-.614,2.5Z" transform="translate(-314.787 -422.004)" fill="#13202f"/>
                </g>
                <path id="パス_1743" data-name="パス 1743" d="M452.689,697.23h-.047a1.66,1.66,0,0,1-1.612-1.7l.085-3.041c2.23-79.227,3.138-126.043,2.556-131.825a1.659,1.659,0,1,1,3.3-.332c.763,7.586-.961,76.1-2.54,132.25l-.086,3.039A1.66,1.66,0,0,1,452.689,697.23Z" transform="translate(-357.481 -373.624)" fill="#13202f"/>
                <path id="パス_1744" data-name="パス 1744" d="M458.018,547.612c-1.338,0-2.4-1.2-2.854-3.25a1.079,1.079,0,0,1,2.106-.467c.261,1.175.681,1.536.771,1.562.277-.05,1.589-1.4,2.131-6.748a1.078,1.078,0,1,1,2.145.217c-.555,5.473-2.034,8.558-4.166,8.683C458.106,547.612,458.062,547.612,458.018,547.612Z" transform="translate(-359.026 -365.696)" fill="#13202f"/>
                <path id="パス_1745" data-name="パス 1745" d="M361.249,783.966a29.082,29.082,0,0,1-10.138-1.792,1,1,0,0,1,.7-1.863,27.034,27.034,0,0,0,14.917,1.079,1,1,0,1,1,.439,1.941A27.018,27.018,0,0,1,361.249,783.966Z" transform="translate(-319.69 -456.833)" fill="#13202f"/>
                <path id="パス_1746" data-name="パス 1746" d="M430.155,783.3a15.73,15.73,0,0,1-5.423-.854,1,1,0,1,1,.69-1.867c4.526,1.669,11.142.029,13.777-.755a1,1,0,1,1,.567,1.908A35.278,35.278,0,0,1,430.155,783.3Z" transform="translate(-347.354 -456.658)" fill="#13202f"/>
                <g id="グループ_2000" data-name="グループ 2000" transform="translate(72.838 322.042)">
                  <path id="パス_1747" data-name="パス 1747" d="M446.311,786.976c.008-.147-1.331-.907-1.5-1.039-.517-.4-.3-.859-.784-1.285a6.734,6.734,0,0,1-2.345-3.379c-.106-.452-.246-1.023-.71-1.084a.849.849,0,0,0-.8.58,4.228,4.228,0,0,0-.183,1.032,3.752,3.752,0,0,1-1.233,2.256c-1.146,1-3.626,1.263-5,1.807-1.934.767-3.266,1.545-5.306,1.526s-4.157-1.039-4.808-2.935a6.649,6.649,0,0,0-.453-1.289,1.035,1.035,0,0,0-1.147-.541c-.608.2-.744.992-.764,1.621l-.17,5.278c-.072,2.266-.056,4.783,1.487,6.359a8.245,8.245,0,0,0,3.572,1.79c2.741.852,4.819,1.7,7.56,2.556a41.6,41.6,0,0,0,8.39,1.981,14.86,14.86,0,0,0,8.555-1.517,6.9,6.9,0,0,0,2.9-2.745c1.158-2.256.274-5-1.348-6.793S448.36,788.268,446.311,786.976Z" transform="translate(-419.065 -778.851)" fill="#dcdfe2"/>
                  <path id="パス_1748" data-name="パス 1748" d="M442.835,802.913a25.285,25.285,0,0,1-5.617-.634,19.025,19.025,0,0,1-4.017-1.518,14.145,14.145,0,0,0-3.724-1.348,30.585,30.585,0,0,1-6.864-1.993c-3.176-1.478-4.908-3.962-4.753-6.816a56.5,56.5,0,0,1,.927-8.827,1.659,1.659,0,1,1,3.237.726,54.343,54.343,0,0,0-.85,8.282c-.107,1.958,1.733,3.113,2.838,3.628a27.605,27.605,0,0,0,6.022,1.731,16.927,16.927,0,0,1,4.583,1.617,16.155,16.155,0,0,0,3.342,1.285,20.43,20.43,0,0,0,9.569-.031,4.88,4.88,0,0,0,3.289-2.218,3.935,3.935,0,0,0,.036-3.153c-.6-1.6-3.228-3.343-5.145-4.616-.576-.383-1.113-.74-1.569-1.069a15.322,15.322,0,0,1-5.594-7.672,1.659,1.659,0,1,1,3.11-1.157,11.941,11.941,0,0,0,4.427,6.14c.424.306.925.638,1.462.994,2.421,1.609,5.434,3.612,6.413,6.21a7.142,7.142,0,0,1-.185,5.832,7.975,7.975,0,0,1-5.374,3.912A21.458,21.458,0,0,1,442.835,802.913Z" transform="translate(-417.85 -778.049)" fill="#13202f"/>
                  <path id="パス_1749" data-name="パス 1749" d="M432.247,790.361c-2.414,0-5.517-.3-6.874-1.306a.913.913,0,0,1,1.085-1.468c1.311.972,6.49,1.14,8.286.8a.913.913,0,0,1,.337,1.8A17.875,17.875,0,0,1,432.247,790.361Z" transform="translate(-420.538 -781.567)" fill="#13202f"/>
                  <g id="グループ_1999" data-name="グループ 1999" transform="translate(10.652 4.658)">
                    <g id="グループ_1998" data-name="グループ 1998">
                      <path id="パス_1750" data-name="パス 1750" d="M436.244,790.155a20.55,20.55,0,0,1,14.391-3.132,6.291,6.291,0,0,1,2.653.758,2.145,2.145,0,0,1,1.036,2.135c-.31,1.881-2.844,1.538-6.55,1.8a18.53,18.53,0,0,0-6.834,1.624" transform="translate(-435.415 -786.009)" fill="#dcdfe2"/>
                      <path id="パス_1751" data-name="パス 1751" d="M440.44,793.667a.83.83,0,0,1-.313-1.6,19.323,19.323,0,0,1,7.089-1.683c.724-.05,1.4-.077,2.029-.1,2.627-.107,3.631-.22,3.76-1a1.314,1.314,0,0,0-.659-1.3,5.6,5.6,0,0,0-2.3-.637,19.657,19.657,0,0,0-13.861,3.014.83.83,0,0,1-.872-1.413,21.384,21.384,0,0,1,14.919-3.251,7.112,7.112,0,0,1,3,.881,2.967,2.967,0,0,1,1.41,2.97c-.359,2.187-2.552,2.277-5.329,2.388-.613.025-1.275.052-1.982.1a17.733,17.733,0,0,0-6.578,1.564A.814.814,0,0,1,440.44,793.667Z" transform="translate(-434.915 -785.511)" fill="#13202f"/>
                    </g>
                  </g>
                </g>
                <path id="パス_1752" data-name="パス 1752" d="M422.495,492.631q-.754,0-1.5-.013a1,1,0,0,1-.979-1.011.943.943,0,0,1,1.012-.979,86.284,86.284,0,0,0,18.06-1.507,1,1,0,0,1,.442,1.941A84.815,84.815,0,0,1,422.495,492.631Z" transform="translate(-345.827 -347.417)" fill="#13202f"/>
                <path id="パス_1753" data-name="パス 1753" d="M363.4,493.01c-4.349,0-9.257-.408-12.337-1.641a.995.995,0,1,1,.739-1.847c4.306,1.72,12.684,1.692,17.265,1.246a1.013,1.013,0,0,1,1.087.9,1,1,0,0,1-.9,1.087C367.656,492.9,365.6,493.01,363.4,493.01Z" transform="translate(-319.679 -347.55)" fill="#13202f"/>
                <path id="パス_1754" data-name="パス 1754" d="M420.868,424.369a.995.995,0,1,1,0-1.989,89.626,89.626,0,0,0,16.886-1.295.995.995,0,1,1,.376,1.954A91.327,91.327,0,0,1,420.868,424.369Z" transform="translate(-345.773 -321.85)" fill="#fff"/>
                <path id="パス_1755" data-name="パス 1755" d="M428.782,389.189a1,1,0,0,1-.994-.956c-.669-17.269-5.534-39.7-10.571-41.663a1,1,0,0,1,.721-1.857c7.2,2.8,11.324,30.123,11.84,43.442a1,1,0,0,1-.956,1.034Z" transform="translate(-344.536 -293.132)" fill="#f03748"/>
                <path id="パス_1756" data-name="パス 1756" d="M415.472,339.814a1.659,1.659,0,0,1-1.652-1.525c-.283-3.495-.131-6.283,1.5-9.377,1.368-2.6,2.849-5.582,3.082-8.02a1.66,1.66,0,0,1,3.3.318c-.291,3.038-1.933,6.366-3.449,9.249-1.112,2.112-1.408,4.093-1.127,7.561a1.659,1.659,0,0,1-1.519,1.789C415.562,339.812,415.517,339.814,415.472,339.814Z" transform="translate(-343.455 -283.64)" fill="#13202f"/>
                <path id="パス_1757" data-name="パス 1757" d="M412.556,389.186h-.038a1,1,0,0,1-.958-1.032,6.876,6.876,0,0,0-4.588-6.229c-2.747-.979-5.829-.7-8.748-.328l-.652.083c-3.311.428-6.435.831-9.776-.66-3.234-1.441-5.793-3.046-7.772-6.195a28.914,28.914,0,0,1-3.565-10.567A73.171,73.171,0,0,1,375.448,351c.046-2.927.461-5.595,5-6.071a1,1,0,1,1,.209,1.98c-2.886.3-3.174,1.371-3.216,4.12a70.981,70.981,0,0,0,.983,12.9,27.093,27.093,0,0,0,3.287,9.84c1.711,2.722,4,4.142,6.9,5.436,2.833,1.265,5.557.909,8.71.5l.656-.086c3.159-.4,6.507-.7,9.667.428a8.84,8.84,0,0,1,5.91,8.181A1,1,0,0,1,412.556,389.186Z" transform="translate(-329.075 -293.237)" fill="#f03748"/>
                <path id="パス_1758" data-name="パス 1758" d="M379.17,340.248c-.062,0-.122,0-.185-.009a1.659,1.659,0,0,1-1.467-1.831c.382-3.457-.2-4.308-1.172-5.718a18.31,18.31,0,0,1-1.088-1.73l-.64-1.168a25.575,25.575,0,0,1-3.152-7.547,1.659,1.659,0,1,1,3.258-.625,22.733,22.733,0,0,0,2.8,6.568l.655,1.194a14.69,14.69,0,0,0,.9,1.429c1.36,1.98,2.217,3.6,1.735,7.96A1.66,1.66,0,0,1,379.17,340.248Z" transform="translate(-327.571 -283.973)" fill="#13202f"/>
                <path id="パス_1759" data-name="パス 1759" d="M420.868,415.6a.995.995,0,1,1,0-1.989,89.465,89.465,0,0,0,16.886-1.3,1,1,0,1,1,.376,1.954A91.216,91.216,0,0,1,420.868,415.6Z" transform="translate(-345.773 -318.555)" fill="#13202f"/>
                <path id="パス_1760" data-name="パス 1760" d="M393.746,375.244a26.015,26.015,0,0,1-3.532-.214,1,1,0,0,1,.274-1.973c3.379.471,7.819-.01,10.759-.328l1.048-.112a1,1,0,1,1,.2,1.98l-1.039.111A72.733,72.733,0,0,1,393.746,375.244Z" transform="translate(-334.304 -303.642)" fill="#13202f"/>
                <path id="パス_1761" data-name="パス 1761" d="M456.063,548.262a1,1,0,0,1-.991-.917l-.713-9.012a.993.993,0,0,1,.914-1.071.98.98,0,0,1,1.071.912l.714,9.015a1,1,0,0,1-.914,1.07A.675.675,0,0,1,456.063,548.262Z" transform="translate(-358.732 -365.516)" fill="#13202f"/>
                <g id="グループ_2001" data-name="グループ 2001" transform="translate(74.562 145.856)">
                  <path id="パス_1762" data-name="パス 1762" d="M422.27,500.659a.345.345,0,0,1-.044,0c-.283-.014-.566-.032-.848-.055a.829.829,0,1,1,.127-1.654c.268.021.538.039.808.054a.829.829,0,0,1-.043,1.657Z" transform="translate(-420.612 -496.974)" fill="#13202f"/>
                  <path id="パス_1763" data-name="パス 1763" d="M427.569,499.965a.83.83,0,0,1-.021-1.659c.545-.014,1.092-.038,1.637-.07a.8.8,0,0,1,.876.78.829.829,0,0,1-.779.876c-.563.033-1.128.059-1.691.073Zm4.652-.332a.83.83,0,0,1-.092-1.654c.551-.062,1.1-.132,1.636-.2a.811.811,0,0,1,.933.712.829.829,0,0,1-.712.931q-.825.112-1.67.209C432.283,499.631,432.252,499.633,432.221,499.633Zm4.617-.666a.829.829,0,0,1-.141-1.646c.557-.1,1.1-.2,1.628-.3a.829.829,0,1,1,.308,1.63q-.8.154-1.652.3A.687.687,0,0,1,436.837,498.966Z" transform="translate(-422.915 -496.247)" fill="#13202f"/>
                  <path id="パス_1764" data-name="パス 1764" d="M449.768,497.617a.83.83,0,0,1-.169-1.642l.808-.172a.83.83,0,0,1,.343,1.624l-.811.172A.776.776,0,0,1,449.768,497.617Z" transform="translate(-431.258 -495.787)" fill="#13202f"/>
                </g>
                <g id="グループ_2002" data-name="グループ 2002" transform="translate(30.881 146.754)">
                  <path id="パス_1765" data-name="パス 1765" d="M352.225,499.211a.816.816,0,0,1-.3-.057c-.277-.109-.547-.222-.81-.345a.829.829,0,1,1,.7-1.5c.232.107.47.208.715.3a.83.83,0,0,1-.3,1.6Z" transform="translate(-350.633 -497.226)" fill="#13202f"/>
                  <path id="パス_1766" data-name="パス 1766" d="M363.033,501.362h-.021c-.54-.013-1.079-.037-1.613-.069a.83.83,0,1,1,.1-1.656c.514.032,1.032.053,1.551.066a.83.83,0,0,1-.02,1.659Zm2.849-.017a.83.83,0,0,1-.026-1.659q.784-.027,1.559-.075a.83.83,0,1,1,.1,1.656c-.531.033-1.067.06-1.605.078Zm-7.264-.35a.856.856,0,0,1-.126-.009c-.546-.084-1.084-.182-1.607-.3a.829.829,0,1,1,.351-1.62c.491.1.994.2,1.506.277a.829.829,0,0,1-.125,1.649Z" transform="translate(-352.737 -497.911)" fill="#13202f"/>
                  <path id="パス_1767" data-name="パス 1767" d="M378.291,501.147a.829.829,0,0,1-.085-1.654l.808-.094a.819.819,0,0,1,.926.72.829.829,0,0,1-.72.927c-.276.034-.556.068-.84.1A.8.8,0,0,1,378.291,501.147Z" transform="translate(-360.716 -498.039)" fill="#13202f"/>
                </g>
                <path id="パス_1768" data-name="パス 1768" d="M338.2,804.623c-.362,0-.728-.005-1.1-.018-2.911-.091-6.5-.539-8.439-3.2a.663.663,0,1,1,1.072-.781c1.6,2.2,4.8,2.575,7.409,2.657a29.519,29.519,0,0,0,9.582-1.249c1.138-.332,2.093-.7,3.017-1.054a28.37,28.37,0,0,1,6.117-1.75c2.22-.371,4.923-1.57,4.95-2.5.011-.366.329-.721.683-.644a.664.664,0,0,1,.644.682c-.08,2.695-6,3.761-6.059,3.77a26.819,26.819,0,0,0-5.86,1.68c-.949.365-1.931.742-3.122,1.087A30.809,30.809,0,0,1,338.2,804.623Z" transform="translate(-311.448 -462.78)" fill="#13202f"/>
                <path id="パス_1769" data-name="パス 1769" d="M443.78,804.624a30.807,30.807,0,0,1-8.9-1.319c-1.191-.345-2.172-.723-3.122-1.087a26.853,26.853,0,0,0-5.86-1.68c-.06-.009-5.98-1.074-6.058-3.77a.663.663,0,0,1,.644-.682.611.611,0,0,1,.684.644c.026.931,2.73,2.129,4.95,2.5a28.375,28.375,0,0,1,6.117,1.75c.924.355,1.878.723,3.016,1.054a29.571,29.571,0,0,0,9.581,1.249c2.609-.082,5.808-.46,7.409-2.657a.663.663,0,1,1,1.072.781c-1.939,2.662-5.529,3.111-8.439,3.2C444.506,804.619,444.142,804.624,443.78,804.624Z" transform="translate(-345.761 -462.781)" fill="#13202f"/>
              </g>
            </g>
            <g id="グループ_2014" data-name="グループ 2014" transform="translate(115.266 11.727)">
              <path id="パス_1770" data-name="パス 1770" d="M676.147,773.23l-2.288,6.113c-.654,1.748-1.311,3.693-.63,5.431a5.274,5.274,0,0,0,2.332,2.512,8.237,8.237,0,0,0,12.138-5.065c.928-3.617-.663-7.469-.027-11.149" transform="translate(-644.296 -465.112)" fill="#fff"/>
              <path id="パス_1771" data-name="パス 1771" d="M717.379,774.04a21.683,21.683,0,0,0-.812,6.529,7.33,7.33,0,0,0,2.98,5.637c2.044,1.324,4.684,1.128,7.1.819,1.29-.165,2.708-.42,3.515-1.44,1.149-1.451.455-3.548-.089-5.317a24.591,24.591,0,0,1-.885-10.292" transform="translate(-660.677 -464.7)" fill="#fff"/>
              <path id="パス_1772" data-name="パス 1772" d="M635.906,421.995a57.473,57.473,0,0,0-6.357,21.62,12.446,12.446,0,0,0,.394,5.361,4.94,4.94,0,0,0,3.87,3.381c2.8.275,4.837-2.493,6.253-4.922l12.962-22.227c1.509-2.587,3.069-5.6,2.1-8.437" transform="translate(-627.949 -331.963)" fill="#fff"/>
              <path id="パス_1773" data-name="パス 1773" d="M742.131,515.949a5.8,5.8,0,0,0,6.328,1.77,9.543,9.543,0,0,0,5.155-4.512c2.483-4.315,2.53-9.559,2.51-14.537q-.139-35.23-.279-70.459a1.772,1.772,0,0,0-2.639-2.055l-17.6,5.014" transform="translate(-667.844 -335.414)" fill="#fff"/>
              <path id="パス_1774" data-name="パス 1774" d="M709.9,343.222c-3.266-1.256-4.8-5.226-4.389-8.7s2.308-6.571,4.157-9.541,3.743-6.071,4.141-9.547a14.747,14.747,0,0,0-2.668-9.762,26.981,26.981,0,0,0-7.458-7.061,21.859,21.859,0,0,0-8.911-3.852,10.72,10.72,0,0,0-9.072,2.618c-2.046,2.048-2.885,4.975-3.648,7.768-1.1,4.027-2.206,8.278-1.167,12.322.881,3.429,3.2,6.272,5.058,9.283s3.341,6.648,2.306,10.034c-.592,1.939-1.943,3.55-2.784,5.4a14.721,14.721,0,0,0-.72,8.935,43.818,43.818,0,0,0,2.994,8.589,20.814,20.814,0,0,0,3.638,6.318c1.681,1.775,4.216,2.946,6.585,2.347,2.717-.688,4.385-3.374,5.567-5.915s2.308-5.344,4.69-6.821" transform="translate(-647.124 -286.062)" fill="#fff"/>
              <g id="グループ_2013" data-name="グループ 2013">
                <path id="パス_1775" data-name="パス 1775" d="M659.261,510.248c-.975,19.257-1.105,36.4-.4,55.67.674,18.273,3.014,36.435,3.959,54.637.968,18.622,2.911,37.248,4.364,55.839a27.015,27.015,0,0,0,16.441.768q-.578-65.329,2.7-130.616l6.5,3.455.066,12.925c.19,36.964-.236,73.962.677,110.861a4.938,4.938,0,0,0,.542,2.586c1,1.549,5.982,2.251,7.628,2.386,2.765.226,5.776-.612,7.474-2.806,1.524-1.969,1.744-4.618,1.9-7.1.587-9.11,2.038-18.607,1.786-27.727-.228-8.283,1.929-16.79,2.968-25.067a559.538,559.538,0,0,0,3.87-58.206q.237-15.782-.516-31.558a45.536,45.536,0,0,0-2.992-15.743" transform="translate(-638.838 -367.093)" fill="#f03748"/>
                <path id="パス_1776" data-name="パス 1776" d="M707.279,442.217a39.591,39.591,0,0,1-1-14.222c.419-4.819,1.273-9.809,1.273-14.642l15.843-5.332A34.974,34.974,0,0,0,706,375.052c-2.449-1.422-5.068-2.213-7.607-3.4-.81-.38-7.761-3.843-7.5-4.686a67.1,67.1,0,0,1-8.686,18.057c-.393.577-.9,1.208-1.6,1.211-.73.005-1.255-.675-1.648-1.291a81.021,81.021,0,0,1-8.4-17.431A31.618,31.618,0,0,0,644.136,388.7c-.954,2.775-2.145,5.393-3.328,8.1l-2.061,4.71c-.464,1.06-1.8,2.984-1.8,4.121l12.105,2.735a6.286,6.286,0,0,1,2.995,1.258,6.045,6.045,0,0,1,1.473,3.466,74.63,74.63,0,0,1-1.64,33.7c-1.233,4.326-1.225,8.59-1.534,13.014a1.807,1.807,0,0,0,.094.914,1.735,1.735,0,0,0,1.112.754c2.08.675,4.159.624,6.253,1.065a41.874,41.874,0,0,0,4.5.708,75.788,75.788,0,0,0,11.711.026c1.74-.1,3.551-.368,5.273-.323,1.882.05,3.785.441,5.675.533a64.478,64.478,0,0,0,22.483-2.888c1.663-.525,2.4-1.252,2.426-3.014C709.939,452.916,708.46,446.729,707.279,442.217Z" transform="translate(-630.768 -313.245)" fill="#f7e7e7"/>
                <path id="パス_1777" data-name="パス 1777" d="M710.139,392.867a.995.995,0,0,1-.63-1.766c5.253-4.279,9.21-11.578,12.7-18.831a1,1,0,0,1,1.794.865c-3.595,7.458-7.687,14.984-13.241,19.508A.989.989,0,0,1,710.139,392.867Z" transform="translate(-657.901 -315.028)" fill="#fff"/>
                <path id="パス_1778" data-name="パス 1778" d="M694.961,392.828a1,1,0,0,1-.7-.29A49.129,49.129,0,0,1,682.2,372.385a1,1,0,1,1,1.9-.6,47.137,47.137,0,0,0,11.567,19.346,1,1,0,0,1-.7,1.7Z" transform="translate(-647.758 -314.797)" fill="#fff"/>
                <path id="パス_1779" data-name="パス 1779" d="M749.54,429.033a1,1,0,0,1-.406-1.905c2.21-.987,4.75-2.022,7.207-3.025,2.432-.991,4.947-2.017,7.118-2.986a1,1,0,0,1,.812,1.818c-2.2.982-4.732,2.014-7.178,3.012s-4.967,2.026-7.147,3A1,1,0,0,1,749.54,429.033Z" transform="translate(-672.708 -333.564)" fill="#fff"/>
                <path id="パス_1780" data-name="パス 1780" d="M643.065,422.333a.992.992,0,0,1-.418-.094l-3.693-1.71a1,1,0,0,1,.836-1.808l3.694,1.713a1,1,0,0,1-.419,1.9Z" transform="translate(-631.307 -332.663)" fill="#fff"/>
                <path id="パス_1781" data-name="パス 1781" d="M635.741,407.9a1.656,1.656,0,0,1-1.061-.384,3.626,3.626,0,0,0-.6-.4c-1.34-.752-1.7-1.7-1.275-3.372a39.456,39.456,0,0,1,2.5-6.353l1.329-2.933c2.771-6.168,5.636-12.546,10.65-17.683,3.548-3.638,7.417-5.4,11.9-7.435,2.451-1.115,5.23-2.381,8.282-4.113a1.659,1.659,0,1,1,1.639,2.884c-3.181,1.806-6.032,3.1-8.547,4.248-4.348,1.979-7.782,3.54-10.9,6.733-4.6,4.716-7.224,10.551-10,16.726l-1.342,2.961a38.647,38.647,0,0,0-2.263,5.65,6.445,6.445,0,0,1,.75.536,1.659,1.659,0,0,1-1.063,2.934Z" transform="translate(-629.149 -312.51)" fill="#13202f"/>
                <ellipse id="楕円形_281" data-name="楕円形 281" cx="1.622" cy="2.136" rx="1.622" ry="2.136" transform="translate(41.629 21.125)" fill="#13202f"/>
                <ellipse id="楕円形_282" data-name="楕円形 282" cx="1.622" cy="2.136" rx="1.622" ry="2.136" transform="translate(54.027 21.192)" fill="#13202f"/>
                <path id="パス_1782" data-name="パス 1782" d="M705.675,331.448a2.14,2.14,0,0,1-1.114-.3.664.664,0,1,1,.7-1.127.887.887,0,0,0,.781.014.664.664,0,0,1,.8,1.06A1.966,1.966,0,0,1,705.675,331.448Z" transform="translate(-656.061 -299.319)" fill="#13202f"/>
                <path id="パス_1783" data-name="パス 1783" d="M704.633,340.912a5.423,5.423,0,0,1-2.552-.562.746.746,0,1,1,.723-1.306,4.818,4.818,0,0,0,4.014-.135.746.746,0,1,1,.808,1.254A5.73,5.73,0,0,1,704.633,340.912Z" transform="translate(-655.102 -302.658)" fill="#13202f"/>
                <ellipse id="楕円形_283" data-name="楕円形 283" cx="0.953" cy="0.953" rx="0.953" ry="0.953" transform="translate(45.978 35.855)" fill="#13202f"/>
                <ellipse id="楕円形_284" data-name="楕円形 284" cx="0.953" cy="0.953" rx="0.953" ry="0.953" transform="translate(51.486 35.732)" fill="#13202f"/>
                <path id="パス_1784" data-name="パス 1784" d="M681.75,329.775a1.642,1.642,0,0,1-.544-.092c-3.976-1.381-4.346-9.192-3.62-12.081a1.659,1.659,0,1,1,3.218.806c-.725,2.889.343,7.742,1.491,8.141a1.659,1.659,0,0,1-.544,3.226Z" transform="translate(-645.929 -294.223)" fill="#13202f"/>
                <path id="パス_1785" data-name="パス 1785" d="M727.657,329.992a1.244,1.244,0,0,1-.523-2.374c1.89-.873,2.49-6.115,1.107-9.673a1.244,1.244,0,1,1,2.32-.9c1.54,3.96,1.375,11.1-2.383,12.832A1.245,1.245,0,0,1,727.657,329.992Z" transform="translate(-664.39 -294.188)" fill="#13202f"/>
                <path id="パス_1786" data-name="パス 1786" d="M707.165,301.36q-.193-.352-.412-.688a5.416,5.416,0,0,0-1.771-1.865c-.873-.5-1.8-.9-2.718-1.317-4.034-1.846-8.769-2.585-12.025-5.6-4.468,3.686-6.31,7.527-6.645,13.309-.029.5-.1,1.088-.537,1.318-.541.282-1.176-.235-1.423-.794-.287-.649-.321-1.492-1.034-1.732-.612-.206-1.153.571-1.748-.341a3.063,3.063,0,0,1-.325-1.773c.114-4.333.488-9.078,2.762-12.838a17.254,17.254,0,0,1,12.2-7.967,18.6,18.6,0,0,1,10.426,1.573c3.2,1.41,6.017,4.843,7.42,8.058,2.295,5.258,1.465,10.355-.356,15.564a3.407,3.407,0,0,1-.521,1.066,1.149,1.149,0,0,1-1.044.453,1.18,1.18,0,0,1-.832-.821,4.475,4.475,0,0,1-.153-1.212A10.365,10.365,0,0,0,707.165,301.36Z" transform="translate(-646.393 -280.905)" fill="#13202f"/>
                <path id="パス_1787" data-name="パス 1787" d="M728.413,303.521a6.193,6.193,0,0,1,6.078,2.183,9.952,9.952,0,0,1,2.087,6.344,26.589,26.589,0,0,1-1.054,6.711,10.291,10.291,0,0,0-.471,3.238,3.355,3.355,0,0,0,1.552,2.742c.493.268,1.109.393,1.42.86a1.374,1.374,0,0,1-.258,1.639,3.53,3.53,0,0,1-1.566.831,19,19,0,0,1-9.776.389,38.586,38.586,0,0,0,2.883-6.032,12.944,12.944,0,0,0,.657-6.586c-.493-2.572-2-4.817-3.468-6.984" transform="translate(-664.395 -289.344)" fill="#13202f"/>
                <path id="パス_1788" data-name="パス 1788" d="M750.18,409.459a1.659,1.659,0,0,1-.507-3.239l.628-.2a5.567,5.567,0,0,0,2.822-1.408c.319-.9-.548-4.566-2.627-10.812l-.386-1.167a31.633,31.633,0,0,0-4.862-9.7c-3.667-4.755-8.779-7.426-14.7-10.519a106.173,106.173,0,0,1-10.569-6.075,1.66,1.66,0,0,1,1.857-2.752,102.718,102.718,0,0,0,10.249,5.885c6,3.138,11.677,6.1,15.79,11.435a34.856,34.856,0,0,1,5.39,10.7l.377,1.142c2.535,7.611,3.568,11.834,2.185,13.782-1.152,1.619-3.04,2.2-4.557,2.661l-.586.181A1.669,1.669,0,0,1,750.18,409.459Z" transform="translate(-661.699 -311.873)" fill="#13202f"/>
                <g id="グループ_2006" data-name="グループ 2006" transform="translate(9.83 61.46)">
                  <path id="パス_1789" data-name="パス 1789" d="M660.649,412.131l7.612.817a4.939,4.939,0,0,0,3.335-.426,3.484,3.484,0,0,0,1.351-2.572c.2-2.049-.578-4.223-1.042-6.189l-1.549-6.575-3.1-13.151a3.846,3.846,0,0,0-1.014-2.146,3.626,3.626,0,0,0-2.5-.549q-4.453.131-8.9.393c-1.335.079-2.932.347-3.456,1.609a3.86,3.86,0,0,0,.071,2.369l3.628,14.821" transform="translate(-645.964 -380.106)" fill="#f03748"/>
                  <path id="パス_1790" data-name="パス 1790" d="M652.631,428.1c1.023-.906.7-1.522,1.545-2.629a9.56,9.56,0,0,1,3.515-3.28,13.088,13.088,0,0,1,3.182-.661,15.847,15.847,0,0,0,6.083-2.318,2.7,2.7,0,0,0,.934-.861,1.073,1.073,0,0,0-.042-1.214,1.522,1.522,0,0,0-1.241-.321l-9.31.39,6.593-4.408a5.879,5.879,0,0,0,2.032-1.893,2.089,2.089,0,0,0-.31-2.586,2.019,2.019,0,0,0,1.791-2.38,1.974,1.974,0,0,0-2.632-1.331,1.467,1.467,0,0,0-.257-2.016,3.674,3.674,0,0,0-2.087-.7,15.889,15.889,0,0,0-4.411.059,14.471,14.471,0,0,0-8.909,6.057c-2.17,3.011-2.407,5.649-3.4,9.254-.854,3.11-1.491,6.47-.475,9.53.322.972,2.23,5.5,3.59,5.064a1.043,1.043,0,0,0,.487-.473,15.27,15.27,0,0,1,3.235-3.211C652.575,428.152,652.6,428.128,652.631,428.1Z" transform="translate(-643.518 -387.786)" fill="#fff"/>
                  <path id="パス_1791" data-name="パス 1791" d="M659.918,413.213a1.244,1.244,0,0,1-.053-2.487c.333-.015,8.2-.358,9.82-.361a1.23,1.23,0,0,0,.894-.272,1.686,1.686,0,0,0,.166-1.262c-1.141-6.442-3.673-19.232-5.486-26.215a.98.98,0,0,0-.974-.76c-3.376.034-8.457.238-12.2.622a.773.773,0,0,0-.544.317.858.858,0,0,0-.142.692c.243,1.116.607,2.862.994,4.715.641,3.074,1.368,6.556,1.66,7.729a1.244,1.244,0,0,1-2.414.6c-.3-1.22-1.005-4.577-1.682-7.822-.384-1.844-.746-3.583-.989-4.7a3.358,3.358,0,0,1,.559-2.682A3.267,3.267,0,0,1,651.829,380c3.824-.392,9-.6,12.431-.635h.039a3.486,3.486,0,0,1,3.37,2.623c1.829,7.048,4.379,19.925,5.527,26.408a4.127,4.127,0,0,1-.708,3.291,3.471,3.471,0,0,1-2.8,1.165c-1.574,0-9.637.355-9.718.358Z" transform="translate(-645.087 -379.367)" fill="#13202f"/>
                  <path id="パス_1792" data-name="パス 1792" d="M661.766,418.95a.909.909,0,0,1-.707-1.477,12.805,12.805,0,0,1,3.235-2.056c2.013-1.094,5.057-2.745,5.69-3.9a2.042,2.042,0,0,0,.027-1.589.914.914,0,0,1,.357-1.044l.335-.217c.3-.19,1-.635,1.056-.863a.664.664,0,0,0-.336-.448c-1.055-.655-3.859-.292-6.015.328a19.4,19.4,0,0,0-2.75,1.079,18.174,18.174,0,0,1-3.668,1.337.912.912,0,1,1-.4-1.779,16.543,16.543,0,0,0,3.318-1.22,20.938,20.938,0,0,1,3-1.17c1.232-.355,5.417-1.41,7.482-.123a2.476,2.476,0,0,1,1.167,1.7c.22,1.223-.843,2.032-1.632,2.547a3.521,3.521,0,0,1-.338,2.341c-.827,1.508-3.289,2.927-6.422,4.629a18.907,18.907,0,0,0-2.7,1.61A.928.928,0,0,1,661.766,418.95Z" transform="translate(-648.465 -389.069)" fill="#13202f"/>
                  <path id="パス_1793" data-name="パス 1793" d="M660.145,417.279a.83.83,0,0,1-.293-1.606c.839-.316,1.619-.593,2.374-.862,1.356-.481,2.637-.936,4.035-1.544a.83.83,0,0,1,.661,1.523c-1.45.63-2.757,1.094-4.141,1.584-.745.266-1.515.538-2.343.851A.85.85,0,0,1,660.145,417.279Z" transform="translate(-649.005 -392.082)" fill="#13202f"/>
                  <g id="グループ_2005" data-name="グループ 2005" transform="translate(12.049 27.923)">
                    <path id="パス_1794" data-name="パス 1794" d="M664.085,426.119c1.809.093,5.032.366,6.8-.038a10.642,10.642,0,0,1,2.617-.371c.728.013,1.447.442,1.383,1.031a1.663,1.663,0,0,1-.509.858c-1.292,1.4-3.114,1.577-5.042,2.253a22.762,22.762,0,0,1-5.64,1.253" transform="translate(-662.702 -424.705)" fill="#fff"/>
                    <path id="パス_1795" data-name="パス 1795" d="M663.1,431.5a1,1,0,0,1-.141-1.98l.7-.1a19.351,19.351,0,0,0,4.756-1.107c.509-.178,1.011-.324,1.5-.465a6.348,6.348,0,0,0,3.141-1.524c.061-.065.108-.119.144-.164a1,1,0,0,0-.3-.055,11.605,11.605,0,0,0-2.377.348,26.191,26.191,0,0,1-6.233.109l-.843-.047a1,1,0,0,1-.943-1.045.966.966,0,0,1,1.045-.945l.859.049a25.842,25.842,0,0,0,5.672-.061,9.6,9.6,0,0,1,2.854-.4,2.629,2.629,0,0,1,1.923.816,1.7,1.7,0,0,1,.434,1.317,2.62,2.62,0,0,1-.768,1.426,8.128,8.128,0,0,1-4.05,2.085c-.453.132-.919.266-1.391.433a21.418,21.418,0,0,1-5.136,1.2l-.692.1A1.128,1.128,0,0,1,663.1,431.5Z" transform="translate(-662.103 -424.101)" fill="#13202f"/>
                  </g>
                  <path id="パス_1796" data-name="パス 1796" d="M643.8,423.267a.935.935,0,0,1-.24-.031,1,1,0,0,1-.727-1.205c.55-2.212.9-4.467,1.2-6.455a21.046,21.046,0,0,1,1.031-4.8,18.825,18.825,0,0,1,5.9-7.621,16.293,16.293,0,0,1,7.588-2.406c3.458-.415,5.58-.037,6.493,1.155a2.442,2.442,0,0,1,.2,2.54,1,1,0,1,1-1.846-.745c.065-.164.161-.456.062-.585-.245-.324-1.509-.766-4.673-.389a14.584,14.584,0,0,0-6.685,2.059,17.006,17.006,0,0,0-5.239,6.849,22.911,22.911,0,0,0-.859,4.244c-.3,1.931-.666,4.334-1.237,6.633A1,1,0,0,1,643.8,423.267Z" transform="translate(-642.799 -387.341)" fill="#13202f"/>
                </g>
                <path id="パス_1797" data-name="パス 1797" d="M634.259,457.4a7.178,7.178,0,0,1-4.049-1.369c-2.513-1.708-3.535-4.926-3.038-9.565a48.64,48.64,0,0,1,5.719-18.146,1.66,1.66,0,0,1,2.906,1.6,45.283,45.283,0,0,0-5.326,16.894c-.245,2.286-.165,5.264,1.6,6.467a3.5,3.5,0,0,0,2.85.713c1.526-.376,3.139-2.08,4.667-4.931.509-.949,1.144-2.492,1.759-3.984A48.314,48.314,0,0,1,643.6,440.1c.5-.872,1.063-1.75,1.635-2.638a27.094,27.094,0,0,0,2.807-5.088,1.659,1.659,0,0,1,3.119,1.134,29.588,29.588,0,0,1-3.136,5.754c-.54.836-1.074,1.662-1.543,2.482a47.213,47.213,0,0,0-2.065,4.6c-.676,1.642-1.314,3.192-1.9,4.291-2.012,3.755-4.3,5.971-6.8,6.585A6.124,6.124,0,0,1,634.259,457.4Z" transform="translate(-627.05 -335.981)" fill="#13202f"/>
                <path id="パス_1798" data-name="パス 1798" d="M639.174,439.18a.995.995,0,0,1-.757-1.64l2.882-3.393a1,1,0,1,1,1.516,1.29l-2.881,3.393A.992.992,0,0,1,639.174,439.18Z" transform="translate(-631.233 -338.363)" fill="#13202f"/>
                <path id="パス_1799" data-name="パス 1799" d="M642.084,430.292a.978.978,0,0,1-.425-.1l-2.587-1.22a1,1,0,1,1,.849-1.8l2.59,1.223a1,1,0,0,1-.427,1.9Z" transform="translate(-631.353 -335.837)" fill="#13202f"/>
                <path id="パス_1800" data-name="パス 1800" d="M749.748,437.888a1,1,0,0,1-.358-1.925c1.965-.757,4.152-1.566,6.341-2.374,2.208-.813,4.417-1.63,6.4-2.393a1,1,0,0,1,.716,1.857c-1.989.768-4.208,1.586-6.424,2.4-2.18.805-4.359,1.609-6.314,2.363A1.01,1.01,0,0,1,749.748,437.888Z" transform="translate(-672.786 -337.36)" fill="#13202f"/>
                <path id="パス_1801" data-name="パス 1801" d="M758.205,521.2a1.659,1.659,0,0,1-1.313-2.672c2.639-3.425,5.266-7.119,5.851-11.319a27.17,27.17,0,0,0-.1-6.108l-.092-1.063c-.379-4.563-.4-6.862-.415-11.626-.01-3.372.09-6.489.186-9.5a138.9,138.9,0,0,0-.13-16.222l-.05-.632a88.716,88.716,0,0,1-.4-12.348c.175-3.456.25-8.621.229-15.79a1.66,1.66,0,0,1,1.654-1.664h0a1.659,1.659,0,0,1,1.659,1.655c.022,7.228-.054,12.452-.233,15.968a86.337,86.337,0,0,0,.394,11.914l.051.635a141.7,141.7,0,0,1,.138,16.592c-.1,2.986-.195,6.074-.185,9.388.014,4.486.02,6.737.4,11.36l.091,1.044a30.1,30.1,0,0,1,.078,6.86c-.7,5.005-3.726,9.276-6.51,12.888A1.655,1.655,0,0,1,758.205,521.2Z" transform="translate(-675.716 -337.78)" fill="#13202f"/>
                <path id="パス_1802" data-name="パス 1802" d="M656.758,486.9a1.588,1.588,0,0,1-.4-.049,1.658,1.658,0,0,1-1.215-2.006c3.958-16.1,5.107-33.783,3.075-47.293a1.659,1.659,0,1,1,3.281-.493c2.094,13.915.923,32.076-3.133,48.576A1.66,1.66,0,0,1,656.758,486.9Z" transform="translate(-637.59 -339.059)" fill="#13202f"/>
                <path id="パス_1803" data-name="パス 1803" d="M686.484,520.458c-10.381,0-20.846-.735-27.241-2.391a1,1,0,0,1,.5-1.928c13.549,3.511,47.345,2.727,55.988-.447a1,1,0,0,1,.687,1.869C711.453,519.384,699.029,520.458,686.484,520.458Z" transform="translate(-638.867 -369.117)" fill="#13202f"/>
                <path id="パス_1804" data-name="パス 1804" d="M750.292,477.536h-.023a1.078,1.078,0,0,1-1.056-1.1c.111-5.191-.82-10.913-1.718-16.446A100.759,100.759,0,0,1,746.089,449a136.091,136.091,0,0,1,.385-17.018c.486-6.8.868-12.178-1.153-20.681a1.078,1.078,0,1,1,2.1-.5c2.1,8.826,1.7,14.344,1.206,21.334a134.145,134.145,0,0,0-.381,16.77,99.5,99.5,0,0,0,1.381,10.736c.914,5.627,1.861,11.447,1.746,16.836A1.08,1.08,0,0,1,750.292,477.536Z" transform="translate(-671.485 -329.41)" fill="#13202f"/>
                <ellipse id="楕円形_285" data-name="楕円形 285" cx="1.8" cy="1.8" rx="1.8" ry="1.8" transform="translate(73.088 79.962)" fill="#13202f"/>
                <path id="パス_1805" data-name="パス 1805" d="M666.7,680.624a1.659,1.659,0,0,1-1.651-1.515c-.575-6.583-1.178-13.346-1.789-20.206-4.86-54.54-10.369-116.356-6.668-140.991a1.659,1.659,0,1,1,3.281.492c-3.64,24.243,1.849,85.849,6.693,140.2.612,6.862,1.215,13.626,1.79,20.213a1.658,1.658,0,0,1-1.508,1.8A1.433,1.433,0,0,1,666.7,680.624Z" transform="translate(-637.696 -369.443)" fill="#13202f"/>
                <path id="パス_1806" data-name="パス 1806" d="M739.733,694.631c-.034,0-.067,0-.1,0a1.659,1.659,0,0,1-1.556-1.757c1.179-19.549,2.9-39.336,4.573-58.472,2.58-29.584,5.016-57.526,4.8-78.282a1.659,1.659,0,1,1,3.318-.032c.213,20.916-2.229,48.936-4.816,78.6-1.667,19.115-3.389,38.88-4.567,58.385A1.659,1.659,0,0,1,739.733,694.631Z" transform="translate(-668.773 -383.701)" fill="#13202f"/>
                <path id="パス_1807" data-name="パス 1807" d="M708.6,573.56a1.654,1.654,0,0,1-1.27-.591,18.551,18.551,0,0,0-3.587-2.962,21.121,21.121,0,0,1-4.225-3.544,1.659,1.659,0,1,1,2.539-2.136,18.552,18.552,0,0,0,3.587,2.962,21.1,21.1,0,0,1,4.224,3.543,1.659,1.659,0,0,1-1.268,2.727Z" transform="translate(-654.136 -387.194)" fill="#13202f"/>
                <path id="パス_1808" data-name="パス 1808" d="M713.38,702.882a1.659,1.659,0,0,1-1.659-1.659c0-22.422-.223-105.121-.337-124.632a1.658,1.658,0,0,1,1.649-1.669h.01a1.66,1.66,0,0,1,1.659,1.65c.114,19.515.337,102.227.337,124.652A1.659,1.659,0,0,1,713.38,702.882Z" transform="translate(-658.743 -391.397)" fill="#13202f"/>
                <path id="パス_1809" data-name="パス 1809" d="M698.516,700.308h0a1.659,1.659,0,0,1-1.659-1.661c0-7.5.38-36.513.742-64.572.361-27.964.736-56.88.74-64.344A1.659,1.659,0,0,1,700,568.073h0a1.659,1.659,0,0,1,1.658,1.661c0,7.483-.378,36.409-.74,64.384-.362,28.049-.737,57.052-.741,64.532A1.66,1.66,0,0,1,698.516,700.308Z" transform="translate(-653.283 -388.824)" fill="#13202f"/>
                <path id="パス_1810" data-name="パス 1810" d="M682.666,779.911a23.062,23.062,0,0,1-6.641-.966.995.995,0,1,1,.574-1.905,21.39,21.39,0,0,0,12.153,0,1,1,0,0,1,.571,1.909A23.282,23.282,0,0,1,682.666,779.911Z" transform="translate(-645.189 -467.338)" fill="#13202f"/>
                <path id="パス_1811" data-name="パス 1811" d="M722.656,780.034a24.688,24.688,0,0,1-7.685-1.227,1,1,0,0,1,.642-1.886c3.987,1.356,9.941,1.708,13.609-.25a1,1,0,0,1,.936,1.757A16.153,16.153,0,0,1,722.656,780.034Z" transform="translate(-659.838 -467.172)" fill="#13202f"/>
                <g id="グループ_2008" data-name="グループ 2008" transform="translate(54.354 309.936)">
                  <path id="パス_1812" data-name="パス 1812" d="M717.634,783.74c-.8,3.818,5.613,3.057,7.922,2.912a11.214,11.214,0,0,1,4.646.239c2.8,1.054,2.965,4.194,3.59,6.637.595,2.328,1.12,5.028-.373,6.934a5.835,5.835,0,0,1-2.745,1.79,10.431,10.431,0,0,1-10.354-2.3c-1.758-1.69-3.186-4.392-2.962-6.854.261-2.872-.472-5.744-.187-8.672" transform="translate(-715.247 -779.808)" fill="#dcdfe2"/>
                  <path id="パス_1813" data-name="パス 1813" d="M725.828,802.1a9.138,9.138,0,0,1-6.953-2.722c-5.315-5.319-4.974-11.632-4.5-20.368a1.659,1.659,0,1,1,3.313.178c-.482,8.92-.544,13.763,3.537,17.846,1.349,1.351,2.868,1.859,5.269,1.731,2.673-.138,4.485-1.29,4.849-3.083a10.242,10.242,0,0,0-.15-4.1c-.576-1.935-1.226-3.657-1.914-5.482-.679-1.8-1.381-3.661-1.992-5.711a1.659,1.659,0,0,1,3.181-.946c.577,1.934,1.227,3.66,1.916,5.486.678,1.8,1.379,3.659,1.989,5.7a13.557,13.557,0,0,1,.222,5.711c-.673,3.323-3.712,5.522-7.93,5.741C726.378,802.095,726.1,802.1,725.828,802.1Z" transform="translate(-714.128 -777.441)" fill="#13202f"/>
                  <g id="グループ_2007" data-name="グループ 2007" transform="translate(4.812 5.672)">
                    <path id="パス_1814" data-name="パス 1814" d="M724.226,793.332a16.2,16.2,0,0,1,7.276-.727c1.83.238,3.766.243,3.282-2.28-.665-3.469-9.18-2.444-11.618-1.869" transform="translate(-722.336 -787.027)" fill="#dcdfe2"/>
                    <path id="パス_1815" data-name="パス 1815" d="M723.726,793.662a.83.83,0,0,1-.268-1.615,16.971,16.971,0,0,1,7.652-.763c.464.06,1.874.242,2.265-.174a1.4,1.4,0,0,0,.094-1.128,1.447,1.447,0,0,0-.7-.944c-2.062-1.335-7.559-.828-9.908-.274a.829.829,0,1,1-.381-1.613c1.615-.381,8.246-1.415,11.191.5a3.058,3.058,0,0,1,1.433,2.024,2.814,2.814,0,0,1-.516,2.578c-.854.907-2.28.861-3.687.682a15.4,15.4,0,0,0-6.9.688A.85.85,0,0,1,723.726,793.662Z" transform="translate(-721.836 -786.528)" fill="#13202f"/>
                  </g>
                  <path id="パス_1816" data-name="パス 1816" d="M720.312,787.108a1,1,0,0,1-.311-.05,4.915,4.915,0,0,1-3.332-4.568,1.007,1.007,0,0,1,1-.99,1,1,0,0,1,.991,1,2.914,2.914,0,0,0,1.962,2.665,1,1,0,0,1-.31,1.943Z" transform="translate(-715.083 -778.966)" fill="#13202f"/>
                </g>
                <g id="グループ_2010" data-name="グループ 2010" transform="translate(24.702 309.935)">
                  <path id="パス_1817" data-name="パス 1817" d="M685.825,783.74c.8,3.818-5.613,3.057-7.922,2.912a11.216,11.216,0,0,0-4.646.239c-2.8,1.054-2.966,4.194-3.59,6.637-.6,2.328-1.12,5.028.372,6.934a5.84,5.84,0,0,0,2.745,1.79,10.43,10.43,0,0,0,10.354-2.3c1.758-1.69,3.186-4.392,2.962-6.854-.261-2.872.472-5.744.187-8.672" transform="translate(-667.543 -779.808)" fill="#dcdfe2"/>
                  <path id="パス_1818" data-name="パス 1818" d="M675.593,802.1c-.272,0-.55-.006-.835-.021-4.218-.219-7.256-2.418-7.93-5.741a13.558,13.558,0,0,1,.222-5.711c.611-2.047,1.313-3.907,1.991-5.707.689-1.824,1.338-3.55,1.915-5.485a1.66,1.66,0,0,1,3.181.949c-.611,2.047-1.313,3.907-1.991,5.707-.689,1.825-1.338,3.55-1.915,5.485a10.227,10.227,0,0,0-.151,4.1c.364,1.793,2.176,2.946,4.849,3.084a6.226,6.226,0,0,0,5.269-1.729c4.079-4.083,4.017-8.928,3.536-17.848a1.659,1.659,0,1,1,3.313-.178c.472,8.738.812,15.051-4.5,20.37A9.146,9.146,0,0,1,675.593,802.1Z" transform="translate(-666.625 -777.44)" fill="#13202f"/>
                  <g id="グループ_2009" data-name="グループ 2009" transform="translate(2.505 5.671)">
                    <path id="パス_1819" data-name="パス 1819" d="M682.6,793.332a16.2,16.2,0,0,0-7.276-.727c-1.83.238-3.766.243-3.282-2.28.665-3.469,9.18-2.444,11.617-1.869" transform="translate(-671.136 -787.026)" fill="#dcdfe2"/>
                    <path id="パス_1820" data-name="パス 1820" d="M682.1,793.661a.855.855,0,0,1-.268-.044,15.392,15.392,0,0,0-6.9-.688c-1.411.18-2.834.227-3.688-.682a2.814,2.814,0,0,1-.516-2.578,3.058,3.058,0,0,1,1.433-2.024c2.945-1.912,9.576-.878,11.19-.5a.829.829,0,1,1-.381,1.613c-2.35-.554-7.843-1.061-9.907.274a1.446,1.446,0,0,0-.7.944,1.4,1.4,0,0,0,.094,1.128c.391.415,1.8.235,2.267.174a16.975,16.975,0,0,1,7.651.763.83.83,0,0,1-.268,1.615Z" transform="translate(-670.637 -786.525)" fill="#13202f"/>
                  </g>
                  <path id="パス_1821" data-name="パス 1821" d="M690.76,787.108a1,1,0,0,1-.31-1.943,2.915,2.915,0,0,0,1.961-2.665,1,1,0,0,1,.99-1h.005a1,1,0,0,1,1,.99,4.911,4.911,0,0,1-3.332,4.568A.99.99,0,0,1,690.76,787.108Z" transform="translate(-675.321 -778.966)" fill="#13202f"/>
                </g>
                <path id="パス_1822" data-name="パス 1822" d="M700,387.064a1.077,1.077,0,0,1-.793-.348c-4.964-5.394-8.968-13.458-9.737-19.61a1.079,1.079,0,0,1,2.14-.269c.719,5.751,4.495,13.325,9.183,18.418a1.079,1.079,0,0,1-.793,1.81Z" transform="translate(-650.505 -312.843)" fill="#13202f"/>
                <path id="パス_1823" data-name="パス 1823" d="M707.12,387.388a1.079,1.079,0,0,1-.748-1.856c3.7-3.558,8.564-13.333,9.491-18.03a1.078,1.078,0,1,1,2.116.418c-1,5.091-6.088,15.3-10.111,19.168A1.08,1.08,0,0,1,707.12,387.388Z" transform="translate(-656.735 -313.121)" fill="#13202f"/>
                <path id="パス_1824" data-name="パス 1824" d="M720.745,474.116a1,1,0,0,1-.026-1.99c4.022-.109,10.746-.748,13.977-1.056l.254-.024a1,1,0,0,1,.188,1.983l-.253.024c-3.253.31-10.021.953-14.112,1.063Z" transform="translate(-661.887 -352.359)" fill="#13202f"/>
                <path id="パス_1825" data-name="パス 1825" d="M682.207,475.056c-5.563,0-9.567-.3-13.807-.625l-.887-.066a1,1,0,0,1,.149-1.987l.888.068c4.2.32,8.169.621,13.656.621a.995.995,0,1,1,0,1.989Z" transform="translate(-641.91 -352.86)" fill="#13202f"/>
                <path id="パス_1826" data-name="パス 1826" d="M753.831,535.45a1.08,1.08,0,0,1-1.077-1.05,78.3,78.3,0,0,0-1.647-14.367c-.154-.808-.308-1.619-.456-2.453a1.078,1.078,0,1,1,2.122-.379c.149.826.3,1.628.453,2.43a81.176,81.176,0,0,1,1.684,14.711,1.078,1.078,0,0,1-1.05,1.107Z" transform="translate(-673.493 -369.372)" fill="#13202f"/>
                <path id="パス_1827" data-name="パス 1827" d="M756.5,552.831a1.079,1.079,0,0,1-.887-1.692,14.791,14.791,0,0,0,2.51-9.63,1.078,1.078,0,1,1,2.147-.2,16.973,16.973,0,0,1-2.881,11.056A1.079,1.079,0,0,1,756.5,552.831Z" transform="translate(-675.291 -378.398)" fill="#13202f"/>
                <path id="パス_1828" data-name="パス 1828" d="M720.5,419.362c-.153,0-.3,0-.446,0a1,1,0,0,1-.984-1.006,1.053,1.053,0,0,1,1.008-.984c2.419.036,6.185-.213,9.488-.426,1.531-.1,2.983-.193,4.2-.255a1,1,0,0,1,.1,1.99c-1.208.06-2.649.152-4.17.251C726.545,419.133,723,419.362,720.5,419.362Z" transform="translate(-661.63 -331.932)" fill="#fff"/>
                <path id="パス_1829" data-name="パス 1829" d="M727.635,392.7a.994.994,0,0,1-.993-.941c-.152-2.805-.13-5.454-.109-8.016.025-3.02.048-5.872-.2-8.871l-.064-.808c-.411-5.214-.766-9.715-6.146-12.659a1,1,0,0,1,.956-1.747c6.323,3.461,6.756,8.945,7.175,14.248l.064.8c.251,3.088.227,5.984.2,9.049-.021,2.533-.043,5.15.106,7.892a1,1,0,0,1-.941,1.049Z" transform="translate(-661.834 -310.453)" fill="#f03748"/>
                <path id="パス_1830" data-name="パス 1830" d="M713.862,392.979a.994.994,0,0,1-.983-.85,18.409,18.409,0,0,0-9.507-13.364c-1.459-.768-3.163-1.506-4.966-2.285-4.357-1.886-9.3-4.021-12.188-7.346a5.234,5.234,0,0,1-1.284-5.072c.581-1.708,2.223-2.915,4.622-3.4a1,1,0,1,1,.394,1.951c-1.675.339-2.788,1.079-3.131,2.089a3.294,3.294,0,0,0,.9,3.124c2.6,2.983,7.314,5.023,11.477,6.824,1.84.8,3.578,1.547,5.1,2.353a20.433,20.433,0,0,1,10.549,14.836,1,1,0,0,1-.841,1.129A1.149,1.149,0,0,1,713.862,392.979Z" transform="translate(-648.719 -310.871)" fill="#f03748"/>
                <path id="パス_1831" data-name="パス 1831" d="M687.914,355.7a1.659,1.659,0,0,1-1.132-2.872c1.667-1.556,1.373-6.19.266-7.8l-.166-.242c-2.247-3.265-4.188-6.084-4.9-10.123a1.659,1.659,0,0,1,3.268-.577c.587,3.329,2.255,5.752,4.366,8.817l.166.243c1.89,2.745,2.312,9.26-.736,12.106A1.653,1.653,0,0,1,687.914,355.7Z" transform="translate(-647.684 -300.377)" fill="#13202f"/>
                <path id="パス_1832" data-name="パス 1832" d="M720.743,356.256a1.654,1.654,0,0,1-1.255-.573c-2.859-3.3-2.342-8.218-.353-11.369a32.244,32.244,0,0,0,3.931-8.887,1.659,1.659,0,0,1,3.21.843,35.718,35.718,0,0,1-4.334,9.817c-1.3,2.063-1.727,5.367.055,7.424a1.658,1.658,0,0,1-1.253,2.745Z" transform="translate(-661.039 -300.929)" fill="#13202f"/>
                <path id="パス_1833" data-name="パス 1833" d="M719.983,413.178a1,1,0,0,1-.087-1.986c1.365-.122,3.963-.247,6.475-.369,2.494-.12,5.072-.246,6.4-.363a1,1,0,1,1,.175,1.983c-1.364.122-3.963.247-6.475.37-2.494.12-5.072.246-6.4.363A.835.835,0,0,1,719.983,413.178Z" transform="translate(-661.601 -329.591)" fill="#13202f"/>
                <g id="グループ_2011" data-name="グループ 2011" transform="translate(58.213 122.807)">
                  <path id="パス_1834" data-name="パス 1834" d="M721.14,480.744a.83.83,0,0,1-.021-1.659l.721-.019.126.826.023.83-.829.022Z" transform="translate(-720.311 -478.182)" fill="#13202f"/>
                  <path id="パス_1835" data-name="パス 1835" d="M727.3,480.3a.83.83,0,0,1-.035-1.659c.549-.022,1.108-.05,1.669-.081a.809.809,0,0,1,.873.783.829.829,0,0,1-.783.873c-.567.031-1.131.059-1.687.084Zm4.7-.261a.83.83,0,0,1-.056-1.657l1.668-.12a.8.8,0,0,1,.891.762.827.827,0,0,1-.763.891l-1.683.124Z" transform="translate(-722.625 -477.874)" fill="#13202f"/>
                  <path id="パス_1836" data-name="パス 1836" d="M742.347,479.409a.83.83,0,0,1-.093-1.654l.8-.1a.83.83,0,0,1,.219,1.646c-.261.034-.539.067-.832.1C742.409,479.407,742.378,479.409,742.347,479.409Z" transform="translate(-728.28 -477.649)" fill="#13202f"/>
                </g>
                <g id="グループ_2012" data-name="グループ 2012" transform="translate(24.679 123.368)">
                  <path id="パス_1837" data-name="パス 1837" d="M668.235,480.343a.832.832,0,0,1-.13-.01q-.428-.067-.837-.14a.83.83,0,0,1-.667-.966.84.84,0,0,1,.965-.668c.259.049.524.092.8.135a.83.83,0,0,1-.128,1.649Z" transform="translate(-666.588 -478.548)" fill="#13202f"/>
                  <path id="パス_1838" data-name="パス 1838" d="M680.787,481.4h-.011c-.593-.008-1.2-.021-1.826-.041a.831.831,0,0,1-.8-.856.813.813,0,0,1,.855-.8c.611.019,1.213.032,1.8.04a.83.83,0,0,1-.011,1.66Zm-5.07-.2h-.056c-.614-.041-1.225-.089-1.828-.144a.83.83,0,1,1,.152-1.653c.589.055,1.186.1,1.786.141a.83.83,0,0,1-.054,1.657Z" transform="translate(-669.027 -478.867)" fill="#13202f"/>
                  <path id="パス_1839" data-name="パス 1839" d="M690.172,481.564a.83.83,0,0,1-.019-1.659l.812-.024a.867.867,0,0,1,.859.8.83.83,0,0,1-.8.86l-.836.024Z" transform="translate(-675.139 -479.049)" fill="#13202f"/>
                </g>
                <path id="パス_1840" data-name="パス 1840" d="M675.988,806.97c-2.479,0-5.333-.574-6.57-1.918a2.174,2.174,0,0,1-.611-1.766.664.664,0,1,1,1.317.162.838.838,0,0,0,.271.706c.88.958,3.464,1.567,6.125,1.479,4.06-.149,5.613-.556,6.922-1.813a.664.664,0,1,1,.921.956c-1.758,1.688-3.824,2.039-7.793,2.183C676.379,806.967,676.184,806.97,675.988,806.97Z" transform="translate(-642.737 -476.998)" fill="#13202f"/>
                <path id="パス_1841" data-name="パス 1841" d="M727.348,807.727c-.353,0-.7-.01-1.046-.026-1.866-.092-5.156-.523-6.226-2.382a.663.663,0,1,1,1.15-.661c.536.93,2.5,1.588,5.141,1.718,3.672.175,7.508-.713,8.391-1.949a.664.664,0,0,1,1.08.772C734.616,806.909,730.821,807.727,727.348,807.727Z" transform="translate(-661.976 -477.541)" fill="#13202f"/>
              </g>
            </g>
          </g>
        </g>
      </g>
    </g>
  </g>
</svg>
