<svg xmlns="http://www.w3.org/2000/svg" width="300" height="230" viewBox="0 0 300 230">
  <g id="グループ_2153" data-name="グループ 2153" transform="translate(39 -3409.571)">
    <g id="グループ_1774" data-name="グループ 1774" transform="translate(-77 245.571)">
      <rect id="画像_10" data-name="画像 10" width="300" height="230" rx="8" transform="translate(38 3164)" fill="#fff"/>
      <g id="グループ_1173" data-name="グループ 1173" transform="translate(243.123 3202)">
        <g id="グループ_1172" data-name="グループ 1172" transform="translate(0 25.462)">
          <circle id="楕円形_70" data-name="楕円形 70" cx="16.422" cy="16.422" r="16.422" transform="translate(4 4)" fill="#fff2f3"/>
        </g>
        <circle id="楕円形_120" data-name="楕円形 120" cx="24.449" cy="24.449" r="24.449" transform="translate(21.073 0)" fill="none" stroke="#d5dce6" stroke-linecap="round" stroke-linejoin="round" stroke-width="4" stroke-dasharray="0 7"/>
      </g>
      <g id="グループ_1172-2" data-name="グループ 1172" transform="translate(98.301 3283.477) rotate(60)">
        <circle id="楕円形_70-2" data-name="楕円形 70" cx="21.076" cy="21.076" r="21.076" transform="translate(-3.928 -9.196)" fill="#fff2f3"/>
      </g>
      <g id="グループ_1165" data-name="グループ 1165" transform="translate(98 3202)">
        <g id="グループ_1155" data-name="グループ 1155" transform="translate(0 0)">
          <g id="グループ_1154" data-name="グループ 1154" transform="translate(0 0)">
            <path id="パス_687" data-name="パス 687" d="M780.656,445.637c11.443,0,23.733,11.215,22.25,20.018s-6.542,13.362-8.6,17.935-3.935,6.213-3.862,10.929,3.366,4.662,2.936,11.443-5.765,20.907-5.941,24.442-.535,30.23.016,37.718l-3.558.675-19.655-2.77s-3.194-26.729-1.147-40.1,9.844-27.259,9.844-27.259.208-3.789-2.322-5.595-12.48-8.724-10.542-26.315S780.656,445.637,780.656,445.637Z" transform="translate(-667.729 -433.788)" fill="#fff"/>
            <path id="パス_688" data-name="パス 688" d="M745.256,599.181a12.3,12.3,0,0,1,4.846-.8,133.111,133.111,0,0,1-1.994-34.482,83.272,83.272,0,0,1,9.3-32.476c-7.671,4.142-15.4,7.73-21.894,13.543S723.764,558.393,722.4,567a72.931,72.931,0,0,1,12.737.4Z" transform="translate(-653.279 -466.912)" fill="#a7b0b7"/>
            <path id="パス_689" data-name="パス 689" d="M849.011,599.875c.759,5.322,1.3,11.411-2.269,15.426-2.841,3.192-7.452,4.036-11.716,4.322a72.755,72.755,0,0,1-23.873-2.352c-.616-7.034-5.241-10.933-13.2-14.689a3.445,3.445,0,0,1,4.22-1.615,43.724,43.724,0,0,0,.317-5.629q-.265-3.407-.445-6.82c-.231-4.45-.342-8.906-.289-13.362.052-4.437.205-8.842.48-13.248.272-4.349,1.748-8.371,3.2-12.44,1.6-4.494,3.391-9.277,2.527-13.97a14.654,14.654,0,0,0-1.8-4.8,37.7,37.7,0,0,1,6.308,2.056c2.246,1.063,4.418,2.327,6.617,3.484,5.138,2.707,10.342,5.459,14.6,9.41,6.5,6.033,10.194,14.821,11.578,23.459C846.9,579.235,847.552,589.658,849.011,599.875Z" transform="translate(-682.453 -466.632)" fill="#a7b0b7"/>
            <path id="パス_690" data-name="パス 690" d="M759.883,641.577c4.295-.379,8.582.585,12.786,1.543,2.387.544,4.775,1.088,7.157,1.654,1.773.422,4.389.537,5.89,1.6a53.454,53.454,0,0,1,8.621,7.088,2.949,2.949,0,0,1,1.044,2.29,2.1,2.1,0,0,1-1.746,1.561c-.793.15-1.566-.1-2.353,0a13.44,13.44,0,0,1-2.643.194L763.4,656.142" transform="translate(-667.753 -509.411)" fill="#fff"/>
            <path id="パス_691" data-name="パス 691" d="M840.841,618.963a1.376,1.376,0,0,1-.4-2.694c1-.3,1.983-.515,2.934-.722,5.5-1.2,9.838-2.146,8.486-20.583-.468-6.392-2.327-22.172-3.96-28.774a62.061,62.061,0,0,0-4.953-14.345c-2.648-5.08-7.294-7.787-12.213-10.655l-1.467-.858c-1.433-.845-3.449-1.864-5.4-2.85-2.108-1.066-4.29-2.169-5.875-3.119a47.689,47.689,0,0,1-7.825-5.443,1.376,1.376,0,1,1,1.8-2.079A44.945,44.945,0,0,0,819.411,532c1.5.9,3.637,1.979,5.7,3.023,1.989,1.006,4.046,2.046,5.554,2.935l1.455.852c5.272,3.073,10.252,5.976,13.268,11.76a64.517,64.517,0,0,1,5.184,14.957c1.667,6.743,3.557,22.76,4.032,29.234,1.421,19.369-3.292,21.869-10.643,23.472-.9.2-1.831.4-2.728.669A1.391,1.391,0,0,1,840.841,618.963Z" transform="translate(-686.988 -465.013)" fill="#13202f"/>
            <path id="パス_692" data-name="パス 692" d="M722.442,567.75a1.377,1.377,0,0,1-1.258-1.932c1.031-2.335,1.906-4.417,2.7-6.3,2.6-6.2,4.324-10.3,7.72-14.235,3.8-4.395,7.3-6.321,11-8.361,1.37-.753,2.786-1.533,4.25-2.46.721-.458,1.572-.965,2.489-1.513,1.943-1.158,4.144-2.472,6.053-3.868a1.376,1.376,0,0,1,1.625,2.221c-2.014,1.473-4.274,2.821-6.268,4.01-.894.533-1.723,1.026-2.425,1.472-1.536.974-2.99,1.774-4.4,2.548-3.635,2-6.774,3.727-10.248,7.748-3.11,3.6-4.763,7.54-7.266,13.5-.8,1.9-1.678,4-2.715,6.349A1.378,1.378,0,0,1,722.442,567.75Z" transform="translate(-652.765 -465.904)" fill="#13202f"/>
            <ellipse id="楕円形_111" data-name="楕円形 111" cx="1.967" cy="2.68" rx="1.967" ry="2.68" transform="translate(109.587 29.609) rotate(-9.718)" fill="#13202f"/>
            <ellipse id="楕円形_112" data-name="楕円形 112" cx="1.941" cy="2.656" rx="1.941" ry="2.656" transform="matrix(0.976, -0.216, 0.216, 0.976, 95.611, 29.581)" fill="#13202f"/>
            <path id="パス_693" data-name="パス 693" d="M842.785,616.914a1.214,1.214,0,0,1-1.214-1.21c-.025-8.02-1.644-19.007-3.15-26.616a1.214,1.214,0,0,1,2.382-.471A155.078,155.078,0,0,1,844,615.7a1.214,1.214,0,0,1-1.21,1.218Z" transform="translate(-698.068 -488.618)" fill="#13202f"/>
            <path id="パス_694" data-name="パス 694" d="M802.29,643.114c-1.305,0-2.532-.039-3.653-.119a1.214,1.214,0,0,1,.176-2.422c7.928.575,21.383-1.037,28.8-3.449a1.214,1.214,0,0,1,.751,2.309C821.754,641.581,810.5,643.114,802.29,643.114Z" transform="translate(-682.281 -507.702)" fill="#13202f"/>
            <path id="パス_695" data-name="パス 695" d="M782.9,646.074a1.21,1.21,0,0,1-.238-.023l-13.491-2.676c-.945-.187-1.836-.423-2.694-.651-2.559-.679-4.578-1.218-6.874-.11a1.214,1.214,0,1,1-1.055-2.187c3.1-1.494,5.748-.793,8.551-.049.81.215,1.651.439,2.544.616l13.491,2.676a1.214,1.214,0,0,1-.234,2.4Z" transform="translate(-666.973 -508.66)" fill="#13202f"/>
            <path id="パス_696" data-name="パス 696" d="M765.409,658.25a.89.89,0,0,1-.084-1.776,35.432,35.432,0,0,0,6.845-1.469.89.89,0,1,1,.542,1.7,36.791,36.791,0,0,1-7.219,1.545A.807.807,0,0,1,765.409,658.25Z" transform="translate(-669.543 -514.613)" fill="#13202f"/>
            <path id="パス_697" data-name="パス 697" d="M761.866,652.751a.89.89,0,0,1-.164-1.766c.834-.158,2.828-.769,4.146-1.173l.761-.232a.89.89,0,1,1,.517,1.7l-.756.231c-1.436.44-3.406,1.044-4.338,1.22A.9.9,0,0,1,761.866,652.751Z" transform="translate(-668.175 -512.519)" fill="#13202f"/>
            <path id="パス_698" data-name="パス 698" d="M811.215,659.827a.971.971,0,0,1-.786-1.54c.544-.753-.028-2.072-.88-2.786a33.217,33.217,0,0,0-2.78-2.029,20.624,20.624,0,0,1-4.791-4.07.971.971,0,1,1,1.5-1.23,18.8,18.8,0,0,0,4.378,3.691,34.924,34.924,0,0,1,2.936,2.147c1.57,1.312,2.451,3.7,1.209,5.414A.971.971,0,0,1,811.215,659.827Z" transform="translate(-683.921 -511.852)" fill="#13202f"/>
            <path id="パス_699" data-name="パス 699" d="M743.479,601.538a1.214,1.214,0,0,1-1.165-.874c-1.122-3.847-2.72-11.444-.817-19.095a1.214,1.214,0,0,1,2.357.586c-1.766,7.1-.262,14.216.791,17.829a1.215,1.215,0,0,1-.826,1.505A1.232,1.232,0,0,1,743.479,601.538Z" transform="translate(-660.313 -485.918)" fill="#13202f"/>
            <circle id="楕円形_113" data-name="楕円形 113" cx="2.018" cy="2.018" r="2.018" transform="translate(139.114 96.75)" fill="#13202f"/>
            <circle id="楕円形_114" data-name="楕円形 114" cx="1.781" cy="1.781" r="1.781" transform="translate(80.568 93.764)" fill="#13202f"/>
            <path id="パス_700" data-name="パス 700" d="M761.276,647.98a.89.89,0,0,1-.305-1.727,3.757,3.757,0,0,1,.451-.145c.05-.013.1-.028.278-.091a.89.89,0,0,1,.61,1.672,3.589,3.589,0,0,1-.451.144,2.863,2.863,0,0,0-.278.092A.886.886,0,0,1,761.276,647.98Z" transform="translate(-667.947 -511.137)" fill="#13202f"/>
            <g id="グループ_1153" data-name="グループ 1153" transform="translate(0 98.737)">
              <path id="パス_701" data-name="パス 701" d="M899,671.574a1.86,1.86,0,0,0-1.859,1.86v1.433a.426.426,0,0,0,.427.427H899a1.86,1.86,0,1,0,0-3.72Z" transform="translate(-720.749 -619.764)" fill="#13202f"/>
              <g id="グループ_1152" data-name="グループ 1152">
                <path id="パス_702" data-name="パス 702" d="M627.691,640.94a333.29,333.29,0,0,1-14.135-51.082,12.229,12.229,0,0,1,4.534-1.3q2.893-.048,5.786-.034c3.807.022,7.615.133,11.415.369,6.1.379,10.394-1.038,16.6-.861,14.041.4,27.671,3.631,41.772,1.776,4.2,14.009,8.406,27.694,12.61,41.7a5.159,5.159,0,0,0,5.874,4.588q16.166,1.1,32.385.906l.2,4.5" transform="translate(-611.253 -587.499)" fill="#f03748"/>
                <path id="パス_703" data-name="パス 703" d="M625.8,641.082a1.619,1.619,0,0,1-1.544-1.14l-1.188-3.824c-4.51-14.517-11.325-36.456-13.228-45.707a1.617,1.617,0,0,1,.456-1.485l1.312-1.281a1.617,1.617,0,0,1,1.13-.46l5,0c18.814-.015,62.894-.05,73.125.685a1.619,1.619,0,1,1-.233,3.229c-10.112-.727-55.724-.7-72.889-.677l-4.341,0-.2.2c2.1,9.552,8.61,30.52,12.965,44.538l1.188,3.827a1.62,1.62,0,0,1-1.547,2.1Z" transform="translate(-609.805 -587.176)" fill="#13202f"/>
                <path id="パス_704" data-name="パス 704" d="M744.338,675.411c-48.753,0-102.218-.076-108.517-.4a1.618,1.618,0,1,1,.166-3.232c6.114.313,60.164.449,152.191.376l3.787,0a1.618,1.618,0,1,1,0,3.237l-3.785,0C775.207,675.4,760.012,675.411,744.338,675.411Z" transform="translate(-619.257 -619.842)" fill="#13202f"/>
                <path id="パス_705" data-name="パス 705" d="M756.335,637.053a1.3,1.3,0,0,1-1.242-.934c-3.521-12.1-11.169-36.26-14.469-45.333a1.3,1.3,0,1,1,2.434-.885c3.4,9.364,10.956,33.241,14.521,45.495a1.3,1.3,0,0,1-1.244,1.658Z" transform="translate(-660.286 -587.899)" fill="#13202f"/>
                <path id="パス_706" data-name="パス 706" d="M802.77,667.3h-.029l-6.32-.127c-14.7-.289-28.062-.575-30.176-.9a1.295,1.295,0,0,1,.4-2.559c2.118.327,19.466.668,29.832.872l6.326.128a1.295,1.295,0,0,1-.028,2.589Z" transform="translate(-669.786 -616.721)" fill="#13202f"/>
                <path id="パス_707" data-name="パス 707" d="M826.511,672.344a1.376,1.376,0,0,1-1.372-1.295l-.242-4.067a1.376,1.376,0,0,1,2.747-.163l.242,4.067a1.377,1.377,0,0,1-1.292,1.455Z" transform="translate(-692.855 -617.428)" fill="#13202f"/>
                <path id="パス_708" data-name="パス 708" d="M753.362,638.874a.971.971,0,0,1-.93-.7c-.936-3.158-3.861-12.455-6.691-21.447-3.028-9.623-6.16-19.574-6.889-22.12a.971.971,0,1,1,1.867-.536c.723,2.523,3.85,12.461,6.874,22.073,2.832,9,5.761,18.3,6.7,21.477a.971.971,0,0,1-.656,1.207A.953.953,0,0,1,753.362,638.874Z" transform="translate(-659.618 -589.568)" fill="#fff" opacity="0.5"/>
              </g>
            </g>
            <path id="パス_709" data-name="パス 709" d="M771.578,513.709a1.414,1.414,0,0,1-.225-.018,1.376,1.376,0,0,1-1.134-1.581c.594-3.6-.7-4.476-3.055-6.067a17.012,17.012,0,0,1-4.292-3.747c-4.228-5.47-6.088-12.938-5.235-21.032a1.36,1.36,0,0,1,1.512-1.225,1.375,1.375,0,0,1,1.224,1.512c-.778,7.387.882,14.155,4.675,19.062a14.549,14.549,0,0,0,3.656,3.151c2.512,1.7,5.109,3.454,4.229,8.793A1.376,1.376,0,0,1,771.578,513.709Z" transform="translate(-666.807 -447.067)" fill="#13202f"/>
            <path id="パス_710" data-name="パス 710" d="M810.242,519.874a1.375,1.375,0,0,1-1.182-.669c-2.082-3.471-1.639-12.307,2.707-21.084a1.376,1.376,0,1,1,2.466,1.222c-4.381,8.846-3.983,16.5-2.813,18.447a1.376,1.376,0,0,1-1.178,2.084Z" transform="translate(-686.276 -453.758)" fill="#13202f"/>
            <path id="パス_711" data-name="パス 711" d="M776.955,496.671a2.5,2.5,0,0,1-1.487-.492.647.647,0,1,1,.778-1.035,1.172,1.172,0,0,0,.892.216.658.658,0,0,1,.751.525.648.648,0,0,1-.525.751A2.33,2.33,0,0,1,776.955,496.671Z" transform="translate(-673.67 -452.853)" fill="#13202f"/>
            <path id="パス_712" data-name="パス 712" d="M815.858,488.857a1.376,1.376,0,0,1-.478-2.666c4.79-1.774,6.518-7.368,5.923-10.726-.191-1.081-.792-2.9-2.658-2.9a1.376,1.376,0,0,1-1.371-1.381,1.33,1.33,0,0,1,1.382-1.37c2.74.012,4.793,1.995,5.356,5.176.875,4.938-1.811,11.613-7.676,13.785A1.378,1.378,0,0,1,815.858,488.857Z" transform="translate(-688.834 -443.12)" fill="#13202f"/>
            <path id="パス_713" data-name="パス 713" d="M788.844,471c-1.821,1.837-6.124,12.342-3.8,14.619,1.739-3.91,9.868-3.321,14.554-11.539,3.721-6.527,4.16-14.95-.664-28.61-2.686-7.608-8.3-14.143-13.327-14.143-11.31-9.448-21.514-3.791-28.142,2.981C746.318,445.7,742.9,465,746.943,479.963c1.689,6.251,5.983,4.989,12.448,1.062-1.565-1.837-1.451-4.771-3.993-10.283-1.264-17.076,10.7-26.178,22.293-28.506a1.234,1.234,0,0,1,1.427.9c3.023,11.1,8.6,25.006,13.811,12.252C794.582,451.347,798.937,466.41,788.844,471Z" transform="translate(-662.124 -426.336)" fill="#13202f"/>
            <path id="パス_714" data-name="パス 714" d="M804,601.813a.972.972,0,0,1-.97-.94c-.119-3.6-.288-6.994-.449-10.229-.4-7.947-.739-14.809-.192-21.372a163.682,163.682,0,0,1,3.553-19.163l.665-2.277c2.1-7.157,3.263-11.1.327-15.592a.971.971,0,1,1,1.626-1.063c3.427,5.244,2.028,10-.09,17.2l-.661,2.266a164.1,164.1,0,0,0-3.484,18.787c-.536,6.435-.2,13.237.2,21.115.161,3.246.332,6.653.451,10.262a.97.97,0,0,1-.939,1Z" transform="translate(-684.054 -466.647)" fill="#13202f"/>
            <path id="パス_715" data-name="パス 715" d="M764.9,599.3a.97.97,0,0,1-.963-.858c-.956-8.133-1.185-11.307-1.742-18.974l-.236-3.246c-.444-6.068.182-18.6,2.964-27.455a72.783,72.783,0,0,1,7.449-16.529.971.971,0,0,1,1.642,1.036,70.828,70.828,0,0,0-7.238,16.075c-2.674,8.52-3.3,20.987-2.879,26.73l.236,3.248c.553,7.637.783,10.8,1.732,18.889a.97.97,0,0,1-.851,1.077A.986.986,0,0,1,764.9,599.3Z" transform="translate(-668.504 -467.05)" fill="#13202f"/>
            <path id="パス_716" data-name="パス 716" d="M780.291,564.321a52.869,52.869,0,0,1-12.762-1.381.971.971,0,0,1,.471-1.884c7.865,1.966,16.707,1.354,24.377.625a.971.971,0,0,1,.184,1.933C788.682,563.983,784.509,564.321,780.291,564.321Z" transform="translate(-670.421 -478.342)" fill="#13202f"/>
          </g>
          <path id="パス_717" data-name="パス 717" d="M808.125,591.129a.843.843,0,0,1-.156-.015.81.81,0,0,1-.639-.95c2.657-13.62,5.54-23.794,13.149-38.532a.809.809,0,1,1,1.438.743c-7.521,14.565-10.37,24.627-13,38.1A.808.808,0,0,1,808.125,591.129Z" transform="translate(-686.067 -474.546)" fill="#13202f"/>
          <path id="パス_720" data-name="パス 720" d="M4.012,2.479a5.442,5.442,0,0,1-3.8-1.232A.729.729,0,0,1,1.24.21C2.351,1.307,5.585,1.3,7.419.188a.728.728,0,1,1,.754,1.247A8.4,8.4,0,0,1,4.012,2.479Z" transform="translate(101.228 47.563)" fill="#13202f"/>
          <ellipse id="楕円形_115" data-name="楕円形 115" cx="0.954" cy="0.94" rx="0.954" ry="0.94" transform="matrix(0.819, 0.574, -0.574, 0.819, 109.255, 46.811)" fill="#13202f"/>
          <ellipse id="楕円形_116" data-name="楕円形 116" cx="0.907" cy="0.894" rx="0.907" ry="0.894" transform="matrix(0.819, 0.574, -0.574, 0.819, 101.541, 46.897)" fill="#13202f"/>
        </g>
      </g>
    </g>
  </g>
</svg>
