<svg xmlns="http://www.w3.org/2000/svg" width="235.935" height="47.262" viewBox="0 0 235.935 47.262">
  <g id="グループ_1678" data-name="グループ 1678" transform="translate(-208.346 -255.05)">
    <g id="グループ_1133" data-name="グループ 1133" transform="translate(208.346 255.05)">
      <path id="パス_674" data-name="パス 674" d="M262.282,257.85a9.566,9.566,0,0,0-16.327,6.4v9.073a.854.854,0,0,0,.854.854h8.285a9.456,9.456,0,0,0,7.189-2.791A9.585,9.585,0,0,0,262.282,257.85Z" transform="translate(-225.087 -255.05)" fill="#13202f"/>
      <path id="パス_675" data-name="パス 675" d="M211.147,271.005a9.566,9.566,0,0,0,6.4,16.328h9.073a.854.854,0,0,0,.855-.854v-8.286a9.453,9.453,0,0,0-2.791-7.188A9.583,9.583,0,0,0,211.147,271.005Z" transform="translate(-208.346 -260.907)" fill="#f03748"/>
      <path id="パス_676" data-name="パス 676" d="M224.3,322.084a9.566,9.566,0,0,0,16.327-6.4v-9.074a.854.854,0,0,0-.854-.854h-8.286a9.451,9.451,0,0,0-7.188,2.791A9.583,9.583,0,0,0,224.3,322.084Z" transform="translate(-214.201 -277.622)" fill="#f03748"/>
      <path id="パス_677" data-name="パス 677" d="M275.372,308.941a9.566,9.566,0,0,0-6.4-16.327H259.9a.854.854,0,0,0-.855.854v8.286a9.455,9.455,0,0,0,2.791,7.188A9.585,9.585,0,0,0,275.372,308.941Z" transform="translate(-230.914 -271.77)" fill="#f03748"/>
    </g>
    <g id="グループ_1134" data-name="グループ 1134" transform="translate(264.894 264.578)">
      <path id="パス_678" data-name="パス 678" d="M457.242,298.489a8.015,8.015,0,0,1-4.038,1.469c-1.572,0-2.921-.842-2.918-3.151L450.3,290h6.925l-1.568-4.572H450.3v-4.7h-4.951v4.7h-3.5v4.449l3.5.123-.012,7.2c-.009,4.79,2.374,7.385,7.027,7.394a12.315,12.315,0,0,0,6.3-1.929Z" transform="translate(-368.828 -276.01)" fill="#13202f"/>
      <path id="パス_679" data-name="パス 679" d="M495.255,302.528l4.058-13.328h5.295l-6.4,18.841h-5.78l-4.147-12.508-4.153,12.508h-5.738L471.975,289.2h5.374l4.1,13.244,4.237-13.244h5.328Z" transform="translate(-382.239 -279.779)" fill="#13202f"/>
      <path id="パス_680" data-name="パス 680" d="M605.453,288.207l1.794,0,5.307-6.566h6.2l-7.425,8.691,7.448,10.15h-6.224l-5.4-7.852-1.708,0v7.853h-5.072V272.222h5.072Z" transform="translate(-439.395 -272.222)" fill="#13202f"/>
      <path id="パス_681" data-name="パス 681" d="M372.382,281.331a6.341,6.341,0,0,0-5.395,2.468V272.243h-4.947v28.251h4.947V289.587A3.77,3.77,0,0,1,370.959,286c2.309,0,3.661,1.475,3.658,4.148V300.5h5.041l.022-11.953A6.941,6.941,0,0,0,372.382,281.331Z" transform="translate(-333.306 -272.231)" fill="#13202f"/>
      <path id="パス_682" data-name="パス 682" d="M414.789,288.942v1.129a9.965,9.965,0,0,0-5.179-1.45,9.743,9.743,0,1,0,0,19.483,9.964,9.964,0,0,0,5.179-1.449v1.129h4.947V288.942Zm-5.179,14.514a5.094,5.094,0,1,1,5.178-5.094A5.136,5.136,0,0,1,409.61,303.456Z" transform="translate(-350.072 -279.521)" fill="#13202f"/>
      <path id="パス_683" data-name="パス 683" d="M584.627,289.172a8.8,8.8,0,0,0-1.875-.194,5.838,5.838,0,0,0-5.223,2.509V289.1h-5.007v18.841h5.007V297.878a3.775,3.775,0,0,1,4.034-4.151,8.273,8.273,0,0,1,3.063.6v-5.152Z" transform="translate(-426.994 -279.68)" fill="#13202f"/>
      <path id="パス_684" data-name="パス 684" d="M540.688,288.511a9.743,9.743,0,1,0,9.9,9.742A9.824,9.824,0,0,0,540.688,288.511Zm0,14.835a5.095,5.095,0,1,1,5.178-5.094A5.136,5.136,0,0,1,540.688,303.346Z" transform="translate(-408.416 -279.473)" fill="#13202f"/>
      <path id="パス_685" data-name="パス 685" d="M335.637,295.3l-3.732-3.071a9.469,9.469,0,0,1-7.285,3.4,9.271,9.271,0,1,1,0-18.539,9.469,9.469,0,0,1,7.233,3.336l3.783-3.039h.08a14.428,14.428,0,0,0-11.1-5.158,14.133,14.133,0,1,0,0,28.262,14.429,14.429,0,0,0,11.118-5.184Z" transform="translate(-310.255 -272.222)" fill="#13202f"/>
    </g>
  </g>
</svg>
