<?xml version="1.0" encoding="UTF-8"?><svg id="_レイヤー_1" xmlns="http://www.w3.org/2000/svg" viewBox="0 0 475.5 236.9"><defs><style>.cls-1{fill:#131c28;}.cls-2{isolation:isolate;}</style></defs><g class="cls-2"><path class="cls-1" d="M0,0H3.3L23.1,23.1h-3.3L0,0Z"/></g><g class="cls-2"><path class="cls-1" d="M30.9,4.4h9.1v2.2h-9.1s0-2.2,0-2.2Zm.7,10h7.7v7.3h-5.3v1.1h-2.3V14.4h-.1Zm.4-13.4h6.9V3.1h-6.9V1Zm0,6.8h6.9v2h-6.9v-2Zm0,3.2h6.9v2h-6.9v-2Zm4.9,8.6v-3.2h-3v3.2h3Zm4.5-9.1c-.4,.7-.7,1.2-1.2,2.1l-1.4-2.2c1.7-2.5,3.2-6.4,3.9-10.1l2.6,.6c-.4,1.4-.7,2.5-1.2,3.9h2.7c.6-1.6,1.1-2.9,1.4-4.3l2.6,.7c-.4,1.2-1,2.4-1.6,3.6h3.8v2.2h-4v2.6h3.4v2.1h-3.4v2.6h3.4v2.1h-3.4v2.8h4.4v2.3h-9.4v1.2h-2.5V10.5h-.1Zm5-1v-2.5h-2.5v2.6h2.5v-.1Zm0,4.8v-2.6h-2.5v2.6s2.5,0,2.5,0Zm0,4.9v-2.8h-2.5v2.8h2.5Z"/></g><g class="cls-2"><path class="cls-1" d="M61.2,14c0-2.5,1.7-5.1,4.6-7.3-4.3,.4-7.4,.7-10.8,.9l-.4-3.1c5.2-.2,13.6-.6,19.5-1.6l.5,3c-3.6,.4-5.1,1-7,2.5-2.1,1.7-3.4,3.5-3.4,5.5,0,2.8,2.4,4.2,6.9,4.7l-1.4,3c-5.2-.6-8.5-3.2-8.5-7.6Zm7.4-3.6l1.6-1.1c1.1,1.1,1.7,2.1,2.5,3.6l-1.7,1.2c-.7-1.6-1.4-2.6-2.4-3.7Zm2.6-1.5l1.7-1.1c1,1,1.8,2.1,2.5,3.5l-1.7,1.2c-.8-1.6-1.5-2.6-2.5-3.6Z"/></g><g class="cls-2"><path class="cls-1" d="M78.7,11.5c0-1,.7-2.3,1.9-3.4l2,1c-.8,.7-1.1,1.2-1.1,1.5,0,.4,.5,.7,2.3,.7h.3c.1-.6,.2-1.2,.2-1.8l.3-2.1c-1.7,0-3.4-.1-4.8-.3l-.1-2.9c1.7,.2,3.4,.3,5.3,.4,.2-1.6,.4-3,.5-4l3.1,.4c-.1,.8-.4,2.1-.6,3.6,1.4-.1,2.9-.3,4.4-.5l.2,2.9c-1.4,.3-3.3,.4-5.1,.5-.1,.8-.2,1.6-.3,2.2-.1,.4-.1,.9-.2,1.4,1.7-.2,3.5-.5,5-1l.6,2.8c-1.9,.4-4,.7-5.9,.8-.1,.8-.1,1.4-.1,1.8,0,2.1,1.1,3.2,3.3,3.2,2.5,0,4.6-1.6,4.6-4.6,0-1.4-.4-3-1.5-4.8l3.2-.1c1,1.7,1.4,3.8,1.4,5.1,0,4.7-3.1,7.4-7.6,7.4h-.1c-4.1,0-6.2-2.1-6.2-5.9,0-.5,.1-1.2,.1-2h-.3c-3.4,.1-4.8-.9-4.8-2.3Z"/></g><g class="cls-2"><path class="cls-1" d="M104.6,19.9c5.2-1.7,8.6-4.5,10.5-8.7-5.2,.1-9.8,.2-14.3,.2v-2.9c4.8,0,9.7,0,16.7-.2l1.5,1.3c-1.8,6.5-5.8,10.6-12.1,13l-2.3-2.7Zm-1.7-16.7c4.5,0,8.3,0,14-.1v2.9c-5.8,.1-9.7,.2-14,.2V3.2Z"/></g><g class="cls-2"><path class="cls-1" d="M125.3,20.2c6.1-2.9,9.6-7.3,11.2-12.8-2.3,0-4.5,.1-6.3,.1-1.3,2.3-3,4.4-5.1,6.2l-2.9-1.6c3.7-3,6.1-6.8,7.4-10.9l3.1,.8c-.3,.9-.7,1.8-1,2.6,1.9,0,4.1-.1,6.7-.2l1.8,1.4c-2,7.9-5.5,12.9-12.2,16.6l-2.7-2.2Z"/></g><g class="cls-2"><path class="cls-1" d="M148.4,19.9c5.2-1.7,8.6-4.5,10.5-8.7-5.2,.1-9.8,.2-14.3,.2v-2.9c4.8,0,9.7,0,16.7-.2l1.5,1.3c-1.8,6.5-5.8,10.6-12.1,13l-2.3-2.7Zm-1.6-16.7c4.5,0,8.3,0,14-.1v2.9c-5.8,.1-9.7,.2-14,.2V3.2Z"/></g><g class="cls-2"><path class="cls-1" d="M169.2,20.2c6.1-2.9,9.6-7.3,11.2-12.8-2.3,0-4.5,.1-6.3,.1-1.3,2.3-3,4.4-5.1,6.2l-2.9-1.6c3.7-3,6.1-6.8,7.4-10.9l3.1,.8c-.3,.9-.7,1.8-1,2.6,1.9,0,4.1-.1,6.7-.2l1.8,1.4c-2,7.9-5.5,12.9-12.2,16.6l-2.7-2.2Z"/></g><g class="cls-2"><path class="cls-1" d="M190.8,11.8c-.7,1.1-1.1,1.6-1.5,2.2l-1.2-2.9c2-3,3.6-6.8,4.4-10.9l2.7,.6c-.5,2.1-1.1,3.9-1.8,5.7V22.8h-2.6V11.8h0Zm3.2,8.8c2.6-.4,4.4-1,5.5-2.1-.8-.5-1.8-1.3-2.8-2.3l2-1.5c.6,.6,1.3,1.2,2.1,1.8,.2-.7,.4-1.5,.4-2.6h-3.1v1.1h-2.6V6.9h5.6v-1.7h-6.3V2.9h6.3V.3h2.7V2.9h6.7v2.3h-6.7v1.8h5.7V15.1h-2.6v-1.1h-3.2c0,1.6-.3,2.8-.7,3.9,2.4,1.1,5.3,1.9,8.2,2.3l-1.6,2.6c-2.8-.6-5.6-1.6-7.9-2.8-1.4,1.5-3.5,2.5-6.2,3l-1.5-2.4Zm7.2-8.8v-2.8h-3v2.8h3Zm5.8,0v-2.8h-3.1v2.8h3.1Z"/></g><g class="cls-2"><path class="cls-1" d="M212.7,19.6c4.5-4.4,7.5-7.2,11.1-10.7-3.1,.5-6.7,.8-8.6,.8l-.4-2.9c2.9,0,9.3-.4,12.9-1.3l1.9,2c-1.6,1.3-3.9,3.3-5.7,4.8,.3,0,.6-.1,.9-.1,1.2,0,1.9,.9,1.9,1.9,0,.8-.1,2.2-.1,2.7,0,1.1,.3,1.6,1.6,1.6,1.1,0,3.2-.2,4.6-.5l.3,3.1c-1.7,.3-3.8,.4-5,.4-3.2,0-4.7-1.3-4.7-3.8,0-.6,.1-1.4,.1-1.9s-.3-1-.8-1c-.6,0-1.2,.3-2.1,1.1-1.3,1.2-2.4,2.3-5.4,5.7l-2.5-1.9Zm5.3-16.4l1.2-2.6c2.6,.4,4.7,.8,7.5,1.9l-1.5,2.6c-2.5-1-4.8-1.5-7.2-1.9Z"/></g><g class="cls-2"><path class="cls-1" d="M238.6,17.9c0-1.8,1.6-3.2,3.9-3.2,2.1,0,4,1.1,5.3,3.2,1-.8,1.6-1.8,1.6-3,0-1.6-1.7-3-4.4-3-2,0-4,.6-5.6,1.6-1.2,.8-2,1.5-3.4,2.9l-2.1-2.3c2.7-2,6.5-5.4,10.1-9.3-2,.3-4.3,.5-6.2,.6l-.5-2.9c3.1,0,6.5-.3,10-1l1.6,2c-2.2,2.4-4,4.1-6.1,6,.9-.2,1.8-.4,2.7-.4,4.1,0,7,2.3,7,5.6,0,4-4,7-9,7-2.7,.1-4.9-1.5-4.9-3.8Zm5.2,1.3c.5,0,1.1-.1,1.6-.2-.7-1.2-1.7-1.8-2.7-1.8-.7,0-1.1,.4-1.1,.8-.1,.7,.8,1.2,2.2,1.2Z"/></g><g class="cls-2"><path class="cls-1" d="M254.8,19.6c0-1.4,1-2.6,2.6-2.6,1.5,0,2.6,1.2,2.6,2.6s-1,2.6-2.6,2.6-2.6-1.2-2.6-2.6Zm.6-18.6h3.9l-.3,14.1h-3.4l-.2-14.1Z"/></g><g class="cls-2"><path class="cls-1" d="M292.7,0h3.3l-19.7,23.1h-3.3L292.7,0Z"/></g><g class="cls-2"><path class="cls-1" d="M1.6,64.4c11.6-4.9,19.8-12.5,24.8-22.8h8.3c5.7,8.8,14.3,15.6,26.2,20.9l-4.2,7c-11.2-5.5-20.2-12.6-26-20.6-4.6,8.9-13.2,16.5-24.8,21.9l-4.3-6.4Zm5,27.7c7.9-3.3,11-9,10.8-19.6v-8.1h7.7v7.1c.2,14.1-3.5,21.6-13,26.6l-5.5-6Zm31.5-28.5h7.7v33.2h-7.7V63.6Z"/></g><g class="cls-2"><path class="cls-1" d="M63.2,50.7h21.1v5.6h-21.1v-5.6Zm1.7,25.4h17.5v18.8h-11.6v2.8h-5.9s0-21.6,0-21.6Zm21.7-10.9c-1,1.2-1.7,1.9-2.8,3.1l-2.4-3.8h-15.6v-5.1h15.9v3.5c3.6-4,6.1-7.9,7.5-11.7l2.2,.6v-2.4h-7.6v-5h7.6v-4.2h6.3v4.2h7.7v-4.2h6.3v4.2h9v5h-9v3.5h-3.6c-.3,.7-.8,1.7-1.2,2.4h12.6v3.6h-13.2v2.3h11.3v3.3h-11.3v2.3h11.3v3.3h-11.3v2.4h14.3v3.8h-34v-11.1Zm-20.8-23.2h15.9v5.4h-15.9v-5.4Zm0,25.7h15.9v5.1h-15.9v-5.1Zm11.1,21.9v-8.2h-6.1v8.2h6.1Zm5.9,2.8c5.3-.4,10.2-1.5,14.3-2.9-2.9-1.9-5.5-4.1-7.4-6.3h-4.4v-4.9h30.4l2.8,2.7c-2.5,3-5.5,5.6-9.3,8.3,3.6,1.1,8.1,1.9,12.9,2.4l-3.7,6.1c-5.5-1.2-10.9-2.9-15.2-4.9-5.2,2.6-11.1,4.7-17,5.7l-3.4-6.2Zm17.7-31.4v-2.3h-8v2.3h8Zm0,5.7v-2.3h-8v2.3h8Zm0,5.7v-2.4h-8v2.4h8Zm.2-17.3c.6-1.2,1-2.4,1.5-3.9l3.1,.5v-2.4h-7.7v3.5h-2.9c-.4,.8-.8,1.6-1.3,2.4h7.3v-.1Zm8.2,28.1h-12.2c1.5,1.5,4,2.9,6.2,3.9,2.3-1.1,4.3-2.5,6-3.9Z"/></g><g class="cls-2"><path class="cls-1" d="M124.1,82.6c2.4-.6,5.5-1.5,8.7-2.4v-13.2h-6.7v-6.1h6.7v-10.2h-7.6v-6.3h21.8v6.3h-7.6v10.2h6.4v6.1h-6.4v10.9c1.6-.5,4-1.5,7.6-2.9l.4,6.6c-5.8,2.8-12.5,5.3-21.2,8.1l-2.1-7.1Zm16.7,9.6c9.5-2.1,13.2-6.2,13.8-15h-5.4V42.5h28.4v34.7h-6.5v11.1c0,1.6,.4,1.9,2.5,1.9,1.7,0,2.4,0,2.8-1.5,.3-1.2,.4-4.3,.4-7l6.1,2c-.6,12.1-1.4,13.1-10.4,13.1-6.4,0-8.1-1-8.1-4.7v-14.9h-3.5c-.3,11.5-5.2,17.9-16,20.7l-4.1-5.7Zm30.3-39.6v-4.5h-15.4v4.5h15.4Zm0,9.4v-4.5h-15.4v4.5h15.4Zm0,9.7v-4.9h-15.4v4.9h15.4Z"/></g><g class="cls-2"><path class="cls-1" d="M186.4,80.1c2.2-.8,4.9-1.9,7.3-2.9v-17.1h-6.6v-6.7h6.7v-12.8h6.7v12.8h6v6.7h-6v14.1c1.7-.8,3.8-2,5.7-3.1l.9,6c-4.5,3.3-11.3,7.1-18.1,10l-2.6-7Zm27.9,14.1c6-3.6,10-8.4,13-15.4h-2.9c-3.1,6.2-8.1,11.5-14.8,15.6l-4.5-4.5c5.6-3,10.1-6.8,13.1-11.1h-2.9c-2.7,3.1-6.2,6-9.6,8.1l-3.8-4.4c5.7-3.3,10-7.4,12.7-12.1h-8.6v-5.2h38.7v5.2h-23.2c-.6,1.1-1.1,1.7-2.1,3.3h23.6c-.3,8.4-.9,15.7-1.7,19-.9,3.5-2.8,4.9-6.7,4.9-1.6,0-3.9-.2-6.5-.5l-1-5.8c-2.2,2.8-4.6,4.9-7.6,6.9l-5.2-4Zm-4.4-52.2h28.7v20.6h-28.7v-20.6Zm22.4,8.1v-3.5h-15.9v3.5h15.9Zm0,7.9v-3.6h-15.9v3.6h15.9Zm3.9,20.8h-2.6c-1.6,4.6-3.7,8.6-6.2,11.8,1.5,.3,3.4,.6,4.7,.6,3,0,3.4-1.2,4.1-12.4Z"/></g><g class="cls-2"><path class="cls-1" d="M268.4,96.5c9.1-2.5,14.5-8.5,14.5-15.6,0-7.9-5.5-12.3-12.6-12.7-.3,5.8-1.3,10.9-2.8,15.6-2.3,7.3-6.4,11.9-11,11.9s-8.1-4.6-8.1-10.9c0-11.4,9.4-20.6,21.1-20.6,10.3,0,18,6.1,18,16.6,0,9.1-5.8,15.8-15.6,19.2l-3.5-3.5Zm-11.7-5.5c2.6,0,5-3.4,6.7-8.7,1.4-4.5,2.2-8.6,2.5-13.7-7.6,1.7-13,8.7-13,16.2,0,3.4,2,6.2,3.8,6.2Z"/></g><g class="cls-2"><path class="cls-1" d="M.8,151.8c1.1-5.1,1.6-10.2,1.8-19.1l5.1,.6c0,7.7-.7,16-1.7,20.7l-5.2-2.2Zm8.3-31.7h6.7v12.2l3.5-2.6c1.6,3.3,2.7,6,3.5,9l-1.3,1h14.4v-2.7h-12v-4.4h11.9v-2.6h-13.7v-4.7h13.7v-5.3h6.8v5.3h15.2v4.7h-15.2v2.6h13v4.4h-13v2.7h17.3v4.9H20.5v-4.1l-2.2,1.9c-.8-3.6-1.5-6.2-2.4-9v44.3h-6.8v-57.6Zm15.8,27.3h29.6v24.8c0,3.6-1.5,5.1-5.6,5.1-2.4,0-5.8-.1-8.1-.3l-1.1-6c2,.3,4.8,.5,6.6,.5,1.2,0,1.5-.3,1.5-1.7v-2.8H31.5v10.8h-6.7v-30.4h.1Zm23,7.6v-2.9H31.5v2.9h16.4Zm0,7.5v-2.9H31.5v2.9h16.4Z"/></g><g class="cls-2"><path class="cls-1" d="M75.7,166.9h-9.7v-5.8h9.7v-5.1h-10.5v-5.6h6c-.5-2.2-1.2-4.6-2.2-7h-4.8v-5.6h11.5v-5.1h-9.3v-5.6h9.3v-7h6.7v7h9.4v5.6h-9.4v5.1h10.6v5.6h-3.9c-.7,2.5-1.3,4.3-2.4,7h6.1v5.6h-10.4v5.1h9.7v5.8h-9.7v10.8h-6.7s0-10.8,0-10.8Zm5.1-16.5c1-2.4,1.7-4.8,2.2-7h-7.7c.6,2.2,1,3.6,1.7,7h3.8Zm20.2,22.3v5h-6.5v-54.5h25.1v13.3c0,4.4-1.3,5.6-5.8,5.6-2.4,0-4.9-.2-7-.6l-1-6.1c1.8,.4,3.8,.7,5.2,.7s2-.5,2-2v-4.8h-12.1v15.6h16.1l3.7,3.6c-1.2,5.9-3,11.1-5.8,16.4,2.1,2.4,4.9,4.7,7.4,6.3l-3.5,6.2c-2.3-1.7-5-4.4-7.3-7-2,2.8-4.2,5.4-6.9,7.9l-3.6-5.6Zm6.8-7.6c-2.9-4.5-5.1-9.4-6.4-14.1h-.3v21.3c2.2-1.6,4.4-4,6.7-7.2Zm6.2-14h-7.2c.8,2.6,2.3,5.8,4.2,8.7,1.4-3,2.3-5.8,3-8.7Z"/></g><g class="cls-2"><path class="cls-1" d="M126.9,171.5c7.1-2.8,13.6-7.3,18.1-12.4l6.3,4.5c-5.2,5.7-12,10.8-18.9,14.3l-5.5-6.4Zm.2-19.5h13.9v-12.2h-11v-6.4h11v-11.7h7.3v11.7h12.8v-11.7h7.3v11.7h11.5v6.4h-11.5v12.2h14.3v6.4h-55.6v-6.4Zm34,0v-12.2h-12.9v12.2h12.9Zm-2.5,11.4l5.8-4.6c6.7,3.7,13.1,7.9,18.3,12l-6.4,6c-5.2-4.8-11.5-9.7-17.7-13.4Z"/></g><g class="cls-2"><path class="cls-1" d="M201.3,152.4c-3,3.6-6.4,6.8-9.7,9.2l-4.5-5.8c7.1-4.7,14.6-13.7,18-21.4h-15.4v-6.1h17.8c1-2.9,1.7-5.5,2.2-8.4l7.2,1.1c-.7,2.9-1.2,4.9-2,7.4h29.4v6.1h-31.7c-.5,1.2-1.2,2.6-2.4,5h27.5v32.2c0,4.2-1.8,5.8-6.8,5.8-3.5,0-7.1-.1-10-.4l-1.2-7.1c2.6,.4,6,.8,8.5,.8,1.7,0,2.3-.5,2.3-2.2v-4.2h-22v13.5h-7.2v-25.5h0Zm29.2-3.1v-4.3h-22v4.3h22Zm0,9.8v-4.7h-22v4.7h22Z"/></g><g class="cls-2"><path class="cls-1" d="M252.9,172.7c0-4.6,5-8.1,12.3-11.6-.6-2.4-2.2-3.2-4.1-3.2-2.4,0-5,1.3-7.1,3-1.9,1.6-2.8,2.4-5,5.3l-3.5-2.6c3.8-3.5,7.1-7.9,9.8-13.4-3.3,.2-6.5,.4-9.2,.5l-.5-4.2c3.6,0,7.5-.2,11.5-.4,1-2.2,1.8-4.7,2.6-7.2l4.2,1.2c-.6,1.9-1.4,3.8-2.2,5.6,4.1-.4,8.2-1,12.2-1.9l.6,4.2c-4.4,.7-9.6,1.4-14.8,1.8-1,2-2.2,3.8-3.4,5.7,1.8-1,3.7-1.5,5.4-1.5,3.7,0,6.3,1.8,7.2,5.2,3.4-1.5,7.2-3,11.1-4.6l1.7,4.1c-4.6,1.6-8.7,3.1-12.2,4.5,.1,1.5,.2,3,.2,4.4,0,1.9,0,3.1-.1,4.4h-4.4c.2-1.5,.3-3.7,.3-5.4v-1.7c-5.3,2.6-8.2,4.9-8.2,7.2s2.1,3.9,7.8,3.9c3.9,0,8.6-.5,12.8-1.4l.8,4.5c-3.7,.6-8.1,1.1-13.5,1.1-7.9,0-12.3-2.4-12.3-7.5Z"/></g><g class="cls-2"><path class="cls-1" d="M289,152.5c1.2-5.6,1.7-11.1,1.9-19.1l5.1,.6c-.1,8.6-.8,15.6-1.9,21.1l-5.1-2.6Zm8.7-32.4h6.9v11.3l4.5-2.2c1.4,2.8,2.7,6.3,4,10.9l-5.3,3.3c-.6-3.6-1.7-7.5-3.2-11.1v45.4h-6.9v-57.6Zm9.2,52.2c8.7-3.9,13.4-10,14.8-19h-13.1v-6.3h13.5v-10.7h-9v-6.3h9v-10h6.7v10h13.1v17h6.1v6.3h-17c3.5,7.7,9.7,14,17.4,17.4l-4.5,6.7c-7.2-3.8-14.1-11.5-17.3-19.3-1.5,8.8-6.9,16-14.9,20.1l-4.8-5.9Zm28.2-25.3v-10.7h-6.4v10.7h6.4Z"/></g><g class="cls-2"><path class="cls-1" d="M352.2,170.7c2.2-1.2,4.8-3.1,7.6-5.3v-14.7h-6.9v-6.8h13.6v20.4c3.3,4.7,8.2,6,22.5,6,6,0,12.4-.2,22.9-.8-1.2,2.4-1.8,4.4-2.3,7.2-8.1,.3-11.3,.3-16.6,.3-19,0-24.5-1.4-29-7.4-2.2,2.8-4.9,5.6-7.9,8.3l-3.9-7.2Zm1.4-45.1l5.1-4.1c3.4,3,6.5,6.5,9.2,10.2l-5.7,4.5c-2.9-4.4-5.6-7.7-8.6-10.6Zm43.8,42.2l-.8-4.4h-10.8v2.4h-5.5v-14.7h6v-3.1h-7.9v-4.6h7.9v-3.3h-9.2v27.8h-6.1v-32.6h8.7c-1.4-3.6-1.7-4.2-2.2-5.2h-8.1v-5.1h16.1v-5h6.9v5h16.8v5.1h-8.4c-.7,2-1.2,3.1-2.2,5.2h8.9v27.8c0,3.7-1.3,5.1-4.7,5.1-2.1,0-3.9-.1-5.4-.4Zm-5-32.4c.9-1.7,1.5-3.3,2.1-5.2h-10.6c.8,1.7,1.1,2.6,2,5.2h6.5Zm.1,23.9v-4.1h-6.6v4.1h6.6Zm8.9,1.8v-20.9h-9.5v3.3h8.2v4.6h-8.2v3.1h6v11.3c.7,.1,1.9,.1,2.3,.1,1,0,1.2-.3,1.2-1.5Z"/></g><g class="cls-2"><path class="cls-1" d="M417.1,164.2c0-4.9,1-13,2.8-22.6l4.5,.7c-1.9,9.5-3,17.9-3,22,0,2,.1,4.1,.5,5.9,.8-2.7,2.1-6.1,3.1-8l2.7,2.6c-1.5,2.9-2.2,5.2-2.8,7-.6,2.3-.9,4.5-.7,6.7l-3.6,1.4c-2.2-4.5-3.5-9.6-3.5-15.7Zm14.3,5.5c0-2.1,.9-4.5,3.2-7.1l4.1,1.4c-2.2,1.8-2.9,3.7-2.9,5,0,2.7,2.1,4.2,8.1,4.2,2.2,0,5.4-.3,8.5-1l.9,4.5c-3.3,.6-6.7,.7-8.8,.7-9,0-13.1-2.4-13.1-7.7Zm.7-23c5.5,.2,13.8-.3,19.5-1.2l.5,4.4c-5.9,1-14.1,1.4-19.6,1.2l-.4-4.4Z"/></g><g class="cls-2"><path class="cls-1" d="M461.6,174.2c0-3.8,3.2-6.9,7-6.9s6.9,3.2,6.9,7-3.1,7-7,7c-3.8-.1-6.9-3.2-6.9-7.1Zm10.9,.1c0-2.3-1.7-4-4-4s-3.9,1.7-3.9,4,1.7,3.9,4,3.9c2.2,0,3.9-1.7,3.9-3.9Z"/></g><g class="cls-2"><path class="cls-1" d="M10.6,217.6H3.6v3.2H1.6v-4.7H10.6v-1.2H3.4v-1.6H19.9v1.6h-7.3v1.2h9.1v4.7h-2.1v-3.2h-7.1v5.4h-2v-5.4h.1Zm-.1,15.1v-1.8H5.4v1.5H3.4v-8.7H19.7v7.2h-7.2v1c0,1,.2,1,3.7,1,4,0,4.3-.1,4.4-1.2l.1-1.4,2.1,.6c-.2,3.7-.5,3.8-6.5,3.8-5.2,0-5.8-.2-5.8-2Zm-5.8-14h4.8v1.4H4.7v-1.4Zm0,2.4h4.8v1.4H4.7v-1.4Zm5.8,5.5v-1.4H5.4v1.4h5.1Zm0,2.9v-1.5H5.4v1.5h5.1Zm7.3-2.9v-1.4h-5.3v1.4h5.3Zm0,2.9v-1.5h-5.3v1.5h5.3Zm-4.1-10.8h4.9v1.4h-4.9v-1.4Zm0,2.4h4.9v1.4h-4.9v-1.4Z"/></g><g class="cls-2"><path class="cls-1" d="M24.7,216.9h9v1.8h-9s0-1.8,0-1.8Zm.7,9.7h7.5v7h-5.6v1.2h-1.9v-8.2Zm.5-13h6.7v1.8h-6.7v-1.8Zm0,6.6h6.7v1.7h-6.7v-1.7Zm0,3.2h6.7v1.7h-6.7v-1.7Zm5.1,8.5v-3.6h-3.7v3.6h3.7Zm4.1-6.6h4v-3.7h-5.3v-1.9h5.3v-3.5c-1.3,.2-2.9,.4-4.1,.5l-.8-1.8c3.8-.4,7.3-1,9.8-1.8l1.4,1.6c-1.2,.4-2.9,.8-4.3,1.1v3.9h5.6v1.9h-5.6v3.6h4.1v9.5h-2v-1.3h-6.1v1.3h-2v-9.4Zm8.2,6.4v-4.6h-6.2v4.6h6.2Z"/></g><g class="cls-2"><path class="cls-1" d="M58.4,229.6c-2.1,2.3-4.9,4.1-8.3,5.1l-1.4-1.8c3.4-.9,6.4-2.4,8.6-4.5h-8.6v-1.7h9.7v-1.4h-7.3v-1.5h7.2v-1.4h-8.2v-1.6h5.4c-.4-.9-.7-1.5-1.2-2.3h-5.4v-1.6h3.9c-.5-1.3-1.2-2.4-1.8-3.1l1.9-.8c.7,.8,1.3,1.8,1.8,3.1l-1.8,.8h3.3v-4.3h2v4.3h2.3v-4.3h2v4.3h3.1l-1.7-.6c.8-1.3,1.4-2.5,1.7-3.5l2.1,.7c-.6,1.2-1.3,2.5-1.9,3.4h4.3v1.6h-5.7c-.4,.9-.8,1.6-1.2,2.3h5.6v1.6h-8.4v1.4h7.4v1.5h-7.4v1.4h9.8v1.7h-8.6c2.3,1.8,5.2,3.1,8.4,3.8l-1.5,1.9c-3.4-1.1-6.1-2.7-8.2-4.7v5.4h-2.1v-5.2h.2Zm2.7-8.7c.4-.6,.8-1.4,1.1-2.3h-5.6c.5,.8,.7,1.3,1,2.3h3.5Z"/></g><g class="cls-2"><path class="cls-1" d="M74.5,234.6l-.3-2c.8,.2,1.5,.3,1.9,.3,.6,0,.7-.2,.7-.8v-5.7c-.9,2-2.3,4-3.8,5.4l-1-1.9c2-1.7,3.6-4,4.6-6.6h-4.1v-1.8h5.5c-.9-1.3-2.4-2.9-3.7-3.9l1.6-1.1c.6,.5,.7,.6,1.5,1.4,.9-.8,1.7-1.6,2.2-2.3h-6.3v-1.8h8.1l1.1,1.1c-1.2,1.5-2.6,3-3.9,4.1,.4,.5,.7,.7,1.1,1.3l-1.5,1.2h3.4l1,.8-.1,.5c1.8-.5,3.3-1.1,4.5-2.1-.8-.7-1.4-1.4-2.1-2.3-.5,.7-1,1.5-1.7,2.2l-1.4-1.5c1.7-1.7,2.9-4,3.3-6.5l2.1,.5c-.2,.7-.3,1-.7,1.9h7.3v1.8h-1.7c-.5,1.4-1.2,2.6-2.2,3.8,1.4,.8,2.9,1.4,4.7,1.8l-1.1,1.8c-1.9-.6-3.6-1.4-5-2.3-1.4,1.1-3.1,2-5.1,2.6l-1.1-1.5c-.4,1.7-.9,3.3-1.5,4.7l-1.8-.8c.6-1.1,1-2.4,1.3-3.6h-1.6v9.7c0,1.4-.5,1.8-2,1.8-.6,0-1.4-.1-2.2-.2Zm6.3-1.4c3.1-.8,5-2.8,5.6-5.5h-4.2v-1.8h4.3v-2.3h2.1v2.2h4.9c-.3,7.9-.5,8.7-2.9,8.7-.8,0-1.8,0-2.9-.2l-.3-2.1c.8,.2,1.7,.3,2.5,.3,1.1,0,1.1-.3,1.4-5h-3c-.4,3.4-2.6,6-6.3,7.3l-1.2-1.6Zm9.2-16.4h-4c.7,1.1,1.6,2.1,2.4,2.7,.6-.7,1.1-1.6,1.6-2.7Z"/></g><g class="cls-2"><path class="cls-1" d="M100.2,229.8c0-2.3,2.5-4.1,6.2-5.8-.3-1.2-1.1-1.6-2-1.6-1.2,0-2.5,.7-3.6,1.5-1,.8-1.4,1.2-2.5,2.6l-1.7-1.3c1.9-1.8,3.5-4,4.9-6.7-1.7,.1-3.2,.2-4.6,.2l-.2-2.1c1.8,0,3.8-.1,5.8-.2,.5-1.1,.9-2.3,1.3-3.6l2.1,.6c-.3,1-.7,1.9-1.1,2.8,2.1-.2,4.1-.5,6.1-.9l.3,2.1c-2.2,.4-4.8,.7-7.4,.9-.5,1-1.1,1.9-1.7,2.9,.9-.5,1.8-.8,2.7-.8,1.8,0,3.2,.9,3.6,2.6,1.7-.8,3.6-1.5,5.5-2.3l.8,2c-2.3,.8-4.4,1.6-6.1,2.3,.1,.8,.1,1.5,.1,2.2,0,.9,0,1.6-.1,2.2h-2.2c.1-.8,.1-1.8,.1-2.7v-.9c-2.7,1.3-4.1,2.5-4.1,3.6,0,1.2,1.1,1.9,3.9,1.9,2,0,4.3-.3,6.4-.7l.4,2.2c-1.8,.3-4.1,.5-6.7,.5-4,.3-6.2-.9-6.2-3.5Z"/></g><g class="cls-2"><path class="cls-1" d="M137,229.4c0,4.4-3.3,7.5-8,7.5-3.6,0-6-.9-7.9-3.2l2-2.1c1.7,1.9,3.4,2.8,5.9,2.8,3.2,0,5.1-2,5.1-4.7,0-2.3-1.5-4.5-4.6-4.5-2.5,0-4,.8-5.4,2.2l-1.9-1,1.1-10.9h12.8l-.3,2.6h-10l-.7,5.6c1.2-.7,2.7-1.2,4.8-1.2,5,0,7.1,3.4,7.1,6.9Z"/></g><g class="cls-2"><path class="cls-1" d="M139.4,226c0-7.1,3.4-10.9,8.2-10.9,5.2,0,8.2,3.8,8.2,10.9s-3.1,10.9-8.2,10.9c-5.2,0-8.2-3.7-8.2-10.9Zm13.4,0c0-5.5-1.8-8.3-5.2-8.3-3.1,0-5.2,2.8-5.2,8.3s1.8,8.3,5.2,8.3,5.2-2.7,5.2-8.3Z"/></g><g class="cls-2"><path class="cls-1" d="M157.7,221.4c0-4.3,2.2-6.4,5.4-6.4,3.4,0,5.4,2.2,5.4,6.4s-2,6.5-5.4,6.5-5.4-2.2-5.4-6.5Zm8.2,0c0-2.9-.9-4.3-2.7-4.3-1.7,0-2.7,1.3-2.7,4.3s.9,4.3,2.7,4.3c1.7,.1,2.7-1.3,2.7-4.3Zm10.3-5.9h2.4l-13.1,21.2h-2.4l13.1-21.2Zm-2.5,14.9c0-4.2,2.2-6.4,5.4-6.4,3.4,0,5.4,2.2,5.4,6.4s-2,6.5-5.4,6.5-5.4-2.3-5.4-6.5Zm8.2,0c0-2.9-.9-4.3-2.7-4.3-1.6,0-2.7,1.3-2.7,4.3s.9,4.3,2.7,4.3,2.7-1.3,2.7-4.3Z"/></g><g class="cls-2"><path class="cls-1" d="M189.6,214.7l1.9-.7c.7,1.2,1.4,2.7,2,4.7l-2,.8c-.6-1.8-1.2-3.5-1.9-4.8Zm.7,5.1h4.5v-7.1h2.1v7.1h4.7v12.8c0,1.5-.6,2-2.2,2-1,0-2.1-.1-3-.2l-.4-2.1c1,.2,2.1,.3,2.8,.3,.6,0,.7-.2,.7-.7v-2.7h-7.2v5.6h-2v-15h0Zm9.2,3.8v-2h-7.2v2h7.2Zm0,3.9v-2.2h-7.2v2.2h7.2Zm-1.5-8.9c.8-1.3,1.5-3.1,2-4.9l2.1,.8c-.7,1.9-1.5,3.6-2.3,4.9l-1.8-.8Zm5.8-3.1h2v13.7h-2v-13.7Zm.8,18.9l-.4-2.2c1.1,.2,2.2,.3,3.2,.3,.8,0,1-.1,1-.9v-18.1h2v19c0,1.7-.6,2.2-2.5,2.2-1.2-.1-2.3-.2-3.3-.3Z"/></g><g class="cls-2"><path class="cls-1" d="M213.1,220.6l1.3-1.6c1.4,1,2.6,2.1,3.6,3.2l-1.4,1.8c-1.1-1.3-2.3-2.5-3.5-3.4Zm.1,12.6c1.3-2.3,2.2-4.6,3.1-7.8l1.7,1.3c-.9,3.4-1.9,5.9-3,8.1l-1.8-1.6Zm.8-18.3l1.3-1.5c1.4,1,2.6,2,3.6,3.2l-1.4,1.7c-1.1-1.4-2.3-2.6-3.5-3.4Zm3.6,18.5c1.5-2.1,2-4.7,2-9.7v-6.9h8.2c-.1-1.2-.1-2.8-.2-4.1h2c0,2.4,0,2.7,.1,4h5v1.8h-5c.2,3.2,.5,5.9,.8,7.7,.8-1.7,1.4-3.5,1.9-5.6l1.9,.8c-1,3.3-1.9,5.5-3,7.4,.4,1.2,1.2,2.7,1.5,2.7s.6-1.3,.9-3.5l1.8,1.3c-.6,3.5-1.4,5.2-2.3,5.2s-2.4-1.8-3.3-3.9c-1.4,1.9-2.8,3.3-4.3,4.4l-1.5-1.5c2.1-1.3,3.7-2.9,5-5.1-.6-2-1.1-5.5-1.3-9.7h-6.4v4.6c0,6.3-.6,9.2-2.3,11.8l-1.5-1.7Zm4.6-12.9h5.4v1.7h-5.4v-1.7Zm.2,3.3h5.1v6.1h-3.5v1.5h-1.6v-7.6Zm3.5,4.4v-2.9h-2v2.9h2Zm4.8-14.4l1.8-.9c.8,.8,1.5,1.7,2,2.6l-1.8,1c-.7-1.2-1.3-2.1-2-2.7Z"/></g><g class="cls-2"><path class="cls-1" d="M235.8,231.5c0-1,.8-1.9,1.9-1.9s1.9,.9,1.9,1.9-.8,1.9-1.9,1.9c-1.1,0-1.9-.9-1.9-1.9Zm.6-16.2h2.5l-.1,12.3h-2.3l-.1-12.3Z"/></g><circle class="cls-1" cx="129.5" cy="207.3" r="2.9"/><circle class="cls-1" cx="149.2" cy="207.3" r="2.9"/><circle class="cls-1" cx="168.9" cy="207.3" r="2.9"/></svg>