<?xml version="1.0" encoding="UTF-8"?><svg id="_レイヤー_1" xmlns="http://www.w3.org/2000/svg" viewBox="0 0 475.44 413.85"><defs><style>.cls-1,.cls-2{fill:none;}.cls-3{fill:#131c28;}.cls-4{fill:#231815;}.cls-2{stroke:#13202e;stroke-width:1.6px;}.cls-5{fill:#e23a47;stroke:#e23a47;stroke-width:.25px;}</style></defs><g><path class="cls-3" d="M0,0H3.32L23.09,23.09h-3.35L0,0Z"/><path class="cls-3" d="M30.85,4.4h9.07v2.2h-9.07v-2.2Zm.7,9.97h7.7v7.35h-5.35v1.07h-2.35V14.37Zm.45-13.32h6.87V3.15h-6.87V1.05Zm0,6.75h6.87v2h-6.87v-2Zm0,3.2h6.87v2h-6.87v-2Zm4.9,8.62v-3.2h-3v3.2h3Zm4.45-9.15c-.38,.72-.67,1.22-1.22,2.1l-1.45-2.25c1.67-2.52,3.17-6.45,3.87-10.12l2.57,.6c-.38,1.42-.72,2.52-1.22,3.92h2.67c.65-1.57,1.1-2.87,1.45-4.32l2.57,.73c-.45,1.22-.97,2.42-1.57,3.6h3.77v2.25h-3.97v2.57h3.42v2.15h-3.42v2.57h3.42v2.15h-3.42v2.77h4.42v2.35h-9.4v1.25h-2.5V10.47Zm5.02-.92v-2.57h-2.52v2.57h2.52Zm0,4.72v-2.57h-2.52v2.57h2.52Zm0,4.92v-2.77h-2.52v2.77h2.52Z"/><path class="cls-3" d="M62.19,14.05c0-2.55,1.67-5.12,4.6-7.32-4.35,.45-7.42,.7-10.8,.95l-.4-3.12c5.22-.2,13.57-.67,19.55-1.67l.55,3.05c-3.6,.4-5.15,1.05-6.97,2.55-2.12,1.72-3.42,3.55-3.42,5.55,0,2.77,2.4,4.17,6.9,4.75l-1.4,2.97c-5.32-.72-8.6-3.32-8.6-7.7Zm7.4-3.62l1.65-1.1c1.07,1.07,1.72,2.12,2.5,3.57l-1.7,1.17c-.77-1.55-1.47-2.57-2.45-3.65Zm2.6-1.52l1.67-1.1c1.02,1,1.77,2.1,2.52,3.5l-1.7,1.15c-.8-1.52-1.45-2.52-2.5-3.55Z"/><path class="cls-3" d="M79.45,11.55c0-1.02,.7-2.32,1.92-3.45l2.05,1c-.75,.65-1.1,1.15-1.1,1.5,0,.45,.55,.72,2.35,.72h.15c.08-.57,.15-1.17,.25-1.82l.3-2.12c-1.67-.02-3.37-.12-4.82-.35l-.15-2.87c1.72,.25,3.47,.4,5.37,.42,.2-1.57,.37-3.02,.47-4.05l3.1,.4c-.15,.8-.4,2.12-.62,3.57,1.45-.1,2.95-.27,4.45-.55l.17,2.87c-1.45,.27-3.3,.43-5.07,.5-.1,.8-.22,1.57-.3,2.25-.07,.55-.15,1.07-.2,1.55,1.75-.2,3.55-.55,4.97-1l.65,2.82c-1.87,.42-3.97,.67-5.92,.82-.07,.83-.1,1.42-.1,1.77,0,2.1,1.1,3.25,3.3,3.25,2.52-.02,4.6-1.57,4.6-4.62,0-1.4-.42-2.97-1.52-4.77l3.17-.1c1.02,1.72,1.4,3.85,1.4,5.07,0,4.75-3.1,7.42-7.62,7.42h-.07c-4.1,0-6.22-2.1-6.22-5.87,0-.5,.05-1.2,.12-2.02h-.3c-3.35,0-4.77-.97-4.77-2.35Z"/><path class="cls-3" d="M105.81,19.87c5.22-1.67,8.65-4.52,10.55-8.75-5.22,.12-9.8,.17-14.27,.2l-.02-2.95c4.82,0,9.67-.05,16.7-.2l1.55,1.27c-1.82,6.47-5.8,10.65-12.1,12.97l-2.4-2.55Zm-1.62-16.7c4.52,.02,8.35-.02,13.97-.12l.02,2.92c-5.82,.12-9.7,.15-13.97,.15l-.02-2.95Z"/><path class="cls-3" d="M127.02,20.2c6.12-2.92,9.57-7.27,11.22-12.82-2.27,.03-4.55,.08-6.32,.08-1.35,2.35-3,4.45-5.07,6.2l-2.92-1.6c3.67-3.05,6.07-6.8,7.4-10.87l3.12,.77c-.32,.9-.67,1.77-1.05,2.62,1.92-.02,4.1-.07,6.75-.15l1.8,1.42c-2,7.92-5.5,12.87-12.2,16.57l-2.72-2.22Z"/><path class="cls-3" d="M149.65,19.87c5.22-1.67,8.65-4.52,10.55-8.75-5.22,.12-9.8,.17-14.27,.2l-.03-2.95c4.82,0,9.67-.05,16.7-.2l1.55,1.27c-1.82,6.47-5.8,10.65-12.1,12.97l-2.4-2.55Zm-1.62-16.7c4.52,.02,8.35-.02,13.97-.12l.02,2.92c-5.82,.12-9.7,.15-13.97,.15l-.02-2.95Z"/><path class="cls-3" d="M170.86,20.2c6.12-2.92,9.57-7.27,11.22-12.82-2.27,.03-4.55,.08-6.32,.08-1.35,2.35-3,4.45-5.07,6.2l-2.92-1.6c3.67-3.05,6.07-6.8,7.4-10.87l3.12,.77c-.32,.9-.67,1.77-1.05,2.62,1.92-.02,4.1-.07,6.75-.15l1.8,1.42c-2,7.92-5.5,12.87-12.2,16.57l-2.72-2.22Z"/><path class="cls-3" d="M190.7,11.8c-.7,1.07-1.07,1.6-1.55,2.2l-1.17-2.9c2.05-3.02,3.6-6.85,4.45-10.9l2.75,.62c-.55,2.12-1.12,3.92-1.82,5.7V22.79h-2.65V11.8Zm3.27,8.85c2.57-.38,4.37-1.05,5.5-2.07-.85-.52-1.82-1.32-2.8-2.27l1.97-1.52c.6,.65,1.35,1.25,2.12,1.75,.23-.72,.35-1.5,.4-2.57h-3.1v1.1h-2.6V6.95h5.65v-1.77h-6.32V2.87h6.32V.3h2.7V2.87h6.72v2.3h-6.72v1.77h5.7V15.05h-2.6v-1.1h-3.17c-.05,1.57-.27,2.8-.7,3.9,2.42,1.1,5.32,1.92,8.25,2.35l-1.62,2.6c-2.85-.6-5.65-1.6-7.95-2.82-1.37,1.45-3.55,2.52-6.17,3.05l-1.57-2.37Zm7.15-8.8v-2.8h-3.05v2.8h3.05Zm5.8,0v-2.8h-3.1v2.8h3.1Z"/><path class="cls-3" d="M213.54,19.57c4.47-4.37,7.47-7.25,11.1-10.72-3.15,.5-6.67,.77-8.65,.85l-.4-2.92c2.87-.02,9.3-.4,12.9-1.27l1.95,2.02c-1.6,1.3-3.92,3.3-5.7,4.85,.32-.05,.62-.08,.9-.08,1.2,0,1.87,.88,1.87,1.95,0,.77-.1,2.15-.1,2.7,0,1.1,.32,1.57,1.6,1.57,1.12,0,3.17-.17,4.65-.55l.35,3.15c-1.72,.32-3.77,.42-5.02,.42-3.2,0-4.7-1.32-4.7-3.82,0-.57,.08-1.42,.08-1.87,0-.55-.27-1-.77-1-.62,0-1.22,.35-2.1,1.1-1.27,1.17-2.37,2.32-5.45,5.72l-2.5-2.1Zm5.3-16.4l1.22-2.62c2.65,.42,4.72,.85,7.5,1.9l-1.5,2.65c-2.45-.97-4.8-1.52-7.22-1.92Z"/><path class="cls-3" d="M240.02,17.92c0-1.82,1.62-3.22,3.95-3.22,2.1,0,4,1.15,5.27,3.2,1-.75,1.62-1.8,1.62-3.02,0-1.65-1.75-2.97-4.4-2.97-1.97,0-3.97,.62-5.57,1.65-1.17,.75-2.02,1.47-3.4,2.87l-2.1-2.27c2.67-2,6.52-5.4,10.1-9.32-1.97,.3-4.32,.52-6.25,.6l-.52-2.9c3.1-.05,6.5-.3,10.02-.95l1.65,2.02c-2.22,2.4-4.05,4.15-6.12,6,.9-.25,1.77-.38,2.67-.38,4.12,0,7,2.3,7,5.57,0,4.05-4,7-8.97,7-2.8,0-4.95-1.55-4.95-3.87Zm5.2,1.27c.55,0,1.07-.07,1.6-.17-.72-1.17-1.7-1.82-2.72-1.82-.7,0-1.15,.38-1.15,.82,0,.7,.88,1.17,2.27,1.17Z"/><path class="cls-3" d="M261.95,20.1c0-1.39,1.04-2.58,2.58-2.58s2.58,1.19,2.58,2.58-1.04,2.61-2.58,2.61-2.58-1.19-2.58-2.61Zm.61-18.65h3.95l-.26,14.07h-3.42l-.26-14.07Z"/><path class="cls-3" d="M292.7,0h3.32l-19.74,23.09h-3.35L292.7,0Z"/></g><g><path class="cls-3" d="M1.55,75.19c11.65-4.93,19.84-12.48,24.77-22.85h8.26c5.7,8.77,14.27,15.61,26.17,20.93l-4.16,7.04c-11.2-5.5-20.22-12.61-25.98-20.61-4.54,8.83-13.18,16.45-24.77,21.89l-4.29-6.4Zm4.99,27.71c7.87-3.26,11.01-9.02,10.82-19.58v-8.13h7.68v7.1c.19,14.08-3.52,21.57-12.99,26.56l-5.5-5.95Zm31.49-28.54h7.68v33.21h-7.68v-33.21Z"/><path class="cls-3" d="M63.15,61.43h21.05v5.63h-21.05v-5.63Zm1.66,25.47h17.54v18.81h-11.65v2.75h-5.89v-21.57Zm21.76-10.88c-.96,1.15-1.66,1.86-2.75,3.07l-2.37-3.78h-15.74v-5.12h15.87v3.46c3.58-4.03,6.08-7.94,7.49-11.71l2.18,.58v-2.43h-7.62v-4.99h7.62v-4.16h6.27v4.16h7.68v-4.16h6.27v4.16h8.96v4.99h-8.96v3.46h-3.39c-.32,.7-.83,1.66-1.22,2.37h12.61v3.58h-13.25v2.3h11.26v3.33h-11.26v2.3h11.26v3.33h-11.26v2.37h14.27v3.84h-33.92v-10.94Zm-20.86-23.23h15.87v5.38h-15.87v-5.38Zm0,25.66h15.87v5.12h-15.87v-5.12Zm11.14,21.89v-8.19h-6.14v8.19h6.14Zm5.95,2.82c5.31-.45,10.18-1.47,14.33-2.88-2.94-1.86-5.5-4.1-7.42-6.34h-4.42v-4.86h30.4l2.82,2.69c-2.5,3.01-5.5,5.63-9.34,8.26,3.65,1.09,8.13,1.92,12.86,2.43l-3.71,6.08c-5.5-1.15-10.94-2.88-15.23-4.93-5.18,2.62-11.14,4.67-16.96,5.7l-3.33-6.14Zm17.66-31.36v-2.3h-8v2.3h8Zm0,5.63v-2.3h-8v2.3h8Zm0,5.7v-2.37h-8v2.37h8Zm.19-17.21c.58-1.15,1.02-2.37,1.47-3.9l3.07,.51v-2.43h-7.68v3.46h-2.88c-.38,.77-.83,1.6-1.28,2.37h7.3Zm8.19,28.03h-12.16c1.54,1.47,3.97,2.94,6.21,3.9,2.24-1.09,4.29-2.43,5.95-3.9Z"/><path class="cls-3" d="M124.08,93.36c2.43-.58,5.5-1.47,8.7-2.43v-13.18h-6.72v-6.14h6.72v-10.18h-7.62v-6.27h21.82v6.27h-7.55v10.18h6.4v6.14h-6.4v10.94c1.6-.51,4.03-1.47,7.55-2.88l.45,6.59c-5.76,2.75-12.48,5.31-21.25,8.13l-2.11-7.17Zm16.7,9.6c9.47-2.11,13.18-6.21,13.76-14.98h-5.38V53.3h28.41v34.69h-6.46v11.14c0,1.6,.38,1.86,2.5,1.86,1.73,0,2.43,0,2.82-1.54,.26-1.15,.38-4.29,.45-6.98l6.08,2.05c-.58,12.1-1.41,13.12-10.37,13.12-6.4,0-8.13-1.02-8.13-4.74v-14.91h-3.52c-.32,11.52-5.25,17.92-16,20.73l-4.16-5.76Zm30.27-39.61v-4.54h-15.36v4.54h15.36Zm0,9.41v-4.54h-15.36v4.54h15.36Zm0,9.73v-4.86h-15.36v4.86h15.36Z"/><path class="cls-3" d="M186.38,90.87c2.18-.83,4.93-1.92,7.3-2.94v-17.09h-6.66v-6.66h6.66v-12.8h6.66v12.8h6.02v6.66h-6.02v14.08c1.73-.83,3.84-1.98,5.7-3.14l.9,5.95c-4.54,3.33-11.33,7.1-18.11,10.05l-2.43-6.91Zm27.84,14.14c5.95-3.58,9.98-8.38,12.99-15.42h-2.88c-3.07,6.21-8.06,11.52-14.78,15.61l-4.54-4.48c5.57-3.01,10.11-6.85,13.06-11.14h-2.94c-2.69,3.07-6.21,6.02-9.6,8.06l-3.84-4.42c5.7-3.33,9.98-7.42,12.67-12.1h-8.58v-5.25h38.65v5.25h-23.17c-.64,1.09-1.09,1.73-2.11,3.33h23.55c-.26,8.38-.9,15.74-1.73,19.01-.9,3.52-2.82,4.93-6.72,4.93-1.6,0-3.9-.19-6.46-.51l-1.02-5.76c-2.24,2.75-4.61,4.93-7.55,6.91l-4.99-4.03Zm-4.35-52.28h28.73v20.67h-28.73v-20.67Zm22.33,8.19v-3.46h-15.93v3.46h15.93Zm0,7.87v-3.65h-15.93v3.65h15.93Zm3.9,20.8h-2.62c-1.6,4.61-3.71,8.64-6.21,11.84,1.47,.32,3.39,.58,4.74,.58,3.01,0,3.39-1.22,4.1-12.42Z"/><path class="cls-3" d="M269.28,105.56c9.05-2.45,14.45-8.5,14.45-15.55,0-7.9-5.45-12.3-12.55-12.65-.35,5.75-1.3,10.9-2.8,15.55-2.3,7.3-6.4,11.85-10.95,11.85s-8.05-4.6-8.05-10.9c0-11.4,9.35-20.55,21.05-20.55,10.3,0,17.95,6.05,17.95,16.6,0,9.05-5.8,15.8-15.55,19.2l-3.55-3.55Zm-11.7-5.5c2.6,0,5-3.35,6.65-8.65,1.4-4.45,2.25-8.55,2.55-13.65-7.6,1.65-13,8.65-13,16.15,0,3.4,1.95,6.15,3.8,6.15Z"/><path class="cls-3" d="M.71,162.61c1.09-5.12,1.6-10.24,1.79-19.13l5.06,.58c0,7.68-.7,16-1.73,20.73l-5.12-2.18Zm8.38-31.74h6.66v12.16l3.46-2.56c1.6,3.26,2.69,6.02,3.46,9.02l-1.28,1.02h14.4v-2.69h-11.9v-4.35h11.9v-2.56h-13.69v-4.74h13.69v-5.31h6.78v5.31h15.17v4.74h-15.17v2.56h12.99v4.35h-12.99v2.69h17.28v4.86H20.42v-4.1l-2.24,1.86c-.77-3.58-1.47-6.21-2.43-8.96v44.28h-6.66v-57.6Zm15.74,27.33h29.63v24.77c0,3.65-1.54,5.06-5.57,5.06-2.43,0-5.76-.13-8.13-.32l-1.09-6.02c1.98,.32,4.8,.51,6.59,.51,1.22,0,1.54-.32,1.54-1.66v-2.82H31.5v10.75h-6.66v-30.27Zm22.97,7.62v-2.88H31.5v2.88h16.32Zm0,7.42v-2.94H31.5v2.94h16.32Z"/><path class="cls-3" d="M75.66,177.71h-9.73v-5.76h9.73v-5.12h-10.5v-5.63h6.02c-.51-2.24-1.22-4.61-2.18-7.04h-4.8v-5.63h11.46v-5.06h-9.34v-5.63h9.34v-6.98h6.66v6.98h9.41v5.63h-9.41v5.06h10.56v5.63h-3.9c-.7,2.5-1.28,4.29-2.37,7.04h6.08v5.63h-10.37v5.12h9.73v5.76h-9.73v10.75h-6.66v-10.75Zm5.06-16.51c.96-2.43,1.73-4.8,2.18-7.04h-7.74c.64,2.18,1.02,3.58,1.73,7.04h3.84Zm20.29,22.27v4.99h-6.53v-54.52h25.15v13.31c0,4.42-1.28,5.63-5.82,5.63-2.43,0-4.86-.19-6.98-.58l-.96-6.08c1.79,.45,3.78,.7,5.25,.7s1.98-.51,1.98-2.05v-4.8h-12.1v15.61h16.13l3.71,3.58c-1.15,5.89-3.01,11.07-5.82,16.38,2.11,2.37,4.93,4.74,7.42,6.34l-3.52,6.21c-2.3-1.73-4.99-4.35-7.3-7.04-1.98,2.82-4.16,5.38-6.91,7.94l-3.71-5.63Zm6.72-7.55c-2.88-4.48-5.12-9.41-6.4-14.08h-.32v21.31c2.24-1.66,4.48-4.03,6.72-7.23Zm6.21-14.08h-7.17c.77,2.62,2.3,5.82,4.16,8.7,1.41-2.94,2.37-5.76,3.01-8.7Z"/><path class="cls-3" d="M126.88,182.32c7.1-2.82,13.63-7.3,18.11-12.42l6.27,4.54c-5.25,5.7-12.03,10.81-18.88,14.27l-5.5-6.4Zm.13-19.58h13.89v-12.16h-11.01v-6.4h11.01v-11.71h7.3v11.71h12.86v-11.71h7.3v11.71h11.46v6.4h-11.46v12.16h14.33v6.4h-55.68v-6.4Zm34.05,0v-12.16h-12.86v12.16h12.86Zm-2.5,11.46l5.76-4.61c6.72,3.71,13.05,7.87,18.3,12.03l-6.4,6.02c-5.18-4.86-11.52-9.73-17.66-13.44Z"/><path class="cls-3" d="M201.29,163.19c-3.01,3.65-6.4,6.78-9.73,9.22l-4.54-5.82c7.1-4.74,14.59-13.69,17.98-21.44h-15.36v-6.14h17.79c1.02-2.88,1.73-5.5,2.24-8.45l7.23,1.09c-.7,2.94-1.22,4.93-1.98,7.36h29.44v6.14h-31.74c-.51,1.22-1.22,2.62-2.43,4.99h27.45v32.19c0,4.22-1.79,5.76-6.78,5.76-3.52,0-7.1-.13-9.98-.45l-1.22-7.1c2.56,.45,5.95,.77,8.51,.77,1.73,0,2.3-.51,2.3-2.18v-4.16h-22.01v13.5h-7.17v-25.28Zm29.18-3.14v-4.29h-22.01v4.29h22.01Zm0,9.79v-4.67h-22.01v4.67h22.01Z"/><path class="cls-3" d="M254.81,181.76c0-4.55,5.05-8.1,12.3-11.6-.6-2.35-2.2-3.15-4.05-3.15-2.4,0-5,1.3-7.1,3.05-1.9,1.55-2.75,2.4-5,5.25l-3.45-2.55c3.8-3.5,7.05-7.9,9.8-13.35-3.3,.25-6.45,.4-9.15,.45l-.45-4.2c3.6,0,7.5-.15,11.5-.4,.95-2.25,1.8-4.65,2.6-7.2l4.2,1.25c-.65,1.9-1.4,3.75-2.25,5.55,4.1-.4,8.2-1,12.15-1.85l.6,4.25c-4.35,.7-9.6,1.35-14.8,1.8-1.05,1.95-2.2,3.85-3.4,5.7,1.8-.95,3.65-1.5,5.35-1.5,3.65,0,6.3,1.8,7.25,5.2,3.4-1.5,7.2-3,11.05-4.55l1.65,4.05c-4.6,1.6-8.7,3.1-12.15,4.5,.15,1.55,.2,3,.2,4.4,0,1.85,0,3.1-.1,4.4h-4.4c.15-1.55,.3-3.65,.3-5.35,0-.55,0-1.15-.05-1.7-5.3,2.55-8.15,4.9-8.15,7.15s2.1,3.85,7.8,3.85c3.9,0,8.6-.55,12.75-1.4l.8,4.45c-3.65,.55-8.1,1.05-13.45,1.05-8,0-12.35-2.45-12.35-7.55Z"/><path class="cls-3" d="M288.96,163.31c1.15-5.57,1.73-11.07,1.92-19.07l5.12,.58c-.13,8.64-.77,15.55-1.86,21.12l-5.18-2.62Zm8.64-32.45h6.91v11.33l4.54-2.24c1.41,2.82,2.69,6.27,3.97,10.88l-5.31,3.33c-.58-3.58-1.66-7.49-3.2-11.07v45.37h-6.91v-57.6Zm9.21,52.22c8.7-3.9,13.44-10.05,14.78-19.01h-13.12v-6.27h13.5v-10.69h-8.96v-6.27h8.96v-9.98h6.66v9.98h13.06v16.96h6.14v6.27h-17.02c3.46,7.74,9.66,13.95,17.41,17.41l-4.54,6.72c-7.17-3.78-14.08-11.52-17.28-19.26-1.54,8.83-6.91,16-14.91,20.09l-4.67-5.95Zm28.22-25.28v-10.69h-6.4v10.69h6.4Z"/><path class="cls-3" d="M352.17,181.49c2.24-1.22,4.8-3.07,7.62-5.31v-14.65h-6.91v-6.78h13.57v20.41c3.33,4.74,8.19,6.02,22.53,6.02,6.02,0,12.35-.19,22.91-.77-1.15,2.37-1.79,4.35-2.3,7.17-8.06,.26-11.33,.32-16.57,.32-19.01,0-24.51-1.41-28.99-7.36-2.18,2.75-4.86,5.63-7.87,8.32l-3.97-7.36Zm1.41-45.12l5.12-4.1c3.39,3.01,6.46,6.46,9.15,10.24l-5.7,4.48c-2.88-4.42-5.57-7.68-8.58-10.62Zm43.77,42.24l-.77-4.35h-10.75v2.37h-5.5v-14.72h5.95v-3.07h-7.87v-4.61h7.87v-3.33h-9.15v27.84h-6.14v-32.57h8.7c-1.41-3.58-1.66-4.16-2.18-5.18h-8.13v-5.12h16.06v-4.99h6.91v4.99h16.83v5.12h-8.38c-.7,1.98-1.15,3.14-2.18,5.18h8.9v27.77c0,3.71-1.28,5.06-4.67,5.06-2.18,0-3.97-.13-5.5-.38Zm-4.99-32.45c.9-1.73,1.54-3.33,2.11-5.18h-10.62c.77,1.73,1.09,2.56,2.05,5.18h6.46Zm.06,23.87v-4.1h-6.59v4.1h6.59Zm8.96,1.79v-20.93h-9.47v3.33h8.19v4.61h-8.19v3.07h6.02v11.33c.7,.06,1.86,.13,2.3,.13,.9,0,1.15-.32,1.15-1.54Z"/><path class="cls-3" d="M417.59,173.26c0-4.9,1-13,2.75-22.55l4.5,.7c-1.95,9.55-2.95,17.9-2.95,21.95,0,1.95,.1,4.1,.5,5.9,.75-2.7,2.1-6.05,3.1-7.95l2.65,2.6c-1.45,2.85-2.25,5.2-2.75,7-.6,2.3-.9,4.5-.7,6.65l-3.55,1.45c-2.2-4.5-3.55-9.6-3.55-15.75Zm14.3,5.5c0-2.05,.9-4.5,3.2-7.05l4.1,1.4c-2.15,1.85-2.9,3.65-2.9,5,0,2.7,2.1,4.15,8.1,4.15,2.15,0,5.4-.3,8.5-1l.85,4.55c-3.3,.55-6.65,.7-8.8,.7-8.9,0-13.05-2.4-13.05-7.75Zm.7-23c5.45,.15,13.8-.3,19.5-1.25l.5,4.35c-5.9,.95-14.05,1.4-19.6,1.25l-.4-4.35Z"/><path class="cls-3" d="M461.54,183.31c0-3.8,3.15-6.9,7-6.9s6.9,3.15,6.9,6.95-3.15,6.95-7,6.95-6.9-3.15-6.9-7Zm10.9,.05c0-2.25-1.7-3.95-4-3.95s-3.9,1.7-3.9,4,1.65,3.9,3.95,3.9,3.95-1.7,3.95-3.95Z"/></g><g id="_楕円形_296"><circle class="cls-1" cx="127.88" cy="311.73" r="102.12"/><circle class="cls-2" cx="127.88" cy="311.73" r="100.86"/></g><g><path class="cls-4" d="M71.6,265.28h-7.03v3.91h-2.96v-5.77h9.99v-1.12h-7.74v-2.08h18.6v2.08h-7.91v1.12h10.15v5.77h-2.96v-3.91h-7.2v5.47h-2.95v-5.47Zm1.12,18.36c-.77-.36-1.15-1.04-1.15-2.02v-1.89h-4.6v1.61h-2.85v-9.77h18.06v8.15h-7.72v.82c0,.6,.11,.79,.52,.93,.38,.08,1.56,.16,2.87,.16,2.95,0,4.1-.11,4.51-.44,.33-.25,.44-.49,.6-2.38l2.93,.68c-.33,4.32-.71,4.54-7.72,4.54-3.23,0-4.81-.11-5.47-.41Zm-7.2-17.35h5.12v1.64h-5.12v-1.64Zm0,2.65h5.12v1.64h-5.12v-1.64Zm6.05,5.8v-1.31h-4.6v1.31h4.6Zm0,3.12v-1.37h-4.6v1.37h4.6Zm7.77-3.12v-1.31h-4.87v1.31h4.87Zm0,3.12v-1.37h-4.87v1.37h4.87Zm-3.83-11.57h5.28v1.64h-5.28v-1.64Zm0,2.65h5.28v1.64h-5.28v-1.64Z"/><path class="cls-4" d="M88.32,264.02h9.93v2.41h-9.93v-2.41Zm.77,10.92h8.43v8.04h-5.85v1.18h-2.57v-9.22Zm.49-14.58h7.52v2.3h-7.52v-2.3Zm0,7.39h7.52v2.19h-7.52v-2.19Zm0,3.5h7.52v2.19h-7.52v-2.19Zm5.36,9.44v-3.5h-3.28v3.5h3.28Zm4.84-7.33h4.3v-3.47h-5.8v-2.63h5.8v-3.45c-1.45,.19-3.17,.38-4.32,.46l-1.15-2.43c4.46-.38,8.34-1.04,11.19-1.92l1.94,2.41c-1.72,.49-3.26,.82-4.76,1.04v3.89h5.88v2.63h-5.88v3.47h4.54v10.81h-2.79v-1.4h-6.16v1.4h-2.79v-10.81Zm8.95,6.84v-4.38h-6.16v4.38h6.16Z"/><path class="cls-4" d="M126.3,278.16c-2.33,2.76-5.58,4.87-9.17,5.94l-1.92-2.63c3.58-.79,6.81-2.3,9.22-4.3h-8.59v-2.19h10.45v-1.42h-7.99v-1.92h7.99v-1.29h-8.95v-2.08h5.69c-.3-.68-.49-1.01-1.09-2.02h-5.77v-2.13h3.91c-.66-1.45-1.23-2.38-1.97-3.26l2.68-.96c.77,.99,1.42,2.05,2.02,3.31l-2.33,.9h3.53v-4.6h2.74v4.6h2.08v-4.6h2.74v4.6h3.34l-2.33-.77c.74-1.2,1.42-2.57,1.83-3.64l2.95,.85c-.46,1.07-1.29,2.46-2.05,3.56h4.27v2.13h-6.02c-.38,.88-.66,1.42-1.04,2.02h5.88v2.08h-9.11v1.29h8.15v1.92h-8.15v1.42h10.62v2.19h-8.45c2.41,1.72,5.53,2.98,9,3.69l-1.92,2.82c-3.89-1.34-6.95-3.23-9.25-5.66v6.13h-3.01v-5.99Zm3.17-9.88c.36-.55,.63-1.07,1.04-2.02h-5.47c.36,.68,.6,1.23,.96,2.02h3.47Z"/><path class="cls-4" d="M145.67,283.93l-.55-2.87c.66,.16,1.34,.25,1.83,.25,.63,0,.85-.19,.85-.71v-5.17c-1.15,2.19-2.54,4.1-3.99,5.5l-1.4-2.87c2.08-1.56,3.94-3.91,5.17-6.59h-4.65v-2.63h6.05c-1.42-1.64-2.98-3.09-4.32-4.02l1.89-1.34,.08,.05c1.04,.77,1.12,.85,1.86,1.45,.68-.52,1.4-1.23,1.89-1.83h-6.57v-2.63h9l1.64,1.59c-1.18,1.5-2.68,3.09-4.19,4.43,.36,.3,.85,.77,1.12,1.04l-1.64,1.26h3.47l1.56,1.04-.11,.52c1.4-.33,2.95-1.01,4.19-1.89-.6-.52-1.29-1.26-1.94-2.16-.52,.82-1.07,1.5-1.61,2.11l-2.05-1.97c1.89-1.64,3.34-4.24,3.89-7l2.87,.74c-.25,.68-.44,1.15-.68,1.72h7.82v2.57h-2c-.47,1.37-1.18,2.63-2.16,3.83,1.42,.77,2.96,1.31,4.73,1.7l-1.4,2.65c-1.97-.6-3.86-1.48-5.31-2.46-1.34,1.12-3.04,2.02-4.95,2.65l-1.45-2.11c-.55,2.57-1.01,4.27-1.53,5.64l-2.35-.77c.52-1.2,1.01-2.87,1.23-4.19h-1.48v10.48c0,1.7-.49,2.22-2.19,2.22-.9,0-1.94-.08-2.63-.22Zm6.59-2.19c3.12-.71,5.14-2.38,5.94-4.95h-4.05v-2.63h4.35v-2.19h2.85v2.05h5.53c-.05,3.5-.36,6.84-.74,8.13-.41,1.34-1.15,1.83-2.82,1.83-.85,0-2-.08-2.82-.22l-.52-2.79c.82,.19,1.72,.3,2.49,.3,.68,0,.93-.16,1.09-.77,.14-.63,.36-2.41,.44-3.86h-2.93c-.66,3.64-3.09,6.37-6.81,7.61l-2-2.52Zm10.07-17.24h-3.8c.63,.88,1.45,1.72,2.22,2.3,.66-.71,1.18-1.45,1.59-2.3Z"/><path class="cls-4" d="M183.45,275.23v-.44c-2.54,1.26-3.72,2.35-3.72,3.36s1.09,1.67,3.99,1.67c1.92,0,4.76-.27,7.11-.77l.6,3.39c-2.27,.3-5.01,.49-7.52,.49-5.09,0-7.52-1.5-7.52-4.43,0-2.76,2.82-4.79,6.68-6.65-.3-.77-.9-1.15-1.78-1.15-1.2,0-2.49,.63-3.61,1.61-1.07,.9-1.67,1.59-2.82,3.09l-2.65-1.97c2.08-1.86,3.8-4.02,5.28-6.79-1.7,.11-3.28,.19-4.71,.25l-.3-3.23c2,0,4.19-.05,6.46-.19,.49-1.2,.93-2.49,1.37-3.91l3.2,.96c-.33,.9-.68,1.81-1.04,2.65,2.11-.22,4.24-.55,6.32-.98l.41,3.2c-2.46,.41-5.39,.74-8.32,.98-.38,.71-.77,1.37-1.2,2.05,.74-.3,1.5-.46,2.22-.46,2.05,0,3.42,.96,4.05,2.63,1.89-.82,3.89-1.67,5.94-2.49l1.26,3.06c-2.63,.85-4.82,1.64-6.65,2.38,.08,.74,.11,1.42,.11,2.05,0,1.07,0,1.75-.05,2.65h-3.26c.08-1.01,.16-2.13,.16-3.04Z"/></g><circle class="cls-5" cx="89.82" cy="296.39" r="4.84"/><circle class="cls-5" cx="123.17" cy="296.39" r="4.84"/><circle class="cls-5" cx="156.53" cy="296.39" r="4.84"/><g><path class="cls-4" d="M96.18,359.32l2.6-1.04c.68,1.15,1.42,2.9,2.13,5.01l-2.82,1.09c-.47-1.81-1.2-3.72-1.92-5.06Zm.93,5.31h4.79v-7.52h2.9v7.52h4.92v14.39c0,1.78-.68,2.41-2.63,2.41-.98,0-2-.05-3.01-.16l-.57-2.87c.93,.16,1.92,.27,2.63,.27,.6,0,.74-.14,.74-.74v-2.33h-6.92v6.13h-2.85v-17.1Zm9.77,4.43v-2.02h-6.92v2.02h6.92Zm0,4.35v-2.16h-6.92v2.16h6.92Zm-1.29-10.15c.9-1.53,1.7-3.45,2.19-5.25l2.85,.93c-.63,1.94-1.5,3.86-2.41,5.36l-2.63-1.04Zm6.35-3.17h2.85v15.16h-2.85v-15.16Zm1.12,21.18l-.55-2.96c1.18,.16,2.35,.27,3.37,.27,.79,0,.9-.11,.9-.88v-19.84h2.9v21.01c0,2.02-.63,2.6-2.85,2.6-1.09,0-2.52-.08-3.78-.22Z"/><path class="cls-4" d="M123.07,365.88l1.78-2.13c1.61,1.12,2.9,2.24,3.97,3.47l-1.92,2.43c-1.04-1.4-2.41-2.76-3.83-3.78Zm.05,13.71c1.23-2.24,2.13-4.65,3.34-8.75l2.33,1.78c-1.04,4.02-1.89,6.51-3.09,9.11l-2.57-2.13Zm.82-19.84l1.81-2.13c1.64,1.09,2.93,2.19,3.99,3.45l-1.92,2.35c-1.07-1.42-2.44-2.71-3.89-3.67Zm11.55,19.97c1.34-.9,2.54-1.94,3.53-3.09h-3.36v1.59h-2.08v-8.75h5.72v6.87c.49-.55,.96-1.15,1.61-2.08-.66-1.83-1.26-5.94-1.53-10.45h-6.46v4.9c.03,6.76-.74,10.29-2.82,13.1l-2.22-2.22c1.72-2.49,2.3-5.09,2.3-10.51v-7.91h9.06c-.08-1.78-.14-3.12-.14-4.08h2.82c0,.79,.03,2.71,.05,3.94h2.71c-.57-1.07-1.31-2.13-1.97-2.82l2.35-1.15c.77,.71,1.45,1.61,2.08,2.68l-2.16,1.29h2.46v2.63h-5.33c.08,2.3,.41,5.47,.74,7.06,.71-1.5,1.34-3.26,1.81-5.12l2.46,1.2c-1.09,3.28-2.08,5.64-3.26,7.63,.55,1.53,1.23,2.79,1.53,2.79,.22,0,.52-1.4,.74-3.64l2.24,1.53c-.52,4.16-1.37,6.18-2.6,6.18s-2.68-1.59-3.8-3.99c-1.2,1.64-2.79,3.23-4.51,4.51l-1.97-2.11Zm-1.92-14.14h5.66v2.41h-5.66v-2.41Zm3.64,8.7v-2.57h-1.56v2.57h1.56Z"/><path class="cls-4" d="M153.41,378.8c0-1.44,1.08-2.43,2.49-2.43,1.5,0,2.55,.99,2.55,2.43s-1.05,2.46-2.55,2.46c-1.41,0-2.49-.99-2.49-2.46Zm.33-19.47h4.23l-.3,15.57h-3.63l-.3-15.57Z"/></g><g><path class="cls-5" d="M101.95,334.11c0,7.33-5.44,12.47-13.36,12.47-5.93,0-9.92-1.5-13.16-5.24l3.34-3.54c2.79,3.19,5.68,4.59,9.72,4.59,5.34,0,8.43-3.29,8.43-7.88,0-3.89-2.49-7.43-7.73-7.43-4.09,0-6.68,1.4-8.93,3.69l-3.24-1.65,1.9-18.15h21.44l-.55,4.34h-16.71l-1.15,9.38c1.94-1.2,4.54-2.04,8.03-2.04,8.48,0,11.97,5.68,11.97,11.47Z"/><path class="cls-5" d="M106.84,328.52c0-11.82,5.68-18.05,13.66-18.05,8.63,0,13.71,6.23,13.71,18.05s-5.09,18.1-13.71,18.1-13.66-6.23-13.66-18.1Zm22.39,0c0-9.18-2.99-13.81-8.73-13.81-5.14,0-8.68,4.64-8.68,13.81s2.99,13.81,8.68,13.81,8.73-4.59,8.73-13.81Z"/><path class="cls-5" d="M137.71,320.89c0-7.08,3.64-10.67,9.03-10.67,5.68,0,9.03,3.59,9.03,10.67s-3.34,10.72-9.03,10.72-9.03-3.64-9.03-10.72Zm13.56,0c0-4.89-1.55-7.13-4.54-7.13-2.79,0-4.54,2.24-4.54,7.13s1.55,7.18,4.54,7.18,4.54-2.24,4.54-7.18Zm17.2-9.92h4.04l-21.74,35.26h-4.09l21.79-35.26Zm-4.09,24.78c0-7.03,3.64-10.67,9.03-10.67,5.69,0,8.98,3.64,8.98,10.67s-3.29,10.77-8.98,10.77-9.03-3.69-9.03-10.77Zm13.56,0c0-4.84-1.55-7.08-4.54-7.08-2.74,0-4.49,2.24-4.49,7.08s1.5,7.18,4.49,7.18,4.54-2.19,4.54-7.18Z"/></g></svg>