<?xml version="1.0" standalone="no"?>
<!DOCTYPE svg PUBLIC "-//W3C//DTD SVG 20010904//EN"
 "http://www.w3.org/TR/2001/REC-SVG-20010904/DTD/svg10.dtd">
<svg version="1.0" xmlns="http://www.w3.org/2000/svg"
 width="256.000000pt" height="256.000000pt" viewBox="0 0 256.000000 256.000000"
 preserveAspectRatio="xMidYMid meet">
<metadata>
Created by potrace 1.14, written by Peter Selinger 2001-2017
</metadata>
<g transform="translate(0.000000,256.000000) scale(0.100000,-0.100000)"
fill="#000000" stroke="none">
<path d="M1527 2545 c-95 -24 -167 -65 -238 -135 -74 -73 -132 -179 -149 -269
-6 -29 -10 -175 -10 -322 0 -268 0 -269 23 -282 17 -11 79 -13 287 -12 146 1
285 5 310 9 168 30 317 158 382 328 87 227 -7 496 -216 622 -32 19 -84 43
-114 51 -78 23 -205 28 -275 10z"/>
<path d="M470 2163 c-282 -35 -486 -274 -466 -546 17 -244 191 -439 428 -483
18 -3 154 -6 303 -6 257 0 270 1 285 20 14 17 16 55 14 293 -1 289 -3 311 -33
389 -43 112 -116 199 -224 263 -79 48 -223 80 -307 70z"/>
<path d="M1536 1408 c-20 -33 -15 -559 7 -633 27 -94 60 -149 132 -222 206
-208 523 -209 732 -3 65 65 118 159 139 247 26 112 3 267 -54 371 -38 68 -138
165 -208 200 -110 55 -150 61 -455 62 l-278 1 -15 -23z"/>
<path d="M850 1029 c-114 -12 -203 -55 -295 -140 -125 -117 -181 -294 -150
-474 10 -58 78 -195 117 -235 79 -83 177 -143 273 -167 50 -12 186 -11 236 2
152 40 285 146 347 277 47 99 52 145 52 442 0 242 -2 275 -16 287 -13 11 -70
14 -263 14 -135 0 -271 -3 -301 -6z"/>
</g>
</svg>
